<svg width="96" height="158" viewBox="0 0 96 158" fill="none" xmlns="http://www.w3.org/2000/svg">
<path opacity="0.3" d="M47.9962 157.75C70.0208 157.75 87.8753 155.284 87.8753 152.242C87.8753 149.2 70.0208 146.734 47.9962 146.734C25.9716 146.734 8.11719 149.2 8.11719 152.242C8.11719 155.284 25.9716 157.75 47.9962 157.75Z" fill="#1A1D63"/>
<path d="M79.2903 81.1012C79.076 78.8621 77.4406 77.0496 75.3089 76.7076C66.3119 75.2624 57.2144 74.5112 48.0989 74.4609H47.8937C38.7783 74.5112 29.6807 75.2624 20.6837 76.7076C18.552 77.0496 16.9166 78.8621 16.7023 81.1012C15.1259 97.6018 15.122 114.212 16.6906 130.713C16.9088 133.029 18.6469 134.877 20.863 135.135C29.9087 136.179 39.0083 136.703 48.1158 136.707C57.1457 136.704 66.1676 136.178 75.1349 135.131C77.3431 134.875 79.0851 133.024 79.3046 130.709C80.8726 114.209 80.8678 97.6004 79.2903 81.1012Z" fill="#F2F2F2"/>
<path opacity="0.4" d="M41.5749 131.198C45.8978 132.103 50.3652 132.103 54.6882 131.198V128.066H41.5684L41.5749 131.198Z" fill="#1A1D63"/>
<path opacity="0.3" d="M22.0805 120.095C19.7503 119.404 17.5899 118.247 15.735 116.694C15.6579 114.846 15.602 112.998 15.5674 111.151C15.9522 111.599 16.3607 112.027 16.791 112.432C18.27 113.825 19.9845 114.952 21.8571 115.763C21.9078 117.183 21.9831 118.632 22.0805 120.095Z" fill="#1A1D63"/>
<path opacity="0.3" d="M73.9106 120.095C76.2409 119.404 78.4013 118.247 80.2562 116.694C80.3333 114.846 80.3892 112.998 80.4238 111.151C80.0389 111.599 79.6305 112.027 79.2001 112.432C77.7211 113.825 76.0066 114.952 74.1341 115.763C74.0834 117.183 74.0081 118.632 73.9106 120.095Z" fill="#1A1D63"/>
<path d="M16.702 81.1012C16.9164 78.8621 18.5518 77.0496 20.6834 76.7076C29.6804 75.2624 38.778 74.5112 47.8934 74.4609H48.0987C57.2141 74.5112 66.3117 75.2624 75.3087 76.7076C77.4403 77.0496 79.0757 78.8621 79.2901 81.1012C80.8673 97.6017 80.8721 114.212 79.3044 130.713C79.0861 133.029 77.3481 134.877 75.132 135.135C66.0862 136.179 56.9866 136.703 47.8791 136.707V136.707C38.8493 136.704 29.8274 136.178 20.8601 135.131C18.6453 134.875 16.9086 133.024 16.6903 130.709C15.1215 114.209 15.1254 97.6005 16.702 81.1012V81.1012Z" stroke="#1A1D63" stroke-width="2" stroke-linecap="round" stroke-linejoin="round"/>
<path d="M80.4567 87.8119C72.5173 79.2721 66.2561 77.5646 60.8718 76.4541H35.1206C34.6876 76.5395 34.2468 76.6339 33.7982 76.7372L33.3488 76.8409C33.2526 76.8627 33.1552 76.8858 33.0591 76.9101C32.724 76.9908 32.3862 77.0766 32.0433 77.1663L31.7835 77.2393C31.6939 77.2636 31.6055 77.288 31.5159 77.3149L31.2769 77.3828C31.0872 77.4378 30.8976 77.4955 30.7066 77.557L30.4403 77.6415C30.0731 77.7593 29.7012 77.8874 29.3245 78.0258L29.0439 78.1308C28.9504 78.1654 28.8569 78.2025 28.762 78.2397C28.5308 78.3293 28.2974 78.4241 28.0619 78.524C27.9696 78.5625 27.8761 78.6022 27.7839 78.6432C27.6306 78.7098 27.4773 78.7713 27.3227 78.8481C27.1357 78.9339 26.946 79.0223 26.7564 79.1145C26.6512 79.1645 26.5446 79.217 26.4381 79.2708L26.1407 79.4207L25.8601 79.5667L25.5392 79.7383L25.2937 79.8664L25.0664 79.9945C24.9911 80.0368 24.9144 80.0804 24.8391 80.1226L23.9584 80.6516L23.6986 80.8169L23.479 80.959C23.3881 81.0167 23.2985 81.0756 23.2075 81.1371L22.7035 81.4778L22.4178 81.6776L22.0943 81.9082L21.789 82.1311L21.5292 82.3232L21.1941 82.5794C21.0824 82.6652 20.9707 82.7536 20.859 82.842C20.7473 82.9304 20.6368 83.0175 20.5251 83.1084L20.1796 83.3902C19.951 83.5785 19.7223 83.7745 19.4911 83.9717C19.3755 84.0704 19.2599 84.1716 19.1443 84.274L19.0871 84.324C18.9226 84.47 18.7568 84.619 18.5896 84.771C18.4234 84.9222 18.2571 85.0784 18.0882 85.236L16.6216 86.6757C16.3865 86.9165 16.1475 87.1638 15.9085 87.4161L15.8981 87.4263L15.537 87.8106C12.6498 91.2397 11.1757 95.614 11.4075 100.065C11.6582 104.733 13.0663 108.984 16.7217 112.428C18.2007 113.821 19.9152 114.948 21.7877 115.759C21.8943 118.449 22.0683 121.235 22.3294 124.032C22.3996 124.786 22.4762 125.541 22.5593 126.295C22.6009 126.674 22.6442 127.051 22.6892 127.427C22.7568 127.991 22.8278 128.555 22.9023 129.119C22.9508 129.477 23.0001 129.835 23.0504 130.193C23.0517 130.21 23.0543 130.227 23.0582 130.243C23.137 130.804 23.2214 131.363 23.3115 131.919C23.34 132.104 23.3699 132.289 23.4011 132.473C23.4323 132.658 23.4608 132.842 23.4933 133.027C23.5258 133.211 23.557 133.396 23.5894 133.579C23.6219 133.762 23.6544 133.945 23.6882 134.128C23.7869 134.676 23.8921 135.222 24.0012 135.761C24.0376 135.942 24.074 136.121 24.1116 136.301C24.4104 137.735 24.7416 139.138 25.1093 140.498C24.1541 140.878 23.257 141.388 22.4437 142.011C21.7187 142.56 21.228 143.356 21.0681 144.244C20.8356 145.572 20.7854 146.924 20.9187 148.266C20.9929 149.01 21.3288 149.704 21.868 150.23C22.4073 150.755 23.116 151.078 23.8713 151.142C28.5321 151.561 33.2224 151.55 37.881 151.108C38.531 151.047 39.1449 150.784 39.6348 150.359C40.1247 149.933 40.4656 149.365 40.6088 148.737C41.3824 145.328 41.9218 141.871 42.2235 138.39C42.495 134.821 42.569 131.37 42.4989 128.005C42.7387 128.074 42.9791 128.138 43.2198 128.198C43.4328 128.251 43.6454 128.3 43.8576 128.345C45.1976 128.635 46.5646 128.786 47.9364 128.797H48.0663C49.9072 128.781 51.7369 128.515 53.5039 128.005C53.4338 131.37 53.5039 134.821 53.7793 138.39C54.081 141.871 54.6204 145.328 55.394 148.737C55.5372 149.365 55.8781 149.933 56.368 150.359C56.8579 150.784 57.4718 151.047 58.1218 151.108C62.7804 151.55 67.4707 151.561 72.1315 151.142C72.8868 151.078 73.5955 150.755 74.1348 150.23C74.674 149.704 75.0099 149.01 75.0841 148.266C75.2174 146.924 75.1672 145.572 74.9347 144.244C74.7748 143.356 74.2841 142.56 73.5591 142.011C72.7472 141.391 71.8524 140.885 70.9 140.507C72.9589 132.884 73.8981 123.898 74.2203 115.768C76.0927 114.957 77.8072 113.83 79.2863 112.437C82.9417 108.993 84.3524 104.742 84.6005 100.074C84.8304 95.6185 83.351 91.2409 80.4567 87.8119Z" fill="white"/>
<path d="M25.1025 140.501C27.8551 139.414 30.0699 139.85 30.0699 139.85L25.1025 140.501Z" fill="white"/>
<path d="M43.2139 128.191C43.4256 128.244 43.6386 128.294 43.8517 128.339C45.1914 128.63 46.5585 128.782 47.9305 128.792" fill="white"/>
<path d="M23.0432 130.196C22.9912 129.839 22.9419 129.481 22.8951 129.122C22.8198 128.56 22.7488 127.996 22.6821 127.43C22.6371 127.053 22.5938 126.676 22.5522 126.299C22.4656 125.544 22.3889 124.79 22.3223 124.035" fill="white"/>
<path d="M21.7821 115.761C21.66 112.711 21.6263 109.782 21.6522 107.091L21.7821 115.761Z" fill="white"/>
<path d="M23.6812 134.132C23.6475 133.95 23.6137 133.766 23.5825 133.582L23.6812 134.132Z" fill="white"/>
<path opacity="0.3" d="M61.882 122.755C51.6797 125.915 45.6822 125.829 34.1524 122.701C34.1371 122.693 34.1205 122.688 34.1033 122.687C34.0862 122.686 34.069 122.688 34.0527 122.693C34.0363 122.698 34.0212 122.706 34.0081 122.717C33.995 122.728 33.9842 122.741 33.9764 122.757C33.9685 122.772 33.9638 122.788 33.9624 122.805C33.9609 122.822 33.9629 122.839 33.9682 122.855C33.9734 122.871 33.9818 122.886 33.9929 122.899C34.004 122.912 34.0176 122.922 34.0329 122.93C43.1596 129.765 52.4786 129.93 62.0041 122.984C62.0349 122.968 62.058 122.94 62.0684 122.908C62.0788 122.875 62.0755 122.839 62.0593 122.809C62.0431 122.779 62.0153 122.756 61.9821 122.746C61.9488 122.735 61.9128 122.739 61.882 122.755Z" fill="#1A1D63"/>
<path opacity="0.3" d="M72.4817 127.098C73.2689 117.794 72.6467 108.73 70.5333 103.052C70.4947 102.941 70.4962 102.82 70.5374 102.709C70.5786 102.599 70.657 102.506 70.7595 102.446C70.862 102.386 70.9823 102.362 71.1003 102.379C71.2183 102.397 71.3268 102.453 71.4075 102.54C72.7825 104.106 73.9113 105.867 74.7563 107.763C75.1798 107.799 72.9065 127.141 72.4817 127.098Z" fill="#1A1D63"/>
<path opacity="0.3" d="M62.9991 123.903C62.9991 123.903 61.0948 128.963 53.5386 131.429L53.5632 128C56.8354 126.938 59.9955 125.566 62.9991 123.903Z" fill="#1A1D63"/>
<path opacity="0.3" d="M32.9927 123.903C32.9927 123.903 34.897 128.963 42.4532 131.429L42.4286 128C39.1564 126.938 35.9963 125.566 32.9927 123.903Z" fill="#1A1D63"/>
<path opacity="0.3" d="M75.0734 148.259C74.9992 149.003 74.6634 149.698 74.1241 150.224C73.5848 150.749 72.8761 151.072 72.1208 151.136C67.46 151.555 62.7698 151.543 58.1112 151.101C57.4611 151.04 56.8473 150.778 56.3574 150.352C55.8675 149.926 55.5266 149.359 55.3833 148.731C54.6098 145.321 54.0703 141.864 53.7687 138.383C53.592 136.051 53.4985 133.772 53.4751 131.525L53.5089 131.545C54.5649 137.114 55.7171 142.48 57.7838 146.069C58.2866 146.944 59.5154 147.776 60.5273 147.908C63.9917 148.36 67.473 148.421 71.2453 147.863C72.4708 147.685 73.6271 147.191 74.598 146.433C74.7786 146.29 74.9513 146.141 75.1176 145.986C75.1587 146.743 75.144 147.503 75.0734 148.259Z" fill="#1A1D63"/>
<path opacity="0.3" d="M20.9184 148.259C20.9926 149.003 21.3285 149.698 21.8678 150.224C22.407 150.749 23.1157 151.072 23.871 151.136C28.5318 151.555 33.2221 151.543 37.8807 151.101C38.5307 151.04 39.1446 150.778 39.6345 150.352C40.1244 149.926 40.4653 149.359 40.6086 148.731C41.3821 145.321 41.9215 141.864 42.2232 138.383C42.3999 136.051 42.4934 133.772 42.5168 131.525L42.483 131.545C41.4269 137.114 40.2747 142.48 38.208 146.069C37.7053 146.944 36.4765 147.776 35.4645 147.908C32.0001 148.36 28.5188 148.421 24.7466 147.863C23.521 147.685 22.3648 147.191 21.3939 146.433C21.2133 146.29 21.0405 146.141 20.8743 145.986C20.8331 146.743 20.8479 147.503 20.9184 148.259Z" fill="#1A1D63"/>
<path d="M48.0607 128.792C46.1761 128.788 44.3017 128.521 42.4932 127.998C42.5633 131.363 42.4932 134.814 42.2178 138.382C41.9161 141.863 41.3767 145.32 40.6032 148.73C40.4599 149.358 40.119 149.925 39.6291 150.351C39.1392 150.777 38.5254 151.039 37.8753 151.1C33.2167 151.542 28.5264 151.554 23.8656 151.135C23.1103 151.071 22.4016 150.748 21.8624 150.222C21.3231 149.697 20.9872 149.002 20.913 148.258C20.7797 146.917 20.8299 145.564 21.0624 144.236C21.2251 143.35 21.7176 142.556 22.4432 142.01C23.2551 141.39 24.1499 140.884 25.1023 140.506C27.8548 139.419 30.0696 139.855 30.0696 139.855" stroke="#1A1D63" stroke-width="2" stroke-linecap="round" stroke-linejoin="round"/>
<path d="M25.1025 140.501C22.2707 130.018 21.5562 116.954 21.6523 107.091" stroke="#1A1D63" stroke-width="2" stroke-linecap="round" stroke-linejoin="round"/>
<path d="M24.5242 102.19C27.1638 102.77 30.2398 102.894 33.8834 102.446C34.7009 102.356 35.5252 102.344 36.345 102.409H36.3606C41.654 102.83 44.2949 108.831 41.037 113.049C40.8485 113.302 40.6305 113.532 40.3875 113.735C39.5419 114.444 37.9805 115.304 36.9374 115.665C36.1675 115.933 35.4015 116.186 34.6395 116.423C28.3679 118.377 21.4716 116.909 16.7134 112.427C13.058 108.982 11.6473 104.731 11.3992 100.063C11.1674 95.6123 12.6415 91.2381 15.5287 87.809C23.4668 79.2692 29.728 77.5617 35.1123 76.4512" fill="white"/>
<path d="M22.9148 99.8694C22.9148 99.8796 22.9148 99.8899 22.9213 99.9001C23.0668 100.533 23.4005 101.109 23.8797 101.554C24.3589 102 24.9618 102.294 25.6115 102.399C28.0003 102.794 30.7334 102.835 33.8834 102.448C34.7009 102.358 35.5252 102.346 36.345 102.411H36.3606C41.654 102.832 44.2949 108.833 41.037 113.051C40.8485 113.304 40.6305 113.534 40.3875 113.736C39.5419 114.446 37.9805 115.306 36.9374 115.667C36.1675 115.935 35.4015 116.188 34.6395 116.425C28.3679 118.378 21.4716 116.911 16.7134 112.429C13.058 108.984 11.6473 104.733 11.3992 100.065C11.1674 95.6143 12.6415 91.24 15.5287 87.8109V87.8109C23.4668 79.2711 29.728 77.5637 35.1123 76.4531" stroke="#1A1D63" stroke-width="2" stroke-linecap="round" stroke-linejoin="round"/>
<path d="M29.0952 102.711C25.1168 107.578 25.5611 112.416 30.428 117.222" stroke="#1A1D63" stroke-width="2" stroke-linecap="round" stroke-linejoin="round"/>
<path d="M47.9312 128.792C49.8157 128.788 51.6901 128.521 53.4986 127.998C53.4285 131.363 53.4986 134.814 53.774 138.382C54.0757 141.863 54.6151 145.32 55.3887 148.73C55.5319 149.358 55.8728 149.925 56.3627 150.351C56.8526 150.777 57.4665 151.039 58.1166 151.1C62.7751 151.542 67.4654 151.554 72.1262 151.135C72.8815 151.071 73.5902 150.748 74.1294 150.222C74.6687 149.697 75.0046 149.002 75.0788 148.258C75.2121 146.917 75.1619 145.564 74.9294 144.236C74.7695 143.349 74.2788 142.552 73.5538 142.003C72.7419 141.384 71.8471 140.878 70.8947 140.5C68.1422 139.412 65.9274 139.849 65.9274 139.849" stroke="#1A1D63" stroke-width="2" stroke-linecap="round" stroke-linejoin="round"/>
<path d="M70.8892 140.501C73.721 130.018 74.4354 116.954 74.3393 107.091" stroke="#1A1D63" stroke-width="2" stroke-linecap="round" stroke-linejoin="round"/>
<path d="M71.4672 102.19C68.829 102.77 65.7517 102.894 62.1145 102.446C61.2949 102.356 60.4684 102.343 59.6464 102.409H59.6308C54.3374 102.83 51.6966 108.831 54.9544 113.049C55.1426 113.302 55.3606 113.532 55.6039 113.735C56.4483 114.444 58.0097 115.304 59.0528 115.665C59.8226 115.933 60.5886 116.186 61.3507 116.423C67.6235 118.377 74.5186 116.909 79.2768 112.427C82.9321 108.982 84.3428 104.731 84.5909 100.063C84.8232 95.6125 83.3496 91.2382 80.4627 87.809C72.5233 79.2692 66.2622 77.5617 60.8779 76.4512" fill="white"/>
<path d="M73.0767 99.8684C73.0773 99.8786 73.0773 99.8889 73.0767 99.8991C72.9316 100.532 72.5982 101.108 72.1192 101.553C71.6401 101.999 71.0373 102.293 70.3878 102.398C67.9976 102.793 65.2645 102.834 62.1145 102.447C61.2949 102.357 60.4684 102.344 59.6464 102.41H59.6308C54.3374 102.831 51.6966 108.832 54.9544 113.05C55.1426 113.303 55.3606 113.533 55.6039 113.735C56.4483 114.445 58.0097 115.305 59.0528 115.666C59.8226 115.934 60.5886 116.187 61.3507 116.424C67.6235 118.378 74.5186 116.91 79.2768 112.428C82.9321 108.983 84.3428 104.732 84.5909 100.064C84.8232 95.6135 83.3496 91.2392 80.4627 87.8099V87.8099C72.5233 79.2701 66.2622 77.5627 60.8779 76.4521" stroke="#1A1D63" stroke-width="2" stroke-linecap="round" stroke-linejoin="round"/>
<path d="M66.8962 102.711C70.8755 107.578 70.4312 112.416 65.5635 117.222" stroke="#1A1D63" stroke-width="2" stroke-linecap="round" stroke-linejoin="round"/>
<path d="M33.9136 123.558C43.346 130.365 52.778 130.365 62.2095 123.558" stroke="#1A1D63" stroke-width="2" stroke-linecap="round" stroke-linejoin="round"/>
<path d="M23.3774 132.377C29.6284 133.851 36.1008 134.181 42.4726 133.35" stroke="#1A1D63" stroke-width="2" stroke-linecap="round" stroke-linejoin="round"/>
<path d="M53.5142 133.352C59.8861 134.182 66.3584 133.851 72.6093 132.377" stroke="#1A1D63" stroke-width="2" stroke-linecap="round" stroke-linejoin="round"/>
<path opacity="0.3" d="M72.4173 80.8207C56.1799 88.8477 39.9425 88.8477 23.7051 80.8207C27.9918 78.0898 31.7316 77.1535 35.1219 76.4541H61.003C64.3921 77.1535 68.1306 78.0937 72.4173 80.8207Z" fill="#1A1D63"/>
<path opacity="0.3" d="M14.6479 110.077C15.2637 110.925 15.9596 111.712 16.7263 112.43C21.4819 116.913 28.3783 118.38 34.6524 116.425C35.4136 116.189 36.1787 115.936 36.9477 115.668C37.9869 115.307 39.5522 114.448 40.3979 113.738C40.6409 113.535 40.8588 113.305 41.0474 113.053C41.5791 112.372 41.9757 111.598 42.2165 110.773C31.8609 115.102 22.4341 115.822 14.6479 110.077Z" fill="#1A1D63"/>
<path opacity="0.3" d="M81.3436 110.077C80.7278 110.925 80.0319 111.712 79.2652 112.43C74.5109 116.913 67.6132 118.38 61.3391 116.425C60.5779 116.189 59.8132 115.936 59.0451 115.668C58.0059 115.307 56.4393 114.448 55.595 113.738C55.3517 113.536 55.1336 113.306 54.9455 113.053C54.4142 112.372 54.0176 111.598 53.7764 110.773C64.1319 115.102 73.5587 115.822 81.3436 110.077Z" fill="#1A1D63"/>
<path opacity="0.3" d="M59.9467 115.973C59.8454 116.503 59.7428 117.035 59.6492 117.567C59.5194 118.335 58.3801 118.931 57.6007 119.045C51.2921 119.977 44.8779 119.977 38.5692 119.045C37.8028 118.932 36.6714 118.354 36.5259 117.605C36.4181 117.048 36.3012 116.489 36.1895 115.931C36.4402 115.848 36.6922 115.76 36.9442 115.675L37.1338 115.605C37.1637 115.681 37.1984 115.755 37.2377 115.826C37.2595 115.866 37.2834 115.906 37.3092 115.944C37.3352 115.982 37.3624 116.019 37.3897 116.056C37.4467 116.128 37.5083 116.195 37.5742 116.259C37.847 116.517 38.1948 116.686 38.5692 116.74C39.3659 116.856 40.1622 116.959 40.9581 117.046C41.3573 117.092 41.7552 117.132 42.1518 117.167C42.7494 117.222 43.346 117.269 43.9418 117.307L44.6862 117.35C45.1824 117.377 45.6799 117.397 46.1761 117.412L46.9204 117.429C47.7128 117.445 48.5056 117.445 49.2989 117.429L49.7379 117.419C49.8847 117.419 50.0315 117.419 50.1783 117.406L50.6187 117.391L51.0577 117.373L51.6436 117.344H51.7098C52.0917 117.323 52.4728 117.299 52.8529 117.271C53.2335 117.244 53.6141 117.212 53.9947 117.177L54.1052 117.167C54.4602 117.134 54.8148 117.098 55.169 117.059C55.9813 116.974 56.7923 116.87 57.602 116.748C57.8731 116.708 58.1316 116.608 58.3581 116.456L58.4477 116.391C58.4854 116.362 58.5204 116.333 58.5542 116.302L58.6049 116.255C58.7785 116.087 58.9164 115.887 59.0102 115.666L59.0517 115.681C59.3505 115.778 59.6488 115.875 59.9467 115.973Z" fill="#1A1D63"/>
<path d="M41.0569 112.831C41.0093 112.783 40.9639 112.735 40.9206 112.685L40.8413 112.593L40.9218 112.685C40.9647 112.735 41.0102 112.784 41.0569 112.831Z" fill="white"/>
<path d="M59.0101 115.653C58.9163 115.875 58.7785 116.075 58.6048 116.243L58.5542 116.29C58.5191 116.321 58.484 116.35 58.4476 116.378L58.358 116.444C58.1316 116.596 57.8731 116.696 57.602 116.736C56.7914 116.855 55.9804 116.958 55.169 117.047C54.8139 117.086 54.4593 117.121 54.1051 117.155L53.9947 117.165C53.6137 117.199 53.2331 117.23 52.8529 117.258C52.4723 117.285 52.0904 117.311 51.7098 117.331H51.6435L51.0577 117.361L50.6186 117.379L50.1783 117.394L49.7379 117.407L49.2989 117.417C48.5065 117.432 47.7136 117.432 46.9204 117.417L46.1761 117.399C45.6799 117.384 45.1823 117.364 44.6861 117.338L43.9418 117.294C43.346 117.256 42.7493 117.209 42.1518 117.155C41.7543 117.119 41.3568 117.078 40.958 117.034C40.163 116.949 39.3668 116.847 38.5692 116.728C38.1948 116.674 37.8469 116.505 37.5741 116.247C37.5083 116.183 37.4467 116.116 37.3897 116.044C37.3624 116.007 37.3351 115.97 37.3091 115.931C37.2832 115.893 37.2598 115.853 37.2377 115.814C37.1984 115.742 37.1637 115.669 37.1338 115.593C37.6437 115.394 38.1393 115.162 38.6172 114.896C39.2452 114.564 39.8402 114.174 40.3943 113.732C40.6372 113.53 40.8552 113.3 41.0438 113.047L41.149 112.909C41.2022 112.837 41.2529 112.765 41.3022 112.692C41.478 112.434 41.636 112.165 41.7751 111.886C42.4906 110.462 42.6608 108.83 42.2544 107.292C41.8696 105.802 40.9661 104.493 39.7019 103.594C45.2304 103.85 50.7589 103.853 56.2874 103.604C54.8699 104.62 53.9147 106.144 53.6284 107.849C53.5175 108.484 53.503 109.131 53.5855 109.77C53.6563 110.339 53.8021 110.895 54.0194 111.426C54.2568 112.008 54.5727 112.554 54.9586 113.052C55.0326 113.147 55.0989 113.229 55.1638 113.308C55.2989 113.465 55.4471 113.61 55.6068 113.742C56.4394 114.439 57.9683 115.286 59.0101 115.653Z" fill="white"/>
<path d="M59.0101 115.653C58.9163 115.875 58.7785 116.075 58.6048 116.243L58.5542 116.29C58.5191 116.321 58.484 116.35 58.4476 116.378L58.358 116.444C58.1316 116.596 57.8731 116.696 57.602 116.736C56.7914 116.855 55.9804 116.958 55.169 117.047C54.8139 117.086 54.4593 117.121 54.1051 117.155L53.9947 117.165C53.6137 117.199 53.2331 117.23 52.8529 117.258C52.4723 117.285 52.0904 117.311 51.7098 117.331H51.6435L51.0577 117.361L50.6186 117.379L50.1783 117.394L49.7379 117.407L49.2989 117.417C48.5065 117.432 47.7136 117.432 46.9204 117.417L46.1761 117.399C45.6799 117.384 45.1823 117.364 44.6861 117.338L43.9418 117.294C43.346 117.256 42.7493 117.209 42.1518 117.155C41.7543 117.119 41.3568 117.078 40.958 117.034C40.163 116.949 39.3668 116.847 38.5692 116.728C38.1948 116.674 37.8469 116.505 37.5741 116.247C37.5083 116.183 37.4467 116.116 37.3897 116.044C37.3624 116.007 37.3351 115.97 37.3091 115.931C37.2832 115.893 37.2598 115.853 37.2377 115.814C37.1984 115.742 37.1637 115.669 37.1338 115.593C37.6437 115.394 38.1393 115.162 38.6172 114.896C39.2452 114.564 39.8402 114.174 40.3943 113.732C40.6372 113.53 40.8552 113.3 41.0438 113.047L41.149 112.909C41.2022 112.837 41.2529 112.765 41.3023 112.692C41.478 112.434 41.636 112.165 41.7751 111.886C42.4906 110.462 42.6608 108.83 42.2544 107.292C41.8696 105.802 40.9661 104.493 39.7019 103.594C45.2304 103.85 50.7589 103.853 56.2874 103.604C54.8699 104.62 53.9147 106.144 53.6284 107.849C53.5175 108.484 53.503 109.131 53.5855 109.77C53.6563 110.339 53.8021 110.895 54.0194 111.426C54.2568 112.008 54.5727 112.554 54.9586 113.052C55.0326 113.147 55.0989 113.229 55.1638 113.308C55.2989 113.465 55.4471 113.61 55.6067 113.742C56.4394 114.439 57.9683 115.286 59.0101 115.653Z" stroke="#1A1D63" stroke-width="2" stroke-linecap="round" stroke-linejoin="round"/>
<path d="M46.957 110.454C46.9567 111.354 46.5939 112.218 45.9484 112.854C45.3029 113.491 44.4276 113.848 43.5147 113.849C43.4614 113.849 43.4069 113.849 43.3549 113.849C43.3251 113.849 43.2952 113.849 43.2653 113.849L43.1679 113.841C43.1606 113.842 43.1531 113.842 43.1458 113.841C43.099 113.841 43.0536 113.832 43.0068 113.824L42.9535 113.815C42.9199 113.811 42.8865 113.805 42.8535 113.797L42.7847 113.785L42.6652 113.757H42.6483C42.6084 113.748 42.5689 113.737 42.5301 113.724C42.508 113.724 42.4872 113.712 42.4651 113.705C42.401 113.686 42.3387 113.665 42.2781 113.64C42.1553 113.594 42.0356 113.54 41.9195 113.48C41.8152 113.426 41.7137 113.367 41.6156 113.303L41.5467 113.257L41.4844 113.213L41.3896 113.142C41.3506 113.111 41.3116 113.08 41.2739 113.048L41.1635 112.951L41.144 112.933C41.1973 112.861 41.248 112.789 41.2973 112.716C41.4731 112.459 41.631 112.189 41.7702 111.911C42.4857 110.486 42.6559 108.855 42.2495 107.316C42.8693 107.075 43.5468 107.016 44.1998 107.147C44.8528 107.278 45.4532 107.593 45.9282 108.054C45.9672 108.092 46.0062 108.132 46.0438 108.172C46.0815 108.211 46.1192 108.254 46.1543 108.3C46.1893 108.346 46.2439 108.406 46.2842 108.463C46.3088 108.495 46.3335 108.528 46.3556 108.562C46.4189 108.653 46.4775 108.747 46.531 108.843C46.5582 108.892 46.5842 108.942 46.6089 108.992C46.6336 109.041 46.657 109.091 46.679 109.143C46.7011 109.194 46.7219 109.246 46.7414 109.298C46.7609 109.349 46.7804 109.404 46.7973 109.458C46.8141 109.512 46.8297 109.565 46.8453 109.62C46.8928 109.799 46.9246 109.982 46.9401 110.166C46.9514 110.253 46.957 110.349 46.957 110.454Z" fill="#6CCFF9"/>
<path opacity="0.4" d="M46.957 110.454C46.9567 111.354 46.5939 112.217 45.9484 112.854C45.3029 113.49 44.4276 113.848 43.5147 113.849C43.4614 113.849 43.4069 113.849 43.3549 113.849C43.3251 113.849 43.2952 113.849 43.2653 113.849L43.1679 113.841C43.1606 113.842 43.1531 113.842 43.1458 113.841C43.099 113.841 43.0536 113.832 43.0068 113.824L42.9535 113.815C42.9199 113.811 42.8865 113.805 42.8535 113.797L42.7847 113.784L42.6652 113.756H42.6483C42.6084 113.748 42.5689 113.737 42.5301 113.724C42.508 113.724 42.4872 113.711 42.4651 113.705C42.401 113.686 42.3387 113.665 42.2781 113.64C42.1553 113.594 42.0356 113.54 41.9195 113.48C41.8152 113.426 41.7137 113.367 41.6156 113.303L41.5467 113.257L41.4844 113.213L41.3896 113.141C41.3506 113.111 41.3116 113.08 41.2739 113.048L41.1635 112.951L41.144 112.933C41.1973 112.861 41.248 112.789 41.2973 112.716C41.4731 112.458 41.631 112.189 41.7702 111.911C42.0195 111.966 42.2744 111.994 42.5301 111.994C42.9822 111.994 43.4299 111.906 43.8476 111.736C44.2653 111.565 44.6449 111.315 44.9645 111C45.2842 110.685 45.5378 110.31 45.7107 109.899C45.8836 109.487 45.9726 109.045 45.9724 108.599C45.9724 108.551 45.9724 108.503 45.9724 108.456C45.9658 108.321 45.9519 108.187 45.9308 108.054C45.9698 108.092 46.0088 108.132 46.0464 108.172C46.0841 108.211 46.1218 108.254 46.1569 108.3C46.1919 108.346 46.2452 108.406 46.2868 108.462C46.3114 108.494 46.3361 108.528 46.3595 108.562C46.4228 108.653 46.4814 108.746 46.5349 108.843C46.5621 108.891 46.5881 108.941 46.6128 108.991C46.6375 109.041 46.6609 109.091 46.6829 109.142C46.705 109.194 46.7258 109.246 46.7453 109.297C46.7648 109.349 46.7843 109.404 46.8012 109.458C46.818 109.511 46.8336 109.565 46.8492 109.62C46.8967 109.799 46.9285 109.982 46.944 110.166C46.9527 110.253 46.957 110.349 46.957 110.454Z" fill="#1A1D63"/>
<path d="M46.957 110.454C46.9567 111.354 46.5939 112.218 45.9484 112.854C45.3029 113.491 44.4276 113.848 43.5147 113.849C43.4614 113.849 43.4069 113.849 43.3549 113.849C43.3251 113.849 43.2952 113.849 43.2653 113.849L43.1679 113.841C43.1606 113.842 43.1531 113.842 43.1458 113.841C43.099 113.841 43.0536 113.832 43.0068 113.824L42.9535 113.815C42.9199 113.811 42.8865 113.805 42.8535 113.797L42.7847 113.785L42.6652 113.757H42.6483C42.6084 113.748 42.5689 113.737 42.5301 113.724C42.508 113.724 42.4872 113.712 42.4651 113.705C42.401 113.686 42.3387 113.665 42.2781 113.64C42.1553 113.594 42.0356 113.54 41.9195 113.48C41.8152 113.426 41.7137 113.367 41.6156 113.303L41.5467 113.257L41.4844 113.213L41.3896 113.142C41.3506 113.111 41.3116 113.08 41.2739 113.048L41.1635 112.951L41.144 112.933C41.1973 112.861 41.248 112.789 41.2973 112.716C41.4731 112.459 41.631 112.189 41.7702 111.911C42.4857 110.486 42.6559 108.855 42.2495 107.316C42.8693 107.075 43.5468 107.016 44.1998 107.147C44.8528 107.278 45.4532 107.593 45.9282 108.054C45.9672 108.092 46.0062 108.132 46.0438 108.172C46.0815 108.211 46.1192 108.254 46.1543 108.3C46.1893 108.346 46.2439 108.406 46.2842 108.463C46.3088 108.495 46.3335 108.528 46.3556 108.562C46.4189 108.653 46.4775 108.747 46.531 108.843C46.5582 108.892 46.5842 108.942 46.6089 108.992C46.6336 109.041 46.657 109.091 46.679 109.143C46.7011 109.194 46.7219 109.246 46.7414 109.298C46.7609 109.349 46.7804 109.404 46.7973 109.458C46.8141 109.512 46.8297 109.565 46.8453 109.62C46.8928 109.799 46.9246 109.982 46.9401 110.166C46.9514 110.253 46.957 110.349 46.957 110.454Z" stroke="#1A1D63" stroke-width="2" stroke-linecap="round" stroke-linejoin="round"/>
<path d="M53.5815 109.771C52.6332 109.801 51.542 109.83 50.6743 109.843H50.6639C50.4862 109.843 50.3157 109.773 50.19 109.649C50.0643 109.525 49.9937 109.357 49.9937 109.182V108.58C49.9943 108.406 50.0644 108.239 50.1889 108.115C50.3133 107.991 50.4821 107.921 50.6587 107.919C51.6421 107.91 52.6332 107.889 53.6243 107.857C53.5142 108.49 53.4998 109.135 53.5815 109.771Z" fill="#1A1D63"/>
<path d="M55.1583 113.305C54.1646 113.342 52.1121 113.41 50.6729 113.433H50.6625C50.4847 113.433 50.3142 113.364 50.1885 113.24C50.0628 113.116 49.9922 112.948 49.9922 112.772V112.168C49.9929 111.994 50.063 111.827 50.1874 111.703C50.3119 111.579 50.4806 111.509 50.6573 111.507C51.7692 111.497 52.8941 111.472 54.0139 111.433C54.2513 112.014 54.5672 112.56 54.953 113.058C55.0271 113.149 55.0933 113.231 55.1583 113.305Z" fill="#1A1D63"/>
<path opacity="0.3" d="M36.7804 118.105C31.9858 121.108 24.262 120.325 22.0056 120.014L21.994 119.84C21.9056 118.465 21.8355 117.102 21.7822 115.764C25.8451 117.517 30.416 117.753 34.6422 116.427C35.1541 116.268 35.6685 116.101 36.1855 115.926C36.2972 116.485 36.4141 117.043 36.5219 117.601C36.5547 117.754 36.6207 117.899 36.7154 118.024C36.7352 118.053 36.7569 118.08 36.7804 118.105Z" fill="#1A1D63"/>
<path opacity="0.3" d="M59.2114 118.105C64.006 121.108 71.7298 120.325 73.9862 120.014L73.9979 119.84C74.0862 118.465 74.1563 117.102 74.2096 115.764C70.1467 117.517 65.5758 117.753 61.3496 116.427C60.8378 116.268 60.3234 116.101 59.8064 115.926C59.6947 116.485 59.5777 117.043 59.4699 117.601C59.4372 117.754 59.3711 117.899 59.2764 118.024C59.2566 118.053 59.2349 118.08 59.2114 118.105Z" fill="#1A1D63"/>
<path d="M47.9961 1C25.4339 1 7.19086 19.0364 7.14279 41.2845C7.07785 71.3858 21.6266 80.9926 47.9961 80.9286C74.3656 80.9926 88.9143 71.3858 88.8494 41.2845C88.8013 19.0364 70.5583 1 47.9961 1Z" fill="white"/>
<path d="M58.2992 2.29371C51.5415 0.568764 44.4497 0.568764 37.692 2.29371L36.1748 13.631C43.8817 11.3237 52.1096 11.3237 59.8165 13.631L58.2992 2.29371Z" stroke="#1A1D63" stroke-width="2" stroke-linecap="round" stroke-linejoin="round"/>
<path d="M47.9956 11.9004C43.9937 11.9425 40.0165 12.5248 36.1748 13.6309L37.3972 17.1431C44.3362 15.2781 51.655 15.2781 58.5941 17.1431L59.8165 13.6309C55.9747 12.5248 51.9975 11.9425 47.9956 11.9004V11.9004Z" stroke="#1A1D63" stroke-width="2" stroke-linecap="round" stroke-linejoin="round"/>
<path d="M47.9961 1C25.4339 1 7.19086 19.0364 7.14279 41.2845C7.07785 71.3858 21.6266 80.9926 47.9961 80.9286C74.3656 80.9926 88.9143 71.3858 88.8494 41.2845C88.8013 19.0364 70.5583 1 47.9961 1Z" stroke="#1A1D63" stroke-width="2" stroke-linecap="round" stroke-linejoin="round"/>
<path d="M88.8494 41.2842C88.8598 46.2695 88.4701 50.6937 87.6907 54.6056C87.2177 56.9312 86.1277 59.0914 84.5319 60.8662C82.9361 62.6409 80.8916 63.9666 78.6068 64.7081C58.1997 71.4047 37.7929 71.4047 17.3866 64.7081C15.0816 63.9517 13.0224 62.6038 11.4204 60.8029C9.81853 59.002 8.7317 56.813 8.27161 54.4609C7.513 50.5861 7.13239 46.2118 7.14279 41.2893V41.2253C7.15512 39.3557 7.57302 37.5103 8.36839 35.8131C9.16377 34.1159 10.3182 32.6062 11.7542 31.3853C35.8765 10.7627 59.9979 10.5279 84.1184 30.6808C85.5596 31.8854 86.7254 33.3776 87.5391 35.0589C88.3528 36.7402 88.7958 38.5725 88.839 40.4349C88.8455 40.7129 88.8494 40.9985 88.8494 41.2842Z" fill="#080A28"/>
<path opacity="0.75" d="M15.0304 48.5729C14.9812 48.9624 14.8359 49.334 14.6072 49.6551C14.3784 49.9763 14.0732 50.2371 13.7184 50.4148C13.0221 50.7632 12.1778 50.8196 11.5868 49.6463C10.8242 48.1348 10.8411 46.3621 10.845 44.6367V44.5637C10.845 44.158 10.8645 43.7537 10.9035 43.3506C11.3373 38.7163 13.0793 35.1605 18.0882 31.4561C21.7098 28.7778 24.1467 26.891 28.0476 25.6754C31.2158 24.6878 32.5746 27.0844 30.0701 29.2056C20.7849 37.5776 18.7364 38.9635 15.6864 46.152C15.3579 46.9261 15.1372 47.7404 15.0304 48.5729Z" fill="white"/>
<path d="M88.8492 41.2839C88.8596 46.2705 88.4699 50.6934 87.6905 54.6053C87.2177 56.931 86.1279 59.0914 84.5321 60.8661C82.9362 62.6409 80.8916 63.9665 78.6067 64.7078C58.1995 71.4053 37.7928 71.4053 17.3865 64.7078C14.7923 63.8575 12.5164 62.2597 10.8525 60.1209C34.3058 63.8022 56.9382 65.1779 73.89 58.3469C80.0395 55.8683 84.3729 50.2579 85.0354 43.7445C85.503 39.1409 85.0354 34.481 83.3103 30.0234C83.5779 30.2429 83.8464 30.4645 84.1157 30.6882C85.5566 31.8918 86.7226 33.3828 87.5367 35.0629C88.3508 36.7431 88.7946 38.5743 88.8388 40.4359C88.8458 40.716 88.8492 40.9987 88.8492 41.2839Z" fill="black"/>
<path d="M88.8494 41.2842C88.8598 46.2695 88.4701 50.6937 87.6907 54.6056C87.2177 56.9312 86.1277 59.0914 84.5319 60.8662C82.9361 62.6409 80.8916 63.9666 78.6068 64.7081C58.1997 71.4047 37.7929 71.4047 17.3866 64.7081C15.0816 63.9517 13.0224 62.6038 11.4204 60.8029C9.81853 59.002 8.7317 56.813 8.27161 54.4609C7.513 50.5861 7.13239 46.2118 7.14279 41.2893V41.2253C7.15512 39.3557 7.57302 37.5103 8.36839 35.8131C9.16377 34.1159 10.3182 32.6062 11.7542 31.3853C35.8765 10.7627 59.9979 10.5279 84.1184 30.6808C85.5596 31.8854 86.7254 33.3776 87.5391 35.0589C88.3528 36.7402 88.7958 38.5725 88.839 40.4349C88.8455 40.7129 88.8494 40.9985 88.8494 41.2842Z" stroke="#1A1D63" stroke-width="2" stroke-linecap="round" stroke-linejoin="round"/>
<path opacity="0.2" d="M7.14404 41.1331C7.16097 37.4503 7.68848 33.7872 8.71193 30.2454C34.8121 6.07891 60.9115 5.78003 87.01 29.3487C88.1318 32.9155 88.7464 36.6184 88.8364 40.3517C88.7826 38.5023 88.3345 36.6847 87.5212 35.0174C86.7079 33.35 85.5476 31.8703 84.1158 30.6745C59.9944 10.5215 35.873 10.7559 11.7516 31.3777C10.327 32.5895 9.17964 34.0857 8.38535 35.7674C7.59106 37.4492 7.16796 39.278 7.14404 41.1331Z" fill="#1A1D63"/>
<path d="M8.71191 30.2493C34.8121 6.08282 60.9115 5.78394 87.01 29.3526" stroke="#1A1D63" stroke-width="2" stroke-linecap="round" stroke-linejoin="round"/>
<path d="M94.3179 55.4686C94.2758 55.8088 94.1615 56.1364 93.9824 56.4302C93.8034 56.7239 93.5636 56.9772 93.2787 57.1735C91.1769 58.6017 88.7803 59.6956 86.103 60.4757C87.9372 55.2893 88.8699 48.9475 88.853 41.2838C88.8475 36.7785 88.0779 32.3057 86.5759 28.0508C89.026 28.7374 91.3229 29.8733 93.3462 31.3991C93.61 31.5996 93.8303 31.8504 93.9941 32.1364C94.1579 32.4224 94.2618 32.7379 94.2997 33.0643C95.2271 40.9393 95.2332 48.4074 94.3179 55.4686Z" fill="white"/>
<path d="M9.89261 60.4757C7.21538 59.6956 4.81874 58.6017 2.71698 57.1735C2.43205 56.9772 2.19226 56.7239 2.01321 56.4302C1.83416 56.1364 1.71987 55.8088 1.67778 55.4686C0.767622 48.4057 0.77412 40.9376 1.69727 33.0643C1.73517 32.7379 1.83908 32.4224 2.00286 32.1364C2.16663 31.8504 2.38693 31.5996 2.65073 31.3991C4.67249 29.8739 6.96757 28.738 9.41588 28.0508C7.9152 32.306 7.14686 36.7787 7.14264 41.2838C7.12576 48.9513 8.05843 55.2931 9.89261 60.4757Z" fill="white"/>
<path opacity="0.3" d="M94.8569 49.6572C94.7444 51.6213 94.5647 53.5593 94.3179 55.4713C94.2758 55.8115 94.1615 56.1391 93.9824 56.4329C93.8034 56.7266 93.5636 56.9799 93.2787 57.1762C91.1769 58.6044 88.7803 59.6983 86.103 60.4783C86.7174 58.7238 87.2142 56.9314 87.5904 55.1126C90.5045 54.0394 93.0324 52.1416 94.8569 49.6572Z" fill="#1A1D63"/>
<path opacity="0.3" d="M1.13477 49.6572C1.24821 51.6213 1.42791 53.5593 1.67385 55.4713C1.71593 55.8115 1.83022 56.1391 2.00927 56.4329C2.18832 56.7266 2.42812 56.9799 2.71304 57.1762C4.81481 58.6044 7.21145 59.6983 9.88867 60.4783C9.27433 58.7238 8.77748 56.9314 8.40133 55.1126C5.48718 54.0394 2.9593 52.1416 1.13477 49.6572Z" fill="#1A1D63"/>
<path d="M94.3179 55.4686C94.2758 55.8088 94.1615 56.1364 93.9824 56.4302C93.8034 56.7239 93.5636 56.9772 93.2787 57.1735C91.1769 58.6017 88.7803 59.6956 86.103 60.4757C87.9372 55.2893 88.8699 48.9475 88.853 41.2838C88.8475 36.7785 88.0779 32.3057 86.5759 28.0508C89.026 28.7374 91.3229 29.8733 93.3462 31.3991C93.61 31.5996 93.8303 31.8504 93.9941 32.1364C94.1579 32.4224 94.2618 32.7379 94.2997 33.0643C95.2271 40.9393 95.2332 48.4074 94.3179 55.4686Z" stroke="#1A1D63" stroke-width="2" stroke-linecap="round" stroke-linejoin="round"/>
<path d="M9.89261 60.4757C7.21538 59.6956 4.81874 58.6017 2.71698 57.1735C2.43205 56.9772 2.19226 56.7239 2.01321 56.4302C1.83416 56.1364 1.71987 55.8088 1.67778 55.4686C0.767622 48.4057 0.77412 40.9376 1.69727 33.0643C1.73517 32.7379 1.83908 32.4224 2.00286 32.1364C2.16663 31.8504 2.38693 31.5996 2.65073 31.3991C4.67249 29.8739 6.96757 28.738 9.41588 28.0508C7.9152 32.306 7.14686 36.7787 7.14264 41.2838C7.12576 48.9513 8.05843 55.2931 9.89261 60.4757Z" stroke="#1A1D63" stroke-width="2" stroke-linecap="round" stroke-linejoin="round"/>
<path opacity="0.2" d="M87.6455 54.8264C86.8285 58.842 85.597 62.312 83.9642 65.2901C82.6068 66.4289 81.0417 67.3023 79.3528 67.8635C58.4918 74.7932 37.6309 74.7932 16.7699 67.8635C14.9701 67.2657 13.3136 66.3106 11.9026 65.057C10.3126 62.0942 9.11366 58.6525 8.31738 54.6816C8.8089 56.9887 9.90491 59.1284 11.4962 60.8877C13.0875 62.647 15.1185 63.9643 17.3869 64.7086C37.7932 71.406 58.2 71.406 78.6071 64.7086C80.8552 63.9788 82.8714 62.6835 84.4565 60.9504C86.0416 59.2173 87.1408 57.1065 87.6455 54.8264Z" fill="#1A1D63"/>
<path d="M11.9023 65.0586C13.3133 66.3122 14.9698 67.2673 16.7697 67.8651C37.6315 74.7939 58.4924 74.7939 79.3525 67.8651C81.0415 67.3039 82.6065 66.4306 83.9639 65.2917" stroke="#1A1D63" stroke-width="2" stroke-linecap="round" stroke-linejoin="round"/>
<path d="M40.0554 88.2138V103.872C39.007 103.02 37.7161 102.51 36.3611 102.413H36.3455C35.5257 102.348 34.7014 102.36 33.8839 102.45C32.699 102.598 31.5071 102.686 30.313 102.714V88.2138C30.313 88.1844 30.313 88.1537 30.313 88.1242C30.3362 87.7323 30.5106 87.3639 30.8005 87.0948C31.0903 86.8257 31.4736 86.6761 31.8718 86.6768H38.4966C38.9101 86.6768 39.3065 86.8387 39.5989 87.127C39.8912 87.4152 40.0554 87.8062 40.0554 88.2138Z" fill="#ED1C24"/>
<path d="M62.5264 116.837C60.9076 119.217 58.7166 121.164 56.149 122.505C53.5814 123.846 50.717 124.539 47.8115 124.523C41.7841 124.488 36.4985 121.428 33.355 116.821C33.555 116.755 33.7564 116.693 33.9577 116.622H33.9733C34.1985 116.562 34.4219 116.497 34.6436 116.428C35.4048 116.191 36.1708 115.938 36.9415 115.669C37.9807 115.308 39.546 114.449 40.3916 113.739C40.6346 113.536 40.8526 113.306 41.0411 113.054C41.3141 112.701 41.5529 112.323 41.7543 111.926C42.4906 112.867 43.4374 113.626 44.5207 114.145C45.604 114.665 46.7944 114.93 47.999 114.921C49.2035 114.911 50.3895 114.627 51.4644 114.091C52.5392 113.555 53.4736 112.781 54.1947 111.829C54.4047 112.262 54.6598 112.673 54.9559 113.054C55.1441 113.307 55.3621 113.537 55.6054 113.739C56.4498 114.449 58.0112 115.308 59.0542 115.669C59.5557 115.843 60.0571 116.013 60.5546 116.173H60.5715L60.7559 116.239C61.3465 116.449 61.9367 116.649 62.5264 116.837Z" fill="#ED1C24"/>
<path d="M65.5155 88.2139V102.707C64.4374 102.68 63.3016 102.595 62.1083 102.451C61.2887 102.361 60.4622 102.348 59.6402 102.414H59.6246C58.1962 102.516 56.8411 103.076 55.7666 104.01V88.2139C55.7666 87.8062 55.9308 87.4152 56.2232 87.127C56.5155 86.8387 56.912 86.6768 57.3254 86.6768H63.9503C64.1555 86.6759 64.3589 86.7151 64.5488 86.7919C64.7387 86.8688 64.9113 86.9819 65.0567 87.1247C65.2021 87.2675 65.3175 87.4373 65.3963 87.6242C65.475 87.8111 65.5155 88.0115 65.5155 88.2139Z" fill="#ED1C24"/>
<path opacity="0.3" d="M62.5264 116.838C60.9076 119.217 58.7166 121.164 56.149 122.505C53.5814 123.846 50.717 124.539 47.8115 124.523C41.7841 124.488 36.4985 121.428 33.355 116.821C33.9291 116.636 34.5063 116.442 35.0865 116.241C35.2164 116.193 35.3684 116.137 35.5204 116.074C38.8584 119.266 43.3227 121.055 47.9724 121.065C52.6222 121.075 57.094 119.304 60.4455 116.125C60.5507 116.168 60.6546 116.206 60.752 116.241C61.3452 116.45 61.9367 116.649 62.5264 116.838Z" fill="#1A1D63"/>
<path d="M31.8718 86.6768H38.4966C38.9101 86.6768 39.3065 86.8387 39.5989 87.127C39.8912 87.4152 40.0554 87.8062 40.0554 88.2138V94.8746H30.313V88.2138C30.313 87.8062 30.4772 87.4152 30.7695 87.127C31.0619 86.8387 31.4584 86.6768 31.8718 86.6768Z" fill="#E6E6E6"/>
<path d="M65.5154 88.2138V94.8746H55.7729V88.2138C55.7729 87.8062 55.9372 87.4152 56.2295 87.127C56.5218 86.8387 56.9183 86.6768 57.3317 86.6768H63.9566C64.37 86.6768 64.7665 86.8387 65.0588 87.127C65.3512 87.4152 65.5154 87.8062 65.5154 88.2138Z" fill="#E6E6E6"/>
<path d="M30.3774 88.2138V88.7262H40.0549V88.2138C40.0549 87.8062 39.8907 87.4152 39.5984 87.127C39.306 86.8387 38.9096 86.6768 38.4961 86.6768H31.9362C31.5228 86.6768 31.1263 86.8387 30.834 87.127C30.5417 87.4152 30.3774 87.8062 30.3774 88.2138Z" fill="white"/>
<path d="M55.8379 88.2138V88.7262H65.5154V88.2138C65.5154 87.8062 65.3511 87.4152 65.0588 87.127C64.7665 86.8387 64.37 86.6768 63.9566 86.6768H57.3967C56.9833 86.6768 56.5868 86.8387 56.2945 87.127C56.0021 87.4152 55.8379 87.8062 55.8379 88.2138Z" fill="white"/>
<path d="M40.0554 88.2138V103.872C39.007 103.02 37.7161 102.51 36.3611 102.413H36.3455C35.5257 102.348 34.7014 102.36 33.8839 102.45C32.699 102.598 31.5071 102.686 30.313 102.714V88.2138C30.313 88.1844 30.313 88.1537 30.313 88.1242C30.3362 87.7323 30.5106 87.3639 30.8005 87.0948C31.0903 86.8257 31.4736 86.6761 31.8718 86.6768H38.4966C38.9101 86.6768 39.3065 86.8387 39.5989 87.127C39.8912 87.4152 40.0554 87.8062 40.0554 88.2138V88.2138Z" stroke="#1A1D63" stroke-width="2" stroke-linecap="round" stroke-linejoin="round"/>
<path d="M62.5264 116.837C60.9076 119.217 58.7166 121.164 56.149 122.505C53.5814 123.846 50.717 124.539 47.8115 124.523C41.7841 124.488 36.4985 121.428 33.355 116.821C33.555 116.755 33.7564 116.693 33.9577 116.622H33.9733C34.1985 116.562 34.4219 116.497 34.6436 116.428C35.4048 116.191 36.1708 115.938 36.9415 115.669C37.9807 115.308 39.546 114.449 40.3916 113.739C40.6346 113.536 40.8526 113.306 41.0411 113.054C41.3141 112.701 41.5529 112.323 41.7543 111.926C42.4906 112.867 43.4374 113.626 44.5207 114.145C45.604 114.665 46.7944 114.93 47.999 114.921C49.2035 114.911 50.3896 114.627 51.4644 114.091C52.5392 113.555 53.4736 112.781 54.1947 111.829C54.4047 112.262 54.6598 112.673 54.9559 113.054C55.1441 113.307 55.3621 113.537 55.6054 113.739C56.4498 114.449 58.0112 115.308 59.0542 115.669C59.5557 115.843 60.0571 116.013 60.5546 116.173H60.5715L60.7559 116.239C61.3465 116.449 61.9367 116.649 62.5264 116.837Z" stroke="#1A1D63" stroke-width="2" stroke-linecap="round" stroke-linejoin="round"/>
<path d="M65.5155 88.2139V102.707C64.4374 102.68 63.3016 102.595 62.1083 102.451C61.2887 102.361 60.4622 102.348 59.6402 102.414H59.6246C58.1962 102.516 56.8411 103.076 55.7666 104.01V88.2139C55.7666 87.8062 55.9308 87.4152 56.2232 87.127C56.5155 86.8387 56.912 86.6768 57.3254 86.6768H63.9503C64.1555 86.6759 64.3589 86.7151 64.5488 86.7919C64.7387 86.8688 64.9113 86.9819 65.0567 87.1247C65.2021 87.2675 65.3175 87.4373 65.3963 87.6242C65.475 87.8111 65.5155 88.0115 65.5155 88.2139Z" stroke="#1A1D63" stroke-width="2" stroke-linecap="round" stroke-linejoin="round"/>
</svg>
