<svg width="181" height="301" viewBox="0 0 181 301" fill="none" xmlns="http://www.w3.org/2000/svg">
<path opacity="0.3" d="M93.4999 300.214C141.649 300.214 180.681 295.565 180.681 289.83C180.681 284.095 141.649 279.445 93.4999 279.445C45.3508 279.445 6.31836 284.095 6.31836 289.83C6.31836 295.565 45.3508 300.214 93.4999 300.214Z" fill="#1A1D63"/>
<path d="M147.68 148.708C147.281 144.486 144.241 141.069 140.278 140.424C123.551 137.7 106.638 136.283 89.6909 136.188H89.3094C72.3626 136.283 55.4489 137.7 38.7224 140.424C34.7593 141.069 31.7189 144.486 31.3204 148.708C28.3901 179.816 28.3828 211.131 31.2987 242.241C31.7044 246.607 34.9356 250.092 39.0556 250.577C55.8729 252.545 72.7903 253.534 89.7223 253.541C106.51 253.535 123.283 252.544 139.954 250.57C144.06 250.087 147.298 246.597 147.706 242.234C150.621 211.126 150.612 179.814 147.68 148.708Z" fill="#F2F2F2"/>
<path opacity="0.4" d="M77.5629 243.154C85.5998 244.86 93.9054 244.86 101.942 243.154V237.249H77.5508L77.5629 243.154Z" fill="#1A1D63"/>
<path opacity="0.3" d="M41.3207 222.221C36.9885 220.919 32.972 218.736 29.5235 215.809C29.3802 212.325 29.2763 208.842 29.2119 205.359C29.9274 206.204 30.6868 207.01 31.4869 207.774C34.2365 210.4 37.424 212.525 40.9054 214.053C40.9995 216.732 41.1396 219.468 41.3207 222.221Z" fill="#1A1D63"/>
<path opacity="0.3" d="M137.679 222.221C142.011 220.919 146.028 218.736 149.476 215.809C149.62 212.325 149.724 208.842 149.788 205.359C149.073 206.204 148.313 207.01 147.513 207.774C144.763 210.4 141.576 212.525 138.095 214.053C138 216.732 137.86 219.468 137.679 222.221Z" fill="#1A1D63"/>
<path d="M31.3201 148.708C31.7185 144.486 34.759 141.069 38.722 140.424C55.4486 137.7 72.3622 136.283 89.3091 136.188H89.6906C106.637 136.283 123.551 137.7 140.278 140.424C144.241 141.069 147.281 144.486 147.68 148.708C150.612 179.818 150.621 211.134 147.706 242.246C147.3 246.612 144.069 250.097 139.949 250.582C123.132 252.55 106.214 253.539 89.2825 253.545V253.545C72.4947 253.54 55.7218 252.548 39.0505 250.575C34.9329 250.092 31.7041 246.602 31.2983 242.238C28.3816 211.129 28.3889 179.815 31.3201 148.708V148.708Z" stroke="#1A1D63" stroke-width="3" stroke-linecap="round" stroke-linejoin="round"/>
<path d="M149.848 161.355C135.088 145.254 123.448 142.035 113.438 139.941H65.5626C64.7576 140.102 63.9381 140.28 63.1041 140.475L62.2685 140.671C62.0898 140.712 61.9087 140.755 61.73 140.801C61.1069 140.953 60.479 141.115 59.8414 141.284L59.3584 141.422C59.1918 141.468 59.0276 141.514 58.8609 141.564L58.4166 141.692C58.064 141.796 57.7114 141.905 57.3564 142.021L56.8613 142.18C56.1787 142.402 55.4872 142.644 54.7868 142.905L54.2652 143.103C54.0913 143.168 53.9174 143.238 53.7411 143.308C53.3113 143.477 52.8774 143.656 52.4394 143.844C52.268 143.916 52.0941 143.991 51.9227 144.069C51.6377 144.194 51.3527 144.31 51.0653 144.455C50.7176 144.617 50.365 144.783 50.0124 144.957C49.8168 145.052 49.6187 145.151 49.4207 145.252L48.8677 145.535L48.3364 145.81L47.7399 146.133L47.2834 146.375L46.8608 146.616C46.7207 146.696 46.5783 146.778 46.4382 146.858L44.8008 147.855L44.3178 148.167L43.9048 148.466C43.7358 148.575 43.5692 148.686 43.4001 148.802L42.4631 149.444L41.9318 149.821L41.3305 150.256L40.7629 150.676L40.2799 151.038L39.6569 151.521C39.4492 151.683 39.2415 151.85 39.0338 152.004C38.8261 152.159 38.6208 152.335 38.4131 152.507L37.7707 153.038C37.3457 153.393 36.9207 153.762 36.4908 154.134C36.2759 154.32 36.0609 154.511 35.846 154.704L35.7397 154.798C35.4338 155.074 35.1255 155.355 34.8148 155.641C34.5057 155.926 34.1965 156.221 33.8826 156.518L31.1657 159.211C30.7286 159.665 30.2842 160.131 29.8399 160.607L29.8206 160.626L29.1492 161.35C23.7844 167.815 21.0458 176.06 21.4767 184.45C21.9428 193.25 24.5607 201.266 31.3565 207.759C34.1062 210.385 37.2936 212.51 40.775 214.038C40.973 219.11 41.2966 224.363 41.7821 229.637C41.9125 231.059 42.055 232.481 42.2095 233.904C42.2868 234.617 42.3673 235.328 42.451 236.037C42.5766 237.101 42.7086 238.164 42.8471 239.227C42.9372 239.903 43.029 240.578 43.1224 241.253C43.1249 241.285 43.1297 241.316 43.1369 241.347C43.2834 242.405 43.4404 243.458 43.6078 244.506C43.6609 244.856 43.7165 245.204 43.7744 245.552C43.8324 245.9 43.8855 246.247 43.9459 246.595C44.0063 246.943 44.0642 247.291 44.1246 247.636C44.185 247.981 44.2454 248.327 44.3081 248.672C44.4917 249.706 44.6873 250.734 44.8902 251.751C44.9578 252.092 45.0254 252.43 45.0954 252.768C45.6509 255.473 46.2667 258.117 46.9502 260.682C45.1796 261.395 43.516 262.349 42.0067 263.517C40.6587 264.552 39.7464 266.053 39.4492 267.726C39.017 270.23 38.9235 272.781 39.1714 275.309C39.3094 276.712 39.9338 278.022 40.9364 279.013C41.9389 280.004 43.2565 280.612 44.6607 280.733C53.3258 281.523 62.0456 281.501 70.7065 280.668C71.9151 280.553 73.0563 280.058 73.9671 279.256C74.8779 278.453 75.5117 277.383 75.778 276.198C77.2161 269.77 78.219 263.253 78.7799 256.69C79.2846 249.962 79.4222 243.456 79.2918 237.111C79.7378 237.24 80.1846 237.361 80.6322 237.474C81.0282 237.573 81.4235 237.666 81.8179 237.751C84.3091 238.298 86.8506 238.584 89.401 238.604H89.6425C93.0648 238.573 96.4666 238.071 99.7517 237.111C99.6213 243.456 99.7517 249.962 100.264 256.69C100.825 263.253 101.827 269.77 103.266 276.198C103.532 277.383 104.166 278.453 105.076 279.256C105.987 280.058 107.128 280.553 108.337 280.668C116.998 281.501 125.718 281.523 134.383 280.733C135.787 280.612 137.105 280.004 138.107 279.013C139.11 278.022 139.734 276.712 139.872 275.309C140.12 272.781 140.027 270.23 139.594 267.726C139.297 266.053 138.385 264.552 137.037 263.517C135.528 262.349 133.864 261.395 132.093 260.682C135.921 246.31 137.667 229.366 138.266 214.038C141.747 212.51 144.935 210.385 147.685 207.759C154.48 201.266 157.103 193.25 157.564 184.45C157.982 176.056 155.228 167.812 149.848 161.355Z" fill="white"/>
<path d="M46.938 260.694C52.0554 258.644 56.1729 259.467 56.1729 259.467L46.938 260.694Z" fill="white"/>
<path d="M80.6104 237.485C81.004 237.584 81.4001 237.679 81.7961 237.763C84.2868 238.313 86.8285 238.6 89.3792 238.618" fill="white"/>
<path d="M43.1099 241.266C43.0133 240.593 42.9215 239.917 42.8346 239.239C42.6945 238.18 42.5625 237.117 42.4385 236.049C42.3548 235.339 42.2743 234.628 42.197 233.917C42.036 232.495 41.8935 231.073 41.7695 229.649" fill="white"/>
<path d="M40.765 214.05C40.538 208.3 40.4752 202.777 40.5235 197.703L40.765 214.05Z" fill="white"/>
<path d="M44.2958 248.688C44.2331 248.345 44.1703 248 44.1123 247.652L44.2958 248.688Z" fill="white"/>
<path opacity="0.3" d="M115.316 227.237C96.3484 233.195 85.1983 233.033 63.7628 227.135C63.7055 227.106 63.6388 227.1 63.5774 227.12C63.5161 227.14 63.465 227.183 63.4356 227.24C63.4061 227.298 63.4006 227.364 63.4203 227.426C63.44 227.487 63.4833 227.538 63.5406 227.568C80.5084 240.454 97.8336 240.766 115.543 227.669C115.6 227.639 115.643 227.587 115.662 227.525C115.682 227.464 115.676 227.397 115.645 227.339C115.615 227.282 115.564 227.239 115.502 227.22C115.44 227.201 115.373 227.207 115.316 227.237Z" fill="#1A1D63"/>
<path opacity="0.3" d="M135.022 235.426C136.486 217.883 135.329 200.794 131.4 190.089C131.328 189.879 131.331 189.651 131.408 189.443C131.484 189.235 131.63 189.059 131.821 188.946C132.011 188.833 132.235 188.789 132.454 188.821C132.674 188.853 132.875 188.96 133.025 189.123C135.582 192.076 137.68 195.395 139.251 198.971C140.038 199.039 135.812 235.505 135.022 235.426Z" fill="#1A1D63"/>
<path opacity="0.3" d="M117.393 229.4C117.393 229.4 113.853 238.94 99.8047 243.589L99.8506 237.124C105.934 235.122 111.809 232.536 117.393 229.4Z" fill="#1A1D63"/>
<path opacity="0.3" d="M61.6064 229.4C61.6064 229.4 65.1468 238.94 79.1949 243.589L79.149 237.124C73.0656 235.122 67.1906 232.536 61.6064 229.4Z" fill="#1A1D63"/>
<path opacity="0.3" d="M139.84 275.321C139.702 276.724 139.078 278.034 138.075 279.025C137.073 280.015 135.755 280.624 134.351 280.745C125.686 281.535 116.966 281.513 108.305 280.68C107.097 280.564 105.955 280.07 105.045 279.267C104.134 278.464 103.5 277.394 103.234 276.21C101.796 269.782 100.793 263.264 100.232 256.701C99.9034 252.304 99.7295 248.007 99.686 243.771L99.7488 243.808C101.712 254.308 103.854 264.425 107.697 271.191C108.631 272.841 110.916 274.411 112.797 274.659C119.238 275.512 125.71 275.625 132.723 274.575C135.002 274.238 137.151 273.308 138.956 271.877C139.292 271.609 139.613 271.327 139.922 271.034C139.999 272.463 139.971 273.896 139.84 275.321Z" fill="#1A1D63"/>
<path opacity="0.3" d="M39.159 275.321C39.297 276.724 39.9213 278.034 40.9239 279.025C41.9265 280.015 43.2441 280.624 44.6483 280.745C53.3133 281.535 62.0331 281.513 70.6941 280.68C71.9026 280.564 73.0438 280.07 73.9546 279.267C74.8654 278.464 75.4992 277.394 75.7656 276.21C77.2036 269.782 78.2065 263.264 78.7674 256.701C79.0958 252.304 79.2697 248.007 79.3132 243.771L79.2504 243.808C77.287 254.308 75.1449 264.425 71.3026 271.191C70.368 272.841 68.0834 274.411 66.2022 274.659C59.7614 275.512 53.2892 275.625 46.276 274.575C43.9937 274.238 41.8405 273.306 40.0332 271.872C39.6975 271.604 39.3763 271.322 39.0672 271.03C38.9937 272.46 39.0244 273.895 39.159 275.321Z" fill="#1A1D63"/>
<path d="M89.6204 238.62C86.1168 238.612 82.6319 238.108 79.2697 237.123C79.4001 243.467 79.2697 249.973 78.7577 256.701C78.1973 263.268 77.1944 269.788 75.7559 276.219C75.4896 277.404 74.8557 278.474 73.945 279.277C73.0342 280.08 71.893 280.574 70.6844 280.69C62.0234 281.523 53.3036 281.544 44.6386 280.755C43.2344 280.634 41.9168 280.025 40.9142 279.034C39.9117 278.044 39.2873 276.733 39.1493 275.331C38.9014 272.802 38.9948 270.251 39.427 267.748C39.7243 266.075 40.6366 264.573 41.9845 263.538C43.4939 262.37 45.1574 261.416 46.928 260.703C52.0454 258.653 56.163 259.476 56.163 259.476" stroke="#1A1D63" stroke-width="3" stroke-linecap="round" stroke-linejoin="round"/>
<path d="M46.938 260.694C41.6733 240.929 40.345 216.299 40.5237 197.703" stroke="#1A1D63" stroke-width="3" stroke-linecap="round" stroke-linejoin="round"/>
<path d="M45.8632 188.464C50.7705 189.558 56.4892 189.792 63.2633 188.947C64.783 188.777 66.3155 188.754 67.8397 188.876H67.8687C77.7098 189.671 82.6195 200.985 76.5627 208.938C76.2122 209.414 75.8069 209.848 75.3552 210.23C73.783 211.568 70.8802 213.188 68.9409 213.869C67.5097 214.375 66.0856 214.851 64.6688 215.299C53.0092 218.982 40.188 216.214 31.3418 207.764C24.546 201.27 21.9233 193.255 21.462 184.455C21.0312 176.063 23.7716 167.815 29.1393 161.35C43.8974 145.25 55.5377 142.03 65.5479 139.937" fill="white"/>
<path d="M42.871 184.088C42.871 184.107 42.871 184.127 42.8831 184.146C43.1536 185.34 43.774 186.426 44.6649 187.265C45.5558 188.104 46.6768 188.659 47.8846 188.858C52.3257 189.602 57.4069 189.679 63.2633 188.949C64.783 188.78 66.3155 188.757 67.8397 188.879H67.8687C77.7098 189.674 82.6195 200.988 76.5627 208.941C76.2122 209.417 75.8069 209.851 75.3552 210.233C73.783 211.571 70.8802 213.191 68.9409 213.872C67.5097 214.378 66.0856 214.854 64.6688 215.302C53.0092 218.985 40.188 216.217 31.3418 207.767C24.546 201.273 21.9233 193.258 21.462 184.458C21.0312 176.066 23.7716 167.818 29.1393 161.353V161.353C43.8974 145.252 55.5377 142.033 65.5479 139.939" stroke="#1A1D63" stroke-width="3" stroke-linecap="round" stroke-linejoin="round"/>
<path d="M54.3616 189.446C46.9653 198.623 47.7912 207.743 56.8394 216.806" stroke="#1A1D63" stroke-width="3" stroke-linecap="round" stroke-linejoin="round"/>
<path d="M89.3789 238.62C92.8825 238.612 96.3674 238.108 99.7296 237.123C99.5992 243.467 99.7296 249.973 100.242 256.701C100.802 263.264 101.805 269.782 103.243 276.21C103.51 277.394 104.144 278.464 105.054 279.267C105.965 280.07 107.106 280.564 108.315 280.68C116.976 281.513 125.696 281.535 134.361 280.745C135.765 280.624 137.082 280.015 138.085 279.025C139.088 278.034 139.712 276.724 139.85 275.321C140.098 272.792 140.004 270.242 139.572 267.738C139.275 266.065 138.363 264.563 137.015 263.529C135.505 262.36 133.842 261.406 132.071 260.693C126.954 258.643 122.836 259.467 122.836 259.467" stroke="#1A1D63" stroke-width="3" stroke-linecap="round" stroke-linejoin="round"/>
<path d="M132.062 260.694C137.327 240.929 138.655 216.299 138.476 197.703" stroke="#1A1D63" stroke-width="3" stroke-linecap="round" stroke-linejoin="round"/>
<path d="M133.136 188.464C128.231 189.558 122.51 189.792 115.748 188.947C114.225 188.776 112.688 188.753 111.16 188.876H111.131C101.29 189.671 96.38 200.985 102.437 208.938C102.787 209.415 103.192 209.849 103.644 210.23C105.214 211.568 108.117 213.188 110.056 213.869C111.487 214.375 112.912 214.851 114.328 215.299C125.99 218.982 138.809 216.214 147.655 207.764C154.451 201.27 157.074 193.255 157.535 184.455C157.967 176.063 155.227 167.816 149.86 161.35C135.1 145.25 123.459 142.03 113.449 139.937" fill="white"/>
<path d="M136.129 184.087C136.13 184.106 136.13 184.126 136.129 184.145C135.859 185.339 135.239 186.425 134.348 187.264C133.458 188.103 132.337 188.658 131.129 188.857C126.686 189.601 121.605 189.678 115.748 188.948C114.225 188.778 112.688 188.755 111.16 188.878H111.131C101.29 189.673 96.38 200.987 102.437 208.94C102.787 209.417 103.192 209.851 103.644 210.232C105.214 211.57 108.117 213.19 110.056 213.871C111.487 214.377 112.912 214.853 114.328 215.301C125.99 218.984 138.809 216.216 147.655 207.766C154.451 201.272 157.074 193.257 157.535 184.457C157.967 176.065 155.227 167.818 149.86 161.352V161.352C135.1 145.251 123.459 142.032 113.449 139.938" stroke="#1A1D63" stroke-width="3" stroke-linecap="round" stroke-linejoin="round"/>
<path d="M124.638 189.446C132.036 198.623 131.21 207.743 122.16 216.806" stroke="#1A1D63" stroke-width="3" stroke-linecap="round" stroke-linejoin="round"/>
<path d="M63.3188 228.751C80.855 241.586 98.3903 241.586 115.925 228.751" stroke="#1A1D63" stroke-width="3" stroke-linecap="round" stroke-linejoin="round"/>
<path d="M43.731 245.378C55.3523 248.158 67.3854 248.78 79.2315 247.213" stroke="#1A1D63" stroke-width="3" stroke-linecap="round" stroke-linejoin="round"/>
<path d="M99.7588 247.216C111.605 248.781 123.638 248.158 135.259 245.378" stroke="#1A1D63" stroke-width="3" stroke-linecap="round" stroke-linejoin="round"/>
<path opacity="0.3" d="M134.902 148.174C104.714 163.308 74.5269 163.308 44.3394 148.174C52.3089 143.025 59.2616 141.26 65.5648 139.941H113.681C119.982 141.26 126.932 143.025 134.902 148.174Z" fill="#1A1D63"/>
<path opacity="0.3" d="M27.502 203.333C28.6467 204.931 29.9405 206.416 31.366 207.769C40.2073 216.222 53.0285 218.987 64.693 215.302C66.1081 214.856 67.5306 214.38 68.9603 213.874C70.8923 213.193 73.8023 211.573 75.3745 210.235C75.8262 209.853 76.2315 209.42 76.582 208.943C77.5705 207.66 78.3079 206.201 78.7555 204.644C59.5031 212.807 41.9775 214.155 27.502 203.333Z" fill="#1A1D63"/>
<path opacity="0.3" d="M111.718 214.447C111.529 215.447 111.339 216.449 111.165 217.451C110.923 218.9 108.805 220.023 107.356 220.238C95.6276 221.995 83.7027 221.995 71.9741 220.238C70.5492 220.026 68.4458 218.936 68.1753 217.524C67.9749 216.473 67.7575 215.42 67.5498 214.367C68.0159 214.21 68.4844 214.046 68.9529 213.884L69.3055 213.754C69.3611 213.896 69.4256 214.035 69.4987 214.169C69.5392 214.246 69.5836 214.32 69.6315 214.391C69.6798 214.464 69.7305 214.534 69.7813 214.604C69.8872 214.738 70.0017 214.866 70.1242 214.986C70.6313 215.473 71.278 215.791 71.9741 215.894C73.4553 216.113 74.9357 216.305 76.4153 216.471C77.1575 216.556 77.8973 216.632 78.6347 216.698C79.7456 216.802 80.8548 216.89 81.9625 216.961L83.3463 217.043C84.2689 217.094 85.1938 217.132 86.1163 217.159L87.5001 217.193C88.9733 217.222 90.4472 217.222 91.922 217.193L92.7383 217.174C93.0111 217.174 93.284 217.174 93.5569 217.149L94.3756 217.12L95.1919 217.087L96.2811 217.031H96.4042C97.1142 216.992 97.8226 216.947 98.5294 216.893C99.237 216.843 99.9446 216.782 100.652 216.717L100.857 216.698C101.518 216.635 102.177 216.567 102.835 216.495C104.346 216.334 105.853 216.138 107.359 215.908C107.863 215.833 108.343 215.645 108.764 215.357L108.931 215.234C109.001 215.181 109.066 215.126 109.129 215.068L109.223 214.978C109.546 214.662 109.802 214.284 109.977 213.867L110.054 213.896C110.609 214.078 111.164 214.262 111.718 214.447Z" fill="#1A1D63"/>
<path d="M76.5987 208.523C76.5101 208.433 76.4256 208.342 76.3451 208.248L76.1978 208.074L76.3475 208.248C76.4272 208.342 76.5117 208.434 76.5987 208.523Z" fill="white"/>
<path d="M109.977 213.846C109.802 214.263 109.546 214.64 109.223 214.957L109.129 215.046C109.064 215.104 108.999 215.159 108.931 215.213L108.764 215.336C108.343 215.623 107.863 215.811 107.359 215.886C105.852 216.11 104.344 216.306 102.836 216.473C102.175 216.546 101.516 216.613 100.858 216.676L100.652 216.695C99.944 216.76 99.2364 216.819 98.5296 216.872C97.822 216.922 97.112 216.971 96.4044 217.009H96.2812L95.1921 217.065L94.3758 217.099L93.5571 217.128L92.7384 217.152L91.9221 217.171C90.449 217.198 88.975 217.198 87.5003 217.171L86.1165 217.137C85.1939 217.108 84.269 217.07 83.3465 217.021L81.9627 216.939C80.855 216.867 79.7457 216.779 78.6348 216.676C77.8958 216.608 77.1568 216.531 76.4154 216.449C74.9374 216.288 73.457 216.096 71.9742 215.872C71.2781 215.769 70.6315 215.452 70.1244 214.964C70.0019 214.844 69.8873 214.717 69.7814 214.582C69.7307 214.512 69.68 214.442 69.6317 214.37C69.5834 214.297 69.5399 214.222 69.4989 214.148C69.4257 214.013 69.3612 213.875 69.3057 213.732C70.2536 213.357 71.175 212.918 72.0636 212.418C73.2311 211.792 74.3372 211.057 75.3673 210.223C75.8191 209.841 76.2243 209.408 76.5748 208.931L76.7704 208.67C76.8694 208.535 76.9636 208.4 77.0554 208.262C77.3821 207.776 77.6758 207.269 77.9345 206.743C79.2647 204.057 79.5811 200.981 78.8256 198.081C78.1101 195.272 76.4305 192.804 74.0801 191.108C84.3584 191.591 94.6366 191.598 104.915 191.128C102.279 193.042 100.504 195.917 99.9713 199.131C99.7651 200.328 99.7383 201.549 99.8916 202.754C100.023 203.825 100.294 204.875 100.698 205.876C101.14 206.972 101.727 208.002 102.444 208.941C102.582 209.119 102.705 209.274 102.826 209.424C103.077 209.719 103.352 209.993 103.649 210.242C105.197 211.556 108.04 213.153 109.977 213.846Z" fill="white"/>
<path d="M109.977 213.846C109.802 214.263 109.546 214.64 109.223 214.957L109.129 215.046C109.064 215.104 108.999 215.159 108.931 215.213L108.764 215.336C108.343 215.623 107.863 215.811 107.359 215.886C105.852 216.11 104.344 216.306 102.836 216.473C102.175 216.546 101.516 216.613 100.858 216.676L100.652 216.695C99.944 216.76 99.2364 216.819 98.5296 216.872C97.822 216.922 97.112 216.971 96.4044 217.009H96.2812L95.1921 217.065L94.3758 217.099L93.5571 217.128L92.7384 217.152L91.9221 217.171C90.449 217.198 88.975 217.198 87.5003 217.171L86.1165 217.137C85.1939 217.108 84.269 217.07 83.3465 217.021L81.9627 216.939C80.855 216.867 79.7457 216.779 78.6348 216.676C77.8958 216.608 77.1568 216.531 76.4154 216.449C74.9374 216.288 73.457 216.096 71.9742 215.872C71.2781 215.769 70.6315 215.452 70.1244 214.964C70.0019 214.844 69.8873 214.717 69.7814 214.582C69.7307 214.512 69.68 214.442 69.6317 214.37C69.5834 214.297 69.5399 214.222 69.4989 214.148C69.4257 214.013 69.3612 213.875 69.3057 213.732C70.2536 213.357 71.175 212.918 72.0636 212.418C73.2311 211.792 74.3372 211.057 75.3673 210.223C75.8191 209.841 76.2243 209.408 76.5748 208.931L76.7704 208.67C76.8694 208.535 76.9636 208.4 77.0554 208.262C77.3821 207.776 77.6758 207.269 77.9345 206.743C79.2647 204.057 79.5811 200.981 78.8256 198.081C78.1101 195.272 76.4305 192.804 74.0801 191.108C84.3584 191.591 94.6366 191.598 104.915 191.128C102.279 193.042 100.504 195.917 99.9713 199.131C99.7651 200.328 99.7383 201.549 99.8916 202.754C100.023 203.825 100.294 204.875 100.698 205.876C101.14 206.972 101.727 208.002 102.444 208.941C102.582 209.119 102.705 209.274 102.826 209.424C103.077 209.719 103.352 209.993 103.649 210.242C105.197 211.556 108.04 213.153 109.977 213.846Z" stroke="#1A1D63" stroke-width="3" stroke-linecap="round" stroke-linejoin="round"/>
<path d="M87.5679 204.043C87.5672 205.74 86.8928 207.368 85.6927 208.568C84.4927 209.768 82.8652 210.442 81.1681 210.443C81.0691 210.443 80.9677 210.443 80.8711 210.443C80.8155 210.443 80.76 210.443 80.7044 210.443L80.5233 210.429C80.5097 210.431 80.4958 210.431 80.4823 210.429C80.3953 210.429 80.3108 210.412 80.2239 210.397L80.1248 210.38C80.0622 210.373 80.0001 210.361 79.9389 210.346L79.8109 210.322L79.5887 210.269H79.5573C79.4831 210.253 79.4097 210.233 79.3375 210.209C79.2965 210.209 79.2578 210.185 79.2168 210.173C79.0977 210.137 78.9817 210.096 78.869 210.049C78.6408 209.963 78.4182 209.862 78.2025 209.748C78.0085 209.646 77.8198 209.535 77.6374 209.414L77.5094 209.327L77.3935 209.245L77.2172 209.11C77.1447 209.052 77.0723 208.994 77.0022 208.934L76.797 208.75L76.7607 208.716C76.8598 208.581 76.9539 208.446 77.0457 208.308C77.3724 207.822 77.6661 207.315 77.9248 206.789C79.255 204.103 79.5714 201.027 78.8159 198.127C79.9683 197.672 81.2278 197.561 82.4418 197.808C83.6557 198.055 84.772 198.649 85.6552 199.518C85.7276 199.59 85.8001 199.665 85.8701 199.74C85.9402 199.815 86.0102 199.894 86.0754 199.981C86.1406 200.068 86.242 200.182 86.3169 200.288C86.3628 200.348 86.4087 200.411 86.4497 200.476C86.5675 200.647 86.6763 200.823 86.7757 201.005C86.8265 201.097 86.8748 201.191 86.9206 201.285C86.9665 201.38 87.01 201.474 87.0511 201.57C87.0921 201.667 87.1308 201.766 87.167 201.863C87.2032 201.959 87.2394 202.063 87.2708 202.164C87.3022 202.266 87.3312 202.367 87.3602 202.471C87.4485 202.808 87.5075 203.153 87.5365 203.5C87.5574 203.664 87.5679 203.845 87.5679 204.043Z" fill="#6CCFF9"/>
<path opacity="0.4" d="M87.5679 204.043C87.5672 205.74 86.8928 207.368 85.6927 208.568C84.4927 209.768 82.8652 210.442 81.1681 210.443C81.0691 210.443 80.9677 210.443 80.8711 210.443C80.8155 210.443 80.76 210.443 80.7044 210.443L80.5233 210.429C80.5097 210.431 80.4958 210.431 80.4823 210.429C80.3953 210.429 80.3108 210.412 80.2239 210.397L80.1248 210.38C80.0622 210.373 80.0001 210.361 79.9389 210.346L79.8109 210.322L79.5887 210.269H79.5573C79.4831 210.253 79.4097 210.233 79.3375 210.209C79.2965 210.209 79.2578 210.185 79.2168 210.173C79.0977 210.137 78.9817 210.096 78.869 210.049C78.6408 209.963 78.4182 209.862 78.2025 209.748C78.0085 209.646 77.8198 209.535 77.6374 209.414L77.5094 209.327L77.3935 209.245L77.2172 209.11C77.1447 209.052 77.0723 208.994 77.0022 208.934L76.797 208.75L76.7607 208.716C76.8598 208.581 76.9539 208.446 77.0457 208.308C77.3724 207.822 77.6661 207.315 77.9248 206.789C78.3883 206.894 78.8622 206.947 79.3375 206.946C80.1781 206.946 81.0104 206.781 81.787 206.46C82.5636 206.138 83.2692 205.667 83.8636 205.072C84.4579 204.478 84.9293 203.772 85.2508 202.996C85.5723 202.219 85.7376 201.387 85.7373 200.546C85.7373 200.455 85.7373 200.365 85.7373 200.276C85.7251 200.022 85.6993 199.769 85.66 199.518C85.7325 199.59 85.8049 199.665 85.875 199.74C85.945 199.815 86.015 199.894 86.0802 199.981C86.1454 200.068 86.2445 200.182 86.3217 200.288C86.3676 200.348 86.4135 200.411 86.457 200.476C86.5747 200.647 86.6835 200.823 86.783 201.005C86.8337 201.097 86.882 201.191 86.9279 201.285C86.9738 201.38 87.0173 201.474 87.0583 201.57C87.0994 201.667 87.138 201.766 87.1742 201.863C87.2104 201.959 87.2467 202.063 87.2781 202.164C87.3095 202.266 87.3384 202.367 87.3674 202.471C87.4558 202.808 87.5148 203.153 87.5437 203.5C87.5598 203.664 87.5679 203.845 87.5679 204.043Z" fill="#1A1D63"/>
<path d="M87.5679 204.043C87.5672 205.74 86.8928 207.368 85.6927 208.568C84.4927 209.768 82.8652 210.442 81.1681 210.443C81.0691 210.443 80.9677 210.443 80.8711 210.443C80.8155 210.443 80.76 210.443 80.7044 210.443L80.5233 210.429C80.5097 210.431 80.4958 210.431 80.4823 210.429C80.3953 210.429 80.3108 210.412 80.2239 210.397L80.1248 210.38C80.0622 210.373 80.0001 210.361 79.9389 210.346L79.8109 210.322L79.5887 210.269H79.5573C79.4831 210.253 79.4097 210.233 79.3375 210.209C79.2965 210.209 79.2578 210.185 79.2168 210.173C79.0977 210.137 78.9817 210.096 78.869 210.049C78.6408 209.963 78.4182 209.862 78.2025 209.748C78.0085 209.646 77.8198 209.535 77.6374 209.414L77.5094 209.327L77.3935 209.245L77.2172 209.11C77.1447 209.052 77.0723 208.994 77.0022 208.934L76.797 208.75L76.7607 208.716C76.8598 208.581 76.9539 208.446 77.0457 208.308C77.3724 207.822 77.6661 207.315 77.9248 206.789C79.255 204.103 79.5714 201.027 78.8159 198.127C79.9683 197.672 81.2278 197.561 82.4418 197.808C83.6557 198.055 84.772 198.649 85.6552 199.518C85.7276 199.59 85.8001 199.665 85.8701 199.74C85.9402 199.815 86.0102 199.894 86.0754 199.981C86.1406 200.068 86.242 200.182 86.3169 200.288C86.3628 200.348 86.4087 200.411 86.4497 200.476C86.5675 200.647 86.6763 200.823 86.7757 201.005C86.8265 201.097 86.8748 201.191 86.9206 201.285C86.9665 201.38 87.01 201.474 87.0511 201.57C87.0921 201.667 87.1308 201.766 87.167 201.863C87.2032 201.959 87.2394 202.063 87.2708 202.164C87.3022 202.266 87.3312 202.367 87.3602 202.471C87.4485 202.808 87.5075 203.153 87.5365 203.5C87.5574 203.664 87.5679 203.845 87.5679 204.043Z" stroke="#1A1D63" stroke-width="3" stroke-linecap="round" stroke-linejoin="round"/>
<path d="M99.8841 202.756C98.1211 202.811 96.0925 202.867 94.4793 202.891H94.46C94.1295 202.891 93.8126 202.76 93.5789 202.526C93.3452 202.292 93.2139 201.975 93.2139 201.645V200.503C93.2151 200.174 93.3455 199.859 93.5768 199.626C93.8082 199.393 94.1219 199.26 94.4503 199.257C96.2785 199.24 98.1211 199.201 99.9638 199.141C99.7583 200.335 99.7315 201.554 99.8841 202.756Z" fill="#1A1D63"/>
<path d="M102.816 209.417C100.968 209.487 97.1527 209.615 94.4769 209.658H94.4576C94.1271 209.658 93.8101 209.527 93.5764 209.293C93.3427 209.06 93.2114 208.743 93.2114 208.412V207.27C93.2127 206.942 93.343 206.627 93.5744 206.394C93.8057 206.16 94.1195 206.028 94.4479 206.024C96.5151 206.005 98.6065 205.959 100.688 205.884C101.13 206.979 101.717 208.01 102.434 208.948C102.572 209.122 102.695 209.277 102.816 209.417Z" fill="#1A1D63"/>
<path opacity="0.3" d="M68.6487 218.467C59.735 224.128 45.3754 222.653 41.1805 222.066L41.1588 221.737C40.9946 219.146 40.8642 216.576 40.7651 214.053C48.3186 217.358 56.8165 217.802 64.6736 215.304C65.6251 215.004 66.5815 214.689 67.5427 214.359C67.7503 215.412 67.9677 216.465 68.1681 217.516C68.229 217.805 68.3518 218.078 68.528 218.315C68.5647 218.369 68.6051 218.419 68.6487 218.467Z" fill="#1A1D63"/>
<path opacity="0.3" d="M110.351 218.467C119.265 224.128 133.624 222.653 137.819 222.066L137.841 221.737C138.005 219.146 138.136 216.576 138.235 214.053C130.681 217.358 122.183 217.802 114.326 215.304C113.375 215.004 112.418 214.689 111.457 214.359C111.249 215.412 111.032 216.465 110.832 217.516C110.771 217.805 110.648 218.078 110.472 218.315C110.435 218.369 110.395 218.419 110.351 218.467Z" fill="#1A1D63"/>
<path d="M89.5 1.78613C47.5539 1.78613 13.6376 35.7917 13.5483 77.7379C13.4275 134.49 40.4755 152.603 89.5 152.482C138.525 152.603 165.573 134.49 165.452 77.7379C165.362 35.7917 131.446 1.78613 89.5 1.78613Z" fill="white"/>
<path d="M108.656 4.22527C96.0922 0.973087 82.9076 0.973087 70.3442 4.22527L67.5234 25.6004C81.8515 21.2502 97.1484 21.2502 111.476 25.6004L108.656 4.22527Z" stroke="#1A1D63" stroke-width="3" stroke-linecap="round" stroke-linejoin="round"/>
<path d="M89.4999 22.3379C82.0599 22.4173 74.6657 23.5151 67.5234 25.6006L69.7959 32.2225C82.6966 28.7062 96.3032 28.7062 109.204 32.2225L111.476 25.6006C104.334 23.5151 96.94 22.4173 89.4999 22.3379V22.3379Z" stroke="#1A1D63" stroke-width="3" stroke-linecap="round" stroke-linejoin="round"/>
<path d="M89.5 1.78613C47.5539 1.78613 13.6376 35.7917 13.5483 77.7379C13.4275 134.49 40.4755 152.603 89.5 152.482C138.525 152.603 165.573 134.49 165.452 77.7379C165.362 35.7917 131.446 1.78613 89.5 1.78613Z" stroke="#1A1D63" stroke-width="3" stroke-linecap="round" stroke-linejoin="round"/>
<path d="M165.452 77.7383C165.471 87.1374 164.747 95.4789 163.298 102.854C162.418 107.239 160.392 111.312 157.425 114.658C154.458 118.004 150.657 120.503 146.409 121.901C108.47 134.525 70.531 134.525 32.5929 121.901C28.3076 120.475 24.4792 117.934 21.501 114.538C18.5228 111.143 16.5022 107.016 15.6469 102.581C14.2365 95.276 13.5289 87.0288 13.5482 77.7479V77.6272C13.5712 74.1022 14.3481 70.623 15.8268 67.4232C17.3055 64.2233 19.4518 61.3769 22.1215 59.0751C66.968 20.1936 111.813 19.7509 156.656 57.7469C159.335 60.0165 161.503 62.828 163.016 65.9962C164.53 69.1644 165.355 72.6173 165.437 76.1275C165.444 76.6612 165.452 77.1997 165.452 77.7383Z" fill="#080A28"/>
<path opacity="0.75" d="M28.2123 91.4717C28.1209 92.2059 27.8508 92.9065 27.4255 93.512C27.0002 94.1175 26.4328 94.6094 25.7731 94.9444C24.4787 95.6013 22.909 95.7076 21.8101 93.4954C20.3925 90.6457 20.4239 87.3034 20.4312 84.0504V83.9127C20.4312 83.148 20.4674 82.3856 20.5398 81.6257C21.3464 72.8882 24.585 66.1842 33.8972 59.2C40.6302 54.1503 45.1608 50.593 52.413 48.3011C58.3032 46.4392 60.8293 50.9576 56.1732 54.9569C38.9107 70.7413 35.1023 73.3543 29.4319 86.9073C28.8212 88.3667 28.4109 89.9021 28.2123 91.4717Z" fill="white"/>
<path d="M165.452 77.7381C165.471 87.1397 164.747 95.4787 163.298 102.854C162.419 107.239 160.393 111.312 157.426 114.658C154.459 118.004 150.658 120.504 146.41 121.901C108.47 134.528 70.5313 134.528 32.5932 121.901C27.7704 120.298 23.5391 117.286 20.4458 113.253C64.0486 120.194 106.125 122.788 137.641 109.908C149.074 105.235 157.13 94.6576 158.362 82.3773C159.231 73.6978 158.362 64.912 155.154 56.5078C155.652 56.9216 156.151 57.3394 156.652 57.7612C159.331 60.0304 161.498 62.8414 163.012 66.0092C164.525 69.177 165.351 72.6295 165.433 76.1394C165.446 76.6674 165.452 77.2003 165.452 77.7381Z" fill="black"/>
<path d="M165.452 77.7383C165.471 87.1374 164.747 95.4789 163.298 102.854C162.418 107.239 160.392 111.312 157.425 114.658C154.458 118.004 150.657 120.503 146.409 121.901C108.47 134.525 70.531 134.525 32.5929 121.901C28.3076 120.475 24.4792 117.934 21.501 114.538C18.5228 111.143 16.5022 107.016 15.6469 102.581C14.2365 95.276 13.5289 87.0288 13.5482 77.7479V77.6272C13.5712 74.1022 14.3481 70.623 15.8268 67.4232C17.3055 64.2233 19.4518 61.3769 22.1215 59.0751C66.968 20.1936 111.813 19.7509 156.656 57.7469C159.335 60.0165 161.503 62.828 163.016 65.9962C164.53 69.1644 165.355 72.6173 165.437 76.1275C165.444 76.6612 165.452 77.1997 165.452 77.7383Z" stroke="#1A1D63" stroke-width="3" stroke-linecap="round" stroke-linejoin="round"/>
<path opacity="0.2" d="M13.5508 77.4646C13.5822 70.5212 14.563 63.6147 16.4657 56.9371C64.9943 11.3741 113.516 10.8106 162.032 55.2466C164.118 61.9713 165.261 68.9528 165.428 75.9914C165.328 72.5045 164.495 69.0778 162.983 65.9342C161.471 62.7906 159.313 60.0007 156.652 57.7461C111.807 19.7501 66.9617 20.1921 22.1168 59.0719C19.4683 61.3566 17.3352 64.1776 15.8585 67.3483C14.3818 70.519 13.5953 73.9672 13.5508 77.4646Z" fill="#1A1D63"/>
<path d="M16.4658 56.9371C64.9944 11.3741 113.517 10.8106 162.032 55.2466" stroke="#1A1D63" stroke-width="3" stroke-linecap="round" stroke-linejoin="round"/>
<path d="M175.619 104.481C175.541 105.123 175.328 105.74 174.996 106.294C174.663 106.848 174.217 107.325 173.687 107.696C169.78 110.388 165.324 112.451 160.347 113.921C163.757 104.143 165.491 92.1864 165.459 77.7374C165.449 69.2431 164.018 60.8103 161.226 52.7881C165.781 54.0858 170.05 56.2308 173.81 59.1106C174.301 59.4887 174.71 59.9614 175.015 60.5007C175.319 61.0399 175.512 61.6348 175.583 62.2501C177.309 77.091 177.321 91.1681 175.619 104.481Z" fill="white"/>
<path d="M18.661 113.931C13.6836 112.46 9.22798 110.398 5.32051 107.705C4.7908 107.335 4.34499 106.858 4.01211 106.304C3.67923 105.75 3.46674 105.132 3.38851 104.491C1.6964 91.1745 1.70848 77.0943 3.42474 62.2501C3.4952 61.6348 3.68838 61.0399 3.99286 60.5007C4.29734 59.9614 4.70691 59.4887 5.19734 59.1106C8.95531 56.2316 13.2222 54.0866 17.7747 52.7881C14.9847 60.8107 13.5563 69.2435 13.5484 77.7374C13.517 92.1961 15.251 104.143 18.661 113.931Z" fill="white"/>
<path opacity="0.3" d="M176.621 93.5195C176.412 97.2225 176.078 100.876 175.619 104.481C175.541 105.123 175.328 105.74 174.996 106.294C174.663 106.848 174.217 107.326 173.687 107.696C169.78 110.388 165.324 112.451 160.347 113.921C161.489 110.613 162.413 107.234 163.112 103.805C168.53 101.782 173.229 98.2036 176.621 93.5195Z" fill="#1A1D63"/>
<path opacity="0.3" d="M2.37891 93.5195C2.58982 97.2225 2.9239 100.876 3.38114 104.481C3.45938 105.123 3.67185 105.74 4.00473 106.294C4.33761 106.848 4.78343 107.326 5.31314 107.696C9.22061 110.388 13.6763 112.451 18.6536 113.921C17.5115 110.613 16.5877 107.234 15.8884 103.805C10.4706 101.782 5.77095 98.2036 2.37891 93.5195Z" fill="#1A1D63"/>
<path d="M175.619 104.481C175.541 105.123 175.328 105.74 174.996 106.294C174.663 106.848 174.217 107.325 173.687 107.696C169.78 110.388 165.324 112.451 160.347 113.921C163.757 104.143 165.491 92.1864 165.459 77.7374C165.449 69.2431 164.018 60.8103 161.226 52.7881C165.781 54.0858 170.05 56.2308 173.81 59.1106C174.301 59.4887 174.71 59.9614 175.015 60.5007C175.319 61.0399 175.512 61.6348 175.583 62.2501C177.309 77.091 177.321 91.1681 175.619 104.481Z" stroke="#1A1D63" stroke-width="3" stroke-linecap="round" stroke-linejoin="round"/>
<path d="M18.661 113.931C13.6836 112.46 9.22798 110.398 5.32051 107.705C4.7908 107.335 4.34499 106.858 4.01211 106.304C3.67923 105.75 3.46674 105.132 3.38851 104.491C1.6964 91.1745 1.70848 77.0943 3.42474 62.2501C3.4952 61.6348 3.68838 61.0399 3.99286 60.5007C4.29734 59.9614 4.70691 59.4887 5.19734 59.1106C8.95531 56.2316 13.2222 54.0866 17.7747 52.7881C14.9847 60.8107 13.5563 69.2435 13.5484 77.7374C13.517 92.1961 15.251 104.143 18.661 113.931Z" stroke="#1A1D63" stroke-width="3" stroke-linecap="round" stroke-linejoin="round"/>
<path opacity="0.2" d="M163.213 103.269C161.694 110.84 159.405 117.382 156.369 122.997C153.845 125.144 150.936 126.791 147.796 127.849C109.012 140.914 70.2291 140.914 31.4459 127.849C28.0997 126.722 25.02 124.921 22.3969 122.558C19.4409 116.972 17.2118 110.483 15.7314 102.996C16.6452 107.346 18.6829 111.38 21.6413 114.697C24.5997 118.014 28.3757 120.498 32.593 121.901C70.531 134.528 108.47 134.528 146.41 121.901C150.589 120.525 154.337 118.083 157.284 114.815C160.231 111.548 162.275 107.568 163.213 103.269Z" fill="#1A1D63"/>
<path d="M22.397 122.561C25.0201 124.924 28.0998 126.725 31.446 127.852C70.2309 140.915 109.014 140.915 147.796 127.852C150.936 126.794 153.845 125.147 156.369 123" stroke="#1A1D63" stroke-width="3" stroke-linecap="round" stroke-linejoin="round"/>
<path d="M123.793 165.907V189.456C121.099 189.462 118.408 189.292 115.737 188.949C114.213 188.779 112.676 188.755 111.148 188.879H111.119C109.781 188.983 108.469 189.3 107.231 189.818C101.783 192.12 98.8196 198.09 100.046 203.825H78.9417C80.1734 198.068 77.1788 192.069 71.6822 189.794C70.4666 189.293 69.1799 188.986 67.8689 188.884H67.84C66.3157 188.761 64.7833 188.784 63.2635 188.954C60.5918 189.297 57.9007 189.466 55.2071 189.461V165.912C55.2062 165.738 55.215 165.564 55.2337 165.391C55.3341 164.179 55.8017 163.026 56.574 162.087C56.758 161.86 56.9591 161.648 57.1753 161.452C57.4032 161.248 57.6453 161.061 57.8998 160.892L57.9216 160.877C58.0826 160.769 58.254 160.668 58.4359 160.573C58.5253 160.524 58.6171 160.481 58.7088 160.438C58.8006 160.394 58.8996 160.353 58.9962 160.314C59.0928 160.276 59.1894 160.239 59.2885 160.206L59.3971 160.172C59.4478 160.153 59.4985 160.138 59.5493 160.124C59.6386 160.097 59.728 160.073 59.8197 160.051C59.9115 160.029 59.9985 160.01 60.0878 159.993H60.1047C60.1941 159.976 60.2834 159.962 60.3752 159.95C60.467 159.938 60.5153 159.93 60.5877 159.923L60.7326 159.909C60.8027 159.909 60.8751 159.909 60.9476 159.894C61.02 159.88 61.1432 159.894 61.2398 159.894H117.751C117.85 159.894 117.946 159.894 118.043 159.894L118.26 159.909C118.328 159.909 118.398 159.909 118.466 159.93L118.623 159.95L118.864 159.988C119.245 160.059 119.619 160.167 119.98 160.31C120.067 160.343 120.151 160.38 120.236 160.418C120.32 160.457 120.388 160.488 120.477 160.527L120.506 160.541L120.748 160.667C120.823 160.71 120.898 160.754 120.97 160.8L120.997 160.817C121.148 160.909 121.294 161.01 121.434 161.119C121.58 161.228 121.721 161.345 121.856 161.469C122.07 161.664 122.27 161.875 122.453 162.099C123.225 163.038 123.693 164.191 123.793 165.403C123.793 165.56 123.793 165.734 123.793 165.907Z" fill="#CCCCCC"/>
<path opacity="0.3" d="M123.793 165.907V167.323L102.389 185.677L100.534 187.268L94.7551 192.228C93.3328 193.449 91.5212 194.122 89.6469 194.125C87.7726 194.128 85.9588 193.461 84.5324 192.245L78.4563 187.068L76.6451 185.524L55.2071 167.267V165.907C55.2062 165.733 55.215 165.559 55.2337 165.386C55.3341 164.174 55.8017 163.021 56.574 162.082C56.758 161.855 56.9591 161.643 57.1753 161.447C57.4032 161.243 57.6453 161.056 57.8998 160.887L57.9216 160.872C58.0826 160.764 58.254 160.663 58.4359 160.568C58.5253 160.52 58.6171 160.476 58.7088 160.433C58.8006 160.389 58.8996 160.348 58.9962 160.309C59.0928 160.271 59.1894 160.235 59.2885 160.201L59.3971 160.167C59.4478 160.148 59.4985 160.133 59.5493 160.119C59.6386 160.092 59.728 160.068 59.8197 160.046C59.9115 160.024 59.9985 160.005 60.0878 159.988H60.1047C60.1941 159.971 60.2834 159.957 60.3752 159.945C60.467 159.933 60.5153 159.925 60.5877 159.918L60.7326 159.904C60.8027 159.904 60.8751 159.904 60.9476 159.889C61.02 159.875 61.1432 159.889 61.2398 159.889H117.751C117.85 159.889 117.946 159.889 118.043 159.889L118.26 159.904C118.328 159.904 118.398 159.904 118.466 159.925L118.623 159.945L118.864 159.983C119.245 160.054 119.619 160.162 119.98 160.305C120.067 160.338 120.151 160.375 120.236 160.413C120.32 160.452 120.388 160.483 120.477 160.522L120.506 160.536L120.748 160.662C120.823 160.706 120.898 160.749 120.97 160.795L120.997 160.812C121.148 160.904 121.294 161.005 121.434 161.114C121.58 161.223 121.721 161.34 121.856 161.464C122.07 161.659 122.27 161.87 122.453 162.094C123.225 163.033 123.693 164.186 123.793 165.398C123.793 165.56 123.793 165.734 123.793 165.907Z" fill="#1A1D63"/>
<path d="M123.793 165.907V189.456C121.099 189.462 118.408 189.292 115.737 188.949C114.213 188.779 112.676 188.755 111.148 188.879H111.119C109.781 188.983 108.469 189.3 107.231 189.818C101.783 192.12 98.8196 198.09 100.046 203.825H78.9417C80.1734 198.068 77.1788 192.069 71.6822 189.794C70.4666 189.293 69.1799 188.986 67.8689 188.884H67.84C66.3157 188.761 64.7833 188.784 63.2635 188.954C60.5918 189.297 57.9007 189.466 55.2071 189.461V165.912C55.2062 165.738 55.215 165.564 55.2337 165.391C55.3341 164.179 55.8017 163.026 56.574 162.087C56.758 161.86 56.9591 161.648 57.1753 161.452V161.452C57.4032 161.248 57.6453 161.061 57.8998 160.892L57.9216 160.877C58.0826 160.769 58.254 160.668 58.4359 160.573C58.5253 160.524 58.6171 160.481 58.7088 160.438C58.8006 160.394 58.8996 160.353 58.9962 160.314C59.0928 160.276 59.1894 160.239 59.2885 160.206L59.3971 160.172C59.4478 160.153 59.4985 160.138 59.5493 160.124C59.6386 160.097 59.728 160.073 59.8197 160.051C59.9115 160.029 59.9985 160.01 60.0878 159.993H60.1047C60.1941 159.976 60.2834 159.962 60.3752 159.95C60.467 159.938 60.5153 159.93 60.5877 159.923L60.7326 159.909C60.8027 159.909 60.8751 159.909 60.9476 159.894C61.02 159.88 61.1432 159.894 61.2398 159.894H117.751C117.85 159.894 117.946 159.894 118.043 159.894L118.26 159.909C118.328 159.909 118.398 159.909 118.466 159.93L118.623 159.95L118.864 159.988C119.245 160.059 119.619 160.167 119.98 160.31C120.067 160.343 120.151 160.38 120.236 160.418C120.32 160.457 120.388 160.488 120.477 160.527L120.506 160.541L120.748 160.667C120.823 160.71 120.898 160.754 120.97 160.8L120.997 160.817C121.148 160.909 121.294 161.01 121.434 161.119C121.58 161.228 121.721 161.345 121.856 161.469C122.07 161.664 122.27 161.875 122.453 162.099V162.099C123.225 163.038 123.693 164.191 123.793 165.403C123.793 165.56 123.793 165.734 123.793 165.907Z" stroke="#1A1D63" stroke-width="3" stroke-linecap="round" stroke-linejoin="round"/>
<path d="M107.243 189.821L102.389 185.686L97.9742 181.924L97.9694 181.921L89.3817 174.602L81.0306 181.769L81.0282 181.772L76.645 185.534L71.6821 189.792" stroke="#1A1D63" stroke-width="3" stroke-linecap="round" stroke-linejoin="round"/>
<path d="M121.825 161.451L97.967 181.923L93.5331 185.729C92.4397 186.664 91.0484 187.177 89.6099 187.177C88.1714 187.177 86.7802 186.664 85.6868 185.729L81.0234 181.768L57.1729 161.444C58.2839 160.429 59.7349 159.867 61.2397 159.869H117.751C119.259 159.867 120.713 160.431 121.825 161.451Z" fill="#CCCCCC"/>
<path d="M121.825 161.451L97.967 181.923L93.5331 185.729C92.4397 186.664 91.0484 187.177 89.6099 187.177C88.1714 187.177 86.7802 186.664 85.6868 185.729L81.0234 181.768L57.1729 161.444C58.2839 160.429 59.7349 159.867 61.2397 159.869H117.751C119.259 159.867 120.713 160.431 121.825 161.451V161.451Z" stroke="#1A1D63" stroke-width="3" stroke-linecap="round" stroke-linejoin="round"/>
</svg>
