<svg width="96" height="159" viewBox="0 0 96 159" fill="none" xmlns="http://www.w3.org/2000/svg" style="">
<path opacity="0.3" d="M47.9958 158.587C73.8945 158.587 94.8896 156.087 94.8896 153.002C94.8896 149.917 73.8945 147.416 47.9958 147.416C22.0971 147.416 1.10205 149.917 1.10205 153.002C1.10205 156.087 22.0971 158.587 47.9958 158.587Z" fill="#1A1D63" class="tzuGykEB_0"></path>
<path d="M79.2904 80.86C79.0761 78.5893 77.4406 76.7513 75.309 76.4044C66.312 74.9388 57.2144 74.177 48.0989 74.126H47.8937C38.7782 74.177 29.6806 74.9388 20.6836 76.4044C18.5519 76.7513 16.9165 78.5893 16.7022 80.86C15.126 97.5928 15.1221 114.437 16.6905 131.17C16.9087 133.519 18.6468 135.393 20.8628 135.654C29.9087 136.713 39.0083 137.245 48.1158 137.248C57.1457 137.245 66.1676 136.712 75.1349 135.65C77.3432 135.391 79.0852 133.514 79.3047 131.166C80.8725 114.434 80.8678 97.5914 79.2904 80.86Z" fill="#F2F2F2" class="tzuGykEB_1"></path>
<path opacity="0.4" d="M41.5758 131.661C45.8988 132.579 50.3662 132.579 54.6892 131.661V128.485H41.5693L41.5758 131.661Z" fill="#1A1D63" class="tzuGykEB_2"></path>
<path opacity="0.3" d="M22.0815 120.402C19.7513 119.702 17.5909 118.527 15.7359 116.953C15.6589 115.079 15.603 113.205 15.5684 111.332C15.9532 111.786 16.3617 112.22 16.792 112.631C18.271 114.043 19.9855 115.186 21.8581 116.008C21.9088 117.449 21.9841 118.921 22.0815 120.402Z" fill="#1A1D63" class="tzuGykEB_3"></path>
<path opacity="0.3" d="M73.9116 120.402C76.2419 119.702 78.4023 118.527 80.2572 116.953C80.3343 115.079 80.3902 113.205 80.4248 111.332C80.0399 111.786 79.6315 112.22 79.2011 112.631C77.7221 114.043 76.0076 115.186 74.135 116.008C74.0844 117.449 74.009 118.921 73.9116 120.402Z" fill="#1A1D63" class="tzuGykEB_4"></path>
<path d="M16.702 80.86C16.9164 78.5893 18.5518 76.7513 20.6834 76.4044C29.6805 74.9388 38.7781 74.177 47.8935 74.126H48.0988C57.2142 74.177 66.3118 74.9388 75.3089 76.4044C77.4405 76.7513 79.0759 78.5893 79.2903 80.86C80.8675 97.5936 80.8723 114.438 79.3046 131.173C79.0863 133.521 77.3483 135.396 75.1322 135.657C66.0864 136.715 56.9867 137.247 47.8792 137.251V137.251C38.8493 137.248 29.8274 136.714 20.8601 135.653C18.6453 135.393 16.9086 133.516 16.6903 131.169C15.1215 114.436 15.1254 97.5924 16.702 80.86V80.86Z" stroke="#1A1D63" stroke-width="2" stroke-linecap="round" stroke-linejoin="round" class="tzuGykEB_5"></path>
<path d="M80.4565 87.6627C72.517 79.0023 66.2559 77.2708 60.8715 76.1445H35.1202C34.6872 76.2311 34.2464 76.3268 33.7978 76.4316L33.3484 76.5368C33.2523 76.5589 33.1548 76.5823 33.0587 76.607C32.7236 76.6888 32.3858 76.7758 32.0429 76.8668L31.7831 76.9408C31.6935 76.9655 31.6051 76.9902 31.5155 77.0175L31.2765 77.0863C31.0868 77.1422 30.8972 77.2006 30.7062 77.263L30.4399 77.3487C30.0727 77.4682 29.7008 77.5981 29.3241 77.7384L29.0435 77.8449C28.95 77.88 28.8565 77.9177 28.7616 77.9553C28.5304 78.0463 28.297 78.1424 28.0615 78.2437C27.9692 78.2827 27.8757 78.3229 27.7835 78.3645C27.6302 78.4321 27.4769 78.4944 27.3223 78.5724C27.1353 78.6594 26.9456 78.749 26.756 78.8425C26.6508 78.8932 26.5442 78.9465 26.4377 79.001L26.1403 79.153L25.8545 79.3011L25.5336 79.4752L25.2881 79.6051L25.0608 79.735C24.9854 79.7778 24.9088 79.822 24.8335 79.8649L23.9527 80.4013L23.6929 80.5689L23.4708 80.73C23.3799 80.7884 23.2903 80.8482 23.1993 80.9105L22.6953 81.2561L22.4095 81.4587L22.0861 81.6925L21.7808 81.9186L21.521 82.1134L21.1859 82.3732C21.0742 82.4603 20.9625 82.5499 20.8507 82.633C20.739 82.7162 20.6286 82.811 20.5169 82.9032L20.1714 83.189C19.9427 83.3799 19.7141 83.5787 19.4829 83.7787C19.3673 83.8788 19.2517 83.9814 19.1361 84.0853L19.0789 84.136C18.9144 84.284 18.7485 84.4352 18.5814 84.5893C18.4151 84.7426 18.2488 84.9011 18.08 85.0608L16.6186 86.5092C16.3835 86.7534 16.1445 87.0041 15.9055 87.26L15.8951 87.2704L15.5339 87.6601C12.6483 91.1374 11.1752 95.5723 11.407 100.085C11.6577 104.819 13.0659 109.13 16.7212 112.623C18.2002 114.035 19.9147 115.178 21.7873 116C21.8938 118.728 22.0679 121.554 22.329 124.391C22.3991 125.155 22.4758 125.92 22.5589 126.686C22.6005 127.07 22.6438 127.452 22.6888 127.833C22.7564 128.405 22.8274 128.977 22.9019 129.549C22.9503 129.913 22.9997 130.276 23.0499 130.639C23.0513 130.656 23.0539 130.673 23.0577 130.689C23.1365 131.258 23.221 131.825 23.311 132.388C23.3396 132.577 23.3695 132.764 23.4007 132.951C23.4318 133.138 23.4604 133.325 23.4929 133.512C23.5254 133.699 23.5565 133.886 23.589 134.072C23.6215 134.258 23.654 134.444 23.6877 134.629C23.7865 135.185 23.8917 135.739 24.0008 136.285C24.0372 136.469 24.0735 136.65 24.1112 136.832C24.41 138.287 24.7412 139.71 25.1088 141.089C24.1565 141.473 23.2617 141.986 22.4498 142.614C21.7248 143.171 21.2341 143.978 21.0742 144.878C20.8417 146.225 20.7914 147.597 20.9248 148.957C20.999 149.712 21.3348 150.416 21.8741 150.949C22.4134 151.482 23.1221 151.81 23.8774 151.875C28.5382 152.299 33.2285 152.288 37.8871 151.84C38.5372 151.778 39.151 151.512 39.6409 151.08C40.1308 150.648 40.4717 150.072 40.615 149.435C41.3885 145.978 41.9279 142.472 42.2296 138.942C42.5011 135.323 42.5752 131.823 42.505 128.411C42.7449 128.48 42.9852 128.545 43.226 128.606C43.439 128.66 43.6516 128.709 43.8638 128.755C45.2038 129.049 46.5708 129.203 47.9426 129.214H48.0725C49.9133 129.197 51.7431 128.927 53.5101 128.411C53.44 131.823 53.5101 135.323 53.7855 138.942C54.0872 142.472 54.6266 145.978 55.4001 149.435C55.5434 150.072 55.8843 150.648 56.3742 151.08C56.8641 151.512 57.478 151.778 58.128 151.84C62.7866 152.288 67.4769 152.299 72.1377 151.875C72.893 151.81 73.6017 151.482 74.141 150.949C74.6803 150.416 75.0161 149.712 75.0903 148.957C75.2237 147.597 75.1734 146.225 74.941 144.878C74.7811 143.978 74.2904 143.171 73.5653 142.614C72.7535 141.986 71.8586 141.473 70.9063 141.089C72.9652 133.359 73.9044 124.245 74.2265 116C76.099 115.178 77.8135 114.035 79.2926 112.623C82.948 109.13 84.3587 104.819 84.6068 100.085C84.8316 95.5701 83.3501 91.1358 80.4565 87.6627Z" fill="white" class="tzuGykEB_6"></path>
<path d="M25.1025 141.095C27.8551 139.993 30.0699 140.436 30.0699 140.436L25.1025 141.095Z" fill="white" class="tzuGykEB_7"></path>
<path d="M43.2144 128.612C43.4261 128.666 43.6391 128.716 43.8522 128.762C45.1919 129.058 46.559 129.212 47.931 129.222" fill="white" class="tzuGykEB_8"></path>
<path d="M23.0437 130.646C22.9917 130.284 22.9424 129.92 22.8956 129.556C22.8203 128.986 22.7493 128.414 22.6826 127.84C22.6375 127.458 22.5942 127.076 22.5527 126.693C22.4661 125.928 22.3894 125.163 22.3228 124.397" fill="white" class="tzuGykEB_9"></path>
<path d="M21.7821 116.008C21.66 112.915 21.6263 109.944 21.6522 107.215L21.7821 116.008Z" fill="white" class="tzuGykEB_10"></path>
<path d="M23.6812 134.638C23.6475 134.454 23.6137 134.268 23.5825 134.081L23.6812 134.638Z" fill="white" class="tzuGykEB_11"></path>
<path opacity="0.3" d="M61.883 123.099C51.6807 126.304 45.6833 126.217 34.1534 123.045C34.1225 123.029 34.0867 123.026 34.0537 123.037C34.0206 123.047 33.9932 123.07 33.9774 123.101C33.9615 123.132 33.9585 123.168 33.9691 123.201C33.9797 123.234 34.003 123.261 34.0339 123.277C43.1606 130.209 52.4796 130.376 62.0051 123.332C62.036 123.316 62.0591 123.288 62.0695 123.255C62.0798 123.221 62.0766 123.185 62.0604 123.154C62.0442 123.124 62.0164 123.101 61.9831 123.09C61.9499 123.08 61.9139 123.083 61.883 123.099Z" fill="#1A1D63" class="tzuGykEB_12"></path>
<path opacity="0.3" d="M72.4827 127.504C73.2699 118.068 72.6477 108.877 70.5342 103.118C70.4957 103.005 70.4971 102.883 70.5383 102.771C70.5795 102.659 70.658 102.565 70.7605 102.504C70.863 102.443 70.9833 102.419 71.1013 102.436C71.2193 102.453 71.3277 102.511 71.4085 102.599C72.7834 104.187 73.9123 105.973 74.7573 107.896C75.1807 107.932 72.9075 127.547 72.4827 127.504Z" fill="#1A1D63" class="tzuGykEB_13"></path>
<path opacity="0.3" d="M62.9996 124.263C62.9996 124.263 61.0953 129.394 53.5391 131.894L53.5637 128.417C56.8359 127.34 59.996 125.949 62.9996 124.263Z" fill="#1A1D63" class="tzuGykEB_14"></path>
<path opacity="0.3" d="M32.9932 124.263C32.9932 124.263 34.8975 129.394 42.4538 131.894L42.4291 128.417C39.1569 127.34 35.9968 125.949 32.9932 124.263Z" fill="#1A1D63" class="tzuGykEB_15"></path>
<path opacity="0.3" d="M75.074 148.963C74.9998 149.718 74.6639 150.422 74.1247 150.955C73.5854 151.488 72.8767 151.816 72.1214 151.881C67.4606 152.305 62.7703 152.294 58.1117 151.846C57.4616 151.784 56.8478 151.518 56.3579 151.086C55.868 150.654 55.5271 150.078 55.3838 149.441C54.6103 145.984 54.0708 142.478 53.7691 138.948C53.5925 136.583 53.499 134.272 53.4756 131.993L53.5093 132.013C54.5654 137.661 55.7176 143.102 57.7843 146.742C58.2871 147.629 59.5159 148.474 60.5278 148.607C63.9923 149.066 67.4736 149.127 71.2459 148.562C72.4714 148.381 73.6277 147.88 74.5986 147.111C74.7791 146.967 74.9519 146.815 75.1182 146.658C75.1593 147.426 75.1445 148.197 75.074 148.963Z" fill="#1A1D63" class="tzuGykEB_16"></path>
<path opacity="0.3" d="M20.9189 148.963C20.9931 149.718 21.329 150.422 21.8682 150.955C22.4075 151.488 23.1162 151.816 23.8715 151.881C28.5323 152.305 33.2226 152.294 37.8812 151.846C38.5313 151.784 39.1451 151.518 39.635 151.086C40.1249 150.654 40.4658 150.078 40.6091 149.441C41.3826 145.984 41.9221 142.478 42.2238 138.948C42.4004 136.583 42.4939 134.272 42.5173 131.993L42.4836 132.013C41.4275 137.661 40.2753 143.102 38.2086 146.742C37.7058 147.629 36.477 148.474 35.4651 148.607C32.0007 149.066 28.5193 149.127 24.7471 148.562C23.5195 148.381 22.3613 147.879 21.3891 147.108C21.2086 146.964 21.0358 146.812 20.8696 146.655C20.83 147.425 20.8465 148.196 20.9189 148.963Z" fill="#1A1D63" class="tzuGykEB_17"></path>
<path d="M48.0613 129.222C46.1767 129.218 44.3023 128.947 42.4938 128.417C42.5639 131.829 42.4938 135.329 42.2184 138.948C41.9169 142.48 41.3775 145.987 40.6037 149.446C40.4605 150.084 40.1195 150.659 39.6296 151.091C39.1397 151.523 38.5259 151.789 37.8758 151.851C33.2172 152.299 28.5269 152.311 23.8661 151.886C23.1108 151.821 22.4021 151.493 21.8628 150.961C21.3236 150.428 20.9877 149.723 20.9135 148.968C20.7802 147.608 20.8304 146.236 21.0629 144.89C21.2228 143.99 21.7135 143.182 22.4385 142.625C23.2504 141.997 24.1452 141.484 25.0976 141.1C27.8502 139.998 30.065 140.441 30.065 140.441" stroke="#1A1D63" stroke-width="2" stroke-linecap="round" stroke-linejoin="round" class="tzuGykEB_18"></path>
<path d="M25.103 141.095C22.2711 130.464 21.5567 117.215 21.6528 107.213" stroke="#1A1D63" stroke-width="2" stroke-linecap="round" stroke-linejoin="round" class="tzuGykEB_19"></path>
<path d="M24.5247 102.244C27.1643 102.832 30.2403 102.958 33.884 102.503C34.7015 102.412 35.5258 102.4 36.3456 102.466H36.3612C41.6546 102.893 44.2955 108.979 41.0376 113.257C40.8491 113.513 40.6311 113.746 40.3881 113.951C39.5424 114.671 37.981 115.543 36.938 115.909C36.1681 116.181 35.4021 116.437 34.64 116.678C28.3685 118.659 21.4721 117.17 16.7139 112.625C13.0585 109.132 11.6478 104.821 11.3997 100.087C11.1679 95.5734 12.642 91.1373 15.5292 87.6598C23.4674 78.9994 29.7285 77.2678 35.1129 76.1416" fill="white" class="tzuGykEB_20"></path>
<path d="M22.9153 99.8895C22.9153 99.8999 22.9153 99.9103 22.9218 99.9207C23.0673 100.563 23.401 101.147 23.8802 101.598C24.3594 102.05 24.9624 102.348 25.612 102.455C28.0009 102.855 30.7339 102.897 33.884 102.504C34.7015 102.413 35.5258 102.401 36.3456 102.467H36.3612C41.6546 102.894 44.2955 108.98 41.0376 113.258C40.8491 113.514 40.6311 113.747 40.3881 113.952C39.5424 114.672 37.981 115.544 36.938 115.91C36.1681 116.182 35.4021 116.438 34.64 116.679C28.3685 118.66 21.4721 117.171 16.7139 112.626C13.0585 109.133 11.6478 104.822 11.3997 100.088C11.1679 95.5744 12.642 91.1383 15.5292 87.6608V87.6608C23.4674 79.0004 29.7285 77.2688 35.1129 76.1426" stroke="#1A1D63" stroke-width="2" stroke-linecap="round" stroke-linejoin="round" class="tzuGykEB_21"></path>
<path d="M29.0957 102.772C25.1173 107.709 25.5616 112.614 30.4285 117.489" stroke="#1A1D63" stroke-width="2" stroke-linecap="round" stroke-linejoin="round" class="tzuGykEB_22"></path>
<path d="M47.9316 129.222C49.8162 129.218 51.6906 128.947 53.4991 128.417C53.429 131.829 53.4991 135.329 53.7745 138.948C54.0762 142.478 54.6157 145.984 55.3892 149.441C55.5324 150.078 55.8734 150.654 56.3633 151.086C56.8532 151.518 57.467 151.784 58.1171 151.846C62.7757 152.294 67.466 152.305 72.1268 151.881C72.8821 151.816 73.5908 151.488 74.13 150.955C74.6693 150.422 75.0052 149.718 75.0794 148.963C75.2127 147.603 75.1625 146.231 74.93 144.884C74.7701 143.984 74.2794 143.177 73.5543 142.62C72.7425 141.992 71.8477 141.479 70.8953 141.095C68.1427 139.992 65.9279 140.435 65.9279 140.435" stroke="#1A1D63" stroke-width="2" stroke-linecap="round" stroke-linejoin="round" class="tzuGykEB_23"></path>
<path d="M70.8896 141.095C73.7215 130.464 74.4359 117.215 74.3398 107.213" stroke="#1A1D63" stroke-width="2" stroke-linecap="round" stroke-linejoin="round" class="tzuGykEB_24"></path>
<path d="M71.4678 102.244C68.8295 102.832 65.7522 102.958 62.115 102.503C61.2954 102.412 60.4689 102.399 59.6469 102.466H59.6313C54.3379 102.893 51.697 108.979 54.9549 113.257C55.1431 113.513 55.3611 113.746 55.6044 113.951C56.4488 114.671 58.0102 115.543 59.0533 115.909C59.8231 116.181 60.5891 116.437 61.3512 116.678C67.6241 118.659 74.5191 117.17 79.2774 112.625C82.9327 109.132 84.3434 104.821 84.5915 100.087C84.8238 95.5735 83.3502 91.1375 80.4633 87.6598C72.5239 78.9994 66.2627 77.2678 60.8784 76.1416" fill="white" class="tzuGykEB_25"></path>
<path d="M73.0772 99.8895C73.0779 99.8999 73.0779 99.9103 73.0772 99.9207C72.9321 100.563 72.5987 101.147 72.1197 101.598C71.6407 102.05 71.0378 102.348 70.3883 102.455C67.9982 102.855 65.2651 102.897 62.115 102.504C61.2954 102.413 60.4689 102.4 59.6469 102.467H59.6313C54.3379 102.894 51.697 108.98 54.9549 113.258C55.1431 113.514 55.3611 113.747 55.6044 113.952C56.4488 114.672 58.0102 115.544 59.0533 115.91C59.8231 116.182 60.5891 116.438 61.3512 116.679C67.6241 118.66 74.5191 117.171 79.2774 112.626C82.9327 109.133 84.3434 104.822 84.5915 100.088C84.8238 95.5745 83.3502 91.1384 80.4633 87.6608V87.6608C72.5239 79.0004 66.2627 77.2688 60.8784 76.1426" stroke="#1A1D63" stroke-width="2" stroke-linecap="round" stroke-linejoin="round" class="tzuGykEB_26"></path>
<path d="M66.8967 102.772C70.876 107.709 70.4317 112.614 65.564 117.489" stroke="#1A1D63" stroke-width="2" stroke-linecap="round" stroke-linejoin="round" class="tzuGykEB_27"></path>
<path d="M33.9141 123.914C43.3465 130.818 52.7785 130.818 62.2101 123.914" stroke="#1A1D63" stroke-width="2" stroke-linecap="round" stroke-linejoin="round" class="tzuGykEB_28"></path>
<path d="M23.3774 132.857C29.6284 134.353 36.1008 134.687 42.4727 133.845" stroke="#1A1D63" stroke-width="2" stroke-linecap="round" stroke-linejoin="round" class="tzuGykEB_29"></path>
<path d="M53.5142 133.846C59.8861 134.688 66.3584 134.353 72.6094 132.857" stroke="#1A1D63" stroke-width="2" stroke-linecap="round" stroke-linejoin="round" class="tzuGykEB_30"></path>
<path opacity="0.3" d="M72.417 80.5728C56.1795 88.7132 39.942 88.7132 23.7046 80.5728C27.9913 77.8033 31.7311 76.8538 35.1215 76.1445H61.0027C64.3918 76.8538 68.1303 77.8033 72.417 80.5728Z" fill="#1A1D63" class="tzuGykEB_31"></path>
<path opacity="0.3" d="M14.6479 110.242C15.2637 111.102 15.9596 111.901 16.7263 112.628C21.482 117.175 28.3783 118.662 34.6525 116.68C35.4137 116.44 36.1788 116.184 36.9478 115.912C37.987 115.546 39.5523 114.674 40.398 113.955C40.6409 113.749 40.8589 113.516 41.0475 113.26C41.5792 112.569 41.9758 111.785 42.2165 110.948C31.8609 115.338 22.4341 116.063 14.6479 110.242Z" fill="#1A1D63" class="tzuGykEB_32"></path>
<path opacity="0.3" d="M59.9468 116.219C59.8455 116.757 59.7429 117.296 59.6493 117.835C59.5194 118.615 58.3802 119.219 57.6008 119.334C51.2921 120.279 44.8779 120.279 38.5692 119.334C37.8028 119.22 36.6714 118.634 36.5259 117.874C36.4181 117.309 36.3012 116.743 36.1895 116.177C36.4402 116.092 36.6922 116.004 36.9442 115.917L37.1338 115.847C37.1637 115.923 37.1984 115.998 37.2377 116.07C37.2595 116.111 37.2834 116.151 37.3092 116.19C37.3352 116.229 37.3624 116.266 37.3897 116.304C37.4467 116.376 37.5083 116.445 37.5742 116.509C37.847 116.772 38.1948 116.942 38.5692 116.998C39.3659 117.115 40.1622 117.219 40.9581 117.308C41.3573 117.354 41.7552 117.395 42.1519 117.43C42.7494 117.486 43.3461 117.534 43.9419 117.572L44.6862 117.616C45.1824 117.643 45.6799 117.664 46.1761 117.678L46.9205 117.696C47.7129 117.712 48.5057 117.712 49.2989 117.696L49.738 117.686C49.8848 117.686 50.0316 117.686 50.1783 117.673L50.6187 117.657L51.0578 117.639L51.6436 117.609H51.7099C52.0918 117.589 52.4728 117.564 52.853 117.535C53.2336 117.508 53.6142 117.476 53.9948 117.441L54.1052 117.43C54.4603 117.396 54.8149 117.36 55.1691 117.321C55.9814 117.234 56.7924 117.129 57.6021 117.005C57.8732 116.965 58.1317 116.864 58.3581 116.709L58.4478 116.643C58.4854 116.614 58.5205 116.585 58.5543 116.553L58.6049 116.505C58.7786 116.335 58.9164 116.132 59.0102 115.908L59.0518 115.923C59.3506 116.021 59.6489 116.12 59.9468 116.219Z" fill="#1A1D63" class="tzuGykEB_33"></path>
<path d="M41.0569 113.034C41.0093 112.985 40.9639 112.936 40.9206 112.886L40.8413 112.792L40.9218 112.886C40.9647 112.936 41.0102 112.986 41.0569 113.034Z" fill="white" class="tzuGykEB_34"></path>
<path d="M59.0102 115.896C58.9164 116.12 58.7786 116.324 58.6049 116.494L58.5542 116.542C58.5192 116.573 58.4841 116.603 58.4477 116.631L58.3581 116.698C58.1316 116.852 57.8732 116.953 57.6021 116.994C56.7915 117.114 55.9805 117.219 55.1691 117.309C54.814 117.348 54.4594 117.385 54.1052 117.418L53.9948 117.429C53.6137 117.464 53.2331 117.495 52.8529 117.524C52.4723 117.551 52.0904 117.577 51.7098 117.598H51.6436L51.0577 117.628L50.6187 117.646L50.1783 117.661L49.7379 117.674L49.2989 117.685C48.5065 117.7 47.7137 117.7 46.9204 117.685L46.1761 117.667C45.6799 117.651 45.1824 117.63 44.6862 117.604L43.9418 117.56C43.346 117.521 42.7494 117.474 42.1518 117.418C41.7543 117.382 41.3568 117.341 40.958 117.296C40.163 117.21 39.3668 117.106 38.5692 116.986C38.1948 116.931 37.8469 116.76 37.5742 116.498C37.5083 116.433 37.4467 116.365 37.3897 116.292C37.3624 116.255 37.3351 116.217 37.3092 116.178C37.2832 116.139 37.2598 116.099 37.2377 116.058C37.1984 115.986 37.1637 115.912 37.1338 115.835C37.6437 115.633 38.1393 115.397 38.6172 115.128C39.2452 114.791 39.8402 114.396 40.3943 113.948C40.6373 113.742 40.8552 113.509 41.0438 113.253L41.149 113.112C41.2022 113.04 41.2529 112.967 41.3023 112.893C41.478 112.631 41.636 112.358 41.7751 112.076C42.4906 110.631 42.6608 108.976 42.2544 107.416C41.8696 105.906 40.9661 104.578 39.7019 103.666C45.2304 103.926 50.759 103.929 56.2875 103.676C54.87 104.706 53.9148 106.253 53.6284 107.981C53.5175 108.625 53.5031 109.282 53.5856 109.93C53.6563 110.506 53.8022 111.071 54.0194 111.609C54.2569 112.199 54.5728 112.753 54.9586 113.258C55.0327 113.354 55.0989 113.437 55.1639 113.518C55.299 113.677 55.4471 113.824 55.6068 113.958C56.4395 114.665 57.9684 115.523 59.0102 115.896Z" fill="white" class="tzuGykEB_35"></path>
<path d="M59.0102 115.896C58.9164 116.12 58.7786 116.324 58.6049 116.494L58.5542 116.542C58.5192 116.573 58.4841 116.603 58.4477 116.631L58.3581 116.698C58.1316 116.852 57.8732 116.953 57.6021 116.994C56.7915 117.114 55.9805 117.219 55.1691 117.309C54.814 117.348 54.4594 117.385 54.1052 117.418L53.9948 117.429C53.6137 117.464 53.2331 117.495 52.8529 117.524C52.4723 117.551 52.0904 117.577 51.7098 117.598H51.6436L51.0577 117.628L50.6187 117.646L50.1783 117.661L49.7379 117.674L49.2989 117.685C48.5065 117.7 47.7137 117.7 46.9204 117.685L46.1761 117.667C45.6799 117.651 45.1824 117.63 44.6862 117.604L43.9418 117.56C43.346 117.521 42.7494 117.474 42.1518 117.418C41.7543 117.382 41.3568 117.341 40.958 117.296C40.163 117.21 39.3668 117.106 38.5692 116.986C38.1948 116.931 37.8469 116.76 37.5742 116.498C37.5083 116.433 37.4467 116.365 37.3897 116.292C37.3624 116.255 37.3351 116.217 37.3092 116.178C37.2832 116.139 37.2598 116.099 37.2377 116.058C37.1984 115.986 37.1637 115.912 37.1338 115.835C37.6437 115.633 38.1393 115.397 38.6172 115.128C39.2452 114.791 39.8402 114.396 40.3943 113.948C40.6373 113.742 40.8552 113.509 41.0438 113.253L41.149 113.112C41.2022 113.04 41.2529 112.967 41.3023 112.893C41.478 112.631 41.636 112.358 41.7751 112.076C42.4906 110.631 42.6608 108.976 42.2544 107.416C41.8696 105.906 40.9661 104.578 39.7019 103.666C45.2304 103.926 50.759 103.929 56.2875 103.676C54.87 104.706 53.9148 106.253 53.6284 107.981C53.5175 108.625 53.5031 109.282 53.5856 109.93C53.6563 110.506 53.8022 111.071 54.0194 111.609C54.2569 112.199 54.5728 112.753 54.9586 113.258C55.0327 113.354 55.0989 113.437 55.1639 113.518C55.299 113.677 55.4471 113.824 55.6068 113.958C56.4395 114.665 57.9684 115.523 59.0102 115.896Z" stroke="#1A1D63" stroke-width="2" stroke-linecap="round" stroke-linejoin="round" class="tzuGykEB_36"></path>
<path d="M46.9566 110.623C46.9562 111.536 46.5934 112.411 45.9479 113.057C45.3025 113.702 44.4271 114.065 43.5142 114.065C43.461 114.065 43.4064 114.065 43.3544 114.065C43.3246 114.065 43.2947 114.065 43.2648 114.065L43.1674 114.058C43.1601 114.059 43.1526 114.059 43.1453 114.058C43.0985 114.058 43.0531 114.049 43.0063 114.041L42.9531 114.032C42.9194 114.028 42.886 114.022 42.853 114.013L42.7842 114L42.6647 113.972H42.6478C42.6079 113.963 42.5684 113.952 42.5296 113.939C42.5075 113.939 42.4867 113.926 42.4646 113.92C42.4005 113.901 42.3382 113.879 42.2776 113.854C42.1548 113.807 42.0351 113.753 41.9191 113.691C41.8147 113.637 41.7132 113.577 41.6151 113.512L41.5462 113.465L41.4839 113.421L41.3891 113.348C41.3501 113.317 41.3111 113.286 41.2735 113.254L41.163 113.155L41.1436 113.137C41.1968 113.064 41.2475 112.991 41.2968 112.917C41.4726 112.656 41.6305 112.383 41.7697 112.1C42.4852 110.655 42.6554 109.001 42.249 107.441C42.8688 107.196 43.5463 107.136 44.1993 107.269C44.8523 107.402 45.4527 107.721 45.9278 108.189C45.9667 108.228 46.0057 108.268 46.0434 108.308C46.081 108.349 46.1187 108.391 46.1538 108.438C46.1889 108.485 46.2434 108.546 46.2837 108.603C46.3084 108.636 46.333 108.669 46.3551 108.704C46.4185 108.796 46.477 108.891 46.5305 108.989C46.5578 109.038 46.5838 109.089 46.6084 109.14C46.6331 109.19 46.6565 109.241 46.6786 109.293C46.7007 109.345 46.7214 109.398 46.7409 109.45C46.7604 109.502 46.7799 109.558 46.7968 109.612C46.8137 109.667 46.8293 109.722 46.8449 109.777C46.8924 109.959 46.9241 110.144 46.9397 110.331C46.9509 110.419 46.9566 110.517 46.9566 110.623Z" fill="#6CCFF9" class="tzuGykEB_37"></path>
<path opacity="0.4" d="M46.9566 110.624C46.9562 111.537 46.5934 112.412 45.9479 113.057C45.3025 113.703 44.4271 114.066 43.5142 114.066C43.461 114.066 43.4064 114.066 43.3544 114.066C43.3246 114.066 43.2947 114.066 43.2648 114.066L43.1674 114.058C43.1601 114.06 43.1526 114.06 43.1453 114.058C43.0985 114.058 43.0531 114.049 43.0063 114.041L42.9531 114.032C42.9194 114.028 42.886 114.022 42.853 114.014L42.7842 114.001L42.6647 113.973H42.6478C42.6079 113.964 42.5684 113.953 42.5296 113.94C42.5075 113.94 42.4867 113.927 42.4646 113.921C42.4005 113.902 42.3382 113.879 42.2776 113.854C42.1548 113.808 42.0351 113.753 41.9191 113.692C41.8147 113.638 41.7132 113.578 41.6151 113.513L41.5462 113.466L41.4839 113.422L41.3891 113.349C41.3501 113.318 41.3111 113.287 41.2735 113.254L41.163 113.156L41.1436 113.137C41.1968 113.065 41.2475 112.992 41.2968 112.918C41.4726 112.656 41.6305 112.383 41.7697 112.101C42.019 112.157 42.2739 112.186 42.5296 112.185C42.9817 112.185 43.4294 112.096 43.8471 111.923C44.2648 111.751 44.6444 111.497 44.9641 111.177C45.2838 110.858 45.5373 110.478 45.7102 110.06C45.8832 109.643 45.9721 109.195 45.9719 108.743C45.9719 108.693 45.9719 108.645 45.9719 108.597C45.9653 108.461 45.9515 108.325 45.9304 108.189C45.9693 108.228 46.0083 108.269 46.046 108.309C46.0836 108.349 46.1213 108.392 46.1564 108.439C46.1915 108.486 46.2447 108.547 46.2863 108.604C46.311 108.636 46.3356 108.67 46.359 108.705C46.4224 108.797 46.4809 108.892 46.5344 108.99C46.5617 109.039 46.5876 109.09 46.6123 109.14C46.637 109.191 46.6604 109.242 46.6825 109.294C46.7046 109.346 46.7253 109.399 46.7448 109.451C46.7643 109.503 46.7838 109.559 46.8007 109.613C46.8176 109.668 46.8332 109.722 46.8487 109.778C46.8963 109.959 46.928 110.145 46.9436 110.331C46.9522 110.42 46.9566 110.517 46.9566 110.624Z" fill="#1A1D63" class="tzuGykEB_38"></path>
<path d="M46.9566 110.623C46.9562 111.536 46.5934 112.411 45.9479 113.057C45.3025 113.702 44.4271 114.065 43.5142 114.065C43.461 114.065 43.4064 114.065 43.3544 114.065C43.3246 114.065 43.2947 114.065 43.2648 114.065L43.1674 114.058C43.1601 114.059 43.1526 114.059 43.1453 114.058C43.0985 114.058 43.0531 114.049 43.0063 114.041L42.9531 114.032C42.9194 114.028 42.886 114.022 42.853 114.013L42.7842 114L42.6647 113.972H42.6478C42.6079 113.963 42.5684 113.952 42.5296 113.939C42.5075 113.939 42.4867 113.926 42.4646 113.92C42.4005 113.901 42.3382 113.879 42.2776 113.854C42.1548 113.807 42.0351 113.753 41.9191 113.691C41.8147 113.637 41.7132 113.577 41.6151 113.512L41.5462 113.465L41.4839 113.421L41.3891 113.348C41.3501 113.317 41.3111 113.286 41.2735 113.254L41.163 113.155L41.1436 113.137C41.1968 113.064 41.2475 112.991 41.2968 112.917C41.4726 112.656 41.6305 112.383 41.7697 112.1C42.4852 110.655 42.6554 109.001 42.249 107.441C42.8688 107.196 43.5463 107.136 44.1993 107.269C44.8523 107.402 45.4527 107.721 45.9278 108.189C45.9667 108.228 46.0057 108.268 46.0434 108.308C46.081 108.349 46.1187 108.391 46.1538 108.438C46.1889 108.485 46.2434 108.546 46.2837 108.603C46.3084 108.636 46.333 108.669 46.3551 108.704C46.4185 108.796 46.477 108.891 46.5305 108.989C46.5578 109.038 46.5838 109.089 46.6084 109.14C46.6331 109.19 46.6565 109.241 46.6786 109.293C46.7007 109.345 46.7214 109.398 46.7409 109.45C46.7604 109.502 46.7799 109.558 46.7968 109.612C46.8137 109.667 46.8293 109.722 46.8449 109.777C46.8924 109.959 46.9241 110.144 46.9397 110.331C46.9509 110.419 46.9566 110.517 46.9566 110.623Z" stroke="#1A1D63" stroke-width="2" stroke-linecap="round" stroke-linejoin="round" class="tzuGykEB_39"></path>
<path d="M53.5815 109.931C52.6332 109.961 51.5421 109.991 50.6743 110.004H50.6639C50.4862 110.004 50.3157 109.933 50.19 109.807C50.0643 109.682 49.9937 109.511 49.9937 109.333V108.719C49.9943 108.542 50.0644 108.373 50.1889 108.248C50.3133 108.122 50.4821 108.051 50.6587 108.049C51.6421 108.04 52.6332 108.019 53.6243 107.986C53.5138 108.629 53.4994 109.284 53.5815 109.931Z" fill="#1A1D63" class="tzuGykEB_40"></path>
<path d="M55.1588 113.514C54.1651 113.551 52.1126 113.62 50.6733 113.644H50.663C50.4852 113.644 50.3147 113.573 50.189 113.447C50.0633 113.322 49.9927 113.151 49.9927 112.973V112.359C49.9933 112.182 50.0635 112.013 50.1879 111.888C50.3123 111.762 50.4811 111.691 50.6578 111.689C51.7697 111.678 52.8946 111.654 54.0144 111.613C54.2518 112.203 54.5677 112.757 54.9536 113.262C55.0276 113.355 55.0938 113.438 55.1588 113.514Z" fill="#1A1D63" class="tzuGykEB_41"></path>
<path opacity="0.3" d="M36.7799 118.382C31.9854 121.427 24.2615 120.634 22.0052 120.318L21.9935 120.141C21.9051 118.747 21.835 117.365 21.7817 116.008C25.8447 117.786 30.4155 118.025 34.6418 116.681C35.1536 116.52 35.668 116.35 36.185 116.173C36.2967 116.739 36.4136 117.306 36.5214 117.871C36.5542 118.026 36.6202 118.173 36.715 118.301C36.7348 118.329 36.7565 118.357 36.7799 118.382Z" fill="#1A1D63" class="tzuGykEB_42"></path>
<path opacity="0.3" d="M59.2114 118.382C64.006 121.427 71.7299 120.634 73.9862 120.318L73.9979 120.141C74.0862 118.747 74.1564 117.365 74.2097 116.008C70.1467 117.786 65.5759 118.025 61.3496 116.681C60.8378 116.52 60.3234 116.35 59.8064 116.173C59.6947 116.739 59.5777 117.306 59.4699 117.871C59.4372 118.026 59.3711 118.173 59.2764 118.301C59.2566 118.329 59.2349 118.357 59.2114 118.382Z" fill="#1A1D63" class="tzuGykEB_43"></path>
<path d="M47.9958 1.83301C25.4335 1.83301 7.19037 20.1242 7.14231 42.6865C7.07736 73.2129 21.6261 82.9554 47.9958 82.8904C74.3654 82.9554 88.9141 73.2129 88.8492 42.6865C88.8011 20.1242 70.558 1.83301 47.9958 1.83301Z" fill="white" class="tzuGykEB_44"></path>
<path d="M58.2998 3.14499C51.5421 1.39568 44.4502 1.39568 37.6925 3.14499L36.1753 14.6424C43.8822 12.3025 52.1101 12.3025 59.817 14.6424L58.2998 3.14499Z" stroke="#1A1D63" stroke-width="2" stroke-linecap="round" stroke-linejoin="round" class="tzuGykEB_45"></path>
<path d="M47.9962 12.8877C43.9942 12.9304 40.017 13.5209 36.1753 14.6426L37.3976 18.2045C44.3367 16.3131 51.6556 16.3131 58.5947 18.2045L59.817 14.6426C55.9753 13.5209 51.9981 12.9304 47.9962 12.8877V12.8877Z" stroke="#1A1D63" stroke-width="2" stroke-linecap="round" stroke-linejoin="round" class="tzuGykEB_46"></path>
<path d="M47.9958 1.83301C25.4335 1.83301 7.19037 20.1242 7.14231 42.6865C7.07736 73.2129 21.6261 82.9553 47.9958 82.8904C74.3654 82.9553 88.9141 73.2129 88.8492 42.6865C88.8011 20.1242 70.558 1.83301 47.9958 1.83301Z" stroke="#1A1D63" stroke-width="2" stroke-linecap="round" stroke-linejoin="round" class="tzuGykEB_47"></path>
<path d="M88.8492 42.686C88.8596 47.7416 88.4699 52.2284 87.6905 56.1955C87.2175 58.5539 86.1275 60.7447 84.5317 62.5445C82.9359 64.3443 80.8914 65.6887 78.6066 66.4407C58.1994 73.231 37.7926 73.231 17.3862 66.4407C15.0811 65.6736 13.0219 64.3066 11.42 62.4803C9.81805 60.654 8.73121 58.4341 8.27113 56.0487C7.51251 52.1193 7.13191 47.6832 7.1423 42.6911V42.6262C7.15464 40.7302 7.57253 38.8588 8.36791 37.1376C9.16329 35.4165 10.3177 33.8854 11.7537 32.6473C35.8761 11.7335 59.9976 11.4953 84.1182 31.9329C85.5592 33.1537 86.7252 34.6659 87.5393 36.37C88.3534 38.0742 88.7972 39.9314 88.8414 41.8195C88.8453 42.1066 88.8492 42.3963 88.8492 42.686Z" fill="#080A28" class="tzuGykEB_48"></path>
<path opacity="0.75" d="M15.0299 50.0733C14.9808 50.4683 14.8355 50.8451 14.6067 51.1708C14.378 51.4965 14.0728 51.7611 13.7179 51.9413C13.0217 52.2946 12.1773 52.3518 11.5863 51.1619C10.8238 49.6291 10.8406 47.8313 10.8445 46.0815V46.0075C10.8445 45.5961 10.864 45.1861 10.903 44.7773C11.3369 40.0776 13.0788 36.4715 18.0877 32.7149C21.7093 29.9986 24.1463 28.0852 28.0472 26.8525C31.2154 25.851 32.5742 28.2814 30.0697 30.4325C20.7845 38.9228 18.7359 40.3283 15.6859 47.6182C15.3574 48.4032 15.1368 49.2291 15.0299 50.0733Z" fill="white" class="tzuGykEB_49"></path>
<path d="M88.8495 42.6861C88.8599 47.7431 88.4702 52.2285 87.6908 56.1957C87.218 58.5542 86.1281 60.7451 84.5323 62.5449C82.9365 64.3447 80.8918 65.6891 78.6069 66.4408C58.1997 73.2329 37.7929 73.2329 17.3865 66.4408C14.7924 65.5785 12.5164 63.9582 10.8525 61.7891C34.3059 65.5224 56.9383 66.9176 73.8902 59.99C80.0397 57.4765 84.3732 51.7869 85.0356 45.1815C85.5033 40.5129 85.0356 35.7871 83.3106 31.2666C83.5782 31.4892 83.8466 31.7139 84.116 31.9408C85.5569 33.1613 86.7228 34.6734 87.537 36.3773C88.3511 38.0812 88.7949 39.9383 88.8391 41.8262C88.846 42.1102 88.8495 42.3968 88.8495 42.6861Z" fill="black" class="tzuGykEB_50"></path>
<path d="M88.8492 42.686C88.8596 47.7416 88.4699 52.2284 87.6905 56.1955C87.2175 58.5539 86.1275 60.7447 84.5317 62.5445C82.9359 64.3443 80.8914 65.6887 78.6066 66.4407C58.1994 73.231 37.7926 73.231 17.3862 66.4407C15.0811 65.6736 13.0219 64.3066 11.42 62.4803C9.81805 60.654 8.73121 58.4341 8.27113 56.0487C7.51251 52.1193 7.13191 47.6832 7.1423 42.6911V42.6262C7.15464 40.7302 7.57253 38.8588 8.36791 37.1376C9.16329 35.4165 10.3177 33.8854 11.7537 32.6473C35.8761 11.7335 59.9976 11.4953 84.1182 31.9329C85.5592 33.1537 86.7252 34.6659 87.5393 36.37C88.3534 38.0742 88.7972 39.9314 88.8414 41.8195C88.8453 42.1066 88.8492 42.3963 88.8492 42.686Z" stroke="#1A1D63" stroke-width="2" stroke-linecap="round" stroke-linejoin="round" class="tzuGykEB_51"></path>
<path opacity="0.2" d="M7.14404 42.5401C7.16097 38.8054 7.68849 35.0905 8.71193 31.4987C34.8148 6.99093 60.9143 6.68783 87.0102 30.5894C88.1321 34.2065 88.7467 37.9617 88.8366 41.7478C88.7829 39.8722 88.3348 38.029 87.5215 36.3381C86.7081 34.6472 85.5478 33.1466 84.1161 31.9338C59.9946 11.4963 35.8731 11.734 11.7516 32.647C10.327 33.8759 9.17965 35.3933 8.38535 37.0987C7.59106 38.8042 7.16796 40.6589 7.14404 42.5401Z" fill="#1A1D63" class="tzuGykEB_52"></path>
<path d="M8.71191 31.4987C34.8148 6.99093 60.9143 6.68783 87.0102 30.5894" stroke="#1A1D63" stroke-width="2" stroke-linecap="round" stroke-linejoin="round" class="tzuGykEB_53"></path>
<path d="M94.3184 57.0716C94.2763 57.4166 94.162 57.7489 93.9829 58.0468C93.8039 58.3447 93.5641 58.6015 93.2792 58.8006C91.1774 60.249 88.7807 61.3583 86.1035 62.1494C87.9377 56.8898 88.8704 50.4584 88.8535 42.6865C88.848 38.1175 88.0784 33.5817 86.5764 29.2666C89.0264 29.9646 91.3229 31.1184 93.3454 32.6674C93.6092 32.8708 93.8295 33.125 93.9933 33.4151C94.1571 33.7052 94.261 34.0251 94.2989 34.3561C95.2272 42.3388 95.2337 49.9107 94.3184 57.0716Z" fill="white" class="tzuGykEB_54"></path>
<path d="M9.89264 62.1546C7.21541 61.3635 4.81876 60.2542 2.71698 58.8058C2.43206 58.6067 2.19226 58.3499 2.01321 58.052C1.83416 57.7541 1.71987 57.4218 1.67778 57.0768C0.767621 49.9141 0.774119 42.3406 1.69727 34.3561C1.73517 34.0251 1.83908 33.7052 2.00286 33.4151C2.16663 33.125 2.38694 32.8708 2.65073 32.6674C4.67209 31.1188 6.96721 29.9651 9.41591 29.2666C7.91523 33.5819 7.14688 38.1178 7.14266 42.6865C7.12578 50.4636 8.05845 56.8898 9.89264 62.1546Z" fill="white" class="tzuGykEB_55"></path>
<path opacity="0.3" d="M94.8575 51.1748C94.7449 53.1666 94.5652 55.132 94.3184 57.071C94.2763 57.416 94.162 57.7482 93.9829 58.0461C93.8039 58.344 93.5641 58.6009 93.2792 58.7999C91.1774 60.2483 88.7807 61.3576 86.1035 62.1487C86.7179 60.3694 87.2147 58.5517 87.5909 56.7072C90.505 55.6189 93.0329 53.6943 94.8575 51.1748Z" fill="#1A1D63" class="tzuGykEB_56"></path>
<path opacity="0.3" d="M1.13477 51.1748C1.24821 53.1666 1.42791 55.132 1.67385 57.071C1.71594 57.416 1.83022 57.7482 2.00927 58.0461C2.18832 58.344 2.42813 58.6009 2.71305 58.7999C4.81483 60.2483 7.21147 61.3576 9.88871 62.1487C9.27436 60.3694 8.77751 58.5517 8.40135 56.7072C5.4872 55.6189 2.9593 53.6943 1.13477 51.1748Z" fill="#1A1D63" class="tzuGykEB_57"></path>
<path d="M94.3184 57.0716C94.2763 57.4166 94.162 57.7489 93.9829 58.0468C93.8039 58.3447 93.5641 58.6015 93.2792 58.8006C91.1774 60.249 88.7807 61.3583 86.1035 62.1494C87.9377 56.8898 88.8704 50.4584 88.8535 42.6865C88.848 38.1175 88.0784 33.5817 86.5764 29.2666C89.0264 29.9646 91.3229 31.1184 93.3454 32.6674C93.6092 32.8708 93.8295 33.125 93.9933 33.4151C94.1571 33.7052 94.261 34.0251 94.2989 34.3561C95.2272 42.3388 95.2337 49.9107 94.3184 57.0716Z" stroke="#1A1D63" stroke-width="2" stroke-linecap="round" stroke-linejoin="round" class="tzuGykEB_58"></path>
<path d="M9.89264 62.1546C7.21541 61.3635 4.81876 60.2542 2.71698 58.8058C2.43206 58.6067 2.19226 58.3499 2.01321 58.052C1.83416 57.7541 1.71987 57.4218 1.67778 57.0768C0.767621 49.9141 0.774119 42.3406 1.69727 34.3561C1.73517 34.0251 1.83908 33.7052 2.00286 33.4151C2.16663 33.125 2.38694 32.8708 2.65073 32.6674C4.67209 31.1188 6.96721 29.9651 9.41591 29.2666C7.91523 33.5819 7.14688 38.1178 7.14266 42.6865C7.12578 50.4636 8.05845 56.8898 9.89264 62.1546Z" stroke="#1A1D63" stroke-width="2" stroke-linecap="round" stroke-linejoin="round" class="tzuGykEB_59"></path>
<path opacity="0.2" d="M87.6453 56.4192C86.8283 60.4916 85.5968 64.0106 83.964 67.0308C82.6065 68.1857 81.0415 69.0714 79.3525 69.6404C58.4915 76.668 37.6305 76.668 16.7695 69.6404C14.9696 69.0342 13.3131 68.0656 11.9021 66.7943C10.3122 63.7898 9.11318 60.2994 8.31689 56.2725C8.80842 58.6121 9.90443 60.782 11.4957 62.5662C13.087 64.3503 15.1181 65.6863 17.3865 66.441C37.7929 73.233 58.1997 73.233 78.6069 66.441C80.855 65.701 82.8711 64.3873 84.4562 62.6298C86.0414 60.8722 87.1406 58.7316 87.6453 56.4192Z" fill="#1A1D63" class="tzuGykEB_60"></path>
<path d="M11.9023 66.7949C13.3133 68.0662 14.9698 69.0348 16.7697 69.641C37.6316 76.6677 58.4926 76.6677 79.3528 69.641C81.0417 69.0719 82.6068 68.1863 83.9642 67.0313" stroke="#1A1D63" stroke-width="2" stroke-linecap="round" stroke-linejoin="round" class="tzuGykEB_61"></path>
<path d="M62.7663 69.5879H33.0193C31.9432 69.5879 31.0708 70.4603 31.0708 71.5364V76.7973C31.0708 77.8734 31.9432 78.7458 33.0193 78.7458H62.7663C63.8424 78.7458 64.7148 77.8734 64.7148 76.7973V71.5364C64.7148 70.4603 63.8424 69.5879 62.7663 69.5879Z" fill="#39B54A" class="tzuGykEB_62"></path>
<path opacity="0.5" d="M64.7148 71.5364V74.2643C64.7148 73.7475 64.5095 73.2519 64.1441 72.8865C63.7787 72.5211 63.2831 72.3158 62.7663 72.3158H33.0193C32.5025 72.3158 32.0069 72.5211 31.6415 72.8865C31.2761 73.2519 31.0708 73.7475 31.0708 74.2643V71.5364C31.0708 71.0196 31.2761 70.524 31.6415 70.1586C32.0069 69.7932 32.5025 69.5879 33.0193 69.5879H62.7663C63.2831 69.5879 63.7787 69.7932 64.1441 70.1586C64.5095 70.524 64.7148 71.0196 64.7148 71.5364Z" fill="white" class="tzuGykEB_63"></path>
<path opacity="0.3" d="M31.0439 76.7963V74.0684C31.0439 74.5851 31.2492 75.0807 31.6146 75.4462C31.9801 75.8116 32.4757 76.0169 32.9924 76.0169H62.7395C63.2562 76.0169 63.7518 75.8116 64.1173 75.4462C64.4827 75.0807 64.688 74.5851 64.688 74.0684V76.7963C64.688 77.313 64.4827 77.8086 64.1173 78.174C63.7518 78.5395 63.2562 78.7447 62.7395 78.7447H32.9924C32.4757 78.7447 31.9801 78.5395 31.6146 78.174C31.2492 77.8086 31.0439 77.313 31.0439 76.7963Z" fill="#1A1D63" class="tzuGykEB_64"></path>
<path d="M62.7663 69.5879H33.0193C31.9432 69.5879 31.0708 70.4603 31.0708 71.5364V76.7973C31.0708 77.8734 31.9432 78.7458 33.0193 78.7458H62.7663C63.8424 78.7458 64.7148 77.8734 64.7148 76.7973V71.5364C64.7148 70.4603 63.8424 69.5879 62.7663 69.5879Z" stroke="#1A1D63" stroke-width="2" stroke-linecap="round" stroke-linejoin="round" class="tzuGykEB_65"></path>
<path d="M36.5918 78.7458V69.5879" stroke="#1A1D63" stroke-width="2" stroke-linecap="round" stroke-linejoin="round" class="tzuGykEB_66"></path>
<path d="M59.1943 78.7458V69.5879" stroke="#1A1D63" stroke-width="2" stroke-linecap="round" stroke-linejoin="round" class="tzuGykEB_67"></path>
<path d="M65.4022 88.0332H27.3416C26.2654 88.0332 25.3931 88.9056 25.3931 89.9817V95.2426C25.3931 96.3188 26.2654 97.1911 27.3416 97.1911H65.4022C66.4783 97.1911 67.3507 96.3188 67.3507 95.2426V89.9817C67.3507 88.9056 66.4783 88.0332 65.4022 88.0332Z" fill="#F7931E" class="tzuGykEB_68"></path>
<path opacity="0.3" d="M67.3507 92.125V95.2426C67.3507 95.7594 67.1454 96.255 66.78 96.6204C66.4145 96.9858 65.9189 97.1911 65.4022 97.1911H27.3416C26.8248 97.1911 26.3292 96.9858 25.9638 96.6204C25.5984 96.255 25.3931 95.7594 25.3931 95.2426V92.125C25.3931 92.6418 25.5984 93.1374 25.9638 93.5028C26.3292 93.8682 26.8248 94.0735 27.3416 94.0735H65.4022C65.9189 94.0735 66.4145 93.8682 66.78 93.5028C67.1454 93.1374 67.3507 92.6418 67.3507 92.125Z" fill="#1A1D63" class="tzuGykEB_69"></path>
<path d="M65.4022 88.0332H27.3416C26.2654 88.0332 25.3931 88.9056 25.3931 89.9817V95.2426C25.3931 96.3188 26.2654 97.1911 27.3416 97.1911H65.4022C66.4783 97.1911 67.3507 96.3188 67.3507 95.2426V89.9817C67.3507 88.9056 66.4783 88.0332 65.4022 88.0332Z" stroke="#1A1D63" stroke-width="2" stroke-linecap="round" stroke-linejoin="round" class="tzuGykEB_70"></path>
<path d="M31.6934 97.2556V87.9678" stroke="#1A1D63" stroke-width="2" stroke-linecap="round" stroke-linejoin="round" class="tzuGykEB_71"></path>
<path d="M61.0508 97.2556V87.9678" stroke="#1A1D63" stroke-width="2" stroke-linecap="round" stroke-linejoin="round" class="tzuGykEB_72"></path>
<path d="M68.6502 78.7451H30.5896C29.5135 78.7451 28.6411 79.6175 28.6411 80.6936V86.0844C28.6411 87.1606 29.5135 88.0329 30.5896 88.0329H68.6502C69.7263 88.0329 70.5987 87.1606 70.5987 86.0844V80.6936C70.5987 79.6175 69.7263 78.7451 68.6502 78.7451Z" fill="#29ABE2" class="tzuGykEB_73"></path>
<path opacity="0.3" d="M70.5987 82.9668V86.0844C70.5987 86.6012 70.3934 87.0968 70.028 87.4622C69.6626 87.8276 69.167 88.0329 68.6502 88.0329H30.5896C30.0728 88.0329 29.5772 87.8276 29.2118 87.4622C28.8464 87.0968 28.6411 86.6012 28.6411 86.0844V82.9668C28.6411 83.4836 28.8464 83.9792 29.2118 84.3446C29.5772 84.71 30.0728 84.9153 30.5896 84.9153H68.6502C69.167 84.9153 69.6626 84.71 70.028 84.3446C70.3934 83.9792 70.5987 83.4836 70.5987 82.9668Z" fill="#1A1D63" class="tzuGykEB_74"></path>
<path d="M68.6502 78.7451H30.5896C29.5135 78.7451 28.6411 79.6175 28.6411 80.6936V86.0844C28.6411 87.1606 29.5135 88.0329 30.5896 88.0329H68.6502C69.7263 88.0329 70.5987 87.1606 70.5987 86.0844V80.6936C70.5987 79.6175 69.7263 78.7451 68.6502 78.7451Z" stroke="#1A1D63" stroke-width="2" stroke-linecap="round" stroke-linejoin="round" class="tzuGykEB_75"></path>
<path d="M34.8755 88.0329V78.7451" stroke="#1A1D63" stroke-width="2" stroke-linecap="round" stroke-linejoin="round" class="tzuGykEB_76"></path>
<path d="M64.3633 88.0329V78.7451" stroke="#1A1D63" stroke-width="2" stroke-linecap="round" stroke-linejoin="round" class="tzuGykEB_77"></path>
<path d="M69.4293 99.1396V102.594H69.4176C67.3275 102.853 64.9854 102.846 62.3497 102.533L62.1081 102.504C61.2885 102.412 60.462 102.4 59.64 102.466H59.6244C58.0717 102.578 56.6098 103.24 55.5014 104.333C54.638 105.192 54.0249 106.269 53.7283 107.451H42.2569C41.9602 106.269 41.3472 105.192 40.4837 104.333C39.3754 103.24 37.9134 102.578 36.3607 102.466H36.3451C35.7483 102.418 35.1489 102.412 34.5512 102.447C34.3291 102.46 34.1057 102.479 33.8835 102.504C31.7661 102.786 29.6252 102.848 27.4951 102.688H27.4717V99.1409C27.4717 98.6241 27.677 98.1285 28.0424 97.7631C28.4078 97.3977 28.9034 97.1924 29.4202 97.1924H67.4808C67.9973 97.1924 68.4927 97.3975 68.8581 97.7626C69.2235 98.1278 69.4289 98.623 69.4293 99.1396Z" fill="#ED1C24" class="tzuGykEB_78"></path>
<path opacity="0.3" d="M40.4834 104.336H55.5076C54.6441 105.195 54.0311 106.272 53.7345 107.454H42.2565C41.9599 106.272 41.3469 105.195 40.4834 104.336Z" fill="#1A1D63" class="tzuGykEB_79"></path>
<path d="M69.4293 99.1396V102.594H69.4176C67.3275 102.853 64.9854 102.846 62.3497 102.533L62.1081 102.504C61.2885 102.412 60.462 102.4 59.64 102.466H59.6244C58.0717 102.578 56.6098 103.24 55.5014 104.333C54.638 105.192 54.0249 106.269 53.7283 107.451H42.2569C41.9602 106.269 41.3472 105.192 40.4837 104.333C39.3754 103.24 37.9134 102.578 36.3607 102.466H36.3451C35.7483 102.418 35.1489 102.412 34.5512 102.447C34.3291 102.46 34.1057 102.479 33.8835 102.504C31.7661 102.786 29.6252 102.848 27.4951 102.688H27.4717V99.1409C27.4717 98.6241 27.677 98.1285 28.0424 97.7631C28.4078 97.3977 28.9034 97.1924 29.4202 97.1924H67.4808C67.9973 97.1924 68.4927 97.3975 68.8581 97.7626C69.2235 98.1278 69.4289 98.623 69.4293 99.1396V99.1396Z" stroke="#1A1D63" stroke-width="2" stroke-linecap="round" stroke-linejoin="round" class="tzuGykEB_80"></path>
<path d="M34.5508 102.448V97.1914" stroke="#1A1D63" stroke-width="2" stroke-linecap="round" stroke-linejoin="round" class="tzuGykEB_81"></path>
<path d="M62.3496 102.534V97.2559" stroke="#1A1D63" stroke-width="2" stroke-linecap="round" stroke-linejoin="round" class="tzuGykEB_82"></path>
<style data-made-with="vivus-instant">.tzuGykEB_0{stroke-dasharray:192 194;stroke-dashoffset:193;animation:tzuGykEB_draw 1000ms linear 0ms forwards;}.tzuGykEB_1{stroke-dasharray:237 239;stroke-dashoffset:238;animation:tzuGykEB_draw 1000ms linear 6ms forwards;}.tzuGykEB_2{stroke-dasharray:33 35;stroke-dashoffset:34;animation:tzuGykEB_draw 1000ms linear 12ms forwards;}.tzuGykEB_3{stroke-dasharray:26 28;stroke-dashoffset:27;animation:tzuGykEB_draw 1000ms linear 18ms forwards;}.tzuGykEB_4{stroke-dasharray:26 28;stroke-dashoffset:27;animation:tzuGykEB_draw 1000ms linear 24ms forwards;}.tzuGykEB_5{stroke-dasharray:237 239;stroke-dashoffset:238;animation:tzuGykEB_draw 1000ms linear 30ms forwards;}.tzuGykEB_6{stroke-dasharray:308 310;stroke-dashoffset:309;animation:tzuGykEB_draw 1000ms linear 36ms forwards;}.tzuGykEB_7{stroke-dasharray:11 13;stroke-dashoffset:12;animation:tzuGykEB_draw 1000ms linear 42ms forwards;}.tzuGykEB_8{stroke-dasharray:5 7;stroke-dashoffset:6;animation:tzuGykEB_draw 1000ms linear 48ms forwards;}.tzuGykEB_9{stroke-dasharray:7 9;stroke-dashoffset:8;animation:tzuGykEB_draw 1000ms linear 54ms forwards;}.tzuGykEB_10{stroke-dasharray:18 20;stroke-dashoffset:19;animation:tzuGykEB_draw 1000ms linear 60ms forwards;}.tzuGykEB_11{stroke-dasharray:2 4;stroke-dashoffset:3;animation:tzuGykEB_draw 1000ms linear 67ms forwards;}.tzuGykEB_12{stroke-dasharray:60 62;stroke-dashoffset:61;animation:tzuGykEB_draw 1000ms linear 73ms forwards;}.tzuGykEB_13{stroke-dasharray:53 55;stroke-dashoffset:54;animation:tzuGykEB_draw 1000ms linear 79ms forwards;}.tzuGykEB_14{stroke-dasharray:27 29;stroke-dashoffset:28;animation:tzuGykEB_draw 1000ms linear 85ms forwards;}.tzuGykEB_15{stroke-dasharray:27 29;stroke-dashoffset:28;animation:tzuGykEB_draw 1000ms linear 91ms forwards;}.tzuGykEB_16{stroke-dasharray:77 79;stroke-dashoffset:78;animation:tzuGykEB_draw 1000ms linear 97ms forwards;}.tzuGykEB_17{stroke-dasharray:77 79;stroke-dashoffset:78;animation:tzuGykEB_draw 1000ms linear 103ms forwards;}.tzuGykEB_18{stroke-dasharray:65 67;stroke-dashoffset:66;animation:tzuGykEB_draw 1000ms linear 109ms forwards;}.tzuGykEB_19{stroke-dasharray:35 37;stroke-dashoffset:36;animation:tzuGykEB_draw 1000ms linear 115ms forwards;}.tzuGykEB_20{stroke-dasharray:104 106;stroke-dashoffset:105;animation:tzuGykEB_draw 1000ms linear 121ms forwards;}.tzuGykEB_21{stroke-dasharray:107 109;stroke-dashoffset:108;animation:tzuGykEB_draw 1000ms linear 128ms forwards;}.tzuGykEB_22{stroke-dasharray:17 19;stroke-dashoffset:18;animation:tzuGykEB_draw 1000ms linear 134ms forwards;}.tzuGykEB_23{stroke-dasharray:65 67;stroke-dashoffset:66;animation:tzuGykEB_draw 1000ms linear 140ms forwards;}.tzuGykEB_24{stroke-dasharray:35 37;stroke-dashoffset:36;animation:tzuGykEB_draw 1000ms linear 146ms forwards;}.tzuGykEB_25{stroke-dasharray:104 106;stroke-dashoffset:105;animation:tzuGykEB_draw 1000ms linear 152ms forwards;}.tzuGykEB_26{stroke-dasharray:107 109;stroke-dashoffset:108;animation:tzuGykEB_draw 1000ms linear 158ms forwards;}.tzuGykEB_27{stroke-dasharray:17 19;stroke-dashoffset:18;animation:tzuGykEB_draw 1000ms linear 164ms forwards;}.tzuGykEB_28{stroke-dasharray:31 33;stroke-dashoffset:32;animation:tzuGykEB_draw 1000ms linear 170ms forwards;}.tzuGykEB_29{stroke-dasharray:20 22;stroke-dashoffset:21;animation:tzuGykEB_draw 1000ms linear 176ms forwards;}.tzuGykEB_30{stroke-dasharray:20 22;stroke-dashoffset:21;animation:tzuGykEB_draw 1000ms linear 182ms forwards;}.tzuGykEB_31{stroke-dasharray:102 104;stroke-dashoffset:103;animation:tzuGykEB_draw 1000ms linear 189ms forwards;}.tzuGykEB_32{stroke-dasharray:62 64;stroke-dashoffset:63;animation:tzuGykEB_draw 1000ms linear 195ms forwards;}.tzuGykEB_33{stroke-dasharray:53 55;stroke-dashoffset:54;animation:tzuGykEB_draw 1000ms linear 201ms forwards;}.tzuGykEB_34{stroke-dasharray:1 3;stroke-dashoffset:2;animation:tzuGykEB_draw 1000ms linear 207ms forwards;}.tzuGykEB_35{stroke-dasharray:71 73;stroke-dashoffset:72;animation:tzuGykEB_draw 1000ms linear 213ms forwards;}.tzuGykEB_36{stroke-dasharray:71 73;stroke-dashoffset:72;animation:tzuGykEB_draw 1000ms linear 219ms forwards;}.tzuGykEB_37{stroke-dasharray:21 23;stroke-dashoffset:22;animation:tzuGykEB_draw 1000ms linear 225ms forwards;}.tzuGykEB_38{stroke-dasharray:19 21;stroke-dashoffset:20;animation:tzuGykEB_draw 1000ms linear 231ms forwards;}.tzuGykEB_39{stroke-dasharray:21 23;stroke-dashoffset:22;animation:tzuGykEB_draw 1000ms linear 237ms forwards;}.tzuGykEB_40{stroke-dasharray:11 13;stroke-dashoffset:12;animation:tzuGykEB_draw 1000ms linear 243ms forwards;}.tzuGykEB_41{stroke-dasharray:13 15;stroke-dashoffset:14;animation:tzuGykEB_draw 1000ms linear 250ms forwards;}.tzuGykEB_42{stroke-dasharray:37 39;stroke-dashoffset:38;animation:tzuGykEB_draw 1000ms linear 256ms forwards;}.tzuGykEB_43{stroke-dasharray:37 39;stroke-dashoffset:38;animation:tzuGykEB_draw 1000ms linear 262ms forwards;}.tzuGykEB_44{stroke-dasharray:262 264;stroke-dashoffset:263;animation:tzuGykEB_draw 1000ms linear 268ms forwards;}.tzuGykEB_45{stroke-dasharray:69 71;stroke-dashoffset:70;animation:tzuGykEB_draw 1000ms linear 274ms forwards;}.tzuGykEB_46{stroke-dasharray:53 55;stroke-dashoffset:54;animation:tzuGykEB_draw 1000ms linear 280ms forwards;}.tzuGykEB_47{stroke-dasharray:262 264;stroke-dashoffset:263;animation:tzuGykEB_draw 1000ms linear 286ms forwards;}.tzuGykEB_48{stroke-dasharray:223 225;stroke-dashoffset:224;animation:tzuGykEB_draw 1000ms linear 292ms forwards;}.tzuGykEB_49{stroke-dasharray:70 72;stroke-dashoffset:71;animation:tzuGykEB_draw 1000ms linear 298ms forwards;}.tzuGykEB_50{stroke-dasharray:210 212;stroke-dashoffset:211;animation:tzuGykEB_draw 1000ms linear 304ms forwards;}.tzuGykEB_51{stroke-dasharray:223 225;stroke-dashoffset:224;animation:tzuGykEB_draw 1000ms linear 310ms forwards;}.tzuGykEB_52{stroke-dasharray:214 216;stroke-dashoffset:215;animation:tzuGykEB_draw 1000ms linear 317ms forwards;}.tzuGykEB_53{stroke-dasharray:89 91;stroke-dashoffset:90;animation:tzuGykEB_draw 1000ms linear 323ms forwards;}.tzuGykEB_54{stroke-dasharray:76 78;stroke-dashoffset:77;animation:tzuGykEB_draw 1000ms linear 329ms forwards;}.tzuGykEB_55{stroke-dasharray:76 78;stroke-dashoffset:77;animation:tzuGykEB_draw 1000ms linear 335ms forwards;}.tzuGykEB_56{stroke-dasharray:31 33;stroke-dashoffset:32;animation:tzuGykEB_draw 1000ms linear 341ms forwards;}.tzuGykEB_57{stroke-dasharray:31 33;stroke-dashoffset:32;animation:tzuGykEB_draw 1000ms linear 347ms forwards;}.tzuGykEB_58{stroke-dasharray:76 78;stroke-dashoffset:77;animation:tzuGykEB_draw 1000ms linear 353ms forwards;}.tzuGykEB_59{stroke-dasharray:76 78;stroke-dashoffset:77;animation:tzuGykEB_draw 1000ms linear 359ms forwards;}.tzuGykEB_60{stroke-dasharray:188 190;stroke-dashoffset:189;animation:tzuGykEB_draw 1000ms linear 365ms forwards;}.tzuGykEB_61{stroke-dasharray:75 77;stroke-dashoffset:76;animation:tzuGykEB_draw 1000ms linear 371ms forwards;}.tzuGykEB_62{stroke-dasharray:83 85;stroke-dashoffset:84;animation:tzuGykEB_draw 1000ms linear 378ms forwards;}.tzuGykEB_63{stroke-dasharray:78 80;stroke-dashoffset:79;animation:tzuGykEB_draw 1000ms linear 384ms forwards;}.tzuGykEB_64{stroke-dasharray:78 80;stroke-dashoffset:79;animation:tzuGykEB_draw 1000ms linear 390ms forwards;}.tzuGykEB_65{stroke-dasharray:83 85;stroke-dashoffset:84;animation:tzuGykEB_draw 1000ms linear 396ms forwards;}.tzuGykEB_66{stroke-dasharray:10 12;stroke-dashoffset:11;animation:tzuGykEB_draw 1000ms linear 402ms forwards;}.tzuGykEB_67{stroke-dasharray:10 12;stroke-dashoffset:11;animation:tzuGykEB_draw 1000ms linear 408ms forwards;}.tzuGykEB_68{stroke-dasharray:99 101;stroke-dashoffset:100;animation:tzuGykEB_draw 1000ms linear 414ms forwards;}.tzuGykEB_69{stroke-dasharray:95 97;stroke-dashoffset:96;animation:tzuGykEB_draw 1000ms linear 420ms forwards;}.tzuGykEB_70{stroke-dasharray:99 101;stroke-dashoffset:100;animation:tzuGykEB_draw 1000ms linear 426ms forwards;}.tzuGykEB_71{stroke-dasharray:10 12;stroke-dashoffset:11;animation:tzuGykEB_draw 1000ms linear 432ms forwards;}.tzuGykEB_72{stroke-dasharray:10 12;stroke-dashoffset:11;animation:tzuGykEB_draw 1000ms linear 439ms forwards;}.tzuGykEB_73{stroke-dasharray:100 102;stroke-dashoffset:101;animation:tzuGykEB_draw 1000ms linear 445ms forwards;}.tzuGykEB_74{stroke-dasharray:95 97;stroke-dashoffset:96;animation:tzuGykEB_draw 1000ms linear 451ms forwards;}.tzuGykEB_75{stroke-dasharray:100 102;stroke-dashoffset:101;animation:tzuGykEB_draw 1000ms linear 457ms forwards;}.tzuGykEB_76{stroke-dasharray:10 12;stroke-dashoffset:11;animation:tzuGykEB_draw 1000ms linear 463ms forwards;}.tzuGykEB_77{stroke-dasharray:10 12;stroke-dashoffset:11;animation:tzuGykEB_draw 1000ms linear 469ms forwards;}.tzuGykEB_78{stroke-dasharray:98 100;stroke-dashoffset:99;animation:tzuGykEB_draw 1000ms linear 475ms forwards;}.tzuGykEB_79{stroke-dasharray:34 36;stroke-dashoffset:35;animation:tzuGykEB_draw 1000ms linear 481ms forwards;}.tzuGykEB_80{stroke-dasharray:98 100;stroke-dashoffset:99;animation:tzuGykEB_draw 1000ms linear 487ms forwards;}.tzuGykEB_81{stroke-dasharray:6 8;stroke-dashoffset:7;animation:tzuGykEB_draw 1000ms linear 493ms forwards;}.tzuGykEB_82{stroke-dasharray:6 8;stroke-dashoffset:7;animation:tzuGykEB_draw 1000ms linear 500ms forwards;}@keyframes tzuGykEB_draw{100%{stroke-dashoffset:0;}}@keyframes tzuGykEB_fade{0%{stroke-opacity:1;}92.98245614035088%{stroke-opacity:1;}100%{stroke-opacity:0;}}</style></svg>
