<svg width="176" height="146" viewBox="0 0 176 146" fill="none" xmlns="http://www.w3.org/2000/svg">
<g filter="url(#filter0_dd_7881_622)">
<path d="M13.008 128.384C11.8133 128.384 10.8427 128.267 10.096 128.032C9.34933 127.819 8.752 127.52 8.304 127.136C7.856 126.752 7.38667 126.229 6.896 125.568L9.488 123.36C10.0427 124.043 10.5547 124.523 11.024 124.8C11.5147 125.056 12.176 125.184 13.008 125.184C13.9253 125.184 14.5867 125.077 14.992 124.864C15.4187 124.629 15.632 124.267 15.632 123.776C15.632 123.307 15.3653 122.944 14.832 122.688C14.32 122.432 13.3067 122.176 11.792 121.92C8.80533 121.344 7.312 119.723 7.312 117.056C7.312 115.691 7.856 114.603 8.944 113.792C10.032 112.981 11.4827 112.576 13.296 112.576C14.8107 112.576 16.0053 112.8 16.88 113.248C17.776 113.675 18.5013 114.304 19.056 115.136L16.496 117.312C15.9413 116.757 15.44 116.363 14.992 116.128C14.544 115.893 13.9787 115.776 13.296 115.776C11.9307 115.776 11.248 116.256 11.248 117.216C11.248 117.664 11.472 118.005 11.92 118.24C12.3893 118.475 12.976 118.656 13.68 118.784C15.0027 119.083 16.048 119.392 16.816 119.712C17.6053 120.011 18.256 120.491 18.768 121.152C19.3013 121.813 19.568 122.72 19.568 123.872C19.568 125.408 19.024 126.549 17.936 127.296C16.848 128.021 15.2053 128.384 13.008 128.384ZM31.4173 112.576C32.8253 112.576 34.0199 112.917 35.0013 113.6C36.0039 114.261 36.7506 115.157 37.2413 116.288C37.7319 117.397 37.9773 118.624 37.9773 119.968V120.992C37.9773 122.336 37.7319 123.573 37.2413 124.704C36.7506 125.813 36.0039 126.709 35.0013 127.392C34.0199 128.053 32.8253 128.384 31.4173 128.384C30.2013 128.384 29.2413 128.224 28.5373 127.904C27.8546 127.563 27.2679 127.072 26.7773 126.432V135.008H22.6173V117.6C22.6173 117.024 22.4999 116.555 22.2653 116.192C22.0519 115.829 21.6573 115.435 21.0813 115.008L23.8653 112.576C24.5693 112.939 25.1239 113.323 25.5293 113.728C25.9559 114.133 26.2653 114.613 26.4573 115.168C27.5453 113.44 29.1986 112.576 31.4173 112.576ZM33.8173 119.968C33.8173 118.816 33.4973 117.835 32.8573 117.024C32.2386 116.192 31.3533 115.776 30.2013 115.776C28.4093 115.776 27.2679 116.651 26.7773 118.4V122.56C27.2679 124.309 28.4093 125.184 30.2013 125.184C31.3746 125.184 32.2706 124.779 32.8893 123.968C33.5079 123.157 33.8173 122.165 33.8173 120.992V119.968ZM53.6933 123.36C53.6933 123.936 53.7999 124.405 54.0133 124.768C54.2479 125.131 54.6533 125.525 55.2292 125.952L52.4453 128.384C51.2293 127.765 50.3973 126.987 49.9493 126.048C49.4799 126.709 48.8399 127.264 48.0293 127.712C47.2186 128.16 46.2159 128.384 45.0213 128.384C43.5066 128.384 42.3013 128 41.4053 127.232C40.5093 126.443 40.0613 125.333 40.0613 123.904C40.0613 122.624 40.3919 121.643 41.0533 120.96C41.7359 120.256 42.5146 119.776 43.3893 119.52C44.2639 119.264 45.2346 119.083 46.3013 118.976L47.8373 118.816C48.4559 118.752 48.8826 118.645 49.1173 118.496C49.3733 118.347 49.5119 118.101 49.5333 117.76C49.4906 117.12 49.2773 116.576 48.8933 116.128C48.5306 115.68 47.8266 115.456 46.7812 115.456C46.0986 115.456 45.5013 115.584 44.9893 115.84C44.4773 116.096 43.9546 116.512 43.4213 117.088L40.5733 115.104C41.1919 114.293 41.9706 113.675 42.9093 113.248C43.8479 112.8 45.1386 112.576 46.7812 112.576C51.3893 112.576 53.6933 114.443 53.6933 118.176V123.36ZM46.0773 125.408C47.1866 125.408 48.0399 125.141 48.6373 124.608C49.2346 124.053 49.5333 123.381 49.5333 122.592V121.248C49.1919 121.376 48.5413 121.493 47.5813 121.6L46.6213 121.696C45.8959 121.76 45.2879 121.931 44.7973 122.208C44.3066 122.464 44.0613 122.955 44.0613 123.68C44.0613 124.235 44.2426 124.661 44.6053 124.96C44.9679 125.259 45.4586 125.408 46.0773 125.408ZM64.1333 128.384C61.9146 128.384 60.2079 127.872 59.0133 126.848C57.8186 125.824 57.2213 124.363 57.2213 122.464V118.496C57.2213 116.597 57.8186 115.136 59.0133 114.112C60.2079 113.088 61.9146 112.576 64.1333 112.576C66.9066 112.576 68.8906 113.419 70.0853 115.104L67.2373 117.408C66.7253 116.811 66.2559 116.395 65.8293 116.16C65.4026 115.904 64.8373 115.776 64.1333 115.776C63.2586 115.776 62.5759 116.011 62.0853 116.48C61.6159 116.949 61.3813 117.621 61.3813 118.496V122.464C61.3813 123.339 61.6159 124.011 62.0853 124.48C62.5759 124.949 63.2586 125.184 64.1333 125.184C64.8373 125.184 65.4026 125.067 65.8293 124.832C66.2559 124.576 66.7253 124.149 67.2373 123.552L70.0853 125.856C69.4879 126.709 68.7199 127.349 67.7813 127.776C66.8426 128.181 65.6266 128.384 64.1333 128.384ZM79.1028 125.248C79.8921 125.248 80.5321 125.152 81.0228 124.96C81.5134 124.747 82.0468 124.384 82.6228 123.872L85.0868 126.112C83.8494 127.627 81.8548 128.384 79.1028 128.384C76.6494 128.384 74.8788 127.925 73.7908 127.008C72.7028 126.069 72.1588 124.555 72.1588 122.464V117.888C72.1588 116.245 72.7454 114.955 73.9188 114.016C75.1134 113.056 76.7348 112.576 78.7828 112.576C80.8948 112.576 82.5481 113.088 83.7428 114.112C84.9374 115.115 85.5348 116.587 85.5348 118.528C85.5348 119.467 85.4494 120.192 85.2788 120.704C85.1294 121.216 84.8201 121.6 84.3508 121.856C83.8814 122.091 83.1988 122.208 82.3028 122.208H76.2868V122.496C76.2868 124.331 77.2254 125.248 79.1028 125.248ZM78.7828 115.712C77.9934 115.712 77.3748 115.947 76.9268 116.416C76.5001 116.864 76.2868 117.461 76.2868 118.208V119.36H79.9348C80.4894 119.36 80.8734 119.275 81.0868 119.104C81.3001 118.933 81.4068 118.635 81.4068 118.208C81.4068 117.397 81.1828 116.779 80.7348 116.352C80.2868 115.925 79.6361 115.712 78.7828 115.712ZM105.64 112.576C107.197 112.576 108.381 113.024 109.192 113.92C110.024 114.816 110.44 116.096 110.44 117.76V128H106.28V118.144C106.28 117.419 106.109 116.843 105.768 116.416C105.448 115.989 105 115.776 104.424 115.776C103.165 115.776 102.237 116.576 101.64 118.176V128H97.4798V118.144C97.4798 117.419 97.3091 116.843 96.9678 116.416C96.6478 115.989 96.1998 115.776 95.6238 115.776C94.3651 115.776 93.4371 116.576 92.8398 118.176V128H88.6798V117.6C88.6798 117.024 88.5624 116.555 88.3278 116.192C88.1144 115.829 87.7198 115.435 87.1438 115.008L89.9278 112.576C91.2078 113.195 92.0504 114.005 92.4558 115.008C93.4584 113.387 94.9198 112.576 96.8398 112.576C97.9064 112.576 98.8024 112.8 99.5278 113.248C100.274 113.675 100.818 114.304 101.16 115.136C102.12 113.429 103.613 112.576 105.64 112.576ZM127.287 123.36C127.287 123.936 127.394 124.405 127.607 124.768C127.842 125.131 128.247 125.525 128.823 125.952L126.039 128.384C124.823 127.765 123.991 126.987 123.543 126.048C123.074 126.709 122.434 127.264 121.623 127.712C120.812 128.16 119.81 128.384 118.615 128.384C117.1 128.384 115.895 128 114.999 127.232C114.103 126.443 113.655 125.333 113.655 123.904C113.655 122.624 113.986 121.643 114.647 120.96C115.33 120.256 116.108 119.776 116.983 119.52C117.858 119.264 118.828 119.083 119.895 118.976L121.431 118.816C122.05 118.752 122.476 118.645 122.711 118.496C122.967 118.347 123.106 118.101 123.127 117.76C123.084 117.12 122.871 116.576 122.487 116.128C122.124 115.68 121.42 115.456 120.375 115.456C119.692 115.456 119.095 115.584 118.583 115.84C118.071 116.096 117.548 116.512 117.015 117.088L114.167 115.104C114.786 114.293 115.564 113.675 116.503 113.248C117.442 112.8 118.732 112.576 120.375 112.576C124.983 112.576 127.287 114.443 127.287 118.176V123.36ZM119.671 125.408C120.78 125.408 121.634 125.141 122.231 124.608C122.828 124.053 123.127 123.381 123.127 122.592V121.248C122.786 121.376 122.135 121.493 121.175 121.6L120.215 121.696C119.49 121.76 118.882 121.931 118.391 122.208C117.9 122.464 117.655 122.955 117.655 123.68C117.655 124.235 117.836 124.661 118.199 124.96C118.562 125.259 119.052 125.408 119.671 125.408ZM139.591 112.576C140.7 112.576 141.639 112.875 142.407 113.472L141.383 116.928C140.935 116.629 140.508 116.416 140.103 116.288C139.697 116.16 139.196 116.096 138.599 116.096C137.191 116.096 136.177 117.035 135.559 118.912V128H131.399V117.6C131.399 117.024 131.281 116.555 131.047 116.192C130.833 115.829 130.439 115.435 129.863 115.008L132.647 112.576C133.372 112.96 133.948 113.365 134.375 113.792C134.801 114.219 135.111 114.731 135.303 115.328C135.729 114.496 136.295 113.835 136.999 113.344C137.703 112.832 138.567 112.576 139.591 112.576ZM158.83 128H154.574L153.166 122.944C152.995 122.347 152.739 121.909 152.398 121.632C152.056 121.333 151.48 121.141 150.67 121.056L148.59 123.168V128H144.43V109.024C144.43 108.448 144.312 107.979 144.078 107.616C143.864 107.253 143.47 106.859 142.894 106.432L145.678 104C146.766 104.555 147.523 105.195 147.95 105.92C148.376 106.624 148.59 107.616 148.59 108.896V118.112L153.582 112.96H158.638L153.55 118.112C154.574 118.368 155.363 118.869 155.918 119.616C156.494 120.363 156.995 121.472 157.422 122.944L158.83 128ZM165.274 116.16V122.368C165.274 123.264 165.412 123.893 165.69 124.256C165.967 124.619 166.436 124.8 167.098 124.8H169.626V128H167.098C165.604 128 164.42 127.819 163.546 127.456C162.692 127.093 162.074 126.507 161.69 125.696C161.306 124.885 161.114 123.776 161.114 122.368V110.624C161.114 110.048 160.996 109.579 160.762 109.216C160.548 108.853 160.154 108.459 159.578 108.032L162.362 105.6C163.45 106.155 164.207 106.795 164.634 107.52C165.06 108.224 165.274 109.216 165.274 110.496V112.96H169.626V116.16H165.274Z" fill="#081448"/>
</g>
<path d="M119.238 101.831C119.152 94.5348 118.765 87.2411 118.077 79.9501C117.864 77.6951 116.24 75.8698 114.123 75.5254C105.188 74.0699 96.1534 73.3133 87.101 73.2627H86.8972C77.8449 73.3133 68.8103 74.0699 59.8756 75.5254C57.7587 75.8698 56.1346 77.6951 55.9217 79.9501C55.2337 87.2411 54.8467 94.5348 54.7607 101.831H119.238Z" fill="#F2F2F2"/>
<path d="M119.238 101.831C119.152 94.5348 118.765 87.2411 118.077 79.9501C117.864 77.6951 116.24 75.8698 114.123 75.5254C105.188 74.0699 96.1534 73.3133 87.101 73.2627H86.8972C77.8449 73.3133 68.8103 74.0699 59.8756 75.5254C57.7587 75.8698 56.1346 77.6951 55.9217 79.9501C55.2337 87.2411 54.8467 94.5348 54.7607 101.831H119.238Z" stroke="#1A1D63" stroke-width="2" stroke-linecap="round" stroke-linejoin="round"/>
<path d="M127.875 101.831C127.346 99.9709 126.662 98.1586 125.83 96.413C124.131 92.8668 121.908 89.5962 119.236 86.7109C111.351 78.1105 105.134 76.3909 99.7866 75.2725H74.2136C68.8666 76.3909 62.6488 78.1105 54.7643 86.7109C52.093 89.5959 49.8704 92.866 48.1711 96.4117C47.3391 98.1573 46.6552 99.9696 46.1265 101.83L127.875 101.831Z" fill="white"/>
<path opacity="0.3" d="M111.252 79.671C95.127 87.755 79.002 87.755 62.877 79.671C67.134 76.9208 70.8479 75.9778 74.2148 75.2734H99.9167C103.282 75.9739 106.995 76.9169 111.252 79.671Z" fill="#1A1D63"/>
<path opacity="0.3" d="M110.503 101.831C109.832 101.034 109.09 100.3 108.285 99.6377C108.676 100.343 109.013 101.076 109.295 101.831H110.503Z" fill="#1A1D63"/>
<path opacity="0.3" d="M64.8339 101.831C65.1165 101.076 65.4541 100.343 65.844 99.6377C65.0396 100.3 64.2973 101.034 63.6265 101.831H64.8339Z" fill="#1A1D63"/>
<path d="M127.875 101.831C127.346 99.9709 126.662 98.1586 125.83 96.413C124.131 92.8668 121.908 89.5962 119.236 86.7109C111.351 78.1105 105.134 76.3909 99.7866 75.2725H74.2136C68.8666 76.3909 62.6488 78.1105 54.7643 86.7109C52.093 89.5959 49.8704 92.866 48.1711 96.4117C47.3391 98.1573 46.6552 99.9696 46.1265 101.83L127.875 101.831Z" stroke="#1A1D63" stroke-width="2" stroke-linecap="round" stroke-linejoin="round"/>
<path d="M87.0004 1.47266C64.5944 1.47266 46.4776 19.6371 46.4299 42.0432C46.3654 72.3582 60.8134 82.0332 87.0004 81.9687C113.187 82.0332 127.635 72.3582 127.571 42.0432C127.523 19.6371 109.406 1.47266 87.0004 1.47266Z" fill="white"/>
<path d="M97.2325 2.77555C90.5216 1.03836 83.4789 1.03836 76.7679 2.77555L75.2612 14.1933C82.9147 11.8696 91.0857 11.8696 98.7392 14.1933L97.2325 2.77555Z" stroke="#1A1D63" stroke-width="2" stroke-linecap="round" stroke-linejoin="round"/>
<path d="M87.0002 12.4502C83.026 12.4926 79.0764 13.079 75.2612 14.193L76.4751 17.7302C83.3662 15.8519 90.6343 15.8519 97.5253 17.7302L98.7392 14.193C94.9241 13.079 90.9744 12.4926 87.0002 12.4502Z" stroke="#1A1D63" stroke-width="2" stroke-linecap="round" stroke-linejoin="round"/>
<path d="M87.0004 1.47266C64.5944 1.47266 46.4776 19.6371 46.4299 42.0432C46.3654 72.3582 60.8134 82.0332 87.0004 81.9687C113.187 82.0332 127.635 72.3582 127.571 42.0432C127.523 19.6371 109.406 1.47266 87.0004 1.47266Z" stroke="#1A1D63" stroke-width="2" stroke-linecap="round" stroke-linejoin="round"/>
<path d="M127.571 42.0433C127.581 47.064 127.194 51.5196 126.42 55.4593C125.95 57.8013 124.868 59.977 123.283 61.7643C121.699 63.5516 119.668 64.8867 117.399 65.6335C97.1333 72.3785 76.8679 72.3785 56.6028 65.6335C54.3138 64.8717 52.2688 63.5142 50.6779 61.7005C49.0871 59.8869 48.0078 57.6824 47.5509 55.3135C46.7975 51.4113 46.4196 47.0059 46.4299 42.0484V41.9839C46.4416 40.1004 46.8563 38.2412 47.6462 36.5313C48.4361 34.8213 49.5829 33.3003 51.0094 32.0703C74.9647 11.3013 98.9191 11.0652 122.873 31.3621C124.304 32.5742 125.462 34.0758 126.27 35.7679C127.079 37.46 127.519 39.3042 127.563 41.179C127.568 41.4705 127.571 41.7586 127.571 42.0433Z" fill="#080A28"/>
<path opacity="0.75" d="M54.2624 49.3835C54.2136 49.7757 54.0693 50.1499 53.8421 50.4734C53.615 50.7968 53.3119 51.0595 52.9595 51.2385C52.2681 51.5907 51.4296 51.6461 50.8426 50.4645C50.0854 48.9449 50.106 47.1634 50.106 45.4219V45.3484C50.106 44.9399 50.1254 44.5327 50.1641 44.1267C50.5949 39.4595 52.3248 35.8798 57.2991 32.1478C60.8956 29.4504 63.3156 27.5502 67.1895 26.326C70.3358 25.3327 71.6851 27.745 69.198 29.8813C59.9771 38.3127 57.9428 39.7085 54.9138 46.948C54.588 47.7268 54.3689 48.546 54.2624 49.3835V49.3835Z" fill="white"/>
<path d="M127.571 42.0435C127.581 47.0655 127.194 51.5199 126.42 55.4595C125.95 57.8017 124.868 59.9774 123.283 61.7648C121.698 63.5522 119.668 64.8872 117.399 65.6337C97.133 72.3787 76.8675 72.3787 56.6025 65.6337C54.0263 64.7774 51.7661 63.1683 50.1138 61.0142C73.4047 64.7217 95.8804 66.1072 112.715 59.2276C118.822 56.7315 123.125 51.0813 123.783 44.5216C124.247 39.8853 123.783 35.1923 122.07 30.7031C122.336 30.9233 122.602 31.1465 122.87 31.3726C124.301 32.5847 125.459 34.0863 126.267 35.7784C127.076 37.4705 127.516 39.3147 127.56 41.1895C127.567 41.4742 127.571 41.7589 127.571 42.0435Z" fill="black"/>
<path d="M127.571 42.0433C127.581 47.064 127.194 51.5196 126.42 55.4593C125.95 57.8013 124.868 59.977 123.283 61.7643C121.699 63.5516 119.668 64.8867 117.399 65.6335C97.1333 72.3785 76.8679 72.3785 56.6028 65.6335C54.3138 64.8717 52.2688 63.5142 50.6779 61.7005C49.0871 59.8869 48.0078 57.6824 47.5509 55.3135C46.7975 51.4113 46.4196 47.0059 46.4299 42.0484V41.9839C46.4416 40.1004 46.8563 38.2412 47.6462 36.5313C48.4361 34.8213 49.5829 33.3003 51.0094 32.0703C74.9647 11.3013 98.9191 11.0652 122.873 31.3621C124.304 32.5742 125.462 34.0758 126.27 35.7679C127.079 37.46 127.519 39.3042 127.563 41.179C127.568 41.4705 127.571 41.7586 127.571 42.0433Z" stroke="#1A1D63" stroke-width="2" stroke-linecap="round" stroke-linejoin="round"/>
<path opacity="0.2" d="M46.4312 41.8914C46.448 38.1825 46.9718 34.4934 47.9882 30.9264C73.9077 6.58841 99.8264 6.28741 125.744 30.0234C126.858 33.6155 127.469 37.3447 127.558 41.1045C127.505 39.242 127.06 37.4115 126.252 35.7323C125.444 34.0531 124.292 32.5629 122.87 31.3586C98.9157 11.0694 74.9621 11.3068 51.0094 32.0706C49.5947 33.2904 48.4551 34.7965 47.6658 36.4895C46.8766 38.1825 46.4558 40.0237 46.4312 41.8914V41.8914Z" fill="#1A1D63"/>
<path d="M47.9878 30.9293C73.9073 6.59134 99.826 6.29034 125.744 30.0263" stroke="#1A1D63" stroke-width="2" stroke-linecap="round" stroke-linejoin="round"/>
<path d="M133.002 56.3283C132.96 56.6709 132.846 57.0009 132.669 57.2967C132.491 57.5925 132.253 57.8476 131.97 58.0453C129.882 59.4836 127.502 60.5853 124.844 61.3709C126.665 56.1477 127.591 49.7609 127.575 42.0428C127.569 37.5055 126.805 33.001 125.313 28.7158C127.746 29.4073 130.027 30.5513 132.037 32.0879C132.299 32.2899 132.518 32.5424 132.68 32.8304C132.843 33.1185 132.946 33.4362 132.984 33.7649C133.905 41.6958 133.911 49.2169 133.002 56.3283Z" fill="white"/>
<path d="M49.1606 61.3709C46.5019 60.5853 44.1219 59.4836 42.0347 58.0453C41.7517 57.8476 41.5136 57.5925 41.3358 57.2967C41.158 57.0009 41.0445 56.6709 41.0027 56.3283C40.0988 49.2152 40.1053 41.6941 41.022 33.7649C41.0597 33.4362 41.1629 33.1185 41.3255 32.8304C41.4881 32.5424 41.7069 32.2899 41.9689 32.0879C43.9767 30.5519 46.2559 29.4079 48.6872 28.7158C47.1969 33.0012 46.4339 37.5057 46.4297 42.0428C46.4129 49.7648 47.3392 56.1477 49.1606 61.3709Z" fill="white"/>
<path opacity="0.3" d="M133.537 50.4736C133.425 52.4516 133.247 54.4034 133.002 56.3289C132.96 56.6716 132.846 57.0015 132.669 57.2974C132.491 57.5932 132.253 57.8483 131.97 58.0459C129.882 59.4843 127.502 60.5859 124.844 61.3716C125.454 59.6046 125.947 57.7994 126.321 55.9677C129.215 54.887 131.725 52.9757 133.537 50.4736V50.4736Z" fill="#1A1D63"/>
<path opacity="0.3" d="M40.4634 50.4736C40.576 52.4516 40.7545 54.4034 40.9987 56.3289C41.0405 56.6716 41.154 57.0015 41.3318 57.2974C41.5096 57.5932 41.7478 57.8483 42.0307 58.0459C44.118 59.4843 46.498 60.5859 49.1567 61.3716C48.5466 59.6046 48.0532 57.7994 47.6796 55.9677C44.7857 54.887 42.2753 52.9757 40.4634 50.4736V50.4736Z" fill="#1A1D63"/>
<path d="M133.002 56.3283C132.96 56.6709 132.846 57.0009 132.669 57.2967C132.491 57.5925 132.253 57.8476 131.97 58.0453C129.882 59.4836 127.502 60.5853 124.844 61.3709C126.665 56.1477 127.591 49.7609 127.575 42.0428C127.569 37.5055 126.805 33.001 125.313 28.7158C127.746 29.4073 130.027 30.5513 132.037 32.0879C132.299 32.2899 132.518 32.5424 132.68 32.8304C132.843 33.1185 132.946 33.4362 132.984 33.7649C133.905 41.6958 133.911 49.2169 133.002 56.3283Z" stroke="#1A1D63" stroke-width="2" stroke-linecap="round" stroke-linejoin="round"/>
<path d="M49.1606 61.3709C46.5019 60.5853 44.1219 59.4836 42.0347 58.0453C41.7517 57.8476 41.5136 57.5925 41.3358 57.2967C41.158 57.0009 41.0445 56.6709 41.0027 56.3283C40.0988 49.2152 40.1053 41.6941 41.022 33.7649C41.0597 33.4362 41.1629 33.1185 41.3255 32.8304C41.4881 32.5424 41.7069 32.2899 41.9689 32.0879C43.9767 30.5519 46.2559 29.4079 48.6872 28.7158C47.1969 33.0012 46.4339 37.5057 46.4297 42.0428C46.4129 49.7648 47.3392 56.1477 49.1606 61.3709Z" stroke="#1A1D63" stroke-width="2" stroke-linecap="round" stroke-linejoin="round"/>
<path opacity="0.2" d="M126.375 55.677C125.563 59.7212 124.34 63.2158 122.719 66.215C121.371 67.3619 119.817 68.2415 118.139 68.8066C97.4228 75.7855 76.7063 75.7855 55.9897 68.8066C54.2023 68.2046 52.5573 67.2427 51.1561 65.9803C49.5771 62.9965 48.3865 59.5303 47.5957 55.5312C48.0838 57.8547 49.1722 60.0096 50.7525 61.7814C52.3328 63.5531 54.3498 64.8799 56.6025 65.6294C76.8675 72.3744 97.133 72.3744 117.399 65.6294C119.631 64.8945 121.634 63.5899 123.208 61.8445C124.782 60.0991 125.873 57.9733 126.375 55.677V55.677Z" fill="#1A1D63"/>
<path d="M51.1562 65.9854C52.5574 67.2478 54.2025 68.2097 55.9899 68.8117C76.7073 75.7898 97.4238 75.7898 118.14 68.8117C119.817 68.2466 121.371 67.367 122.719 66.2201" stroke="#1A1D63" stroke-width="2" stroke-linecap="round" stroke-linejoin="round"/>
<path d="M27.7891 101.977H34.2107H47.2771H51.8566H52.0759H58.3775H59.216H59.238H112.87H112.875H114.075H120.376H120.596H125.175H138.241H146.211" stroke="#1A1D63" stroke-width="2" stroke-linecap="round" stroke-linejoin="round"/>
<path opacity="0.3" d="M114.632 97.0053C113.706 105.016 116.655 109.945 125.931 109.845C135.307 109.508 138.336 104.654 138.069 97.4374C138.28 90.3631 114.85 89.8716 114.632 97.0053Z" fill="#1A1D63"/>
<path opacity="0.3" d="M59.3683 97.0053C60.2945 105.016 57.3456 109.945 48.0692 109.845C38.6934 109.508 35.6645 104.654 35.9316 97.4374C35.72 90.3631 59.1503 89.8716 59.3683 97.0053Z" fill="#1A1D63"/>
<path d="M119.238 97.5364C111.24 96.7753 109.214 99.385 108.709 100.969L119.254 100.919L119.238 97.5364Z" fill="white"/>
<path d="M116.555 97.4012C117.365 97.4012 118.257 97.4438 119.238 97.5302L119.254 100.913L108.709 100.963C109.152 99.5736 110.773 97.3948 116.555 97.3948V97.4012ZM116.555 95.7539C109.674 95.7539 107.706 98.7041 107.145 100.464C107.066 100.71 107.047 100.971 107.089 101.226C107.13 101.48 107.231 101.722 107.384 101.93C107.536 102.139 107.735 102.308 107.965 102.425C108.195 102.542 108.45 102.604 108.708 102.604H108.717L119.262 102.553C119.477 102.553 119.69 102.509 119.889 102.426C120.088 102.343 120.268 102.221 120.42 102.068C120.572 101.915 120.692 101.733 120.773 101.534C120.855 101.334 120.896 101.12 120.895 100.905L120.879 97.5225C120.877 97.1155 120.724 96.7238 120.449 96.4234C120.175 96.1231 119.798 95.9355 119.393 95.8971C118.393 95.8016 117.439 95.7539 116.555 95.7539Z" fill="#1A1D63"/>
<path d="M54.3307 97.6029C62.3287 96.8418 64.3553 99.4502 64.8597 101.034L54.314 100.984L54.3307 97.6029Z" fill="white"/>
<path d="M57.0129 97.4592C62.8011 97.4592 64.4175 99.6381 64.86 101.027L54.3142 100.977L54.331 97.596C55.3114 97.5018 56.204 97.4592 57.0129 97.4592ZM57.0129 95.8184C56.1279 95.8184 55.1733 95.8661 54.1749 95.9615C53.769 95.9994 53.3918 96.1869 53.1166 96.4876C52.8414 96.7883 52.688 97.1806 52.6862 97.5882L52.6695 100.969C52.6684 101.185 52.7099 101.398 52.7914 101.598C52.8729 101.797 52.9929 101.979 53.1446 102.132C53.2962 102.285 53.4765 102.407 53.6752 102.49C53.8739 102.573 54.0871 102.617 54.3026 102.618L64.8483 102.668H64.8561C65.1142 102.668 65.3687 102.607 65.5989 102.49C65.8291 102.374 66.0284 102.204 66.1807 101.996C66.3331 101.787 66.4341 101.546 66.4756 101.291C66.5171 101.036 66.4979 100.775 66.4196 100.529C65.8597 98.7699 63.8912 95.8184 57.0103 95.8184H57.0129Z" fill="#1A1D63"/>
<path d="M115.497 96.1837C114.658 102.926 117.382 107.082 125.928 107.012C134.571 106.744 137.346 102.662 137.088 96.5874C137.271 90.6251 115.686 90.1723 115.497 96.1837Z" fill="white"/>
<path opacity="0.3" d="M136.957 99.4082C136.273 103.895 133.143 106.781 125.928 107.004C119.816 107.054 116.682 104.94 115.701 101.27C120.688 103.006 128.982 104.468 136.957 99.4082Z" fill="#1A1D63"/>
<path d="M115.497 96.1837C114.658 102.926 117.382 107.082 125.928 107.012C134.571 106.744 137.346 102.662 137.088 96.5874C137.271 90.6251 115.686 90.1723 115.497 96.1837Z" stroke="#1A1D63" stroke-width="2" stroke-linecap="round" stroke-linejoin="round"/>
<path d="M58.5025 96.1837C59.3423 102.926 56.6178 107.082 48.0715 107.012C39.4285 106.744 36.6538 102.662 36.9118 96.5874C36.7286 90.6251 58.3142 90.1723 58.5025 96.1837Z" fill="white"/>
<path opacity="0.3" d="M37.0435 99.4082C37.7272 103.895 40.8567 106.781 48.0717 107.004C54.1837 107.054 57.3184 104.94 58.2988 101.27C53.3116 103.006 45.0182 104.468 37.0435 99.4082Z" fill="#1A1D63"/>
<path d="M58.5025 96.1837C59.3423 102.926 56.6178 107.082 48.0715 107.012C39.4285 106.744 36.6538 102.662 36.9118 96.5874C36.7286 90.6251 58.3142 90.1723 58.5025 96.1837Z" stroke="#1A1D63" stroke-width="2" stroke-linecap="round" stroke-linejoin="round"/>
<defs>
<filter id="filter0_dd_7881_622" x="0.895996" y="102" width="174.729" height="43.0078" filterUnits="userSpaceOnUse" color-interpolation-filters="sRGB">
<feFlood flood-opacity="0" result="BackgroundImageFix"/>
<feColorMatrix in="SourceAlpha" type="matrix" values="0 0 0 0 0 0 0 0 0 0 0 0 0 0 0 0 0 0 127 0" result="hardAlpha"/>
<feOffset dy="4"/>
<feGaussianBlur stdDeviation="3"/>
<feColorMatrix type="matrix" values="0 0 0 0 0 0 0 0 0 0 0 0 0 0 0 0 0 0 0.1 0"/>
<feBlend mode="normal" in2="BackgroundImageFix" result="effect1_dropShadow_7881_622"/>
<feColorMatrix in="SourceAlpha" type="matrix" values="0 0 0 0 0 0 0 0 0 0 0 0 0 0 0 0 0 0 127 0" result="hardAlpha"/>
<feOffset dy="2"/>
<feGaussianBlur stdDeviation="2"/>
<feColorMatrix type="matrix" values="0 0 0 0 0 0 0 0 0 0 0 0 0 0 0 0 0 0 0.06 0"/>
<feBlend mode="normal" in2="effect1_dropShadow_7881_622" result="effect2_dropShadow_7881_622"/>
<feBlend mode="normal" in="SourceGraphic" in2="effect2_dropShadow_7881_622" result="shape"/>
</filter>
</defs>
</svg>
