<svg width="397" height="399" viewBox="0 0 397 399" fill="none" xmlns="http://www.w3.org/2000/svg">
<path d="M256.643 211.085C252.018 230.537 245 248.969 235.292 266.251C210.987 258.4 186.681 258.4 162.374 266.251C152.665 248.969 145.647 230.537 141.022 211.085C130.098 165.118 133.689 116.934 150.432 72.7511C159.713 48.2627 172.349 27.5022 188.787 10.9827C194.316 5.42943 203.34 5.41931 208.871 10.9706C225.319 27.4914 237.955 48.2574 247.235 72.7524C263.976 116.936 267.567 165.118 256.643 211.085Z" fill="white"/>
<path d="M256.643 211.085C252.018 230.537 245 248.969 235.292 266.251C210.987 258.4 186.681 258.4 162.374 266.251C152.665 248.969 145.647 230.537 141.022 211.085C130.098 165.118 133.689 116.934 150.432 72.7511C159.713 48.2627 172.349 27.5022 188.787 10.9827C194.316 5.42943 203.34 5.41931 208.871 10.9706C225.319 27.4914 237.955 48.2574 247.235 72.7524C263.976 116.936 267.567 165.118 256.643 211.085Z" stroke="#1A1D63" stroke-width="3" stroke-linecap="round" stroke-linejoin="round"/>
<path opacity="0.3" d="M258.632 113.005C264.829 145.353 264.323 178.766 256.641 211.088C255.271 216.864 253.684 222.547 251.882 228.138C251.691 228.726 251.499 229.314 251.305 229.901C251.112 230.487 250.915 231.073 250.714 231.657C250.564 232.096 250.414 232.533 250.262 232.97C250.11 233.407 249.956 233.844 249.8 234.28C249.491 235.152 249.175 236.022 248.853 236.889C247.996 239.201 247.099 241.496 246.164 243.775C245.929 244.345 245.693 244.913 245.453 245.481C245.214 246.048 244.972 246.615 244.727 247.181C244.239 248.313 243.741 249.44 243.233 250.563C242.885 251.33 242.533 252.094 242.177 252.857L241.968 253.301C241.74 253.785 241.51 254.268 241.278 254.75C239.411 258.638 237.415 262.473 235.29 266.255C233.463 265.665 231.636 265.119 229.809 264.617C229.548 264.545 229.287 264.475 229.026 264.405C227.886 264.101 226.747 263.814 225.609 263.542C225.04 263.408 224.47 263.277 223.901 263.15C223.332 263.023 222.761 262.902 222.188 262.786C221.809 262.706 221.43 262.63 221.051 262.556C220.671 262.481 220.292 262.408 219.912 262.337C219.154 262.197 218.394 262.062 217.633 261.935C217.254 261.871 216.874 261.81 216.495 261.751L215.924 261.663C215.544 261.606 215.165 261.55 214.785 261.496C214.216 261.416 213.646 261.34 213.075 261.269C212.589 261.208 212.103 261.15 211.618 261.095C211.449 261.075 211.28 261.057 211.112 261.039C210.817 261.006 210.522 260.975 210.226 260.946C209.655 260.887 209.086 260.834 208.517 260.786C207.949 260.739 207.379 260.694 206.808 260.652C206.618 260.639 206.429 260.627 206.238 260.614C205.669 260.576 205.099 260.543 204.53 260.515C204.15 260.495 203.771 260.478 203.391 260.463C203.011 260.448 202.631 260.435 202.252 260.423C201.872 260.412 201.492 260.402 201.113 260.394C188.2 260.133 175.287 262.088 162.375 266.259C162.003 265.597 161.634 264.932 161.268 264.263C161.136 264.022 161.004 263.781 160.873 263.538C160.725 263.265 160.578 262.992 160.431 262.718C160.398 262.656 160.365 262.594 160.332 262.531C160.186 262.26 160.041 261.988 159.898 261.716C159.789 261.511 159.682 261.306 159.572 261.098C159.475 260.911 159.379 260.725 159.283 260.54C159.14 260.266 158.998 259.992 158.857 259.717C158.514 259.05 158.175 258.382 157.839 257.712C157.739 257.513 157.641 257.315 157.543 257.117C157.404 256.838 157.266 256.558 157.129 256.278C157.007 256.032 156.886 255.785 156.767 255.538C156.661 255.319 156.555 255.102 156.45 254.882C156.277 254.523 156.105 254.163 155.934 253.802C155.82 253.563 155.707 253.325 155.595 253.085C155.586 253.076 155.584 253.062 155.579 253.051C155.459 252.796 155.34 252.542 155.221 252.288L155.134 252.105C155.026 251.871 154.918 251.637 154.811 251.404C154.425 250.562 154.045 249.718 153.67 248.871C153.554 248.608 153.437 248.344 153.322 248.079C153.31 248.054 153.3 248.028 153.288 248.002C153.195 247.787 153.101 247.572 153.008 247.357C152.966 247.264 152.926 247.169 152.886 247.075L152.683 246.603C152.579 246.363 152.475 246.125 152.376 245.881C152.277 245.638 152.173 245.409 152.072 245.173L151.854 244.652C151.326 243.382 150.809 242.105 150.304 240.822C150.217 240.602 150.131 240.381 150.046 240.159C149.918 239.838 149.794 239.517 149.674 239.198C149.552 238.881 149.431 238.564 149.311 238.245C149.305 238.239 149.305 238.229 149.301 238.22C149.212 237.983 149.122 237.747 149.034 237.509C148.972 237.344 148.91 237.177 148.848 237.012C148.761 236.776 148.674 236.54 148.588 236.305C151.737 240.749 155.014 244.672 158.593 247.38C160.41 248.748 162.508 249.697 164.735 250.16C166.962 250.623 169.264 250.587 171.475 250.056C173.987 249.461 176.492 248.983 178.989 248.624C207.474 244.487 231.904 226.024 243.144 199.524C253.153 175.947 257.789 146.538 258.632 113.005Z" fill="#1A1D63"/>
<path opacity="0.3" d="M231.824 156.676C247.729 140.772 247.729 114.986 231.824 99.0815C215.92 83.1771 190.134 83.1771 174.23 99.0815C158.325 114.986 158.325 140.772 174.23 156.676C190.134 172.581 215.92 172.581 231.824 156.676Z" fill="#1A1D63"/>
<path d="M226.755 151.373C242.176 135.952 242.176 110.95 226.755 95.529C211.334 80.1081 186.331 80.1081 170.91 95.5291C155.489 110.95 155.489 135.952 170.91 151.373C186.331 166.794 211.334 166.794 226.755 151.373Z" fill="#FF3E3E"/>
<path opacity="0.3" d="M226.754 95.5282C242.175 110.949 242.175 135.951 226.754 151.372C216.244 161.882 201.285 165.229 187.941 161.413C215.688 157.705 236.188 102.947 218.299 89.0841C221.395 90.8413 224.239 93.0089 226.754 95.5282Z" fill="#1A1D63"/>
<path d="M226.755 151.373C242.176 135.952 242.176 110.95 226.755 95.529C211.334 80.1081 186.331 80.1081 170.91 95.5291C155.489 110.95 155.489 135.952 170.91 151.373C186.331 166.794 211.334 166.794 226.755 151.373Z" stroke="#1A1D63" stroke-width="3" stroke-linecap="round" stroke-linejoin="round"/>
<path d="M220.027 144.645C231.732 132.94 231.732 113.962 220.027 102.257C208.322 90.5518 189.344 90.5518 177.638 102.257C165.933 113.962 165.933 132.94 177.638 144.645C189.344 156.35 208.322 156.35 220.027 144.645Z" fill="#6CCFF9"/>
<path d="M200.876 93.5474L199.983 94.4402L199.683 94.4395C197.535 94.8755 195.441 95.542 193.436 96.4275L193.386 96.4491L193.333 96.4653C188.921 97.8489 184.909 100.279 181.639 103.549C170.481 114.706 170.48 132.862 181.638 144.02C183.013 145.395 184.523 146.628 186.145 147.699L186.191 147.729L186.233 147.764C188.135 149.356 190.224 150.708 192.455 151.792L195.426 153.233C188.695 152.472 182.423 149.445 177.641 144.648C165.937 132.943 165.937 113.965 177.642 102.26C180.665 99.2291 184.304 96.8828 188.312 95.3797C192.321 93.8766 196.605 93.2517 200.876 93.5474V93.5474Z" fill="#6CCFF9"/>
<path opacity="0.3" d="M220.026 102.257C231.732 113.962 231.732 132.94 220.026 144.645C216.989 147.689 213.332 150.042 209.303 151.543C205.274 153.045 200.969 153.66 196.68 153.347C219.334 138.642 225.488 120.287 215.299 98.3995C217.002 99.5218 218.585 100.814 220.026 102.257V102.257Z" fill="#1A1D63"/>
<path d="M200.876 93.5474L199.983 94.4402L199.683 94.4395C197.535 94.8755 195.441 95.542 193.436 96.4275L193.386 96.4491L193.333 96.4653C188.921 97.8489 184.909 100.279 181.639 103.549C170.481 114.706 170.48 132.862 181.638 144.02C183.013 145.395 184.523 146.628 186.145 147.699L186.191 147.729L186.233 147.764C188.135 149.356 190.224 150.708 192.455 151.792L195.426 153.233C188.695 152.472 182.423 149.445 177.641 144.648C165.937 132.943 165.937 113.965 177.642 102.26C180.665 99.2291 184.304 96.8828 188.312 95.3797C192.321 93.8766 196.605 93.2517 200.876 93.5474V93.5474Z" fill="white"/>
<path d="M181.19 111.457C180.64 112.022 180.14 112.633 179.695 113.283C178.215 115.442 177.3 117.938 177.034 120.543C176.765 123.358 177.276 126 178.215 128.119C178.653 129.117 179.208 130.06 179.867 130.928C180.44 131.672 181.101 132.345 181.834 132.931C183.191 133.994 184.529 134.513 185.612 134.582C186.603 134.648 187.359 134.37 187.854 133.857C187.903 133.809 187.947 133.756 187.991 133.702C188.491 133.079 188.658 132.25 188.69 131.339C188.722 130.428 188.629 129.401 188.527 128.332C188.306 126.192 188.14 123.774 188.368 121.478C188.597 119.181 189.24 116.829 189.879 114.761C190.192 113.725 190.478 112.731 190.634 111.83C190.79 110.93 190.78 110.088 190.414 109.391C190.048 108.693 189.331 108.241 188.247 108.135C187.163 108.029 185.748 108.319 184.204 109.144C183.365 109.601 182.582 110.155 181.872 110.794C181.643 111.006 181.414 111.228 181.19 111.46L181.19 111.457Z" fill="white"/>
<path d="M220.027 144.645C231.732 132.94 231.732 113.962 220.027 102.257C208.322 90.5518 189.344 90.5518 177.638 102.257C165.933 113.962 165.933 132.94 177.638 144.645C189.344 156.35 208.322 156.35 220.027 144.645Z" stroke="#1A1D63" stroke-width="3" stroke-linecap="round" stroke-linejoin="round"/>
<path d="M155.728 253.355L155.192 253.52C151.089 254.792 147.509 257.362 144.992 260.843C140.113 267.611 135.892 275.436 132.127 283.974C130.827 286.924 126.545 286.635 125.676 283.531C121.315 267.951 117.934 252.635 115.958 237.696C115.701 235.755 115.86 233.782 116.424 231.908C119.894 220.369 125.169 211.571 130.935 201.922C133.44 197.571 135.322 193.061 136.869 188.705C137.881 196.206 139.267 203.666 141.027 211.084C144.514 225.779 149.372 239.887 155.728 253.355Z" fill="#FF3E3E"/>
<path d="M281.707 237.698C279.732 252.636 276.353 267.949 271.989 283.531C271.12 286.637 266.84 286.927 265.538 283.976C261.773 275.438 257.555 267.609 252.673 260.845C250.157 257.363 246.577 254.793 242.473 253.521L241.937 253.356C248.291 239.885 253.149 225.779 256.641 211.083C258.401 203.672 259.787 196.212 260.799 188.704C262.343 193.062 264.225 197.572 266.734 201.921C272.501 211.57 277.775 220.368 281.244 231.907C281.808 233.782 281.966 235.757 281.707 237.698Z" fill="#FF3E3E"/>
<path d="M151.418 243.575C149.844 244.445 148.205 245.192 146.517 245.811C145.714 246.105 144.828 246.075 144.046 245.729C143.264 245.383 142.647 244.748 142.325 243.956C140.031 238.323 138.112 231.532 136.342 224.291C136.142 223.49 136.254 222.643 136.656 221.922C138.122 219.324 139.974 217.154 142.045 215.233C144.518 224.884 147.649 234.353 151.418 243.575V243.575Z" fill="#6CCFF9"/>
<path d="M261.321 224.292C259.551 231.532 257.632 238.323 255.34 243.956C255.017 244.748 254.399 245.383 253.617 245.729C252.835 246.075 251.949 246.105 251.146 245.811C249.458 245.193 247.819 244.445 246.245 243.576C250.014 234.354 253.146 224.884 255.618 215.233C257.69 217.155 259.542 219.324 261.007 221.922C261.41 222.643 261.522 223.491 261.321 224.292V224.292Z" fill="#6CCFF9"/>
<path d="M151.418 243.575C149.844 244.445 148.205 245.192 146.517 245.811C145.714 246.105 144.828 246.075 144.046 245.729C143.264 245.383 142.647 244.748 142.325 243.956C140.031 238.323 138.112 231.532 136.342 224.291C136.142 223.49 136.254 222.643 136.656 221.922C138.122 219.324 139.974 217.154 142.045 215.233C144.518 224.884 147.649 234.353 151.418 243.575V243.575Z" stroke="#1A1D63" stroke-width="3" stroke-linecap="round" stroke-linejoin="round"/>
<path d="M261.321 224.292C259.551 231.532 257.632 238.323 255.34 243.956C255.017 244.748 254.399 245.383 253.617 245.729C252.835 246.075 251.949 246.105 251.146 245.811C249.458 245.193 247.819 244.445 246.245 243.576C250.014 234.354 253.146 224.884 255.618 215.233C257.69 217.155 259.542 219.324 261.007 221.922C261.41 222.643 261.522 223.491 261.321 224.292V224.292Z" stroke="#1A1D63" stroke-width="3" stroke-linecap="round" stroke-linejoin="round"/>
<path opacity="0.3" d="M147.117 232.148C149.598 239.369 152.472 246.448 155.728 253.355L155.191 253.52C151.088 254.792 147.509 257.362 144.991 260.843C140.112 267.61 135.892 275.436 132.127 283.975C130.827 286.924 126.545 286.636 125.676 283.53C124.123 277.981 122.699 272.466 121.406 266.987C122.063 267.438 122.707 267.844 123.342 268.198C124.544 268.86 125.918 269.142 127.284 269.006C128.649 268.87 129.942 268.323 130.99 267.438C134.007 264.894 136.709 261.653 139.184 257.907C144.225 250.25 146.976 241.314 147.117 232.148V232.148Z" fill="#1A1D63"/>
<path opacity="0.3" d="M270.994 209.148C275.053 216.205 278.65 223.293 281.241 231.911C281.806 233.785 281.965 235.759 281.708 237.699C279.732 252.638 276.351 267.955 271.989 283.534C271.12 286.638 266.84 286.929 265.538 283.977C261.9 275.728 257.84 268.142 253.166 261.536C255.005 262.692 256.792 263.604 258.491 264.111C259.549 264.421 260.68 264.371 261.706 263.969C262.732 263.567 263.596 262.836 264.161 261.89C269.389 253.226 273.015 243.746 274.968 233.422C276.072 226.622 272.98 217.71 270.994 209.148Z" fill="#1A1D63"/>
<path opacity="0.3" d="M245.969 254.988C254.673 240.841 264.012 213.627 265.986 200.593C263.849 196.661 262.188 192.623 260.801 188.709C259.789 196.21 258.403 203.67 256.643 211.088C253.151 225.783 248.291 239.891 241.939 253.361L242.474 253.526L245.969 254.988Z" fill="#1A1D63"/>
<path d="M155.728 253.355L155.192 253.52C151.089 254.792 147.509 257.362 144.992 260.843C140.113 267.611 135.892 275.436 132.127 283.974C130.827 286.924 126.545 286.635 125.676 283.531C121.315 267.951 117.934 252.635 115.958 237.696C115.701 235.755 115.86 233.782 116.424 231.908C119.894 220.369 125.169 211.571 130.935 201.922C133.44 197.571 135.322 193.061 136.869 188.705C137.881 196.206 139.267 203.666 141.027 211.084C144.514 225.779 149.372 239.887 155.728 253.355Z" stroke="#1A1D63" stroke-width="3" stroke-linecap="round" stroke-linejoin="round"/>
<path d="M281.707 237.698C279.732 252.636 276.353 267.949 271.989 283.531C271.12 286.637 266.84 286.927 265.538 283.976C261.773 275.438 257.555 267.609 252.673 260.845C250.157 257.363 246.577 254.793 242.473 253.521L241.937 253.356C248.291 239.885 253.149 225.779 256.641 211.083C258.401 203.672 259.787 196.212 260.799 188.704C262.343 193.062 264.225 197.572 266.734 201.921C272.501 211.57 277.775 220.368 281.244 231.907C281.808 233.782 281.966 235.757 281.707 237.698Z" stroke="#1A1D63" stroke-width="3" stroke-linecap="round" stroke-linejoin="round"/>
<path d="M235.101 266.19L230.352 283.111C230.349 283.122 230.341 283.131 230.331 283.137C230.321 283.142 230.309 283.143 230.298 283.14C209.32 277.298 188.343 277.298 167.366 283.14C167.361 283.142 167.355 283.142 167.349 283.142C167.344 283.141 167.338 283.139 167.333 283.136C167.328 283.133 167.324 283.13 167.321 283.125C167.317 283.121 167.314 283.115 167.313 283.11L162.564 266.19C186.742 258.418 210.921 258.418 235.101 266.19Z" fill="#3E4562"/>
<path d="M235.101 266.19L230.352 283.111C230.349 283.122 230.341 283.131 230.331 283.137C230.321 283.142 230.309 283.143 230.298 283.14C209.32 277.298 188.343 277.298 167.366 283.14C167.361 283.142 167.355 283.142 167.349 283.142C167.344 283.141 167.338 283.139 167.333 283.136C167.328 283.133 167.324 283.13 167.321 283.125C167.317 283.121 167.314 283.115 167.313 283.11L162.564 266.19C186.742 258.418 210.921 258.418 235.101 266.19Z" stroke="#1A1D63" stroke-width="3" stroke-linecap="round" stroke-linejoin="round"/>
<path d="M230.308 283.143C209.325 290.831 188.341 290.831 167.356 283.143C188.341 277.297 209.325 277.297 230.308 283.143Z" fill="#3E4562"/>
<path opacity="0.5" d="M232.68 265.435C231.936 267.539 231.062 269.445 230.015 271.086C228.982 272.701 227.483 273.965 225.716 274.711C223.95 275.457 221.998 275.649 220.12 275.262C209.729 273.11 187.925 273.11 177.555 275.257C175.676 275.645 173.724 275.454 171.956 274.708C170.188 273.963 168.688 272.698 167.655 271.082C166.608 269.443 165.732 267.541 164.991 265.435C164.183 265.678 163.375 265.929 162.568 266.189L167.316 283.108C167.318 283.114 167.32 283.119 167.324 283.123C167.327 283.128 167.331 283.132 167.336 283.135C167.341 283.138 167.347 283.139 167.352 283.14C167.358 283.141 167.364 283.141 167.369 283.139C177.859 280.217 188.348 278.757 198.836 278.757C209.323 278.758 219.812 280.218 230.302 283.139C230.313 283.142 230.325 283.14 230.335 283.134C230.344 283.129 230.352 283.119 230.355 283.108L235.104 266.188C234.294 265.931 233.487 265.68 232.68 265.435Z" fill="#1A1D63"/>
<path d="M230.308 283.143C209.325 290.831 188.341 290.831 167.356 283.143C188.341 277.297 209.325 277.297 230.308 283.143Z" stroke="#1A1D63" stroke-width="3" stroke-linecap="round" stroke-linejoin="round"/>
<path d="M198.832 278.758L198.832 260.359" stroke="#1A1D63" stroke-width="3" stroke-linecap="round" stroke-linejoin="round"/>
<path d="M218.769 262.124L216.4 280.127" stroke="#1A1D63" stroke-width="3" stroke-linecap="round" stroke-linejoin="round"/>
<path d="M181.265 280.126L178.895 262.124" stroke="#1A1D63" stroke-width="3" stroke-linecap="round" stroke-linejoin="round"/>
<path d="M219.449 280.644C222.116 284.964 223.672 290.168 223.672 295.767C223.671 295.931 223.67 296.093 223.668 296.256C223.662 296.567 223.652 296.877 223.638 297.186L223.626 297.42C223.6 297.89 223.564 298.357 223.516 298.82C223.508 298.904 223.498 298.987 223.489 299.071C223.396 299.904 223.27 300.724 223.109 301.532C223.094 301.611 223.078 301.689 223.062 301.767C222.906 302.521 222.722 303.262 222.509 303.99L222.434 304.241L222.357 304.49C222.333 304.573 222.306 304.656 222.279 304.738C222.201 304.986 222.118 305.232 222.031 305.476C222.003 305.558 221.973 305.639 221.944 305.721C221.825 306.051 221.699 306.379 221.567 306.706L221.478 306.922L221.378 307.157C221.344 307.235 221.311 307.314 221.277 307.393L221.175 307.629C221.071 307.863 220.963 308.095 220.854 308.325C220.817 308.401 220.78 308.478 220.742 308.553C220.717 308.607 220.691 308.66 220.664 308.713C220.614 308.812 220.564 308.91 220.514 309.008L220.397 309.233L220.393 309.237L220.276 309.456C220.237 309.53 220.197 309.604 220.156 309.678C219.972 310.013 219.781 310.344 219.585 310.67C219.388 310.996 219.187 311.313 218.983 311.619C212.887 320.835 208.97 331.319 207.276 342.239L198.835 396.691L190.392 342.236C188.699 331.316 184.781 320.832 178.685 311.617C175.736 307.16 173.999 301.685 173.999 295.767C173.999 295.081 174.022 294.401 174.069 293.728C174.076 293.617 174.084 293.506 174.093 293.396C174.11 293.174 174.13 292.954 174.153 292.736L174.188 292.406C174.212 292.188 174.239 291.97 174.27 291.753C174.3 291.537 174.33 291.32 174.365 291.106C174.382 290.997 174.4 290.891 174.418 290.783L174.472 290.46C174.511 290.247 174.552 290.033 174.595 289.822C174.616 289.716 174.639 289.61 174.662 289.505L174.732 289.191L174.806 288.876C174.83 288.771 174.856 288.667 174.883 288.564C174.96 288.252 175.044 287.943 175.135 287.638C175.166 287.534 175.198 287.43 175.225 287.332L175.321 287.024L175.42 286.718C175.453 286.617 175.488 286.516 175.521 286.415L175.625 286.114L175.717 285.852L175.744 285.776L175.84 285.519L175.951 285.226L176.064 284.935C176.219 284.545 176.383 284.161 176.555 283.782L176.655 283.561C176.739 283.388 176.822 283.214 176.907 283.04C176.939 282.971 176.973 282.902 177.007 282.834L177.124 282.603L177.237 282.385C177.282 282.295 177.333 282.202 177.378 282.109L177.526 281.837C177.625 281.655 177.726 281.475 177.83 281.297C177.933 281.119 178.038 280.943 178.144 280.77C178.172 280.721 178.202 280.674 178.232 280.626C181.048 280.116 183.867 279.708 186.687 279.403C194.766 278.532 202.915 278.534 210.994 279.409C213.811 279.717 216.63 280.129 219.449 280.644Z" fill="#EE5130"/>
<path d="M210.989 279.417C211.166 280.339 211.255 281.275 211.254 282.214C211.254 284.848 210.42 287.222 209.337 289.365C209.237 289.565 209.134 289.763 209.029 289.957C206.083 295.459 203.903 299.992 203.04 305.559L198.835 332.675L194.631 305.559C193.767 299.992 191.587 295.459 188.641 289.957C188.167 289.083 187.751 288.179 187.395 287.251C186.803 285.685 186.416 284.012 186.416 282.214C186.416 281.273 186.505 280.335 186.682 279.411C194.761 278.54 202.91 278.542 210.989 279.417Z" fill="#FFD553"/>
<path opacity="0.3" d="M219.449 280.645C222.116 284.964 223.672 290.168 223.672 295.767C223.671 295.931 223.67 296.093 223.668 296.256C223.662 296.567 223.652 296.877 223.638 297.186L223.626 297.42C223.6 297.89 223.564 298.357 223.516 298.82C223.508 298.904 223.499 298.987 223.489 299.071C223.397 299.904 223.27 300.724 223.109 301.532C223.094 301.611 223.078 301.689 223.062 301.767C222.906 302.521 222.722 303.262 222.509 303.99L222.434 304.241L222.358 304.49C222.333 304.573 222.306 304.656 222.279 304.738C222.201 304.986 222.118 305.232 222.031 305.476C222.003 305.558 221.973 305.639 221.944 305.721C221.825 306.051 221.699 306.379 221.567 306.706L221.478 306.922L221.378 307.157C221.344 307.235 221.311 307.314 221.277 307.393L221.175 307.629C221.071 307.864 220.963 308.095 220.854 308.325C220.817 308.401 220.78 308.478 220.743 308.553C220.717 308.607 220.691 308.66 220.664 308.713C220.614 308.812 220.564 308.91 220.514 309.008L220.397 309.233L220.393 309.237L220.277 309.456C220.237 309.53 220.197 309.604 220.156 309.678C219.972 310.013 219.782 310.344 219.585 310.67C219.351 306.894 218.734 303.345 217.617 300.095C216.102 295.712 213.195 291.945 209.34 289.369C205.245 286.622 200.337 285.353 195.425 285.771C192.707 285.998 190.018 286.494 187.399 287.254C182.546 288.667 178.155 290.92 174.071 293.732C174.079 293.621 174.087 293.51 174.096 293.4C174.113 293.179 174.133 292.959 174.156 292.74L174.191 292.411C174.216 292.192 174.243 291.974 174.272 291.757C174.302 291.54 174.334 291.325 174.368 291.11C174.385 291.001 174.403 290.895 174.421 290.787L174.475 290.464C174.514 290.251 174.554 290.038 174.598 289.826C174.619 289.72 174.642 289.614 174.665 289.509L174.735 289.195L174.809 288.88C174.833 288.775 174.859 288.671 174.885 288.568C174.963 288.257 175.047 287.948 175.138 287.642C175.169 287.538 175.2 287.435 175.227 287.336L175.324 287.028L175.423 286.722C175.456 286.621 175.49 286.52 175.524 286.419L175.628 286.118L175.72 285.856L175.747 285.78L175.842 285.523L175.954 285.23L176.067 284.939C176.223 284.55 176.387 284.166 176.558 283.786L176.658 283.565C176.741 283.392 176.825 283.218 176.91 283.044C176.942 282.975 176.976 282.906 177.01 282.838L177.127 282.607L177.24 282.389C177.285 282.299 177.335 282.206 177.381 282.113L177.529 281.841C177.628 281.659 177.729 281.479 177.832 281.301C177.936 281.123 178.04 280.948 178.147 280.774C178.175 280.725 178.205 280.678 178.235 280.63C181.051 280.12 183.869 279.712 186.69 279.407C194.769 278.536 202.918 278.538 210.997 279.413C213.812 279.718 216.63 280.129 219.449 280.645Z" fill="#1A1D63"/>
<path d="M219.449 280.644C222.116 284.964 223.672 290.168 223.672 295.767C223.671 295.931 223.67 296.093 223.668 296.256C223.662 296.567 223.652 296.877 223.638 297.186L223.626 297.42C223.6 297.89 223.564 298.357 223.516 298.82C223.508 298.904 223.498 298.987 223.489 299.071C223.396 299.904 223.27 300.724 223.109 301.532C223.094 301.611 223.078 301.689 223.062 301.767C222.906 302.521 222.722 303.262 222.509 303.99L222.434 304.241L222.357 304.49C222.333 304.573 222.306 304.656 222.279 304.738C222.201 304.986 222.118 305.232 222.031 305.476C222.003 305.558 221.973 305.639 221.944 305.721C221.825 306.051 221.699 306.379 221.567 306.706L221.478 306.922L221.378 307.157C221.344 307.235 221.311 307.314 221.277 307.393L221.175 307.629C221.071 307.863 220.963 308.095 220.854 308.325C220.817 308.401 220.78 308.478 220.742 308.553C220.717 308.607 220.691 308.66 220.664 308.713C220.614 308.812 220.564 308.91 220.514 309.008L220.397 309.233L220.393 309.237L220.276 309.456C220.237 309.53 220.197 309.604 220.156 309.678C219.972 310.013 219.781 310.344 219.585 310.67C219.388 310.996 219.187 311.313 218.983 311.619C212.887 320.835 208.97 331.319 207.276 342.239L198.835 396.691L190.392 342.236C188.699 331.316 184.781 320.832 178.685 311.617C175.736 307.16 173.999 301.685 173.999 295.767C173.999 295.081 174.022 294.401 174.069 293.728C174.076 293.617 174.084 293.506 174.093 293.396C174.11 293.174 174.13 292.954 174.153 292.736L174.188 292.406C174.212 292.188 174.239 291.97 174.27 291.753C174.3 291.537 174.33 291.32 174.365 291.106C174.382 290.997 174.4 290.891 174.418 290.783L174.472 290.46C174.511 290.247 174.552 290.033 174.595 289.822C174.616 289.716 174.639 289.61 174.662 289.505L174.732 289.191L174.806 288.876C174.83 288.771 174.856 288.667 174.883 288.564C174.96 288.252 175.044 287.943 175.135 287.638C175.166 287.534 175.198 287.43 175.225 287.332L175.321 287.024L175.42 286.718C175.453 286.617 175.488 286.516 175.521 286.415L175.625 286.114L175.717 285.852L175.744 285.776L175.84 285.519L175.951 285.226L176.064 284.935C176.219 284.545 176.383 284.161 176.555 283.782L176.655 283.561C176.739 283.388 176.822 283.214 176.907 283.04C176.939 282.971 176.973 282.902 177.007 282.834L177.124 282.603L177.237 282.385C177.282 282.295 177.333 282.202 177.378 282.109L177.526 281.837C177.625 281.655 177.726 281.475 177.83 281.297C177.933 281.119 178.038 280.943 178.144 280.77C178.172 280.721 178.202 280.674 178.232 280.626C181.048 280.116 183.867 279.708 186.687 279.403C194.766 278.532 202.915 278.534 210.994 279.409C213.811 279.717 216.63 280.129 219.449 280.644Z" stroke="#1A1D63" stroke-width="3" stroke-linecap="round" stroke-linejoin="round"/>
<path d="M136.131 182.666C177.931 193.367 219.732 193.368 261.534 182.667" stroke="#1A1D63" stroke-width="3" stroke-linecap="round" stroke-linejoin="round"/>
<path d="M230.328 283.111C230.325 283.122 230.318 283.132 230.308 283.137C230.298 283.143 230.286 283.144 230.276 283.141C209.297 277.299 188.319 277.299 167.343 283.141C167.332 283.144 167.32 283.143 167.31 283.137C167.3 283.131 167.293 283.122 167.29 283.111" stroke="#1A1D63" stroke-width="3" stroke-linecap="round" stroke-linejoin="round"/>
<path d="M233.96 44.3067C210.993 37.9035 187.496 38.0415 163.471 44.7207C170.634 32.0578 179.043 20.7753 188.788 10.9837C194.316 5.4291 203.34 5.41966 208.871 10.9709C218.146 20.2877 226.21 30.9546 233.144 42.8784C233.415 43.3538 233.689 43.8299 233.96 44.3067Z" fill="#FF3E3E"/>
<path opacity="0.3" d="M233.96 44.3071C210.993 37.9039 187.497 38.0419 163.472 44.7211C163.751 44.2311 164.03 43.7429 164.311 43.2564C179.212 36.6458 196.031 32.5032 215.291 33.9308C215.757 33.9651 216.224 33.8923 216.657 33.718C217.091 33.5436 217.478 33.2724 217.79 32.9251C218.102 32.5778 218.331 32.1636 218.458 31.7144C218.585 31.2651 218.608 30.7926 218.525 30.3332C217.497 24.7523 213.184 17.381 208.222 10.363C208.442 10.5586 208.658 10.7629 208.869 10.974C218.144 20.2908 226.208 30.9576 233.142 42.8815C233.416 43.3542 233.69 43.8303 233.96 44.3071Z" fill="#1A1D63"/>
<path d="M233.96 44.3067C210.993 37.9035 187.496 38.0415 163.471 44.7207C170.634 32.0578 179.043 20.7753 188.788 10.9837C194.316 5.4291 203.34 5.41966 208.871 10.9709C218.146 20.2877 226.21 30.9546 233.144 42.8784C233.415 43.3538 233.689 43.8299 233.96 44.3067Z" stroke="#1A1D63" stroke-width="3" stroke-linecap="round" stroke-linejoin="round"/>
</svg>
