<svg width="272" height="282" fill="none" xmlns="http://www.w3.org/2000/svg"><path style="mix-blend-mode:multiply" d="M261.028 161.95c-3.837 50.675-38.414 95.435-86.39 112.206A130.85 130.85 0 0 1 7.545 194.642 130.847 130.847 0 0 1 87.058 27.549a130.202 130.202 0 0 1 30.404-6.794c79.741-7.985 149.921 57.262 143.566 141.195z" fill="url(#)"/><path d="M257.975 90.9a101.06 101.06 0 0 1-52.687 99.161A101.062 101.062 0 0 1 93.512 179.33a101.053 101.053 0 0 1-32.86-107.373A101.056 101.056 0 0 1 147.278.51a101.084 101.084 0 0 1 110.697 90.39z" fill="url(#a)"/><path d="M149.577 37.547c12.94-4.852 21.453-14.058 19.014-20.564-2.438-6.506-14.906-7.847-27.846-2.996-12.94 4.85-21.453 14.057-19.015 20.563 2.439 6.506 14.907 7.848 27.847 2.997zM93.085 147.481c-4.734 2.216-12.158-3.63-16.564-13.055-4.406-9.424-4.147-18.866.595-21.082 4.742-2.216 12.15 3.63 16.564 13.055 4.415 9.424 4.147 18.866-.595 21.082zM223.009 171.044c4.763-2.198 5.079-11.66.707-21.133-4.372-9.473-11.777-15.37-16.54-13.172-4.762 2.198-5.079 11.659-.707 21.132 4.373 9.473 11.778 15.371 16.54 13.173zM144.269 107.11c9.685-.973 16.486-12.21 15.191-25.098-1.296-12.888-10.197-22.547-19.882-21.574-9.685.974-16.486 12.21-15.191 25.099 1.296 12.888 10.197 22.547 19.882 21.573zM191.893 66.172c6.323-2.157 9.121-10.731 6.248-19.15-2.872-8.42-10.327-13.495-16.651-11.338-6.323 2.158-9.12 10.732-6.248 19.15 2.873 8.42 10.328 13.496 16.651 11.338zM175.617 135.853c3.478-.35 5.88-4.789 5.365-9.916-.516-5.127-3.753-9-7.231-8.65-3.478.35-5.879 4.789-5.364 9.916.516 5.127 3.753 8.999 7.23 8.65zM208.066 120.487c4.563-.459 7.714-6.281 7.038-13.005-.676-6.724-4.923-11.802-9.486-11.344-4.563.459-7.714 6.281-7.038 13.005.676 6.723 4.923 11.802 9.486 11.344zM87.377 61.195c-2.492 3.932-6.596 5.795-9.157 4.165-2.56-1.63-2.587-6.14-.13-10.063 2.458-3.923 6.597-5.794 9.166-4.164 2.57 1.63 2.622 6.139.121 10.062zM235.342 74.669c4.354-2.175 4.608-10.493.568-18.579-4.04-8.085-10.844-12.876-15.198-10.7-4.354 2.175-4.608 10.493-.568 18.578 4.04 8.085 10.845 12.876 15.198 10.7zM119.712 155.888c.362 3.596-1.207 6.7-3.509 6.898-2.302.198-4.458-2.492-4.82-6.088-.362-3.595 1.216-6.699 3.509-6.898 2.294-.198 4.458 2.466 4.82 6.088zM141.397 130.193c.638 6.329-2.13 11.796-6.182 12.201-4.053.405-7.838-4.398-8.476-10.727-.638-6.329 2.13-11.787 6.174-12.192 4.044-.405 7.846 4.398 8.484 10.718zM151.633 174.625c.569 5.691-1.914 10.606-5.553 10.968-3.639.362-7.053-3.949-7.631-9.64-.578-5.691 1.914-10.597 5.553-10.968 3.639-.371 7.053 3.958 7.631 9.64zM97.557 103.143c3.303-.332 5.559-4.784 5.041-9.944-.519-5.16-3.617-9.073-6.92-8.742-3.302.333-5.559 4.785-5.04 9.945.518 5.16 3.616 9.073 6.919 8.741zM177.208 186.395c-3.769 1.923-7.683 1.82-8.735-.241-1.052-2.061 1.155-5.294 4.923-7.226 3.768-1.931 7.692-1.819 8.744.242 1.052 2.06-1.156 5.294-4.932 7.225zM243.181 118.34c1.323-4.645.568-8.93-1.685-9.572-2.253-.641-5.152 2.603-6.475 7.247-1.323 4.644-.569 8.929 1.684 9.571 2.254.642 5.153-2.602 6.476-7.246z" fill="#FFBD2E"/><path style="mix-blend-mode:screen" d="M257.975 90.9a101.06 101.06 0 0 1-52.687 99.161A101.062 101.062 0 0 1 93.512 179.33a101.053 101.053 0 0 1-32.86-107.373A101.056 101.056 0 0 1 147.278.51a101.084 101.084 0 0 1 110.697 90.39z" fill="url(#b)"/><g filter="url(#c)"><path d="M113.848 88.908c.176 0 .332.068.468.204l1.272 1.38a6.974 6.974 0 0 1-2.604 2.004c-1.024.464-2.256.696-3.696.696-1.288 0-2.448-.22-3.48-.66a7.671 7.671 0 0 1-2.628-1.836c-.728-.784-1.288-1.72-1.68-2.808-.384-1.088-.576-2.276-.576-3.564 0-1.304.208-2.496.624-3.576.416-1.088 1-2.024 1.752-2.808a7.948 7.948 0 0 1 2.712-1.824c1.048-.44 2.208-.66 3.48-.66 1.264 0 2.384.208 3.36.624.984.416 1.82.96 2.508 1.632l-1.08 1.5a.943.943 0 0 1-.252.252c-.096.072-.232.108-.408.108a.83.83 0 0 1-.372-.096 9.691 9.691 0 0 1-.42-.252 10.605 10.605 0 0 0-.528-.336c-.2-.12-.432-.228-.696-.324a4.947 4.947 0 0 0-.924-.252 5.91 5.91 0 0 0-1.2-.108c-.776 0-1.488.14-2.136.42a4.547 4.547 0 0 0-1.656 1.2c-.464.52-.824 1.16-1.08 1.92-.256.752-.384 1.612-.384 2.58 0 .976.136 1.844.408 2.604.28.76.656 1.4 1.128 1.92a4.86 4.86 0 0 0 1.668 1.2c.64.272 1.328.408 2.064.408.44 0 .836-.024 1.188-.072.36-.048.688-.124.984-.228.304-.104.588-.236.852-.396.272-.168.54-.372.804-.612a.99.99 0 0 1 .252-.168.569.569 0 0 1 .276-.072zm9.987-1.164c-.856.04-1.576.116-2.16.228-.584.104-1.052.24-1.404.408-.352.168-.604.364-.756.588a1.277 1.277 0 0 0-.228.732c0 .52.152.892.456 1.116.312.224.716.336 1.212.336.608 0 1.132-.108 1.572-.324.448-.224.884-.56 1.308-1.008v-2.076zm-6.792-5.34c1.416-1.296 3.12-1.944 5.112-1.944.72 0 1.364.12 1.932.36a3.98 3.98 0 0 1 1.44.984c.392.416.688.916.888 1.5.208.584.312 1.224.312 1.92V93h-1.344c-.28 0-.496-.04-.648-.12-.152-.088-.272-.26-.36-.516l-.264-.888c-.312.28-.616.528-.912.744a5.607 5.607 0 0 1-.924.528c-.32.144-.664.252-1.032.324-.36.08-.76.12-1.2.12-.52 0-1-.068-1.44-.204a3.237 3.237 0 0 1-1.14-.636 2.828 2.828 0 0 1-.744-1.044c-.176-.416-.264-.9-.264-1.452a2.837 2.837 0 0 1 .66-1.812c.24-.28.548-.544.924-.792a5.992 5.992 0 0 1 1.38-.648 11.77 11.77 0 0 1 1.92-.444c.728-.12 1.56-.192 2.496-.216v-.72c0-.824-.176-1.432-.528-1.824-.352-.4-.86-.6-1.524-.6-.48 0-.88.056-1.2.168-.312.112-.588.24-.828.384l-.66.372a1.262 1.262 0 0 1-.648.168.878.878 0 0 1-.528-.156 1.433 1.433 0 0 1-.348-.384l-.528-.948zM129.519 93V80.688h1.812c.384 0 .636.18.756.54l.192.912c.216-.24.44-.46.672-.66.24-.2.492-.372.756-.516.272-.144.56-.256.864-.336a3.747 3.747 0 0 1 1.02-.132c.776 0 1.412.212 1.908.636.504.416.88.972 1.128 1.668.192-.408.432-.756.72-1.044a3.86 3.86 0 0 1 .948-.72c.344-.184.708-.32 1.092-.408a5.354 5.354 0 0 1 1.176-.132c.68 0 1.284.104 1.812.312.528.208.972.512 1.332.912.36.4.632.888.816 1.464.192.576.288 1.236.288 1.98V93h-2.964v-7.836c0-.784-.172-1.372-.516-1.764-.344-.4-.848-.6-1.512-.6-.304 0-.588.052-.852.156a2.051 2.051 0 0 0-.684.456 2.037 2.037 0 0 0-.456.732 2.87 2.87 0 0 0-.168 1.02V93h-2.976v-7.836c0-.824-.168-1.424-.504-1.8-.328-.376-.812-.564-1.452-.564-.432 0-.836.108-1.212.324a3.958 3.958 0 0 0-1.032.864V93h-2.964zm23.073-3.192c.336.408.7.696 1.092.864.4.168.832.252 1.296.252.448 0 .852-.084 1.212-.252a2.33 2.33 0 0 0 .912-.768c.256-.344.452-.776.588-1.296.136-.528.204-1.148.204-1.86 0-.72-.06-1.328-.18-1.824-.112-.504-.276-.912-.492-1.224a1.957 1.957 0 0 0-.792-.684 2.411 2.411 0 0 0-1.044-.216c-.616 0-1.14.132-1.572.396-.432.256-.84.62-1.224 1.092v5.52zm-.156-7.44a6.422 6.422 0 0 1 1.716-1.38c.64-.352 1.392-.528 2.256-.528a4 4 0 0 1 1.836.42c.56.28 1.04.688 1.44 1.224.408.528.72 1.184.936 1.968.224.776.336 1.668.336 2.676 0 .92-.124 1.772-.372 2.556a6.19 6.19 0 0 1-1.068 2.04 4.894 4.894 0 0 1-1.668 1.356c-.648.32-1.376.48-2.184.48-.688 0-1.276-.104-1.764-.312a4.402 4.402 0 0 1-1.308-.888v5.04h-2.964V80.688h1.812c.384 0 .636.18.756.54l.24 1.14zm17.337 5.376c-.856.04-1.576.116-2.16.228-.584.104-1.052.24-1.404.408-.352.168-.604.364-.756.588a1.277 1.277 0 0 0-.228.732c0 .52.152.892.456 1.116.312.224.716.336 1.212.336.608 0 1.132-.108 1.572-.324.448-.224.884-.56 1.308-1.008v-2.076zm-6.792-5.34c1.416-1.296 3.12-1.944 5.112-1.944.72 0 1.364.12 1.932.36a3.98 3.98 0 0 1 1.44.984c.392.416.688.916.888 1.5.208.584.312 1.224.312 1.92V93h-1.344c-.28 0-.496-.04-.648-.12-.152-.088-.272-.26-.36-.516l-.264-.888c-.312.28-.616.528-.912.744a5.607 5.607 0 0 1-.924.528c-.32.144-.664.252-1.032.324-.36.08-.76.12-1.2.12-.52 0-1-.068-1.44-.204a3.237 3.237 0 0 1-1.14-.636 2.828 2.828 0 0 1-.744-1.044c-.176-.416-.264-.9-.264-1.452a2.837 2.837 0 0 1 .66-1.812c.24-.28.548-.544.924-.792a5.992 5.992 0 0 1 1.38-.648 11.77 11.77 0 0 1 1.92-.444c.728-.12 1.56-.192 2.496-.216v-.72c0-.824-.176-1.432-.528-1.824-.352-.4-.86-.6-1.524-.6-.48 0-.88.056-1.2.168-.312.112-.588.24-.828.384l-.66.372a1.262 1.262 0 0 1-.648.168.878.878 0 0 1-.528-.156 1.433 1.433 0 0 1-.348-.384l-.528-.948zm15.247-.204c.248-.248.508-.476.78-.684a4.79 4.79 0 0 1 1.872-.888 4.744 4.744 0 0 1 1.152-.132c.672 0 1.268.116 1.788.348.52.224.952.544 1.296.96.352.408.616.9.792 1.476.184.568.276 1.196.276 1.884V93h-2.964v-7.836c0-.752-.172-1.332-.516-1.74-.344-.416-.868-.624-1.572-.624-.512 0-.992.116-1.44.348a5.16 5.16 0 0 0-1.272.948V93h-2.964V80.688h1.812c.384 0 .636.18.756.54l.204.972zm13.739-.192a6.435 6.435 0 0 1 1.584-1.092c.576-.28 1.252-.42 2.028-.42.672 0 1.268.116 1.788.348.52.224.952.544 1.296.96.352.408.616.9.792 1.476.184.568.276 1.196.276 1.884V93h-2.964v-7.836c0-.752-.172-1.332-.516-1.74-.344-.416-.868-.624-1.572-.624-.512 0-.992.116-1.44.348a5.16 5.16 0 0 0-1.272.948V93h-2.964V75.168h2.964v6.84zm17.087 5.736c-.856.04-1.576.116-2.16.228-.584.104-1.052.24-1.404.408-.352.168-.604.364-.756.588a1.277 1.277 0 0 0-.228.732c0 .52.152.892.456 1.116.312.224.716.336 1.212.336.608 0 1.132-.108 1.572-.324.448-.224.884-.56 1.308-1.008v-2.076zm-6.792-5.34c1.416-1.296 3.12-1.944 5.112-1.944.72 0 1.364.12 1.932.36a3.98 3.98 0 0 1 1.44.984c.392.416.688.916.888 1.5.208.584.312 1.224.312 1.92V93h-1.344c-.28 0-.496-.04-.648-.12-.152-.088-.272-.26-.36-.516l-.264-.888c-.312.28-.616.528-.912.744a5.607 5.607 0 0 1-.924.528c-.32.144-.664.252-1.032.324-.36.08-.76.12-1.2.12-.52 0-1-.068-1.44-.204a3.237 3.237 0 0 1-1.14-.636 2.828 2.828 0 0 1-.744-1.044c-.176-.416-.264-.9-.264-1.452a2.837 2.837 0 0 1 .66-1.812c.24-.28.548-.544.924-.792a5.992 5.992 0 0 1 1.38-.648 11.77 11.77 0 0 1 1.92-.444c.728-.12 1.56-.192 2.496-.216v-.72c0-.824-.176-1.432-.528-1.824-.352-.4-.86-.6-1.524-.6-.48 0-.88.056-1.2.168-.312.112-.588.24-.828.384l-.66.372a1.262 1.262 0 0 1-.648.168.878.878 0 0 1-.528-.156 1.433 1.433 0 0 1-.348-.384l-.528-.948zm19.987.684a.858.858 0 0 1-.252.276.697.697 0 0 1-.336.072c-.144 0-.3-.04-.468-.12a13.91 13.91 0 0 0-.564-.264 4.687 4.687 0 0 0-.744-.276 3.47 3.47 0 0 0-.972-.12c-.584 0-1.044.124-1.38.372a1.163 1.163 0 0 0-.492.972.96.96 0 0 0 .252.672c.176.176.404.332.684.468.288.136.612.26.972.372.36.104.724.22 1.092.348.376.128.744.276 1.104.444.36.16.68.368.96.624.288.248.516.548.684.9.176.352.264.776.264 1.272a4.13 4.13 0 0 1-.324 1.644c-.208.496-.52.928-.936 1.296-.416.36-.932.644-1.548.852-.608.2-1.312.3-2.112.3-.424 0-.84-.04-1.248-.12a6.782 6.782 0 0 1-2.196-.792 5.122 5.122 0 0 1-.828-.6l.684-1.128a.967.967 0 0 1 .312-.312.875.875 0 0 1 .456-.108.93.93 0 0 1 .516.156c.168.104.36.216.576.336.216.12.468.232.756.336.296.104.668.156 1.116.156.352 0 .652-.04.9-.12.256-.088.464-.2.624-.336.168-.136.288-.292.36-.468.08-.184.12-.372.12-.564 0-.288-.088-.524-.264-.708a2.162 2.162 0 0 0-.684-.48 5.908 5.908 0 0 0-.972-.36c-.36-.112-.732-.232-1.116-.36a11.992 11.992 0 0 1-1.116-.444 4.084 4.084 0 0 1-.972-.66 3.083 3.083 0 0 1-.684-.972c-.168-.384-.252-.848-.252-1.392 0-.504.1-.984.3-1.44.2-.456.492-.852.876-1.188.392-.344.876-.616 1.452-.816.584-.208 1.256-.312 2.016-.312.848 0 1.62.14 2.316.42.696.28 1.276.648 1.74 1.104l-.672 1.068zM117.34 120.324c0 1.272-.212 2.44-.636 3.504a8.049 8.049 0 0 1-1.788 2.748c-.768.768-1.692 1.364-2.772 1.788-1.08.424-2.28.636-3.6.636h-6.612v-17.352h6.612c1.32 0 2.52.216 3.6.648 1.08.424 2.004 1.02 2.772 1.788a7.922 7.922 0 0 1 1.788 2.736c.424 1.064.636 2.232.636 3.504zm-3.312 0c0-.952-.128-1.804-.384-2.556-.248-.76-.612-1.4-1.092-1.92a4.665 4.665 0 0 0-1.728-1.212c-.672-.28-1.432-.42-2.28-.42h-3.372v12.216h3.372c.848 0 1.608-.14 2.28-.42a4.73 4.73 0 0 0 1.728-1.2c.48-.528.844-1.168 1.092-1.92.256-.76.384-1.616.384-2.568zm8.555-3.636V129h-2.976v-12.312h2.976zm.408-3.588c0 .256-.052.496-.156.72-.104.224-.244.42-.42.588a1.99 1.99 0 0 1-.6.408c-.232.096-.48.144-.744.144-.256 0-.5-.048-.732-.144a2.036 2.036 0 0 1-.588-.408 2.036 2.036 0 0 1-.408-.588 1.808 1.808 0 0 1-.144-.72c0-.264.048-.512.144-.744a1.99 1.99 0 0 1 .408-.6c.168-.168.364-.3.588-.396a1.77 1.77 0 0 1 .732-.156c.264 0 .512.052.744.156.232.096.432.228.6.396.176.168.316.368.42.6.104.232.156.48.156.744zm7.114 9.444c.368 0 .688-.048.96-.144.272-.104.496-.244.672-.42.184-.176.32-.388.408-.636.096-.248.144-.52.144-.816 0-.608-.184-1.088-.552-1.44-.36-.36-.904-.54-1.632-.54-.728 0-1.276.18-1.644.54-.36.352-.54.832-.54 1.44 0 .288.044.556.132.804.096.248.232.464.408.648.184.176.412.316.684.42.28.096.6.144.96.144zm3.348 7.008a.82.82 0 0 0-.216-.588 1.371 1.371 0 0 0-.588-.348 4.075 4.075 0 0 0-.876-.192 13.48 13.48 0 0 0-1.056-.084 45.931 45.931 0 0 0-1.152-.06 13.415 13.415 0 0 1-1.152-.096 2.86 2.86 0 0 0-.804.648c-.2.248-.3.536-.3.864 0 .216.052.416.156.6.112.192.284.356.516.492.24.136.548.24.924.312.376.08.836.12 1.38.12.552 0 1.028-.044 1.428-.132.4-.08.728-.196.984-.348.264-.144.456-.32.576-.528.12-.2.18-.42.18-.66zm2.952-12.444v1.104c0 .352-.212.568-.636.648l-1.104.204c.168.424.252.888.252 1.392a3.622 3.622 0 0 1-1.38 2.904 4.832 4.832 0 0 1-1.536.804 6.278 6.278 0 0 1-1.896.276c-.24 0-.472-.012-.696-.036a8.732 8.732 0 0 1-.66-.096c-.384.232-.576.492-.576.78 0 .248.112.432.336.552.232.112.536.192.912.24.376.048.804.08 1.284.096.48.008.972.032 1.476.072.504.04.996.112 1.476.216.48.096.908.252 1.284.468.376.216.676.512.9.888.232.368.348.844.348 1.428 0 .544-.136 1.072-.408 1.584-.264.512-.652.968-1.164 1.368-.504.4-1.128.72-1.872.96-.736.248-1.576.372-2.52.372-.928 0-1.736-.092-2.424-.276-.688-.176-1.26-.416-1.716-.72-.456-.296-.796-.64-1.02-1.032a2.434 2.434 0 0 1-.336-1.224c0-.576.172-1.056.516-1.44.352-.392.832-.704 1.44-.936a2.067 2.067 0 0 1-.78-.672c-.192-.28-.288-.648-.288-1.104 0-.184.032-.372.096-.564.072-.2.172-.396.3-.588a2.89 2.89 0 0 1 .504-.54c.2-.176.436-.332.708-.468a3.932 3.932 0 0 1-1.476-1.344c-.352-.56-.528-1.216-.528-1.968 0-.608.12-1.156.36-1.644a3.715 3.715 0 0 1 1.02-1.26c.44-.352.956-.62 1.548-.804a6.643 6.643 0 0 1 1.956-.276c.528 0 1.024.056 1.488.168.464.104.888.26 1.272.468h3.54zm4.951-.42V129h-2.976v-12.312h2.976zm.408-3.588c0 .256-.052.496-.156.72-.104.224-.244.42-.42.588a1.99 1.99 0 0 1-.6.408c-.232.096-.48.144-.744.144-.256 0-.5-.048-.732-.144a2.036 2.036 0 0 1-.588-.408 2.036 2.036 0 0 1-.408-.588 1.808 1.808 0 0 1-.144-.72c0-.264.048-.512.144-.744a1.99 1.99 0 0 1 .408-.6c.168-.168.364-.3.588-.396a1.77 1.77 0 0 1 .732-.156c.264 0 .512.052.744.156.232.096.432.228.6.396.176.168.316.368.42.6.104.232.156.48.156.744zm6.718 16.092c-1.072 0-1.896-.3-2.472-.9-.568-.608-.852-1.444-.852-2.508v-6.876h-1.26a.578.578 0 0 1-.408-.156c-.112-.104-.168-.26-.168-.468v-1.176l1.98-.324.624-3.36a.658.658 0 0 1 .228-.372.678.678 0 0 1 .432-.132h1.536v3.876h3.288v2.112h-3.288v6.672c0 .384.092.684.276.9.192.216.452.324.78.324.184 0 .336-.02.456-.06.128-.048.236-.096.324-.144.096-.048.18-.092.252-.132a.387.387 0 0 1 .216-.072.32.32 0 0 1 .216.072.85.85 0 0 1 .18.192l.888 1.44c-.432.36-.928.632-1.488.816-.56.184-1.14.276-1.74.276zm11.33-5.448c-.856.04-1.576.116-2.16.228-.584.104-1.052.24-1.404.408-.352.168-.604.364-.756.588a1.277 1.277 0 0 0-.228.732c0 .52.152.892.456 1.116.312.224.716.336 1.212.336.608 0 1.132-.108 1.572-.324.448-.224.884-.56 1.308-1.008v-2.076zm-6.792-5.34c1.416-1.296 3.12-1.944 5.112-1.944.72 0 1.364.12 1.932.36a3.98 3.98 0 0 1 1.44.984c.392.416.688.916.888 1.5.208.584.312 1.224.312 1.92V129h-1.344c-.28 0-.496-.04-.648-.12-.152-.088-.272-.26-.36-.516l-.264-.888c-.312.28-.616.528-.912.744a5.607 5.607 0 0 1-.924.528c-.32.144-.664.252-1.032.324-.36.08-.76.12-1.2.12-.52 0-1-.068-1.44-.204a3.237 3.237 0 0 1-1.14-.636 2.828 2.828 0 0 1-.744-1.044c-.176-.416-.264-.9-.264-1.452a2.837 2.837 0 0 1 .66-1.812c.24-.28.548-.544.924-.792a5.992 5.992 0 0 1 1.38-.648 11.77 11.77 0 0 1 1.92-.444c.728-.12 1.56-.192 2.496-.216v-.72c0-.824-.176-1.432-.528-1.824-.352-.4-.86-.6-1.524-.6-.48 0-.88.056-1.2.168-.312.112-.588.24-.828.384l-.66.372a1.262 1.262 0 0 1-.648.168.878.878 0 0 1-.528-.156 1.433 1.433 0 0 1-.348-.384l-.528-.948zm15.547-1.716V129h-2.976v-12.312h2.976zm.408-3.588c0 .256-.052.496-.156.72-.104.224-.244.42-.42.588a1.99 1.99 0 0 1-.6.408c-.232.096-.48.144-.744.144-.256 0-.5-.048-.732-.144a2.036 2.036 0 0 1-.588-.408 2.036 2.036 0 0 1-.408-.588 1.808 1.808 0 0 1-.144-.72c0-.264.048-.512.144-.744a1.99 1.99 0 0 1 .408-.6c.168-.168.364-.3.588-.396a1.77 1.77 0 0 1 .732-.156c.264 0 .512.052.744.156.232.096.432.228.6.396.176.168.316.368.42.6.104.232.156.48.156.744zm10.126 5.988a.858.858 0 0 1-.252.276.697.697 0 0 1-.336.072c-.144 0-.3-.04-.468-.12a13.91 13.91 0 0 0-.564-.264 4.687 4.687 0 0 0-.744-.276 3.47 3.47 0 0 0-.972-.12c-.584 0-1.044.124-1.38.372a1.163 1.163 0 0 0-.492.972.96.96 0 0 0 .252.672c.176.176.404.332.684.468.288.136.612.26.972.372.36.104.724.22 1.092.348.376.128.744.276 1.104.444.36.16.68.368.96.624.288.248.516.548.684.9.176.352.264.776.264 1.272a4.13 4.13 0 0 1-.324 1.644c-.208.496-.52.928-.936 1.296-.416.36-.932.644-1.548.852-.608.2-1.312.3-2.112.3-.424 0-.84-.04-1.248-.12a6.782 6.782 0 0 1-2.196-.792 5.122 5.122 0 0 1-.828-.6l.684-1.128a.967.967 0 0 1 .312-.312.875.875 0 0 1 .456-.108.93.93 0 0 1 .516.156c.168.104.36.216.576.336.216.12.468.232.756.336.296.104.668.156 1.116.156.352 0 .652-.04.9-.12.256-.088.464-.2.624-.336.168-.136.288-.292.36-.468.08-.184.12-.372.12-.564 0-.288-.088-.524-.264-.708a2.162 2.162 0 0 0-.684-.48 5.908 5.908 0 0 0-.972-.36c-.36-.112-.732-.232-1.116-.36a11.992 11.992 0 0 1-1.116-.444 4.084 4.084 0 0 1-.972-.66 3.083 3.083 0 0 1-.684-.972c-.168-.384-.252-.848-.252-1.392 0-.504.1-.984.3-1.44.2-.456.492-.852.876-1.188.392-.344.876-.616 1.452-.816.584-.208 1.256-.312 2.016-.312.848 0 1.62.14 2.316.42.696.28 1.276.648 1.74 1.104l-.672 1.068z" fill="#081448"/></g><defs><radialGradient id="b" cx="0" cy="0" r="1" gradientUnits="userSpaceOnUse" gradientTransform="rotate(-5.74 637.719 -1831.82) scale(101.057)"><stop stop-color="#FFD989"/><stop offset=".13" stop-color="#E1C079"/><stop offset=".43" stop-color="#957F50"/><stop offset=".86" stop-color="#1D1910"/><stop offset=".96"/></radialGradient><linearGradient id="a" x1="198.522" y1="10.724" x2="116.783" y2="190.043" gradientUnits="userSpaceOnUse"><stop stop-color="#FFD989"/><stop offset=".07" stop-color="#FFD782"/><stop offset=".46" stop-color="#FFCD60"/><stop offset=".79" stop-color="#FFC64B"/><stop offset="1" stop-color="#FFC443"/></linearGradient><filter id="c" x="94.924" y="73.168" width="134.129" height="70.164" filterUnits="userSpaceOnUse" color-interpolation-filters="sRGB"><feFlood flood-opacity="0" result="BackgroundImageFix"/><feColorMatrix in="SourceAlpha" values="0 0 0 0 0 0 0 0 0 0 0 0 0 0 0 0 0 0 127 0" result="hardAlpha"/><feOffset dy="4"/><feGaussianBlur stdDeviation="3"/><feColorMatrix values="0 0 0 0 0 0 0 0 0 0 0 0 0 0 0 0 0 0 0.1 0"/><feBlend in2="BackgroundImageFix" result="effect1_dropShadow_7770_1902"/><feColorMatrix in="SourceAlpha" values="0 0 0 0 0 0 0 0 0 0 0 0 0 0 0 0 0 0 127 0" result="hardAlpha"/><feOffset dy="2"/><feGaussianBlur stdDeviation="2"/><feColorMatrix values="0 0 0 0 0 0 0 0 0 0 0 0 0 0 0 0 0 0 0.06 0"/><feBlend in2="effect1_dropShadow_7770_1902" result="effect2_dropShadow_7770_1902"/><feBlend in="SourceGraphic" in2="effect2_dropShadow_7770_1902" result="shape"/></filter></defs></svg>