<svg width="366" height="287" fill="none" xmlns="http://www.w3.org/2000/svg"><path style="mix-blend-mode:multiply" d="M288.489 158.391c-4.09 54.001-40.942 101.708-92.06 119.566a140.478 140.478 0 0 1-66.251 6.743c-62.211-8.625-112.869-58.844-119.432-124.112C4.183 95.32 43.832 35.958 103.093 15.195a139.312 139.312 0 0 1 32.401-7.243C220.474-.59 295.261 68.949 288.489 158.39z" fill="url(#)"/><path d="M180.982 198.388c54.778 0 99.185-44.404 99.185-99.18 0-54.775-44.407-99.18-99.185-99.18-54.779 0-99.186 44.405-99.186 99.18 0 54.776 44.407 99.18 99.186 99.18z" fill="#A4357E"/><path d="M279.976 94.893c-15.79 19.498-39.582 42.863-67.116 51.607-50.012 15.734-39.386-37.087-79.198-43.375-13.582-2.119-31.575 5.861-49.484 17.318a92.422 92.422 0 0 1-2.405-21.224 98.557 98.557 0 0 1 27.692-68.661c8.828 4.922 17.909 11.289 25.382 19.437 23.258 25.208 59.503 35.401 90.229 14.936 14.177-9.424 25.466-18.078 35.738-24.528a97.486 97.486 0 0 1 19.162 54.49zM224.885 188.178a99.399 99.399 0 0 1-109.576-14.683c22.325-2.551 60.126-6.181 73.612-2.377a122.663 122.663 0 0 1 35.964 17.06zM232.353 14.368c-15.448 8.575-31.468 15.706-43.375 16.47-20.117 1.27-38.537-11.289-50.164-21.392a99.155 99.155 0 0 1 93.539 4.922z" fill="#871867"/><path style="mix-blend-mode:multiply" d="M180.97 198.394c54.785 0 99.197-44.412 99.197-99.197C280.167 44.412 235.755 0 180.97 0c-54.785 0-99.197 44.412-99.197 99.197 0 54.785 44.412 99.197 99.197 99.197z" fill="url(#a)"/><path style="mix-blend-mode:screen" d="M180.97 198.394c54.785 0 99.197-44.412 99.197-99.197C280.167 44.412 235.755 0 180.97 0c-54.785 0-99.197 44.412-99.197 99.197 0 54.785 44.412 99.197 99.197 99.197z" fill="url(#b)"/><path d="M365.703 67.543c-3.506-14.16-37.694-18.937-86.997-14.61-1.686.14-3.372.276-5.057.455h-.045c-1.591.14-3.142.32-4.777.506a57.077 57.077 0 0 1 2.248 4.007c27.085-.961 45.022 2.73 47.163 11.289 2.14 8.468-11.655 20.122-35.649 32.03-23.444 11.654-56.676 23.6-94.235 33.052-36.228 9.07-69.898 14.307-95.747 15.447-28.36 1.225-47.202-2.461-49.45-11.238-2.247-8.777 12.835-21.084 38.74-33.508v-.275c0-1.045 0-2.096.09-3.141-35.874 15.661-57.586 31.687-54.81 42.886 2.775 11.199 29.68 15.02 68.925 11.744 26.675-2.248 59.138-7.738 93.6-16.436 35.694-8.991 67.881-19.982 92.825-31.047 34.508-15.34 55.271-30.956 52.495-41.886-2.641-10.468-26.27-14.475-61.323-12.289 1.686-.135 3.372-.23 5.058-.32 37.193-2.141 62.323 2.416 65.183 13.795 3.141 12.565-21.584 30.501-61.919 47.618-25.219 10.744-56.541 21.128-91.032 29.731-33.198 8.277-64.722 13.745-91.397 16.201-45.207 4.281-76.714.134-79.9-12.7-3.142-12.61 21.763-30.642 62.323-47.848a5.836 5.836 0 0 1 .045-.91C29.615 120.808-3.527 143.252.3 158.643c4.006 15.975 47.027 20.027 106.85 12.52 26.129-3.282 55.541-8.789 86.222-16.437 31.867-7.923 61.368-17.257 86.593-27.045 54.765-21.157 89.638-44.387 85.738-60.138z" fill="#64144D"/><g filter="url(#c)"><path d="M131.464 81.544c.235 0 .443.09.624.272l1.696 1.84a9.302 9.302 0 0 1-3.472 2.672c-1.365.619-3.008.928-4.928.928-1.717 0-3.264-.293-4.64-.88a10.235 10.235 0 0 1-3.504-2.448c-.971-1.045-1.717-2.293-2.24-3.744-.512-1.45-.768-3.035-.768-4.752 0-1.739.277-3.328.832-4.768.555-1.45 1.333-2.699 2.336-3.744a10.597 10.597 0 0 1 3.616-2.432c1.397-.587 2.944-.88 4.64-.88 1.685 0 3.179.277 4.48.832 1.312.555 2.427 1.28 3.344 2.176l-1.44 2c-.085.128-.197.24-.336.336-.128.096-.309.144-.544.144-.16 0-.325-.043-.496-.128a12.922 12.922 0 0 1-.56-.336 14.116 14.116 0 0 0-.704-.448 5.384 5.384 0 0 0-.928-.432 6.598 6.598 0 0 0-1.232-.336 7.881 7.881 0 0 0-1.6-.144c-1.035 0-1.984.187-2.848.56a6.069 6.069 0 0 0-2.208 1.6c-.619.693-1.099 1.547-1.44 2.56-.341 1.003-.512 2.15-.512 3.44 0 1.301.181 2.459.544 3.472.373 1.013.875 1.867 1.504 2.56a6.48 6.48 0 0 0 2.224 1.6 6.961 6.961 0 0 0 2.752.544c.587 0 1.115-.032 1.584-.096.48-.064.917-.165 1.312-.304a5.83 5.83 0 0 0 1.136-.528c.363-.224.72-.496 1.072-.816a1.33 1.33 0 0 1 .336-.224.757.757 0 0 1 .368-.096zm8.31-8.112c.512-.981 1.12-1.75 1.824-2.304.704-.565 1.536-.848 2.496-.848.757 0 1.365.165 1.824.496l-.256 2.96c-.054.192-.134.33-.24.416-.096.075-.23.112-.4.112-.16 0-.4-.027-.72-.08a5.377 5.377 0 0 0-.912-.08c-.438 0-.827.064-1.168.192a2.947 2.947 0 0 0-.928.56 3.86 3.86 0 0 0-.72.864c-.203.341-.395.73-.576 1.168V87h-3.952V70.584h2.32c.405 0 .688.075.848.224.16.139.266.395.32.768l.24 1.856zm12.305-2.848V87h-3.968V70.584h3.968zm.544-4.784c0 .341-.069.661-.208.96-.138.299-.325.56-.56.784-.224.224-.49.405-.8.544-.309.128-.64.192-.992.192-.341 0-.666-.064-.976-.192a2.724 2.724 0 0 1-.784-.544 2.72 2.72 0 0 1-.544-.784 2.411 2.411 0 0 1-.192-.96c0-.352.064-.683.192-.992.139-.31.32-.576.544-.8.224-.224.486-.4.784-.528.31-.139.635-.208.976-.208.352 0 .683.07.992.208.31.128.576.304.8.528a2.5 2.5 0 0 1 .56.8c.139.31.208.64.208.992zm12.157 14.192c-1.141.053-2.101.155-2.88.304-.778.139-1.402.32-1.872.544-.469.224-.805.485-1.008.784a1.708 1.708 0 0 0-.304.976c0 .693.203 1.19.608 1.488.416.299.955.448 1.616.448.811 0 1.51-.144 2.096-.432.598-.299 1.179-.747 1.744-1.344v-2.768zm-9.056-7.12c1.888-1.728 4.16-2.592 6.816-2.592.96 0 1.819.16 2.576.48.758.31 1.398.747 1.92 1.312a5.432 5.432 0 0 1 1.184 2c.278.779.416 1.632.416 2.56V87h-1.792c-.373 0-.661-.053-.864-.16-.202-.117-.362-.347-.48-.688l-.352-1.184c-.416.373-.821.704-1.216.992a7.438 7.438 0 0 1-1.232.704 6.262 6.262 0 0 1-1.376.432c-.48.107-1.013.16-1.6.16a6.48 6.48 0 0 1-1.92-.272 4.325 4.325 0 0 1-1.52-.848 3.782 3.782 0 0 1-.992-1.392c-.234-.555-.352-1.2-.352-1.936 0-.416.07-.827.208-1.232.139-.416.363-.81.672-1.184.32-.373.731-.725 1.232-1.056.502-.33 1.115-.619 1.84-.864.736-.245 1.59-.443 2.56-.592.971-.16 2.08-.256 3.328-.288v-.96c0-1.099-.234-1.91-.704-2.432-.469-.533-1.146-.8-2.032-.8-.64 0-1.173.075-1.6.224-.416.15-.784.32-1.104.512-.32.181-.613.347-.88.496-.256.15-.544.224-.864.224a1.17 1.17 0 0 1-.704-.208 1.92 1.92 0 0 1-.464-.512l-.704-1.264zm29.594 11.68c-.725.853-1.546 1.483-2.464 1.888a9.303 9.303 0 0 1-2.816.736l-.208.8c1.003.235 1.702.55 2.096.944.406.405.608.885.608 1.44 0 .363-.096.688-.288.976-.181.288-.448.533-.8.736a4.175 4.175 0 0 1-1.232.464c-.469.107-.992.16-1.568.16a7.5 7.5 0 0 1-1.232-.096 6.572 6.572 0 0 1-1.12-.256l.352-1.232c.064-.245.219-.368.464-.368.15 0 .315.037.496.112.182.085.443.128.784.128.352 0 .614-.07.784-.208.182-.128.272-.288.272-.48 0-.31-.192-.533-.576-.672-.384-.128-.976-.25-1.776-.368l.704-2.096a7.185 7.185 0 0 1-2.496-.832 6.98 6.98 0 0 1-2-1.712c-.565-.715-1.013-1.563-1.344-2.544-.32-.981-.48-2.085-.48-3.312 0-1.205.171-2.32.512-3.344.352-1.035.864-1.925 1.536-2.672.672-.757 1.504-1.35 2.496-1.776.992-.427 2.134-.64 3.424-.64 1.227 0 2.299.197 3.216.592.928.395 1.76.96 2.496 1.696l-1.04 1.44c-.117.15-.234.267-.352.352-.106.085-.266.128-.48.128-.202 0-.4-.059-.592-.176a10.422 10.422 0 0 0-.688-.416 4.443 4.443 0 0 0-.96-.416c-.362-.128-.816-.192-1.36-.192-.693 0-1.301.128-1.824.384-.522.245-.96.603-1.312 1.072-.341.47-.597 1.04-.768 1.712-.17.661-.256 1.413-.256 2.256 0 .875.091 1.653.272 2.336.192.683.464 1.259.816 1.728.352.459.779.81 1.28 1.056.502.235 1.067.352 1.696.352.63 0 1.136-.075 1.52-.224.395-.16.726-.33.992-.512.267-.192.496-.363.688-.512.203-.16.427-.24.672-.24.32 0 .56.123.72.368l1.136 1.44zm11.181-4.56c-1.141.053-2.101.155-2.88.304-.779.139-1.403.32-1.872.544-.469.224-.805.485-1.008.784a1.7 1.7 0 0 0-.304.976c0 .693.203 1.19.608 1.488.416.299.955.448 1.616.448.811 0 1.509-.144 2.096-.432.597-.299 1.179-.747 1.744-1.344v-2.768zm-9.056-7.12c1.888-1.728 4.16-2.592 6.816-2.592.96 0 1.819.16 2.576.48.757.31 1.397.747 1.92 1.312a5.445 5.445 0 0 1 1.184 2c.277.779.416 1.632.416 2.56V87h-1.792c-.373 0-.661-.053-.864-.16-.203-.117-.363-.347-.48-.688l-.352-1.184c-.416.373-.821.704-1.216.992a7.479 7.479 0 0 1-1.232.704 6.279 6.279 0 0 1-1.376.432c-.48.107-1.013.16-1.6.16a6.48 6.48 0 0 1-1.92-.272 4.316 4.316 0 0 1-1.52-.848 3.77 3.77 0 0 1-.992-1.392c-.235-.555-.352-1.2-.352-1.936a3.774 3.774 0 0 1 .88-2.416c.32-.373.731-.725 1.232-1.056.501-.33 1.115-.619 1.84-.864a15.684 15.684 0 0 1 2.56-.592c.971-.16 2.08-.256 3.328-.288v-.96c0-1.099-.235-1.91-.704-2.432-.469-.533-1.147-.8-2.032-.8-.64 0-1.173.075-1.6.224-.416.15-.784.32-1.104.512-.32.181-.613.347-.88.496-.256.15-.544.224-.864.224a1.17 1.17 0 0 1-.704-.208 1.904 1.904 0 0 1-.464-.512l-.704-1.264zm8.16-7.616c.32 0 .571-.085.752-.256.181-.181.272-.501.272-.96h2.4c0 .597-.085 1.141-.256 1.632-.16.48-.384.896-.672 1.248a3.061 3.061 0 0 1-1.04.8 3.107 3.107 0 0 1-1.312.272c-.384 0-.741-.07-1.072-.208a9.348 9.348 0 0 1-.928-.448c-.288-.16-.56-.31-.816-.448-.245-.139-.475-.208-.688-.208-.309 0-.555.096-.736.288-.171.181-.256.496-.256.944h-2.448c0-.597.08-1.136.24-1.616.171-.49.405-.907.704-1.248a3.18 3.18 0 0 1 1.04-.816 3.026 3.026 0 0 1 1.312-.288c.384 0 .741.07 1.072.208.341.139.656.288.944.448.288.16.555.31.8.448.245.139.475.208.688.208zm15.738 5.072c1.216 0 2.32.197 3.312.592a7.176 7.176 0 0 1 2.56 1.68c.715.725 1.264 1.61 1.648 2.656.384 1.045.576 2.213.576 3.504 0 1.301-.192 2.475-.576 3.52-.384 1.045-.933 1.936-1.648 2.672a7.073 7.073 0 0 1-2.56 1.696c-.992.395-2.096.592-3.312.592-1.227 0-2.341-.197-3.344-.592a7.232 7.232 0 0 1-2.576-1.696c-.704-.736-1.253-1.627-1.648-2.672-.384-1.045-.576-2.219-.576-3.52 0-1.29.192-2.459.576-3.504.395-1.045.944-1.93 1.648-2.656a7.34 7.34 0 0 1 2.576-1.68c1.003-.395 2.117-.592 3.344-.592zm0 13.872c1.365 0 2.373-.459 3.024-1.376.661-.917.992-2.261.992-4.032 0-1.77-.331-3.12-.992-4.048-.651-.928-1.659-1.392-3.024-1.392-1.387 0-2.416.47-3.088 1.408-.661.928-.992 2.272-.992 4.032 0 1.76.331 3.104.992 4.032.672.917 1.701 1.376 3.088 1.376zm29.196-9.424c-.448-.544-.938-.928-1.472-1.152a4.257 4.257 0 0 0-1.696-.336c-.597 0-1.136.112-1.616.336-.48.224-.89.565-1.232 1.024-.341.448-.602 1.024-.784 1.728-.181.693-.272 1.515-.272 2.464 0 .96.075 1.776.224 2.448.16.661.384 1.205.672 1.632.288.416.64.72 1.056.912.416.181.88.272 1.392.272.822 0 1.52-.17 2.096-.512.576-.341 1.12-.827 1.632-1.456v-7.36zm3.952-11.552V87h-2.416c-.522 0-.853-.24-.992-.72l-.336-1.584a8.237 8.237 0 0 1-2.288 1.84c-.853.47-1.85.704-2.992.704a5.433 5.433 0 0 1-2.464-.56 5.6 5.6 0 0 1-1.936-1.616c-.533-.715-.949-1.595-1.248-2.64-.288-1.045-.432-2.24-.432-3.584 0-1.216.166-2.347.496-3.392.331-1.045.806-1.952 1.424-2.72a6.56 6.56 0 0 1 2.224-1.792c.864-.437 1.835-.656 2.912-.656.918 0 1.702.144 2.352.432a6.022 6.022 0 0 1 1.744 1.168v-8.656h3.952zm14.477 13.68c0-.512-.075-.992-.224-1.44a3.336 3.336 0 0 0-.64-1.2 2.924 2.924 0 0 0-1.104-.8c-.438-.203-.95-.304-1.536-.304-1.142 0-2.043.325-2.704.976-.651.65-1.067 1.573-1.248 2.768h7.456zm-7.536 2.384c.064.843.213 1.573.448 2.192.234.608.544 1.115.928 1.52.384.395.837.693 1.36.896.533.192 1.12.288 1.76.288.64 0 1.189-.075 1.648-.224.469-.15.874-.315 1.216-.496.352-.181.656-.347.912-.496a1.57 1.57 0 0 1 .768-.224c.33 0 .576.123.736.368l1.136 1.44a6.778 6.778 0 0 1-1.472 1.296 8.759 8.759 0 0 1-1.712.832 9.511 9.511 0 0 1-1.808.432c-.608.085-1.2.128-1.776.128-1.142 0-2.203-.187-3.184-.56a7.261 7.261 0 0 1-2.56-1.68c-.726-.747-1.296-1.664-1.712-2.752-.416-1.099-.625-2.368-.625-3.808 0-1.12.182-2.17.545-3.152.362-.992.88-1.85 1.552-2.576a7.385 7.385 0 0 1 2.48-1.744c.981-.427 2.085-.64 3.312-.64 1.034 0 1.989.165 2.864.496a6.2 6.2 0 0 1 2.256 1.456c.629.63 1.12 1.408 1.472 2.336.362.917.543 1.968.543 3.152 0 .597-.063 1.003-.191 1.216-.128.203-.374.304-.736.304h-10.16zm-126.462 30.496a1.15 1.15 0 0 1-.336.368.93.93 0 0 1-.448.096c-.192 0-.4-.053-.624-.16a17.903 17.903 0 0 0-.752-.352 6.261 6.261 0 0 0-.992-.368c-.363-.107-.795-.16-1.296-.16-.779 0-1.392.165-1.84.496-.437.331-.656.763-.656 1.296 0 .352.112.651.336.896.235.235.539.443.912.624.384.181.816.347 1.296.496.48.139.965.293 1.456.464.501.171.992.368 1.472.592.48.213.907.491 1.28.832.384.331.688.731.912 1.2.235.469.352 1.035.352 1.696 0 .789-.144 1.52-.432 2.192a4.722 4.722 0 0 1-1.248 1.728c-.555.48-1.243.859-2.064 1.136-.811.267-1.749.4-2.816.4-.565 0-1.12-.053-1.664-.16a9.043 9.043 0 0 1-2.928-1.056 6.81 6.81 0 0 1-1.104-.8l.912-1.504a1.29 1.29 0 0 1 .416-.416c.16-.096.363-.144.608-.144s.475.069.688.208c.224.139.48.288.768.448.288.16.624.309 1.008.448.395.139.891.208 1.488.208.469 0 .869-.053 1.2-.16.341-.117.619-.267.832-.448a1.56 1.56 0 0 0 .48-.624c.107-.245.16-.496.16-.752 0-.384-.117-.699-.352-.944-.224-.245-.528-.459-.912-.64a7.916 7.916 0 0 0-1.296-.48 73.3 73.3 0 0 1-1.488-.48 16.157 16.157 0 0 1-1.488-.592 5.455 5.455 0 0 1-1.296-.88 4.12 4.12 0 0 1-.912-1.296c-.224-.512-.336-1.131-.336-1.856 0-.672.133-1.312.4-1.92a4.474 4.474 0 0 1 1.168-1.584c.523-.459 1.168-.821 1.936-1.088.779-.277 1.675-.416 2.688-.416 1.131 0 2.16.187 3.088.56.928.373 1.701.864 2.32 1.472l-.896 1.424zm8.143-3.2V123h-3.968v-16.416h3.968zm.544-4.784c0 .341-.07.661-.208.96-.139.299-.326.56-.56.784a2.663 2.663 0 0 1-.8.544c-.31.128-.64.192-.992.192-.342 0-.667-.064-.976-.192a2.697 2.697 0 0 1-1.328-1.328 2.413 2.413 0 0 1-.192-.96c0-.352.064-.683.192-.992.138-.309.32-.576.544-.8.224-.224.485-.4.784-.528.309-.139.634-.208.976-.208.352 0 .682.07.992.208.309.128.576.304.8.528.234.224.421.491.56.8.138.309.208.64.208.992zm8.957 21.456c-1.43 0-2.528-.4-3.296-1.2-.758-.811-1.136-1.925-1.136-3.344v-9.168h-1.68a.767.767 0 0 1-.544-.208c-.15-.139-.224-.347-.224-.624v-1.568l2.64-.432.832-4.48a.873.873 0 0 1 .304-.496c.149-.117.341-.176.576-.176h2.048v5.168h4.384v2.816h-4.384v8.896c0 .512.122.912.368 1.2.256.288.602.432 1.04.432.245 0 .448-.027.608-.08.17-.064.314-.128.432-.192.128-.064.24-.123.336-.176a.516.516 0 0 1 .288-.096c.117 0 .213.032.288.096.074.053.154.139.24.256l1.184 1.92a5.983 5.983 0 0 1-1.984 1.088 7.396 7.396 0 0 1-2.32.368zm16.885-10.352c0-.512-.075-.992-.224-1.44a3.33 3.33 0 0 0-.64-1.2 2.927 2.927 0 0 0-1.104-.8c-.438-.203-.95-.304-1.536-.304-1.142 0-2.043.325-2.704.976-.651.651-1.067 1.573-1.248 2.768h7.456zm-7.536 2.384c.064.843.213 1.573.448 2.192.234.608.544 1.115.928 1.52.384.395.837.693 1.36.896.533.192 1.12.288 1.76.288.64 0 1.189-.075 1.648-.224a7.397 7.397 0 0 0 1.216-.496c.352-.181.656-.347.912-.496.266-.149.522-.224.768-.224.33 0 .576.123.736.368l1.136 1.44a6.778 6.778 0 0 1-1.472 1.296 8.759 8.759 0 0 1-1.712.832 9.466 9.466 0 0 1-1.808.432c-.608.085-1.2.128-1.776.128-1.142 0-2.203-.187-3.184-.56a7.261 7.261 0 0 1-2.56-1.68c-.726-.747-1.296-1.664-1.712-2.752-.416-1.099-.624-2.368-.624-3.808 0-1.12.181-2.171.544-3.152a7.549 7.549 0 0 1 1.552-2.576 7.39 7.39 0 0 1 2.48-1.744c.981-.427 2.085-.64 3.312-.64 1.034 0 1.989.165 2.864.496a6.204 6.204 0 0 1 2.256 1.456c.629.629 1.12 1.408 1.472 2.336.362.917.544 1.968.544 3.152 0 .597-.064 1.003-.192 1.216-.128.203-.374.304-.736.304h-10.16zm24.07-5.504a1.15 1.15 0 0 1-.336.368.932.932 0 0 1-.448.096c-.192 0-.4-.053-.624-.16a18.52 18.52 0 0 0-.752-.352 6.238 6.238 0 0 0-.993-.368c-.362-.107-.794-.16-1.295-.16-.779 0-1.392.165-1.84.496-.438.331-.656.763-.656 1.296 0 .352.112.651.336.896.234.235.538.443.912.624.384.181.816.347 1.296.496.48.139.965.293 1.456.464.501.171.992.368 1.472.592.48.213.906.491 1.28.832.384.331.688.731.912 1.2.234.469.352 1.035.352 1.696 0 .789-.144 1.52-.432 2.192a4.745 4.745 0 0 1-1.248 1.728c-.555.48-1.243.859-2.064 1.136-.811.267-1.75.4-2.816.4-.566 0-1.12-.053-1.664-.16a8.998 8.998 0 0 1-2.928-1.056 6.81 6.81 0 0 1-1.104-.8l.912-1.504c.117-.181.256-.32.415-.416.16-.096.363-.144.609-.144.245 0 .474.069.688.208.224.139.48.288.768.448.288.16.624.309 1.008.448.394.139.89.208 1.488.208.469 0 .869-.053 1.2-.16.341-.117.618-.267.832-.448a1.57 1.57 0 0 0 .48-.624c.106-.245.16-.496.16-.752 0-.384-.118-.699-.352-.944-.224-.245-.528-.459-.913-.64a7.937 7.937 0 0 0-1.295-.48 73.3 73.3 0 0 1-1.488-.48 15.935 15.935 0 0 1-1.488-.592 5.455 5.455 0 0 1-1.296-.88 4.089 4.089 0 0 1-.912-1.296c-.224-.512-.336-1.131-.336-1.856 0-.672.133-1.312.4-1.92a4.462 4.462 0 0 1 1.168-1.584c.522-.459 1.168-.821 1.936-1.088.778-.277 1.674-.416 2.688-.416 1.13 0 2.16.187 3.088.56.928.373 1.701.864 2.32 1.472l-.896 1.424z" fill="#fff"/></g><defs><radialGradient id="a" cx="0" cy="0" r="1" gradientUnits="userSpaceOnUse" gradientTransform="translate(100.343 184.907) scale(178.416)"><stop stop-color="#CE93D8"/><stop offset=".19" stop-color="#D097D9"/><stop offset=".38" stop-color="#D5A3DE"/><stop offset=".58" stop-color="#DEB7E5"/><stop offset=".77" stop-color="#EBD4EF"/><stop offset=".96" stop-color="#FCF8FC"/><stop offset="1" stop-color="#fff"/></radialGradient><radialGradient id="b" cx="0" cy="0" r="1" gradientUnits="userSpaceOnUse" gradientTransform="translate(211.864 44.106) scale(99.0863)"><stop stop-color="#CF48E7"/><stop offset=".1" stop-color="#AC3CC0"/><stop offset=".27" stop-color="#782A86"/><stop offset=".44" stop-color="#4D1B56"/><stop offset=".59" stop-color="#2C0F31"/><stop offset=".74" stop-color="#140716"/><stop offset=".86" stop-color="#050206"/><stop offset=".96"/></radialGradient><filter id="c" x="107.784" y="61.224" width="160.733" height="72.032" filterUnits="userSpaceOnUse" color-interpolation-filters="sRGB"><feFlood flood-opacity="0" result="BackgroundImageFix"/><feColorMatrix in="SourceAlpha" values="0 0 0 0 0 0 0 0 0 0 0 0 0 0 0 0 0 0 127 0" result="hardAlpha"/><feOffset dy="4"/><feGaussianBlur stdDeviation="3"/><feColorMatrix values="0 0 0 0 0 0 0 0 0 0 0 0 0 0 0 0 0 0 0.1 0"/><feBlend in2="BackgroundImageFix" result="effect1_dropShadow_7852_623"/><feColorMatrix in="SourceAlpha" values="0 0 0 0 0 0 0 0 0 0 0 0 0 0 0 0 0 0 127 0" result="hardAlpha"/><feOffset dy="2"/><feGaussianBlur stdDeviation="2"/><feColorMatrix values="0 0 0 0 0 0 0 0 0 0 0 0 0 0 0 0 0 0 0.06 0"/><feBlend in2="effect1_dropShadow_7852_623" result="effect2_dropShadow_7852_623"/><feBlend in="SourceGraphic" in2="effect2_dropShadow_7852_623" result="shape"/></filter></defs></svg>