<svg width="272" height="282" viewBox="0 0 272 282" fill="none" xmlns="http://www.w3.org/2000/svg">
<path style="mix-blend-mode:multiply" d="M261.028 161.95C257.191 212.625 222.614 257.385 174.638 274.156C141.936 285.769 105.96 283.917 74.6237 269.005C43.2877 254.093 19.1587 227.344 7.54496 194.642C-4.06883 161.94 -2.21606 125.964 12.6956 94.6282C27.6072 63.2922 54.3563 39.1632 87.0583 27.5494C96.8842 24.0759 107.092 21.7947 117.462 20.7548C197.203 12.7703 267.383 78.0175 261.028 161.95Z" fill="url(#)"/>
<path d="M257.975 90.8996C259.983 110.786 256.05 130.821 246.671 148.471C237.293 166.122 222.891 180.595 205.288 190.061C187.684 199.526 167.668 203.559 147.773 201.649C127.877 199.739 108.994 191.972 93.5123 179.33C78.0307 166.689 66.6457 149.74 60.7966 130.628C54.9475 111.516 54.8972 91.098 60.6522 71.9572C66.4072 52.8163 77.7089 35.8118 93.1282 23.0942C108.547 10.3765 127.392 2.51684 147.278 0.509028C173.942 -2.17624 200.582 5.83703 221.34 22.7871C242.097 39.7373 255.275 64.2367 257.975 90.8996Z" fill="url(#paint1_linear_7770_1902)"/>
<path d="M149.577 37.5465C162.517 32.6954 171.03 23.4889 168.591 16.9831C166.153 10.4773 153.685 9.13584 140.745 13.9869C127.805 18.8379 119.292 28.0445 121.73 34.5503C124.169 41.0561 136.637 42.3975 149.577 37.5465Z" fill="#FFBD2E"/>
<path d="M93.0851 147.481C88.3513 149.697 80.9272 143.851 76.5211 134.426C72.1149 125.002 72.3736 115.56 77.116 113.344C81.8584 111.128 89.2652 116.974 93.68 126.399C98.0947 135.823 97.8275 145.265 93.0851 147.481Z" fill="#FFBD2E"/>
<path d="M223.009 171.044C227.772 168.846 228.088 159.384 223.716 149.911C219.344 140.438 211.939 134.541 207.176 136.739C202.414 138.937 202.097 148.398 206.469 157.871C210.842 167.344 218.247 173.242 223.009 171.044Z" fill="#FFBD2E"/>
<path d="M144.269 107.11C153.954 106.137 160.755 94.8996 159.46 82.0116C158.164 69.1235 149.263 59.4649 139.578 60.4385C129.893 61.412 123.092 72.6489 124.387 85.537C125.683 98.425 134.584 108.084 144.269 107.11Z" fill="#FFBD2E"/>
<path d="M191.893 66.1723C198.216 64.0148 201.014 55.4407 198.141 47.0216C195.269 38.6025 187.814 33.5267 181.49 35.6842C175.167 37.8418 172.37 46.4158 175.242 54.8348C178.115 63.2539 185.57 68.3299 191.893 66.1723Z" fill="#FFBD2E"/>
<path d="M175.617 135.853C179.095 135.503 181.497 131.064 180.982 125.937C180.466 120.81 177.229 116.937 173.751 117.287C170.273 117.637 167.872 122.076 168.387 127.203C168.903 132.33 172.14 136.202 175.617 135.853Z" fill="#FFBD2E"/>
<path d="M208.066 120.487C212.629 120.028 215.78 114.206 215.104 107.482C214.428 100.758 210.181 95.6796 205.618 96.1383C201.055 96.5969 197.904 102.419 198.58 109.143C199.256 115.866 203.503 120.945 208.066 120.487Z" fill="#FFBD2E"/>
<path d="M87.3771 61.1952C84.8852 65.1272 80.7809 66.9896 78.22 65.3599C75.6591 63.7303 75.6331 59.2207 78.0905 55.2974C80.548 51.3741 84.6869 49.503 87.2565 51.1326C89.826 52.7623 89.8777 57.272 87.3771 61.1952Z" fill="#FFBD2E"/>
<path d="M235.342 74.6689C239.696 72.4935 239.95 64.1755 235.91 56.0902C231.87 48.0048 225.066 43.2138 220.712 45.3892C216.358 47.5646 216.104 55.8826 220.144 63.9679C224.184 72.0533 230.989 76.8443 235.342 74.6689Z" fill="#FFBD2E"/>
<path d="M119.712 155.888C120.074 159.484 118.505 162.588 116.203 162.786C113.901 162.984 111.745 160.294 111.383 156.698C111.021 153.103 112.599 149.999 114.892 149.8C117.186 149.602 119.35 152.266 119.712 155.888Z" fill="#FFBD2E"/>
<path d="M141.397 130.193C142.035 136.522 139.267 141.989 135.215 142.394C131.162 142.799 127.377 137.996 126.739 131.667C126.101 125.338 128.869 119.88 132.913 119.475C136.957 119.07 140.759 123.873 141.397 130.193Z" fill="#FFBD2E"/>
<path d="M151.633 174.625C152.202 180.316 149.719 185.231 146.08 185.593C142.441 185.955 139.027 181.644 138.449 175.953C137.871 170.262 140.363 165.356 144.002 164.985C147.641 164.614 151.055 168.943 151.633 174.625Z" fill="#FFBD2E"/>
<path d="M97.557 103.143C100.86 102.811 103.116 98.3593 102.598 93.1994C102.079 88.0394 98.9813 84.1255 95.6787 84.4575C92.3762 84.7895 90.1192 89.2416 90.6379 94.4015C91.1565 99.5615 94.2544 103.475 97.557 103.143Z" fill="#FFBD2E"/>
<path d="M177.208 186.395C173.439 188.318 169.525 188.215 168.473 186.154C167.421 184.093 169.628 180.86 173.396 178.928C177.164 176.997 181.088 177.109 182.14 179.17C183.192 181.23 180.984 184.464 177.208 186.395Z" fill="#FFBD2E"/>
<path d="M243.181 118.34C244.504 113.695 243.749 109.41 241.496 108.768C239.243 108.127 236.344 111.371 235.021 116.015C233.698 120.659 234.452 124.944 236.705 125.586C238.959 126.228 241.858 122.984 243.181 118.34Z" fill="#FFBD2E"/>
<path style="mix-blend-mode:screen" d="M257.975 90.8996C259.983 110.786 256.05 130.821 246.671 148.471C237.293 166.122 222.891 180.595 205.288 190.061C187.684 199.526 167.668 203.559 147.773 201.649C127.877 199.739 108.994 191.972 93.5123 179.33C78.0307 166.689 66.6457 149.74 60.7966 130.628C54.9475 111.516 54.8972 91.098 60.6522 71.9572C66.4072 52.8163 77.7089 35.8118 93.1282 23.0942C108.547 10.3765 127.392 2.51684 147.278 0.509028C173.942 -2.17624 200.582 5.83703 221.34 22.7871C242.097 39.7373 255.275 64.2367 257.975 90.8996Z" fill="url(#paint2_radial_7770_1902)"/>
<g filter="url(#filter0_dd_7770_1902)">
<path d="M113.848 88.908C114.024 88.908 114.18 88.976 114.316 89.112L115.588 90.492C114.884 91.364 114.016 92.032 112.984 92.496C111.96 92.96 110.728 93.192 109.288 93.192C108 93.192 106.84 92.972 105.808 92.532C104.784 92.092 103.908 91.48 103.18 90.696C102.452 89.912 101.892 88.976 101.5 87.888C101.116 86.8 100.924 85.612 100.924 84.324C100.924 83.02 101.132 81.828 101.548 80.748C101.964 79.66 102.548 78.724 103.3 77.94C104.06 77.156 104.964 76.548 106.012 76.116C107.06 75.676 108.22 75.456 109.492 75.456C110.756 75.456 111.876 75.664 112.852 76.08C113.836 76.496 114.672 77.04 115.36 77.712L114.28 79.212C114.216 79.308 114.132 79.392 114.028 79.464C113.932 79.536 113.796 79.572 113.62 79.572C113.5 79.572 113.376 79.54 113.248 79.476C113.12 79.404 112.98 79.32 112.828 79.224C112.676 79.12 112.5 79.008 112.3 78.888C112.1 78.768 111.868 78.66 111.604 78.564C111.34 78.46 111.032 78.376 110.68 78.312C110.336 78.24 109.936 78.204 109.48 78.204C108.704 78.204 107.992 78.344 107.344 78.624C106.704 78.896 106.152 79.296 105.688 79.824C105.224 80.344 104.864 80.984 104.608 81.744C104.352 82.496 104.224 83.356 104.224 84.324C104.224 85.3 104.36 86.168 104.632 86.928C104.912 87.688 105.288 88.328 105.76 88.848C106.232 89.368 106.788 89.768 107.428 90.048C108.068 90.32 108.756 90.456 109.492 90.456C109.932 90.456 110.328 90.432 110.68 90.384C111.04 90.336 111.368 90.26 111.664 90.156C111.968 90.052 112.252 89.92 112.516 89.76C112.788 89.592 113.056 89.388 113.32 89.148C113.4 89.076 113.484 89.02 113.572 88.98C113.66 88.932 113.752 88.908 113.848 88.908ZM123.835 87.744C122.979 87.784 122.259 87.86 121.675 87.972C121.091 88.076 120.623 88.212 120.271 88.38C119.919 88.548 119.667 88.744 119.515 88.968C119.363 89.192 119.287 89.436 119.287 89.7C119.287 90.22 119.439 90.592 119.743 90.816C120.055 91.04 120.459 91.152 120.955 91.152C121.563 91.152 122.087 91.044 122.527 90.828C122.975 90.604 123.411 90.268 123.835 89.82V87.744ZM117.043 82.404C118.459 81.108 120.163 80.46 122.155 80.46C122.875 80.46 123.519 80.58 124.087 80.82C124.655 81.052 125.135 81.38 125.527 81.804C125.919 82.22 126.215 82.72 126.415 83.304C126.623 83.888 126.727 84.528 126.727 85.224V93H125.383C125.103 93 124.887 92.96 124.735 92.88C124.583 92.792 124.463 92.62 124.375 92.364L124.111 91.476C123.799 91.756 123.495 92.004 123.199 92.22C122.903 92.428 122.595 92.604 122.275 92.748C121.955 92.892 121.611 93 121.243 93.072C120.883 93.152 120.483 93.192 120.043 93.192C119.523 93.192 119.043 93.124 118.603 92.988C118.163 92.844 117.783 92.632 117.463 92.352C117.143 92.072 116.895 91.724 116.719 91.308C116.543 90.892 116.455 90.408 116.455 89.856C116.455 89.544 116.507 89.236 116.611 88.932C116.715 88.62 116.883 88.324 117.115 88.044C117.355 87.764 117.663 87.5 118.039 87.252C118.415 87.004 118.875 86.788 119.419 86.604C119.971 86.42 120.611 86.272 121.339 86.16C122.067 86.04 122.899 85.968 123.835 85.944V85.224C123.835 84.4 123.659 83.792 123.307 83.4C122.955 83 122.447 82.8 121.783 82.8C121.303 82.8 120.903 82.856 120.583 82.968C120.271 83.08 119.995 83.208 119.755 83.352C119.515 83.488 119.295 83.612 119.095 83.724C118.903 83.836 118.687 83.892 118.447 83.892C118.239 83.892 118.063 83.84 117.919 83.736C117.775 83.624 117.659 83.496 117.571 83.352L117.043 82.404ZM129.519 93V80.688H131.331C131.715 80.688 131.967 80.868 132.087 81.228L132.279 82.14C132.495 81.9 132.719 81.68 132.951 81.48C133.191 81.28 133.443 81.108 133.707 80.964C133.979 80.82 134.267 80.708 134.571 80.628C134.883 80.54 135.223 80.496 135.591 80.496C136.367 80.496 137.003 80.708 137.499 81.132C138.003 81.548 138.379 82.104 138.627 82.8C138.819 82.392 139.059 82.044 139.347 81.756C139.635 81.46 139.951 81.22 140.295 81.036C140.639 80.852 141.003 80.716 141.387 80.628C141.779 80.54 142.171 80.496 142.563 80.496C143.243 80.496 143.847 80.6 144.375 80.808C144.903 81.016 145.347 81.32 145.707 81.72C146.067 82.12 146.339 82.608 146.523 83.184C146.715 83.76 146.811 84.42 146.811 85.164V93H143.847V85.164C143.847 84.38 143.675 83.792 143.331 83.4C142.987 83 142.483 82.8 141.819 82.8C141.515 82.8 141.231 82.852 140.967 82.956C140.711 83.06 140.483 83.212 140.283 83.412C140.091 83.604 139.939 83.848 139.827 84.144C139.715 84.44 139.659 84.78 139.659 85.164V93H136.683V85.164C136.683 84.34 136.515 83.74 136.179 83.364C135.851 82.988 135.367 82.8 134.727 82.8C134.295 82.8 133.891 82.908 133.515 83.124C133.147 83.332 132.803 83.62 132.483 83.988V93H129.519ZM152.592 89.808C152.928 90.216 153.292 90.504 153.684 90.672C154.084 90.84 154.516 90.924 154.98 90.924C155.428 90.924 155.832 90.84 156.192 90.672C156.552 90.504 156.856 90.248 157.104 89.904C157.36 89.56 157.556 89.128 157.692 88.608C157.828 88.08 157.896 87.46 157.896 86.748C157.896 86.028 157.836 85.42 157.716 84.924C157.604 84.42 157.44 84.012 157.224 83.7C157.008 83.388 156.744 83.16 156.432 83.016C156.128 82.872 155.78 82.8 155.388 82.8C154.772 82.8 154.248 82.932 153.816 83.196C153.384 83.452 152.976 83.816 152.592 84.288V89.808ZM152.436 82.368C152.94 81.8 153.512 81.34 154.152 80.988C154.792 80.636 155.544 80.46 156.408 80.46C157.08 80.46 157.692 80.6 158.244 80.88C158.804 81.16 159.284 81.568 159.684 82.104C160.092 82.632 160.404 83.288 160.62 84.072C160.844 84.848 160.956 85.74 160.956 86.748C160.956 87.668 160.832 88.52 160.584 89.304C160.336 90.088 159.98 90.768 159.516 91.344C159.06 91.92 158.504 92.372 157.848 92.7C157.2 93.02 156.472 93.18 155.664 93.18C154.976 93.18 154.388 93.076 153.9 92.868C153.412 92.652 152.976 92.356 152.592 91.98V97.02H149.628V80.688H151.44C151.824 80.688 152.076 80.868 152.196 81.228L152.436 82.368ZM169.773 87.744C168.917 87.784 168.197 87.86 167.613 87.972C167.029 88.076 166.561 88.212 166.209 88.38C165.857 88.548 165.605 88.744 165.453 88.968C165.301 89.192 165.225 89.436 165.225 89.7C165.225 90.22 165.377 90.592 165.681 90.816C165.993 91.04 166.397 91.152 166.893 91.152C167.501 91.152 168.025 91.044 168.465 90.828C168.913 90.604 169.349 90.268 169.773 89.82V87.744ZM162.981 82.404C164.397 81.108 166.101 80.46 168.093 80.46C168.813 80.46 169.457 80.58 170.025 80.82C170.593 81.052 171.073 81.38 171.465 81.804C171.857 82.22 172.153 82.72 172.353 83.304C172.561 83.888 172.665 84.528 172.665 85.224V93H171.321C171.041 93 170.825 92.96 170.673 92.88C170.521 92.792 170.401 92.62 170.313 92.364L170.049 91.476C169.737 91.756 169.433 92.004 169.137 92.22C168.841 92.428 168.533 92.604 168.213 92.748C167.893 92.892 167.549 93 167.181 93.072C166.821 93.152 166.421 93.192 165.981 93.192C165.461 93.192 164.981 93.124 164.541 92.988C164.101 92.844 163.721 92.632 163.401 92.352C163.081 92.072 162.833 91.724 162.657 91.308C162.481 90.892 162.393 90.408 162.393 89.856C162.393 89.544 162.445 89.236 162.549 88.932C162.653 88.62 162.821 88.324 163.053 88.044C163.293 87.764 163.601 87.5 163.977 87.252C164.353 87.004 164.813 86.788 165.357 86.604C165.909 86.42 166.549 86.272 167.277 86.16C168.005 86.04 168.837 85.968 169.773 85.944V85.224C169.773 84.4 169.597 83.792 169.245 83.4C168.893 83 168.385 82.8 167.721 82.8C167.241 82.8 166.841 82.856 166.521 82.968C166.209 83.08 165.933 83.208 165.693 83.352C165.453 83.488 165.233 83.612 165.033 83.724C164.841 83.836 164.625 83.892 164.385 83.892C164.177 83.892 164.001 83.84 163.857 83.736C163.713 83.624 163.597 83.496 163.509 83.352L162.981 82.404ZM178.228 82.2C178.476 81.952 178.736 81.724 179.008 81.516C179.288 81.3 179.58 81.12 179.884 80.976C180.196 80.824 180.528 80.708 180.88 80.628C181.232 80.54 181.616 80.496 182.032 80.496C182.704 80.496 183.3 80.612 183.82 80.844C184.34 81.068 184.772 81.388 185.116 81.804C185.468 82.212 185.732 82.704 185.908 83.28C186.092 83.848 186.184 84.476 186.184 85.164V93H183.22V85.164C183.22 84.412 183.048 83.832 182.704 83.424C182.36 83.008 181.836 82.8 181.132 82.8C180.62 82.8 180.14 82.916 179.692 83.148C179.244 83.38 178.82 83.696 178.42 84.096V93H175.456V80.688H177.268C177.652 80.688 177.904 80.868 178.024 81.228L178.228 82.2ZM191.967 82.008C192.447 81.56 192.975 81.196 193.551 80.916C194.127 80.636 194.803 80.496 195.579 80.496C196.251 80.496 196.847 80.612 197.367 80.844C197.887 81.068 198.319 81.388 198.663 81.804C199.015 82.212 199.279 82.704 199.455 83.28C199.639 83.848 199.731 84.476 199.731 85.164V93H196.767V85.164C196.767 84.412 196.595 83.832 196.251 83.424C195.907 83.008 195.383 82.8 194.679 82.8C194.167 82.8 193.687 82.916 193.239 83.148C192.791 83.38 192.367 83.696 191.967 84.096V93H189.003V75.168H191.967V82.008ZM209.054 87.744C208.198 87.784 207.478 87.86 206.894 87.972C206.31 88.076 205.842 88.212 205.49 88.38C205.138 88.548 204.886 88.744 204.734 88.968C204.582 89.192 204.506 89.436 204.506 89.7C204.506 90.22 204.658 90.592 204.962 90.816C205.274 91.04 205.678 91.152 206.174 91.152C206.782 91.152 207.306 91.044 207.746 90.828C208.194 90.604 208.63 90.268 209.054 89.82V87.744ZM202.262 82.404C203.678 81.108 205.382 80.46 207.374 80.46C208.094 80.46 208.738 80.58 209.306 80.82C209.874 81.052 210.354 81.38 210.746 81.804C211.138 82.22 211.434 82.72 211.634 83.304C211.842 83.888 211.946 84.528 211.946 85.224V93H210.602C210.322 93 210.106 92.96 209.954 92.88C209.802 92.792 209.682 92.62 209.594 92.364L209.33 91.476C209.018 91.756 208.714 92.004 208.418 92.22C208.122 92.428 207.814 92.604 207.494 92.748C207.174 92.892 206.83 93 206.462 93.072C206.102 93.152 205.702 93.192 205.262 93.192C204.742 93.192 204.262 93.124 203.822 92.988C203.382 92.844 203.002 92.632 202.682 92.352C202.362 92.072 202.114 91.724 201.938 91.308C201.762 90.892 201.674 90.408 201.674 89.856C201.674 89.544 201.726 89.236 201.83 88.932C201.934 88.62 202.102 88.324 202.334 88.044C202.574 87.764 202.882 87.5 203.258 87.252C203.634 87.004 204.094 86.788 204.638 86.604C205.19 86.42 205.83 86.272 206.558 86.16C207.286 86.04 208.118 85.968 209.054 85.944V85.224C209.054 84.4 208.878 83.792 208.526 83.4C208.174 83 207.666 82.8 207.002 82.8C206.522 82.8 206.122 82.856 205.802 82.968C205.49 83.08 205.214 83.208 204.974 83.352C204.734 83.488 204.514 83.612 204.314 83.724C204.122 83.836 203.906 83.892 203.666 83.892C203.458 83.892 203.282 83.84 203.138 83.736C202.994 83.624 202.878 83.496 202.79 83.352L202.262 82.404ZM222.249 83.088C222.169 83.216 222.085 83.308 221.997 83.364C221.909 83.412 221.797 83.436 221.661 83.436C221.517 83.436 221.361 83.396 221.193 83.316C221.033 83.236 220.845 83.148 220.629 83.052C220.413 82.948 220.165 82.856 219.885 82.776C219.613 82.696 219.289 82.656 218.913 82.656C218.329 82.656 217.869 82.78 217.533 83.028C217.205 83.276 217.041 83.6 217.041 84C217.041 84.264 217.125 84.488 217.293 84.672C217.469 84.848 217.697 85.004 217.977 85.14C218.265 85.276 218.589 85.4 218.949 85.512C219.309 85.616 219.673 85.732 220.041 85.86C220.417 85.988 220.785 86.136 221.145 86.304C221.505 86.464 221.825 86.672 222.105 86.928C222.393 87.176 222.621 87.476 222.789 87.828C222.965 88.18 223.053 88.604 223.053 89.1C223.053 89.692 222.945 90.24 222.729 90.744C222.521 91.24 222.209 91.672 221.793 92.04C221.377 92.4 220.861 92.684 220.245 92.892C219.637 93.092 218.933 93.192 218.133 93.192C217.709 93.192 217.293 93.152 216.885 93.072C216.485 93 216.097 92.896 215.721 92.76C215.353 92.624 215.009 92.464 214.689 92.28C214.377 92.096 214.101 91.896 213.861 91.68L214.545 90.552C214.633 90.416 214.737 90.312 214.857 90.24C214.977 90.168 215.129 90.132 215.313 90.132C215.497 90.132 215.669 90.184 215.829 90.288C215.997 90.392 216.189 90.504 216.405 90.624C216.621 90.744 216.873 90.856 217.161 90.96C217.457 91.064 217.829 91.116 218.277 91.116C218.629 91.116 218.929 91.076 219.177 90.996C219.433 90.908 219.641 90.796 219.801 90.66C219.969 90.524 220.089 90.368 220.161 90.192C220.241 90.008 220.281 89.82 220.281 89.628C220.281 89.34 220.193 89.104 220.017 88.92C219.849 88.736 219.621 88.576 219.333 88.44C219.053 88.304 218.729 88.184 218.361 88.08C218.001 87.968 217.629 87.848 217.245 87.72C216.869 87.592 216.497 87.444 216.129 87.276C215.769 87.1 215.445 86.88 215.157 86.616C214.877 86.352 214.649 86.028 214.473 85.644C214.305 85.26 214.221 84.796 214.221 84.252C214.221 83.748 214.321 83.268 214.521 82.812C214.721 82.356 215.013 81.96 215.397 81.624C215.789 81.28 216.273 81.008 216.849 80.808C217.433 80.6 218.105 80.496 218.865 80.496C219.713 80.496 220.485 80.636 221.181 80.916C221.877 81.196 222.457 81.564 222.921 82.02L222.249 83.088ZM117.34 120.324C117.34 121.596 117.128 122.764 116.704 123.828C116.28 124.892 115.684 125.808 114.916 126.576C114.148 127.344 113.224 127.94 112.144 128.364C111.064 128.788 109.864 129 108.544 129H101.932V111.648H108.544C109.864 111.648 111.064 111.864 112.144 112.296C113.224 112.72 114.148 113.316 114.916 114.084C115.684 114.844 116.28 115.756 116.704 116.82C117.128 117.884 117.34 119.052 117.34 120.324ZM114.028 120.324C114.028 119.372 113.9 118.52 113.644 117.768C113.396 117.008 113.032 116.368 112.552 115.848C112.08 115.32 111.504 114.916 110.824 114.636C110.152 114.356 109.392 114.216 108.544 114.216H105.172V126.432H108.544C109.392 126.432 110.152 126.292 110.824 126.012C111.504 125.732 112.08 125.332 112.552 124.812C113.032 124.284 113.396 123.644 113.644 122.892C113.9 122.132 114.028 121.276 114.028 120.324ZM122.583 116.688V129H119.607V116.688H122.583ZM122.991 113.1C122.991 113.356 122.939 113.596 122.835 113.82C122.731 114.044 122.591 114.24 122.415 114.408C122.247 114.576 122.047 114.712 121.815 114.816C121.583 114.912 121.335 114.96 121.071 114.96C120.815 114.96 120.571 114.912 120.339 114.816C120.115 114.712 119.919 114.576 119.751 114.408C119.583 114.24 119.447 114.044 119.343 113.82C119.247 113.596 119.199 113.356 119.199 113.1C119.199 112.836 119.247 112.588 119.343 112.356C119.447 112.124 119.583 111.924 119.751 111.756C119.919 111.588 120.115 111.456 120.339 111.36C120.571 111.256 120.815 111.204 121.071 111.204C121.335 111.204 121.583 111.256 121.815 111.36C122.047 111.456 122.247 111.588 122.415 111.756C122.591 111.924 122.731 112.124 122.835 112.356C122.939 112.588 122.991 112.836 122.991 113.1ZM130.105 122.544C130.473 122.544 130.793 122.496 131.065 122.4C131.337 122.296 131.561 122.156 131.737 121.98C131.921 121.804 132.057 121.592 132.145 121.344C132.241 121.096 132.289 120.824 132.289 120.528C132.289 119.92 132.105 119.44 131.737 119.088C131.377 118.728 130.833 118.548 130.105 118.548C129.377 118.548 128.829 118.728 128.461 119.088C128.101 119.44 127.921 119.92 127.921 120.528C127.921 120.816 127.965 121.084 128.053 121.332C128.149 121.58 128.285 121.796 128.461 121.98C128.645 122.156 128.873 122.296 129.145 122.4C129.425 122.496 129.745 122.544 130.105 122.544ZM133.453 129.552C133.453 129.312 133.381 129.116 133.237 128.964C133.093 128.812 132.897 128.696 132.649 128.616C132.401 128.528 132.109 128.464 131.773 128.424C131.445 128.384 131.093 128.356 130.717 128.34C130.349 128.316 129.965 128.296 129.565 128.28C129.173 128.264 128.789 128.232 128.413 128.184C128.085 128.368 127.817 128.584 127.609 128.832C127.409 129.08 127.309 129.368 127.309 129.696C127.309 129.912 127.361 130.112 127.465 130.296C127.577 130.488 127.749 130.652 127.981 130.788C128.221 130.924 128.529 131.028 128.905 131.1C129.281 131.18 129.741 131.22 130.285 131.22C130.837 131.22 131.313 131.176 131.713 131.088C132.113 131.008 132.441 130.892 132.697 130.74C132.961 130.596 133.153 130.42 133.273 130.212C133.393 130.012 133.453 129.792 133.453 129.552ZM136.405 117.108V118.212C136.405 118.564 136.193 118.78 135.769 118.86L134.665 119.064C134.833 119.488 134.917 119.952 134.917 120.456C134.917 121.064 134.793 121.616 134.545 122.112C134.305 122.6 133.969 123.016 133.537 123.36C133.105 123.704 132.593 123.972 132.001 124.164C131.417 124.348 130.785 124.44 130.105 124.44C129.865 124.44 129.633 124.428 129.409 124.404C129.185 124.38 128.965 124.348 128.749 124.308C128.365 124.54 128.173 124.8 128.173 125.088C128.173 125.336 128.285 125.52 128.509 125.64C128.741 125.752 129.045 125.832 129.421 125.88C129.797 125.928 130.225 125.96 130.705 125.976C131.185 125.984 131.677 126.008 132.181 126.048C132.685 126.088 133.177 126.16 133.657 126.264C134.137 126.36 134.565 126.516 134.941 126.732C135.317 126.948 135.617 127.244 135.841 127.62C136.073 127.988 136.189 128.464 136.189 129.048C136.189 129.592 136.053 130.12 135.781 130.632C135.517 131.144 135.129 131.6 134.617 132C134.113 132.4 133.489 132.72 132.745 132.96C132.009 133.208 131.169 133.332 130.225 133.332C129.297 133.332 128.489 133.24 127.801 133.056C127.113 132.88 126.541 132.64 126.085 132.336C125.629 132.04 125.289 131.696 125.065 131.304C124.841 130.912 124.729 130.504 124.729 130.08C124.729 129.504 124.901 129.024 125.245 128.64C125.597 128.248 126.077 127.936 126.685 127.704C126.357 127.536 126.097 127.312 125.905 127.032C125.713 126.752 125.617 126.384 125.617 125.928C125.617 125.744 125.649 125.556 125.713 125.364C125.785 125.164 125.885 124.968 126.013 124.776C126.149 124.584 126.317 124.404 126.517 124.236C126.717 124.06 126.953 123.904 127.225 123.768C126.601 123.432 126.109 122.984 125.749 122.424C125.397 121.864 125.221 121.208 125.221 120.456C125.221 119.848 125.341 119.3 125.581 118.812C125.829 118.316 126.169 117.896 126.601 117.552C127.041 117.2 127.557 116.932 128.149 116.748C128.749 116.564 129.401 116.472 130.105 116.472C130.633 116.472 131.129 116.528 131.593 116.64C132.057 116.744 132.481 116.9 132.865 117.108H136.405ZM141.356 116.688V129H138.38V116.688H141.356ZM141.764 113.1C141.764 113.356 141.712 113.596 141.608 113.82C141.504 114.044 141.364 114.24 141.188 114.408C141.02 114.576 140.82 114.712 140.588 114.816C140.356 114.912 140.108 114.96 139.844 114.96C139.588 114.96 139.344 114.912 139.112 114.816C138.888 114.712 138.692 114.576 138.524 114.408C138.356 114.24 138.22 114.044 138.116 113.82C138.02 113.596 137.972 113.356 137.972 113.1C137.972 112.836 138.02 112.588 138.116 112.356C138.22 112.124 138.356 111.924 138.524 111.756C138.692 111.588 138.888 111.456 139.112 111.36C139.344 111.256 139.588 111.204 139.844 111.204C140.108 111.204 140.356 111.256 140.588 111.36C140.82 111.456 141.02 111.588 141.188 111.756C141.364 111.924 141.504 112.124 141.608 112.356C141.712 112.588 141.764 112.836 141.764 113.1ZM148.482 129.192C147.41 129.192 146.586 128.892 146.01 128.292C145.442 127.684 145.158 126.848 145.158 125.784V118.908H143.898C143.738 118.908 143.602 118.856 143.49 118.752C143.378 118.648 143.322 118.492 143.322 118.284V117.108L145.302 116.784L145.926 113.424C145.966 113.264 146.042 113.14 146.154 113.052C146.266 112.964 146.41 112.92 146.586 112.92H148.122V116.796H151.41V118.908H148.122V125.58C148.122 125.964 148.214 126.264 148.398 126.48C148.59 126.696 148.85 126.804 149.178 126.804C149.362 126.804 149.514 126.784 149.634 126.744C149.762 126.696 149.87 126.648 149.958 126.6C150.054 126.552 150.138 126.508 150.21 126.468C150.282 126.42 150.354 126.396 150.426 126.396C150.514 126.396 150.586 126.42 150.642 126.468C150.698 126.508 150.758 126.572 150.822 126.66L151.71 128.1C151.278 128.46 150.782 128.732 150.222 128.916C149.662 129.1 149.082 129.192 148.482 129.192ZM159.812 123.744C158.956 123.784 158.236 123.86 157.652 123.972C157.068 124.076 156.6 124.212 156.248 124.38C155.896 124.548 155.644 124.744 155.492 124.968C155.34 125.192 155.264 125.436 155.264 125.7C155.264 126.22 155.416 126.592 155.72 126.816C156.032 127.04 156.436 127.152 156.932 127.152C157.54 127.152 158.064 127.044 158.504 126.828C158.952 126.604 159.388 126.268 159.812 125.82V123.744ZM153.02 118.404C154.436 117.108 156.14 116.46 158.132 116.46C158.852 116.46 159.496 116.58 160.064 116.82C160.632 117.052 161.112 117.38 161.504 117.804C161.896 118.22 162.192 118.72 162.392 119.304C162.6 119.888 162.704 120.528 162.704 121.224V129H161.36C161.08 129 160.864 128.96 160.712 128.88C160.56 128.792 160.44 128.62 160.352 128.364L160.088 127.476C159.776 127.756 159.472 128.004 159.176 128.22C158.88 128.428 158.572 128.604 158.252 128.748C157.932 128.892 157.588 129 157.22 129.072C156.86 129.152 156.46 129.192 156.02 129.192C155.5 129.192 155.02 129.124 154.58 128.988C154.14 128.844 153.76 128.632 153.44 128.352C153.12 128.072 152.872 127.724 152.696 127.308C152.52 126.892 152.432 126.408 152.432 125.856C152.432 125.544 152.484 125.236 152.588 124.932C152.692 124.62 152.86 124.324 153.092 124.044C153.332 123.764 153.64 123.5 154.016 123.252C154.392 123.004 154.852 122.788 155.396 122.604C155.948 122.42 156.588 122.272 157.316 122.16C158.044 122.04 158.876 121.968 159.812 121.944V121.224C159.812 120.4 159.636 119.792 159.284 119.4C158.932 119 158.424 118.8 157.76 118.8C157.28 118.8 156.88 118.856 156.56 118.968C156.248 119.08 155.972 119.208 155.732 119.352C155.492 119.488 155.272 119.612 155.072 119.724C154.88 119.836 154.664 119.892 154.424 119.892C154.216 119.892 154.04 119.84 153.896 119.736C153.752 119.624 153.636 119.496 153.548 119.352L153.02 118.404ZM168.567 116.688V129H165.591V116.688H168.567ZM168.975 113.1C168.975 113.356 168.923 113.596 168.819 113.82C168.715 114.044 168.575 114.24 168.399 114.408C168.231 114.576 168.031 114.712 167.799 114.816C167.567 114.912 167.319 114.96 167.055 114.96C166.799 114.96 166.555 114.912 166.323 114.816C166.099 114.712 165.903 114.576 165.735 114.408C165.567 114.24 165.431 114.044 165.327 113.82C165.231 113.596 165.183 113.356 165.183 113.1C165.183 112.836 165.231 112.588 165.327 112.356C165.431 112.124 165.567 111.924 165.735 111.756C165.903 111.588 166.099 111.456 166.323 111.36C166.555 111.256 166.799 111.204 167.055 111.204C167.319 111.204 167.567 111.256 167.799 111.36C168.031 111.456 168.231 111.588 168.399 111.756C168.575 111.924 168.715 112.124 168.819 112.356C168.923 112.588 168.975 112.836 168.975 113.1ZM179.101 119.088C179.021 119.216 178.937 119.308 178.849 119.364C178.761 119.412 178.649 119.436 178.513 119.436C178.369 119.436 178.213 119.396 178.045 119.316C177.885 119.236 177.697 119.148 177.481 119.052C177.265 118.948 177.017 118.856 176.737 118.776C176.465 118.696 176.141 118.656 175.765 118.656C175.181 118.656 174.721 118.78 174.385 119.028C174.057 119.276 173.893 119.6 173.893 120C173.893 120.264 173.977 120.488 174.145 120.672C174.321 120.848 174.549 121.004 174.829 121.14C175.117 121.276 175.441 121.4 175.801 121.512C176.161 121.616 176.525 121.732 176.893 121.86C177.269 121.988 177.637 122.136 177.997 122.304C178.357 122.464 178.677 122.672 178.957 122.928C179.245 123.176 179.473 123.476 179.641 123.828C179.817 124.18 179.905 124.604 179.905 125.1C179.905 125.692 179.797 126.24 179.581 126.744C179.373 127.24 179.061 127.672 178.645 128.04C178.229 128.4 177.713 128.684 177.097 128.892C176.489 129.092 175.785 129.192 174.985 129.192C174.561 129.192 174.145 129.152 173.737 129.072C173.337 129 172.949 128.896 172.573 128.76C172.205 128.624 171.861 128.464 171.541 128.28C171.229 128.096 170.953 127.896 170.713 127.68L171.397 126.552C171.485 126.416 171.589 126.312 171.709 126.24C171.829 126.168 171.981 126.132 172.165 126.132C172.349 126.132 172.521 126.184 172.681 126.288C172.849 126.392 173.041 126.504 173.257 126.624C173.473 126.744 173.725 126.856 174.013 126.96C174.309 127.064 174.681 127.116 175.129 127.116C175.481 127.116 175.781 127.076 176.029 126.996C176.285 126.908 176.493 126.796 176.653 126.66C176.821 126.524 176.941 126.368 177.013 126.192C177.093 126.008 177.133 125.82 177.133 125.628C177.133 125.34 177.045 125.104 176.869 124.92C176.701 124.736 176.473 124.576 176.185 124.44C175.905 124.304 175.581 124.184 175.213 124.08C174.853 123.968 174.481 123.848 174.097 123.72C173.721 123.592 173.349 123.444 172.981 123.276C172.621 123.1 172.297 122.88 172.009 122.616C171.729 122.352 171.501 122.028 171.325 121.644C171.157 121.26 171.073 120.796 171.073 120.252C171.073 119.748 171.173 119.268 171.373 118.812C171.573 118.356 171.865 117.96 172.249 117.624C172.641 117.28 173.125 117.008 173.701 116.808C174.285 116.6 174.957 116.496 175.717 116.496C176.565 116.496 177.337 116.636 178.033 116.916C178.729 117.196 179.309 117.564 179.773 118.02L179.101 119.088Z" fill="#081448"/>
</g>
<defs>
<filter id="filter0_dd_7770_1902" x="94.9238" y="73.168" width="134.129" height="70.1641" filterUnits="userSpaceOnUse" color-interpolation-filters="sRGB">
<feFlood flood-opacity="0" result="BackgroundImageFix"/>
<feColorMatrix in="SourceAlpha" type="matrix" values="0 0 0 0 0 0 0 0 0 0 0 0 0 0 0 0 0 0 127 0" result="hardAlpha"/>
<feOffset dy="4"/>
<feGaussianBlur stdDeviation="3"/>
<feColorMatrix type="matrix" values="0 0 0 0 0 0 0 0 0 0 0 0 0 0 0 0 0 0 0.1 0"/>
<feBlend mode="normal" in2="BackgroundImageFix" result="effect1_dropShadow_7770_1902"/>
<feColorMatrix in="SourceAlpha" type="matrix" values="0 0 0 0 0 0 0 0 0 0 0 0 0 0 0 0 0 0 127 0" result="hardAlpha"/>
<feOffset dy="2"/>
<feGaussianBlur stdDeviation="2"/>
<feColorMatrix type="matrix" values="0 0 0 0 0 0 0 0 0 0 0 0 0 0 0 0 0 0 0.06 0"/>
<feBlend mode="normal" in2="effect1_dropShadow_7770_1902" result="effect2_dropShadow_7770_1902"/>
<feBlend mode="normal" in="SourceGraphic" in2="effect2_dropShadow_7770_1902" result="shape"/>
</filter>
<radialGradient id="paint0_radial_7770_1902" cx="0" cy="0" r="1" gradientUnits="userSpaceOnUse" gradientTransform="translate(130.561 150.883) rotate(-5.74) scale(130.813)">
<stop stop-color="#808080"/>
<stop offset="0.15" stop-color="#9C9C9C"/>
<stop offset="0.42" stop-color="#C7C7C7"/>
<stop offset="0.66" stop-color="#E5E5E5"/>
<stop offset="0.86" stop-color="#F8F8F8"/>
<stop offset="1" stop-color="white"/>
</radialGradient>
<linearGradient id="paint1_linear_7770_1902" x1="198.522" y1="10.7242" x2="116.783" y2="190.043" gradientUnits="userSpaceOnUse">
<stop stop-color="#FFD989"/>
<stop offset="0.07" stop-color="#FFD782"/>
<stop offset="0.46" stop-color="#FFCD60"/>
<stop offset="0.79" stop-color="#FFC64B"/>
<stop offset="1" stop-color="#FFC443"/>
</linearGradient>
<radialGradient id="paint2_radial_7770_1902" cx="0" cy="0" r="1" gradientUnits="userSpaceOnUse" gradientTransform="translate(186.406 54.5963) rotate(-5.74) scale(101.057)">
<stop stop-color="#FFD989"/>
<stop offset="0.13" stop-color="#E1C079"/>
<stop offset="0.43" stop-color="#957F50"/>
<stop offset="0.86" stop-color="#1D1910"/>
<stop offset="0.96"/>
</radialGradient>
</defs>
</svg>
