<svg width="366" height="287" viewBox="0 0 366 287" fill="none" xmlns="http://www.w3.org/2000/svg">
<path style="mix-blend-mode:multiply" d="M288.489 158.391C284.399 212.392 247.547 260.099 196.429 277.957C175.205 285.482 152.483 287.795 130.178 284.7C67.967 276.075 17.3093 225.856 10.746 160.588C4.18275 95.3201 43.8322 35.9582 103.093 15.195C113.566 11.4977 124.443 9.06609 135.494 7.95179C220.474 -0.589486 295.261 68.9489 288.489 158.391Z" fill="url(#)"/>
<path d="M180.982 198.388C235.76 198.388 280.167 153.984 280.167 99.2083C280.167 44.4327 235.76 0.0283203 180.982 0.0283203C126.203 0.0283203 81.7959 44.4327 81.7959 99.2083C81.7959 153.984 126.203 198.388 180.982 198.388Z" fill="#A4357E"/>
<path d="M279.976 94.8926C264.186 114.391 240.394 137.756 212.86 146.5C162.848 162.234 173.474 109.413 133.662 103.125C120.08 101.006 102.087 108.986 84.1784 120.443C82.5592 113.485 81.7521 106.363 81.7734 99.2194C81.73 73.6031 91.6622 48.9764 109.465 30.5576C118.293 35.4801 127.374 41.8467 134.847 49.9947C158.105 75.2027 194.35 85.396 225.076 64.9306C239.253 55.5071 250.542 46.8535 260.814 40.4026C272.559 56.2133 279.24 75.2106 279.976 94.8926V94.8926Z" fill="#871867"/>
<path d="M224.885 188.178C207.219 196.854 187.374 200.09 167.867 197.476C148.36 194.862 130.068 186.516 115.309 173.495C137.634 170.944 175.435 167.314 188.921 171.118C201.758 174.809 213.906 180.571 224.885 188.178V188.178Z" fill="#871867"/>
<path d="M232.353 14.3684C216.905 22.9434 200.885 30.0742 188.978 30.8384C168.861 32.1084 150.441 19.5493 138.814 9.44588C153.604 2.49459 169.882 -0.69345 186.202 0.165348C202.521 1.02415 218.374 5.90316 232.353 14.3684Z" fill="#871867"/>
<path style="mix-blend-mode:multiply" d="M180.97 198.394C235.755 198.394 280.167 153.982 280.167 99.1969C280.167 44.412 235.755 0 180.97 0C126.185 0 81.7734 44.412 81.7734 99.1969C81.7734 153.982 126.185 198.394 180.97 198.394Z" fill="url(#paint1_radial_7852_623)"/>
<path style="mix-blend-mode:screen" d="M180.97 198.394C235.755 198.394 280.167 153.982 280.167 99.1969C280.167 44.412 235.755 0 180.97 0C126.185 0 81.7734 44.412 81.7734 99.1969C81.7734 153.982 126.185 198.394 180.97 198.394Z" fill="url(#paint2_radial_7852_623)"/>
<path d="M365.703 67.5433C362.197 53.3828 328.009 48.6064 278.706 52.9332C277.02 53.0737 275.334 53.2086 273.649 53.3884H273.604C272.013 53.5289 270.462 53.7087 268.827 53.8941C269.642 55.2146 270.373 56.5295 271.075 57.9006C298.16 56.9397 316.097 60.6316 318.238 69.1897C320.378 77.658 306.583 89.3123 282.589 101.22C259.145 112.874 225.913 124.82 188.354 134.272C152.126 143.342 118.456 148.579 92.6072 149.719C64.2468 150.944 45.4054 147.258 43.1577 138.481C40.91 129.704 55.9921 117.397 81.8969 104.973V104.698C81.8969 103.653 81.8969 102.602 81.9868 101.557C46.1134 117.218 24.4006 133.244 27.1765 144.443C29.9524 155.642 56.8575 159.463 96.1024 156.187C122.777 153.939 155.24 148.449 189.702 139.751C225.396 130.76 257.583 119.769 282.527 108.704C317.035 93.3638 337.798 77.7479 335.022 66.8184C332.381 56.3497 308.752 52.3432 273.699 54.5291C275.385 54.3942 277.071 54.2987 278.757 54.2088C315.95 52.0679 341.08 56.6251 343.94 68.0041C347.081 80.5688 322.356 98.5054 282.021 115.622C256.802 126.366 225.48 136.75 190.989 145.353C157.791 153.63 126.267 159.098 99.592 161.554C54.385 165.835 22.8778 161.688 19.6917 148.854C16.5505 136.244 41.4551 118.212 82.0149 101.006C82.0062 100.702 82.0212 100.397 82.0599 100.096C29.6153 120.808 -3.52714 143.252 0.299577 158.643C4.30611 174.618 47.3272 178.67 107.15 171.163C133.279 167.881 162.691 162.374 193.372 154.726C225.239 146.803 254.74 137.469 279.965 127.681C334.73 106.524 369.603 83.2941 365.703 67.5433Z" fill="#64144D"/>
<g filter="url(#filter0_dd_7852_623)">
<path d="M131.464 81.544C131.699 81.544 131.907 81.6347 132.088 81.816L133.784 83.656C132.845 84.8187 131.688 85.7093 130.312 86.328C128.947 86.9467 127.304 87.256 125.384 87.256C123.667 87.256 122.12 86.9627 120.744 86.376C119.379 85.7893 118.211 84.9733 117.24 83.928C116.269 82.8827 115.523 81.6347 115 80.184C114.488 78.7333 114.232 77.1493 114.232 75.432C114.232 73.6933 114.509 72.104 115.064 70.664C115.619 69.2133 116.397 67.9653 117.4 66.92C118.413 65.8747 119.619 65.064 121.016 64.488C122.413 63.9013 123.96 63.608 125.656 63.608C127.341 63.608 128.835 63.8853 130.136 64.44C131.448 64.9947 132.563 65.72 133.48 66.616L132.04 68.616C131.955 68.744 131.843 68.856 131.704 68.952C131.576 69.048 131.395 69.096 131.16 69.096C131 69.096 130.835 69.0533 130.664 68.968C130.493 68.872 130.307 68.76 130.104 68.632C129.901 68.4933 129.667 68.344 129.4 68.184C129.133 68.024 128.824 67.88 128.472 67.752C128.12 67.6133 127.709 67.5013 127.24 67.416C126.781 67.32 126.248 67.272 125.64 67.272C124.605 67.272 123.656 67.4587 122.792 67.832C121.939 68.1947 121.203 68.728 120.584 69.432C119.965 70.1253 119.485 70.9787 119.144 71.992C118.803 72.9947 118.632 74.1413 118.632 75.432C118.632 76.7333 118.813 77.8907 119.176 78.904C119.549 79.9173 120.051 80.7707 120.68 81.464C121.309 82.1573 122.051 82.6907 122.904 83.064C123.757 83.4267 124.675 83.608 125.656 83.608C126.243 83.608 126.771 83.576 127.24 83.512C127.72 83.448 128.157 83.3467 128.552 83.208C128.957 83.0693 129.336 82.8933 129.688 82.68C130.051 82.456 130.408 82.184 130.76 81.864C130.867 81.768 130.979 81.6933 131.096 81.64C131.213 81.576 131.336 81.544 131.464 81.544ZM139.774 73.432C140.286 72.4507 140.894 71.6827 141.598 71.128C142.302 70.5627 143.134 70.28 144.094 70.28C144.851 70.28 145.459 70.4453 145.918 70.776L145.662 73.736C145.608 73.928 145.528 74.0667 145.422 74.152C145.326 74.2267 145.192 74.264 145.022 74.264C144.862 74.264 144.622 74.2373 144.302 74.184C143.992 74.1307 143.688 74.104 143.39 74.104C142.952 74.104 142.563 74.168 142.222 74.296C141.88 74.424 141.571 74.6107 141.294 74.856C141.027 75.0907 140.787 75.3787 140.574 75.72C140.371 76.0613 140.179 76.4507 139.998 76.888V87H136.046V70.584H138.366C138.771 70.584 139.054 70.6587 139.214 70.808C139.374 70.9467 139.48 71.2027 139.534 71.576L139.774 73.432ZM152.079 70.584V87H148.111V70.584H152.079ZM152.623 65.8C152.623 66.1413 152.554 66.4613 152.415 66.76C152.277 67.0587 152.09 67.32 151.855 67.544C151.631 67.768 151.365 67.9493 151.055 68.088C150.746 68.216 150.415 68.28 150.063 68.28C149.722 68.28 149.397 68.216 149.087 68.088C148.789 67.9493 148.527 67.768 148.303 67.544C148.079 67.32 147.898 67.0587 147.759 66.76C147.631 66.4613 147.567 66.1413 147.567 65.8C147.567 65.448 147.631 65.1173 147.759 64.808C147.898 64.4987 148.079 64.232 148.303 64.008C148.527 63.784 148.789 63.608 149.087 63.48C149.397 63.3413 149.722 63.272 150.063 63.272C150.415 63.272 150.746 63.3413 151.055 63.48C151.365 63.608 151.631 63.784 151.855 64.008C152.09 64.232 152.277 64.4987 152.415 64.808C152.554 65.1173 152.623 65.448 152.623 65.8ZM164.78 79.992C163.639 80.0453 162.679 80.1467 161.9 80.296C161.122 80.4347 160.498 80.616 160.028 80.84C159.559 81.064 159.223 81.3253 159.02 81.624C158.818 81.9227 158.716 82.248 158.716 82.6C158.716 83.2933 158.919 83.7893 159.324 84.088C159.74 84.3867 160.279 84.536 160.94 84.536C161.751 84.536 162.45 84.392 163.036 84.104C163.634 83.8053 164.215 83.3573 164.78 82.76V79.992ZM155.724 72.872C157.612 71.144 159.884 70.28 162.54 70.28C163.5 70.28 164.359 70.44 165.116 70.76C165.874 71.0693 166.514 71.5067 167.036 72.072C167.559 72.6267 167.954 73.2933 168.22 74.072C168.498 74.8507 168.636 75.704 168.636 76.632V87H166.844C166.471 87 166.183 86.9467 165.98 86.84C165.778 86.7227 165.618 86.4933 165.5 86.152L165.148 84.968C164.732 85.3413 164.327 85.672 163.932 85.96C163.538 86.2373 163.127 86.472 162.7 86.664C162.274 86.856 161.815 87 161.324 87.096C160.844 87.2027 160.311 87.256 159.724 87.256C159.031 87.256 158.391 87.1653 157.804 86.984C157.218 86.792 156.711 86.5093 156.284 86.136C155.858 85.7627 155.527 85.2987 155.292 84.744C155.058 84.1893 154.94 83.544 154.94 82.808C154.94 82.392 155.01 81.9813 155.148 81.576C155.287 81.16 155.511 80.7653 155.82 80.392C156.14 80.0187 156.551 79.6667 157.052 79.336C157.554 79.0053 158.167 78.7173 158.892 78.472C159.628 78.2267 160.482 78.0293 161.452 77.88C162.423 77.72 163.532 77.624 164.78 77.592V76.632C164.78 75.5333 164.546 74.7227 164.076 74.2C163.607 73.6667 162.93 73.4 162.044 73.4C161.404 73.4 160.871 73.4747 160.444 73.624C160.028 73.7733 159.66 73.944 159.34 74.136C159.02 74.3173 158.727 74.4827 158.46 74.632C158.204 74.7813 157.916 74.856 157.596 74.856C157.319 74.856 157.084 74.7867 156.892 74.648C156.7 74.4987 156.546 74.328 156.428 74.136L155.724 72.872ZM185.318 84.552C184.593 85.4053 183.772 86.0347 182.854 86.44C181.948 86.8347 181.009 87.08 180.038 87.176L179.83 87.976C180.833 88.2107 181.532 88.5253 181.926 88.92C182.332 89.3253 182.534 89.8053 182.534 90.36C182.534 90.7227 182.438 91.048 182.246 91.336C182.065 91.624 181.798 91.8693 181.446 92.072C181.105 92.2747 180.694 92.4293 180.214 92.536C179.745 92.6427 179.222 92.696 178.646 92.696C178.209 92.696 177.798 92.664 177.414 92.6C177.03 92.5467 176.657 92.4613 176.294 92.344L176.646 91.112C176.71 90.8667 176.865 90.744 177.11 90.744C177.26 90.744 177.425 90.7813 177.606 90.856C177.788 90.9413 178.049 90.984 178.39 90.984C178.742 90.984 179.004 90.9147 179.174 90.776C179.356 90.648 179.446 90.488 179.446 90.296C179.446 89.9867 179.254 89.7627 178.87 89.624C178.486 89.496 177.894 89.3733 177.094 89.256L177.798 87.16C176.902 87.032 176.07 86.7547 175.302 86.328C174.534 85.8907 173.868 85.32 173.302 84.616C172.737 83.9013 172.289 83.0533 171.958 82.072C171.638 81.0907 171.478 79.9867 171.478 78.76C171.478 77.5547 171.649 76.44 171.99 75.416C172.342 74.3813 172.854 73.4907 173.526 72.744C174.198 71.9867 175.03 71.3947 176.022 70.968C177.014 70.5413 178.156 70.328 179.446 70.328C180.673 70.328 181.745 70.5253 182.662 70.92C183.59 71.3147 184.422 71.88 185.158 72.616L184.118 74.056C184.001 74.2053 183.884 74.3227 183.766 74.408C183.66 74.4933 183.5 74.536 183.286 74.536C183.084 74.536 182.886 74.4773 182.694 74.36C182.502 74.232 182.273 74.0933 182.006 73.944C181.74 73.784 181.42 73.6453 181.046 73.528C180.684 73.4 180.23 73.336 179.686 73.336C178.993 73.336 178.385 73.464 177.862 73.72C177.34 73.9653 176.902 74.3227 176.55 74.792C176.209 75.2613 175.953 75.832 175.782 76.504C175.612 77.1653 175.526 77.9173 175.526 78.76C175.526 79.6347 175.617 80.4133 175.798 81.096C175.99 81.7787 176.262 82.3547 176.614 82.824C176.966 83.2827 177.393 83.6347 177.894 83.88C178.396 84.1147 178.961 84.232 179.59 84.232C180.22 84.232 180.726 84.1573 181.11 84.008C181.505 83.848 181.836 83.6773 182.102 83.496C182.369 83.304 182.598 83.1333 182.79 82.984C182.993 82.824 183.217 82.744 183.462 82.744C183.782 82.744 184.022 82.8667 184.182 83.112L185.318 84.552ZM196.499 79.992C195.358 80.0453 194.398 80.1467 193.619 80.296C192.84 80.4347 192.216 80.616 191.747 80.84C191.278 81.064 190.942 81.3253 190.739 81.624C190.536 81.9227 190.435 82.248 190.435 82.6C190.435 83.2933 190.638 83.7893 191.043 84.088C191.459 84.3867 191.998 84.536 192.659 84.536C193.47 84.536 194.168 84.392 194.755 84.104C195.352 83.8053 195.934 83.3573 196.499 82.76V79.992ZM187.443 72.872C189.331 71.144 191.603 70.28 194.259 70.28C195.219 70.28 196.078 70.44 196.835 70.76C197.592 71.0693 198.232 71.5067 198.755 72.072C199.278 72.6267 199.672 73.2933 199.939 74.072C200.216 74.8507 200.355 75.704 200.355 76.632V87H198.563C198.19 87 197.902 86.9467 197.699 86.84C197.496 86.7227 197.336 86.4933 197.219 86.152L196.867 84.968C196.451 85.3413 196.046 85.672 195.651 85.96C195.256 86.2373 194.846 86.472 194.419 86.664C193.992 86.856 193.534 87 193.043 87.096C192.563 87.2027 192.03 87.256 191.443 87.256C190.75 87.256 190.11 87.1653 189.523 86.984C188.936 86.792 188.43 86.5093 188.003 86.136C187.576 85.7627 187.246 85.2987 187.011 84.744C186.776 84.1893 186.659 83.544 186.659 82.808C186.659 82.392 186.728 81.9813 186.867 81.576C187.006 81.16 187.23 80.7653 187.539 80.392C187.859 80.0187 188.27 79.6667 188.771 79.336C189.272 79.0053 189.886 78.7173 190.611 78.472C191.347 78.2267 192.2 78.0293 193.171 77.88C194.142 77.72 195.251 77.624 196.499 77.592V76.632C196.499 75.5333 196.264 74.7227 195.795 74.2C195.326 73.6667 194.648 73.4 193.763 73.4C193.123 73.4 192.59 73.4747 192.163 73.624C191.747 73.7733 191.379 73.944 191.059 74.136C190.739 74.3173 190.446 74.4827 190.179 74.632C189.923 74.7813 189.635 74.856 189.315 74.856C189.038 74.856 188.803 74.7867 188.611 74.648C188.419 74.4987 188.264 74.328 188.147 74.136L187.443 72.872ZM195.603 65.256C195.923 65.256 196.174 65.1707 196.355 65C196.536 64.8187 196.627 64.4987 196.627 64.04H199.027C199.027 64.6373 198.942 65.1813 198.771 65.672C198.611 66.152 198.387 66.568 198.099 66.92C197.811 67.2613 197.464 67.528 197.059 67.72C196.664 67.9013 196.227 67.992 195.747 67.992C195.363 67.992 195.006 67.9227 194.675 67.784C194.344 67.6453 194.035 67.496 193.747 67.336C193.459 67.176 193.187 67.0267 192.931 66.888C192.686 66.7493 192.456 66.68 192.243 66.68C191.934 66.68 191.688 66.776 191.507 66.968C191.336 67.1493 191.251 67.464 191.251 67.912H188.803C188.803 67.3147 188.883 66.776 189.043 66.296C189.214 65.8053 189.448 65.3893 189.747 65.048C190.046 64.696 190.392 64.424 190.787 64.232C191.192 64.04 191.63 63.944 192.099 63.944C192.483 63.944 192.84 64.0133 193.171 64.152C193.512 64.2907 193.827 64.44 194.115 64.6C194.403 64.76 194.67 64.9093 194.915 65.048C195.16 65.1867 195.39 65.256 195.603 65.256ZM211.341 70.328C212.557 70.328 213.661 70.5253 214.653 70.92C215.656 71.3147 216.509 71.8747 217.213 72.6C217.928 73.3253 218.477 74.2107 218.861 75.256C219.245 76.3013 219.437 77.4693 219.437 78.76C219.437 80.0613 219.245 81.2347 218.861 82.28C218.477 83.3253 217.928 84.216 217.213 84.952C216.509 85.688 215.656 86.2533 214.653 86.648C213.661 87.0427 212.557 87.24 211.341 87.24C210.114 87.24 209 87.0427 207.997 86.648C206.994 86.2533 206.136 85.688 205.421 84.952C204.717 84.216 204.168 83.3253 203.773 82.28C203.389 81.2347 203.197 80.0613 203.197 78.76C203.197 77.4693 203.389 76.3013 203.773 75.256C204.168 74.2107 204.717 73.3253 205.421 72.6C206.136 71.8747 206.994 71.3147 207.997 70.92C209 70.5253 210.114 70.328 211.341 70.328ZM211.341 84.2C212.706 84.2 213.714 83.7413 214.365 82.824C215.026 81.9067 215.357 80.5627 215.357 78.792C215.357 77.0213 215.026 75.672 214.365 74.744C213.714 73.816 212.706 73.352 211.341 73.352C209.954 73.352 208.925 73.8213 208.253 74.76C207.592 75.688 207.261 77.032 207.261 78.792C207.261 80.552 207.592 81.896 208.253 82.824C208.925 83.7413 209.954 84.2 211.341 84.2ZM240.537 74.776C240.089 74.232 239.599 73.848 239.065 73.624C238.543 73.4 237.977 73.288 237.369 73.288C236.772 73.288 236.233 73.4 235.753 73.624C235.273 73.848 234.863 74.1893 234.521 74.648C234.18 75.096 233.919 75.672 233.737 76.376C233.556 77.0693 233.465 77.8907 233.465 78.84C233.465 79.8 233.54 80.616 233.689 81.288C233.849 81.9493 234.073 82.4933 234.361 82.92C234.649 83.336 235.001 83.64 235.417 83.832C235.833 84.0133 236.297 84.104 236.809 84.104C237.631 84.104 238.329 83.9333 238.905 83.592C239.481 83.2507 240.025 82.7653 240.537 82.136V74.776ZM244.489 63.224V87H242.073C241.551 87 241.22 86.76 241.081 86.28L240.745 84.696C240.084 85.4533 239.321 86.0667 238.457 86.536C237.604 87.0053 236.607 87.24 235.465 87.24C234.569 87.24 233.748 87.0533 233.001 86.68C232.255 86.3067 231.609 85.768 231.065 85.064C230.532 84.3493 230.116 83.4693 229.817 82.424C229.529 81.3787 229.385 80.184 229.385 78.84C229.385 77.624 229.551 76.4933 229.881 75.448C230.212 74.4027 230.687 73.496 231.305 72.728C231.924 71.96 232.665 71.3627 233.529 70.936C234.393 70.4987 235.364 70.28 236.441 70.28C237.359 70.28 238.143 70.424 238.793 70.712C239.444 71 240.025 71.3893 240.537 71.88V63.224H244.489ZM258.966 76.904C258.966 76.392 258.891 75.912 258.742 75.464C258.603 75.0053 258.39 74.6053 258.102 74.264C257.814 73.9227 257.446 73.656 256.998 73.464C256.56 73.2613 256.048 73.16 255.462 73.16C254.32 73.16 253.419 73.4853 252.758 74.136C252.107 74.7867 251.691 75.7093 251.51 76.904H258.966ZM251.43 79.288C251.494 80.1307 251.643 80.8613 251.878 81.48C252.112 82.088 252.422 82.5947 252.806 83C253.19 83.3947 253.643 83.6933 254.166 83.896C254.699 84.088 255.286 84.184 255.926 84.184C256.566 84.184 257.115 84.1093 257.574 83.96C258.043 83.8107 258.448 83.6453 258.79 83.464C259.142 83.2827 259.446 83.1173 259.702 82.968C259.968 82.8187 260.224 82.744 260.47 82.744C260.8 82.744 261.046 82.8667 261.206 83.112L262.342 84.552C261.904 85.064 261.414 85.496 260.87 85.848C260.326 86.1893 259.755 86.4667 259.158 86.68C258.571 86.8827 257.968 87.0267 257.35 87.112C256.742 87.1973 256.15 87.24 255.574 87.24C254.432 87.24 253.371 87.0533 252.39 86.68C251.408 86.296 250.555 85.736 249.83 85C249.104 84.2533 248.534 83.336 248.118 82.248C247.702 81.1493 247.493 79.88 247.493 78.44C247.493 77.32 247.675 76.2693 248.038 75.288C248.4 74.296 248.918 73.4373 249.59 72.712C250.272 71.976 251.099 71.3947 252.07 70.968C253.051 70.5413 254.155 70.328 255.382 70.328C256.416 70.328 257.371 70.4933 258.246 70.824C259.12 71.1547 259.872 71.64 260.502 72.28C261.131 72.9093 261.622 73.688 261.974 74.616C262.336 75.5333 262.517 76.584 262.517 77.768C262.517 78.3653 262.454 78.7707 262.326 78.984C262.198 79.1867 261.952 79.288 261.59 79.288H251.43ZM124.968 109.784C124.861 109.955 124.749 110.077 124.632 110.152C124.515 110.216 124.365 110.248 124.184 110.248C123.992 110.248 123.784 110.195 123.56 110.088C123.347 109.981 123.096 109.864 122.808 109.736C122.52 109.597 122.189 109.475 121.816 109.368C121.453 109.261 121.021 109.208 120.52 109.208C119.741 109.208 119.128 109.373 118.68 109.704C118.243 110.035 118.024 110.467 118.024 111C118.024 111.352 118.136 111.651 118.36 111.896C118.595 112.131 118.899 112.339 119.272 112.52C119.656 112.701 120.088 112.867 120.568 113.016C121.048 113.155 121.533 113.309 122.024 113.48C122.525 113.651 123.016 113.848 123.496 114.072C123.976 114.285 124.403 114.563 124.776 114.904C125.16 115.235 125.464 115.635 125.688 116.104C125.923 116.573 126.04 117.139 126.04 117.8C126.04 118.589 125.896 119.32 125.608 119.992C125.331 120.653 124.915 121.229 124.36 121.72C123.805 122.2 123.117 122.579 122.296 122.856C121.485 123.123 120.547 123.256 119.48 123.256C118.915 123.256 118.36 123.203 117.816 123.096C117.283 123 116.765 122.861 116.264 122.68C115.773 122.499 115.315 122.285 114.888 122.04C114.472 121.795 114.104 121.528 113.784 121.24L114.696 119.736C114.813 119.555 114.952 119.416 115.112 119.32C115.272 119.224 115.475 119.176 115.72 119.176C115.965 119.176 116.195 119.245 116.408 119.384C116.632 119.523 116.888 119.672 117.176 119.832C117.464 119.992 117.8 120.141 118.184 120.28C118.579 120.419 119.075 120.488 119.672 120.488C120.141 120.488 120.541 120.435 120.872 120.328C121.213 120.211 121.491 120.061 121.704 119.88C121.928 119.699 122.088 119.491 122.184 119.256C122.291 119.011 122.344 118.76 122.344 118.504C122.344 118.12 122.227 117.805 121.992 117.56C121.768 117.315 121.464 117.101 121.08 116.92C120.707 116.739 120.275 116.579 119.784 116.44C119.304 116.291 118.808 116.131 118.296 115.96C117.795 115.789 117.299 115.592 116.808 115.368C116.328 115.133 115.896 114.84 115.512 114.488C115.139 114.136 114.835 113.704 114.6 113.192C114.376 112.68 114.264 112.061 114.264 111.336C114.264 110.664 114.397 110.024 114.664 109.416C114.931 108.808 115.32 108.28 115.832 107.832C116.355 107.373 117 107.011 117.768 106.744C118.547 106.467 119.443 106.328 120.456 106.328C121.587 106.328 122.616 106.515 123.544 106.888C124.472 107.261 125.245 107.752 125.864 108.36L124.968 109.784ZM133.111 106.584V123H129.143V106.584H133.111ZM133.655 101.8C133.655 102.141 133.585 102.461 133.447 102.76C133.308 103.059 133.121 103.32 132.887 103.544C132.663 103.768 132.396 103.949 132.087 104.088C131.777 104.216 131.447 104.28 131.095 104.28C130.753 104.28 130.428 104.216 130.119 104.088C129.82 103.949 129.559 103.768 129.335 103.544C129.111 103.32 128.929 103.059 128.791 102.76C128.663 102.461 128.599 102.141 128.599 101.8C128.599 101.448 128.663 101.117 128.791 100.808C128.929 100.499 129.111 100.232 129.335 100.008C129.559 99.784 129.82 99.608 130.119 99.48C130.428 99.3413 130.753 99.272 131.095 99.272C131.447 99.272 131.777 99.3413 132.087 99.48C132.396 99.608 132.663 99.784 132.887 100.008C133.121 100.232 133.308 100.499 133.447 100.808C133.585 101.117 133.655 101.448 133.655 101.8ZM142.612 123.256C141.182 123.256 140.084 122.856 139.316 122.056C138.558 121.245 138.18 120.131 138.18 118.712V109.544H136.5C136.286 109.544 136.105 109.475 135.956 109.336C135.806 109.197 135.732 108.989 135.732 108.712V107.144L138.372 106.712L139.204 102.232C139.257 102.019 139.358 101.853 139.508 101.736C139.657 101.619 139.849 101.56 140.084 101.56H142.132V106.728H146.516V109.544H142.132V118.44C142.132 118.952 142.254 119.352 142.5 119.64C142.756 119.928 143.102 120.072 143.54 120.072C143.785 120.072 143.988 120.045 144.148 119.992C144.318 119.928 144.462 119.864 144.58 119.8C144.708 119.736 144.82 119.677 144.916 119.624C145.012 119.56 145.108 119.528 145.204 119.528C145.321 119.528 145.417 119.56 145.492 119.624C145.566 119.677 145.646 119.763 145.732 119.88L146.916 121.8C146.34 122.28 145.678 122.643 144.932 122.888C144.185 123.133 143.412 123.256 142.612 123.256ZM159.497 112.904C159.497 112.392 159.422 111.912 159.273 111.464C159.134 111.005 158.921 110.605 158.633 110.264C158.345 109.923 157.977 109.656 157.529 109.464C157.091 109.261 156.579 109.16 155.993 109.16C154.851 109.16 153.95 109.485 153.289 110.136C152.638 110.787 152.222 111.709 152.041 112.904H159.497ZM151.961 115.288C152.025 116.131 152.174 116.861 152.409 117.48C152.643 118.088 152.953 118.595 153.337 119C153.721 119.395 154.174 119.693 154.697 119.896C155.23 120.088 155.817 120.184 156.457 120.184C157.097 120.184 157.646 120.109 158.105 119.96C158.574 119.811 158.979 119.645 159.321 119.464C159.673 119.283 159.977 119.117 160.233 118.968C160.499 118.819 160.755 118.744 161.001 118.744C161.331 118.744 161.577 118.867 161.737 119.112L162.873 120.552C162.435 121.064 161.945 121.496 161.401 121.848C160.857 122.189 160.286 122.467 159.689 122.68C159.102 122.883 158.499 123.027 157.881 123.112C157.273 123.197 156.681 123.24 156.105 123.24C154.963 123.24 153.902 123.053 152.921 122.68C151.939 122.296 151.086 121.736 150.361 121C149.635 120.253 149.065 119.336 148.649 118.248C148.233 117.149 148.025 115.88 148.025 114.44C148.025 113.32 148.206 112.269 148.569 111.288C148.931 110.296 149.449 109.437 150.121 108.712C150.803 107.976 151.63 107.395 152.601 106.968C153.582 106.541 154.686 106.328 155.913 106.328C156.947 106.328 157.902 106.493 158.777 106.824C159.651 107.155 160.403 107.64 161.033 108.28C161.662 108.909 162.153 109.688 162.505 110.616C162.867 111.533 163.049 112.584 163.049 113.768C163.049 114.365 162.985 114.771 162.857 114.984C162.729 115.187 162.483 115.288 162.121 115.288H151.961ZM176.031 109.784C175.924 109.955 175.812 110.077 175.695 110.152C175.577 110.216 175.428 110.248 175.247 110.248C175.055 110.248 174.847 110.195 174.623 110.088C174.409 109.981 174.159 109.864 173.871 109.736C173.583 109.597 173.252 109.475 172.878 109.368C172.516 109.261 172.084 109.208 171.583 109.208C170.804 109.208 170.191 109.373 169.743 109.704C169.305 110.035 169.087 110.467 169.087 111C169.087 111.352 169.199 111.651 169.423 111.896C169.657 112.131 169.961 112.339 170.335 112.52C170.719 112.701 171.151 112.867 171.631 113.016C172.111 113.155 172.596 113.309 173.087 113.48C173.588 113.651 174.079 113.848 174.559 114.072C175.039 114.285 175.465 114.563 175.839 114.904C176.223 115.235 176.527 115.635 176.751 116.104C176.985 116.573 177.103 117.139 177.103 117.8C177.103 118.589 176.959 119.32 176.671 119.992C176.393 120.653 175.977 121.229 175.423 121.72C174.868 122.2 174.18 122.579 173.359 122.856C172.548 123.123 171.609 123.256 170.543 123.256C169.977 123.256 169.423 123.203 168.879 123.096C168.345 123 167.828 122.861 167.327 122.68C166.836 122.499 166.377 122.285 165.951 122.04C165.535 121.795 165.167 121.528 164.847 121.24L165.759 119.736C165.876 119.555 166.015 119.416 166.174 119.32C166.334 119.224 166.537 119.176 166.783 119.176C167.028 119.176 167.257 119.245 167.471 119.384C167.695 119.523 167.951 119.672 168.239 119.832C168.527 119.992 168.863 120.141 169.247 120.28C169.641 120.419 170.137 120.488 170.735 120.488C171.204 120.488 171.604 120.435 171.935 120.328C172.276 120.211 172.553 120.061 172.767 119.88C172.991 119.699 173.15 119.491 173.247 119.256C173.353 119.011 173.407 118.76 173.407 118.504C173.407 118.12 173.289 117.805 173.055 117.56C172.831 117.315 172.527 117.101 172.142 116.92C171.769 116.739 171.337 116.579 170.847 116.44C170.367 116.291 169.871 116.131 169.359 115.96C168.857 115.789 168.361 115.592 167.871 115.368C167.391 115.133 166.959 114.84 166.575 114.488C166.201 114.136 165.897 113.704 165.663 113.192C165.439 112.68 165.327 112.061 165.327 111.336C165.327 110.664 165.46 110.024 165.727 109.416C165.993 108.808 166.383 108.28 166.895 107.832C167.417 107.373 168.063 107.011 168.831 106.744C169.609 106.467 170.505 106.328 171.519 106.328C172.649 106.328 173.679 106.515 174.607 106.888C175.535 107.261 176.308 107.752 176.927 108.36L176.031 109.784Z" fill="white"/>
</g>
<defs>
<filter id="filter0_dd_7852_623" x="107.784" y="61.2236" width="160.733" height="72.0322" filterUnits="userSpaceOnUse" color-interpolation-filters="sRGB">
<feFlood flood-opacity="0" result="BackgroundImageFix"/>
<feColorMatrix in="SourceAlpha" type="matrix" values="0 0 0 0 0 0 0 0 0 0 0 0 0 0 0 0 0 0 127 0" result="hardAlpha"/>
<feOffset dy="4"/>
<feGaussianBlur stdDeviation="3"/>
<feColorMatrix type="matrix" values="0 0 0 0 0 0 0 0 0 0 0 0 0 0 0 0 0 0 0.1 0"/>
<feBlend mode="normal" in2="BackgroundImageFix" result="effect1_dropShadow_7852_623"/>
<feColorMatrix in="SourceAlpha" type="matrix" values="0 0 0 0 0 0 0 0 0 0 0 0 0 0 0 0 0 0 127 0" result="hardAlpha"/>
<feOffset dy="2"/>
<feGaussianBlur stdDeviation="2"/>
<feColorMatrix type="matrix" values="0 0 0 0 0 0 0 0 0 0 0 0 0 0 0 0 0 0 0.06 0"/>
<feBlend mode="normal" in2="effect1_dropShadow_7852_623" result="effect2_dropShadow_7852_623"/>
<feBlend mode="normal" in="SourceGraphic" in2="effect2_dropShadow_7852_623" result="shape"/>
</filter>
<radialGradient id="paint0_radial_7852_623" cx="0" cy="0" r="1" gradientUnits="userSpaceOnUse" gradientTransform="translate(149.47 146.632) rotate(-5.74) scale(139.408)">
<stop stop-color="#808080"/>
<stop offset="0.15" stop-color="#9C9C9C"/>
<stop offset="0.42" stop-color="#C7C7C7"/>
<stop offset="0.66" stop-color="#E5E5E5"/>
<stop offset="0.86" stop-color="#F8F8F8"/>
<stop offset="1" stop-color="white"/>
</radialGradient>
<radialGradient id="paint1_radial_7852_623" cx="0" cy="0" r="1" gradientUnits="userSpaceOnUse" gradientTransform="translate(100.343 184.907) scale(178.416)">
<stop stop-color="#CE93D8"/>
<stop offset="0.19" stop-color="#D097D9"/>
<stop offset="0.38" stop-color="#D5A3DE"/>
<stop offset="0.58" stop-color="#DEB7E5"/>
<stop offset="0.77" stop-color="#EBD4EF"/>
<stop offset="0.96" stop-color="#FCF8FC"/>
<stop offset="1" stop-color="white"/>
</radialGradient>
<radialGradient id="paint2_radial_7852_623" cx="0" cy="0" r="1" gradientUnits="userSpaceOnUse" gradientTransform="translate(211.864 44.1061) scale(99.0863)">
<stop stop-color="#CF48E7"/>
<stop offset="0.1" stop-color="#AC3CC0"/>
<stop offset="0.27" stop-color="#782A86"/>
<stop offset="0.44" stop-color="#4D1B56"/>
<stop offset="0.59" stop-color="#2C0F31"/>
<stop offset="0.74" stop-color="#140716"/>
<stop offset="0.86" stop-color="#050206"/>
<stop offset="0.96"/>
</radialGradient>
</defs>
</svg>
