<svg width="262" height="281" viewBox="0 0 262 281" fill="none" xmlns="http://www.w3.org/2000/svg">
<path style="mix-blend-mode:multiply" d="M246.8 167.162C243.175 215.019 210.49 257.287 165.201 273.14C146.389 279.803 126.251 281.849 106.483 279.105C51.3708 271.467 6.43141 226.956 0.61542 169.107C-2.64906 136.506 7.16423 103.942 27.8986 78.5733C48.633 53.2043 78.5918 37.1057 111.191 33.8158C186.513 26.2492 252.797 87.8779 246.8 167.162Z" fill="url(#)"/>
<path d="M157.362 208.179C214.861 208.179 261.473 161.593 261.473 104.127C261.473 46.66 214.861 0.0742188 157.362 0.0742188C99.863 0.0742188 53.251 46.66 53.251 104.127C53.251 161.593 99.863 208.179 157.362 208.179Z" fill="#33CCFF"/>
<path d="M241.684 59.2386C241.684 70.6307 229.254 60.2695 213.706 69.6127C198.158 78.9559 208.519 94.4587 210.594 103.776C212.669 113.093 214.743 102.745 218.887 99.6328C223.03 96.5205 221.999 105.857 212.675 113.106C203.351 120.355 206.451 112.056 205.42 126.56C204.389 141.064 206.451 134.846 215.794 133.816C225.137 132.785 212.682 154.518 210.607 160.743C208.532 166.967 215.794 165.93 213.719 171.085C211.644 176.239 205.432 169.023 198.158 162.805C190.883 156.587 190.902 158.662 171.217 161.774C151.533 164.886 152.576 157.631 159.819 150.382C167.061 143.133 169.155 131.734 169.155 131.734C177.442 130.703 187.79 116.173 184.717 109.994C182.692 106.004 181.549 101.626 181.363 97.1562C181.177 92.6862 181.954 88.2285 183.64 84.0846C187.784 73.7105 181.579 66.4875 183.64 64.4062C185.702 62.3249 180.548 53.0336 182.609 46.8091C184.671 40.5846 185.722 36.435 171.211 35.417C156.7 34.3991 156.713 31.2739 141.171 19.8559C134.143 14.7207 125.422 10.6164 117.992 7.69869C138.18 -0.521857 160.436 -2.20833 181.632 2.87641C202.829 7.96115 221.898 19.5613 236.159 36.0459C237.255 43.8136 241.684 52.1194 241.684 59.2386Z" fill="#05BAD8"/>
<path d="M100.771 74.7736C107.862 75.0931 114.838 72.8927 120.462 68.5621C125.085 64.9635 125.649 66.4872 128.748 62.3441C131.848 58.2009 129.786 36.4542 138.072 45.7779C146.358 55.1016 139.11 58.2009 146.365 58.2009C153.62 58.2009 160.337 55.3934 158.794 59.2383C152.576 74.7995 154.651 84.0908 155.689 92.3771C149.471 101.694 147.396 105.838 149.471 114.124C151.546 122.41 146.365 136.908 142.215 133.796C138.066 130.684 138.072 126.547 137.028 122.41C135.984 118.274 126.654 116.192 126.654 108.943C126.654 101.694 122.511 90.3088 117.33 94.4455C112.15 98.5822 117.33 99.6325 110.081 103.769C102.833 107.906 97.6455 112.056 97.6455 103.769C97.6455 95.4829 89.3592 95.4829 89.3592 89.2714C89.3592 83.0599 88.3217 80.9851 92.4648 79.9477C96.608 78.9102 100.771 74.7736 100.771 74.7736Z" fill="#05BAD8"/>
<path d="M167.69 207.582C167.1 207.68 166.503 207.796 165.913 207.887C163.086 208.121 160.236 208.235 157.361 208.231C133.98 208.275 111.269 200.42 92.9121 185.939C96.0552 186.041 99.1558 185.191 101.808 183.501C114.244 175.215 112.182 170.041 123.561 170.041C130.817 170.041 133.935 170.041 133.935 183.501C133.935 189.09 139.816 185.447 144.309 190.75C155.261 203.712 139.349 201.325 167.69 207.582Z" fill="#05BAD8"/>
<path style="mix-blend-mode:multiply" d="M157.362 208.237C214.861 208.237 261.473 161.625 261.473 104.126C261.473 46.6276 214.861 0.015625 157.362 0.015625C99.863 0.015625 53.251 46.6276 53.251 104.126C53.251 161.625 99.863 208.237 157.362 208.237Z" fill="url(#paint1_radial_7770_1921)"/>
<path style="mix-blend-mode:screen" d="M157.362 208.237C214.861 208.237 261.473 161.625 261.473 104.126C261.473 46.6276 214.861 0.015625 157.362 0.015625C99.863 0.015625 53.251 46.6276 53.251 104.126C53.251 161.625 99.863 208.237 157.362 208.237Z" fill="url(#paint2_radial_7770_1921)"/>
<g filter="url(#filter0_dd_7770_1921)">
<path d="M94.176 106.904C94.784 106.904 95.312 106.828 95.76 106.676C96.216 106.524 96.588 106.316 96.876 106.052C97.172 105.78 97.392 105.46 97.536 105.092C97.68 104.724 97.752 104.32 97.752 103.88C97.752 103 97.46 102.324 96.876 101.852C96.3 101.38 95.416 101.144 94.224 101.144H92.16V106.904H94.176ZM102.48 116H99.564C99.012 116 98.612 115.784 98.364 115.352L94.716 109.796C94.58 109.588 94.428 109.44 94.26 109.352C94.1 109.264 93.86 109.22 93.54 109.22H92.16V116H88.932V98.648H94.224C95.4 98.648 96.408 98.772 97.248 99.02C98.096 99.26 98.788 99.6 99.324 100.04C99.868 100.48 100.268 101.008 100.524 101.624C100.78 102.232 100.908 102.904 100.908 103.64C100.908 104.224 100.82 104.776 100.644 105.296C100.476 105.816 100.228 106.288 99.9 106.712C99.58 107.136 99.18 107.508 98.7 107.828C98.228 108.148 97.688 108.4 97.08 108.584C97.288 108.704 97.48 108.848 97.656 109.016C97.832 109.176 97.992 109.368 98.136 109.592L102.48 116ZM111.021 108.428C111.021 108.044 110.965 107.684 110.853 107.348C110.749 107.004 110.589 106.704 110.373 106.448C110.157 106.192 109.881 105.992 109.545 105.848C109.217 105.696 108.833 105.62 108.393 105.62C107.537 105.62 106.861 105.864 106.365 106.352C105.877 106.84 105.565 107.532 105.429 108.428H111.021ZM105.369 110.216C105.417 110.848 105.529 111.396 105.705 111.86C105.881 112.316 106.113 112.696 106.401 113C106.689 113.296 107.029 113.52 107.421 113.672C107.821 113.816 108.261 113.888 108.741 113.888C109.221 113.888 109.633 113.832 109.977 113.72C110.329 113.608 110.633 113.484 110.889 113.348C111.153 113.212 111.381 113.088 111.573 112.976C111.773 112.864 111.965 112.808 112.149 112.808C112.397 112.808 112.581 112.9 112.701 113.084L113.553 114.164C113.225 114.548 112.857 114.872 112.449 115.136C112.041 115.392 111.613 115.6 111.165 115.76C110.725 115.912 110.273 116.02 109.809 116.084C109.353 116.148 108.909 116.18 108.477 116.18C107.621 116.18 106.825 116.04 106.089 115.76C105.353 115.472 104.713 115.052 104.169 114.5C103.625 113.94 103.197 113.252 102.885 112.436C102.573 111.612 102.417 110.66 102.417 109.58C102.417 108.74 102.553 107.952 102.825 107.216C103.097 106.472 103.485 105.828 103.989 105.284C104.501 104.732 105.121 104.296 105.849 103.976C106.585 103.656 107.413 103.496 108.333 103.496C109.109 103.496 109.825 103.62 110.481 103.868C111.137 104.116 111.701 104.48 112.173 104.96C112.645 105.432 113.013 106.016 113.277 106.712C113.549 107.4 113.685 108.188 113.685 109.076C113.685 109.524 113.637 109.828 113.541 109.988C113.445 110.14 113.261 110.216 112.989 110.216H105.369ZM123.637 106.832C123.301 106.424 122.933 106.136 122.533 105.968C122.141 105.8 121.717 105.716 121.261 105.716C120.813 105.716 120.409 105.8 120.049 105.968C119.689 106.136 119.381 106.392 119.125 106.736C118.869 107.072 118.673 107.504 118.537 108.032C118.401 108.552 118.333 109.168 118.333 109.88C118.333 110.6 118.389 111.212 118.501 111.716C118.621 112.212 118.789 112.62 119.005 112.94C119.221 113.252 119.485 113.48 119.797 113.624C120.109 113.76 120.457 113.828 120.841 113.828C121.457 113.828 121.981 113.7 122.413 113.444C122.845 113.188 123.253 112.824 123.637 112.352V106.832ZM126.601 98.168V116H124.789C124.397 116 124.149 115.82 124.045 115.46L123.793 114.272C123.297 114.84 122.725 115.3 122.077 115.652C121.437 116.004 120.689 116.18 119.833 116.18C119.161 116.18 118.545 116.04 117.985 115.76C117.425 115.48 116.941 115.076 116.533 114.548C116.133 114.012 115.821 113.352 115.597 112.568C115.381 111.784 115.273 110.888 115.273 109.88C115.273 108.968 115.397 108.12 115.645 107.336C115.893 106.552 116.249 105.872 116.713 105.296C117.177 104.72 117.733 104.272 118.381 103.952C119.029 103.624 119.757 103.46 120.565 103.46C121.253 103.46 121.841 103.568 122.329 103.784C122.817 104 123.253 104.292 123.637 104.66V98.168H126.601ZM137.459 108.428C137.459 108.044 137.403 107.684 137.291 107.348C137.187 107.004 137.027 106.704 136.811 106.448C136.595 106.192 136.319 105.992 135.983 105.848C135.655 105.696 135.271 105.62 134.831 105.62C133.975 105.62 133.299 105.864 132.803 106.352C132.315 106.84 132.003 107.532 131.867 108.428H137.459ZM131.807 110.216C131.855 110.848 131.967 111.396 132.143 111.86C132.319 112.316 132.551 112.696 132.839 113C133.127 113.296 133.467 113.52 133.859 113.672C134.259 113.816 134.699 113.888 135.179 113.888C135.659 113.888 136.071 113.832 136.415 113.72C136.767 113.608 137.071 113.484 137.327 113.348C137.591 113.212 137.819 113.088 138.011 112.976C138.211 112.864 138.403 112.808 138.587 112.808C138.835 112.808 139.019 112.9 139.139 113.084L139.991 114.164C139.663 114.548 139.295 114.872 138.887 115.136C138.479 115.392 138.051 115.6 137.603 115.76C137.163 115.912 136.711 116.02 136.247 116.084C135.791 116.148 135.347 116.18 134.915 116.18C134.059 116.18 133.263 116.04 132.527 115.76C131.791 115.472 131.151 115.052 130.607 114.5C130.063 113.94 129.635 113.252 129.323 112.436C129.011 111.612 128.854 110.66 128.854 109.58C128.854 108.74 128.991 107.952 129.263 107.216C129.535 106.472 129.923 105.828 130.427 105.284C130.939 104.732 131.559 104.296 132.287 103.976C133.023 103.656 133.851 103.496 134.771 103.496C135.547 103.496 136.263 103.62 136.919 103.868C137.575 104.116 138.139 104.48 138.611 104.96C139.083 105.432 139.451 106.016 139.715 106.712C139.987 107.4 140.122 108.188 140.122 109.076C140.122 109.524 140.075 109.828 139.979 109.988C139.883 110.14 139.699 110.216 139.427 110.216H131.807ZM149.859 106.088C149.779 106.216 149.695 106.308 149.607 106.364C149.519 106.412 149.407 106.436 149.271 106.436C149.127 106.436 148.971 106.396 148.803 106.316C148.643 106.236 148.455 106.148 148.239 106.052C148.023 105.948 147.775 105.856 147.495 105.776C147.223 105.696 146.899 105.656 146.523 105.656C145.939 105.656 145.479 105.78 145.143 106.028C144.815 106.276 144.651 106.6 144.651 107C144.651 107.264 144.735 107.488 144.903 107.672C145.079 107.848 145.307 108.004 145.587 108.14C145.875 108.276 146.199 108.4 146.559 108.512C146.919 108.616 147.283 108.732 147.651 108.86C148.027 108.988 148.395 109.136 148.755 109.304C149.115 109.464 149.435 109.672 149.715 109.928C150.003 110.176 150.231 110.476 150.399 110.828C150.575 111.18 150.663 111.604 150.663 112.1C150.663 112.692 150.555 113.24 150.339 113.744C150.131 114.24 149.819 114.672 149.403 115.04C148.987 115.4 148.471 115.684 147.855 115.892C147.247 116.092 146.543 116.192 145.743 116.192C145.319 116.192 144.903 116.152 144.495 116.072C144.095 116 143.707 115.896 143.331 115.76C142.963 115.624 142.619 115.464 142.299 115.28C141.987 115.096 141.711 114.896 141.471 114.68L142.155 113.552C142.243 113.416 142.347 113.312 142.467 113.24C142.587 113.168 142.739 113.132 142.923 113.132C143.107 113.132 143.279 113.184 143.439 113.288C143.607 113.392 143.799 113.504 144.015 113.624C144.231 113.744 144.483 113.856 144.771 113.96C145.067 114.064 145.439 114.116 145.887 114.116C146.239 114.116 146.539 114.076 146.787 113.996C147.043 113.908 147.251 113.796 147.411 113.66C147.579 113.524 147.699 113.368 147.771 113.192C147.851 113.008 147.891 112.82 147.891 112.628C147.891 112.34 147.803 112.104 147.627 111.92C147.459 111.736 147.231 111.576 146.943 111.44C146.663 111.304 146.339 111.184 145.971 111.08C145.611 110.968 145.239 110.848 144.855 110.72C144.479 110.592 144.107 110.444 143.739 110.276C143.379 110.1 143.055 109.88 142.767 109.616C142.487 109.352 142.259 109.028 142.083 108.644C141.915 108.26 141.831 107.796 141.831 107.252C141.831 106.748 141.931 106.268 142.131 105.812C142.331 105.356 142.623 104.96 143.007 104.624C143.399 104.28 143.883 104.008 144.459 103.808C145.043 103.6 145.715 103.496 146.475 103.496C147.323 103.496 148.095 103.636 148.791 103.916C149.487 104.196 150.067 104.564 150.531 105.02L149.859 106.088ZM168.438 101.804C168.342 101.972 168.238 102.096 168.126 102.176C168.022 102.248 167.89 102.284 167.73 102.284C167.562 102.284 167.378 102.224 167.178 102.104C166.986 101.976 166.754 101.836 166.482 101.684C166.21 101.532 165.89 101.396 165.522 101.276C165.162 101.148 164.734 101.084 164.238 101.084C163.79 101.084 163.398 101.14 163.062 101.252C162.726 101.356 162.442 101.504 162.21 101.696C161.986 101.888 161.818 102.12 161.706 102.392C161.594 102.656 161.538 102.948 161.538 103.268C161.538 103.676 161.65 104.016 161.874 104.288C162.106 104.56 162.41 104.792 162.786 104.984C163.162 105.176 163.59 105.348 164.07 105.5C164.55 105.652 165.042 105.816 165.546 105.992C166.05 106.16 166.542 106.36 167.022 106.592C167.502 106.816 167.93 107.104 168.306 107.456C168.682 107.8 168.982 108.224 169.206 108.728C169.438 109.232 169.554 109.844 169.554 110.564C169.554 111.348 169.418 112.084 169.146 112.772C168.882 113.452 168.49 114.048 167.97 114.56C167.458 115.064 166.83 115.464 166.086 115.76C165.342 116.048 164.49 116.192 163.53 116.192C162.978 116.192 162.434 116.136 161.898 116.024C161.362 115.92 160.846 115.768 160.35 115.568C159.862 115.368 159.402 115.128 158.97 114.848C158.538 114.568 158.154 114.256 157.818 113.912L158.766 112.364C158.846 112.252 158.95 112.16 159.078 112.088C159.206 112.008 159.342 111.968 159.486 111.968C159.686 111.968 159.902 112.052 160.134 112.22C160.366 112.38 160.642 112.56 160.962 112.76C161.282 112.96 161.654 113.144 162.078 113.312C162.51 113.472 163.026 113.552 163.626 113.552C164.546 113.552 165.258 113.336 165.762 112.904C166.266 112.464 166.518 111.836 166.518 111.02C166.518 110.564 166.402 110.192 166.17 109.904C165.946 109.616 165.646 109.376 165.27 109.184C164.894 108.984 164.466 108.816 163.986 108.68C163.506 108.544 163.018 108.396 162.522 108.236C162.026 108.076 161.538 107.884 161.058 107.66C160.578 107.436 160.15 107.144 159.774 106.784C159.398 106.424 159.094 105.976 158.862 105.44C158.638 104.896 158.526 104.228 158.526 103.436C158.526 102.804 158.65 102.188 158.898 101.588C159.154 100.988 159.522 100.456 160.002 99.992C160.482 99.528 161.074 99.156 161.778 98.876C162.482 98.596 163.29 98.456 164.202 98.456C165.226 98.456 166.17 98.616 167.034 98.936C167.898 99.256 168.634 99.704 169.242 100.28L168.438 101.804ZM177.303 103.496C178.215 103.496 179.043 103.644 179.787 103.94C180.539 104.236 181.179 104.656 181.707 105.2C182.243 105.744 182.655 106.408 182.943 107.192C183.231 107.976 183.375 108.852 183.375 109.82C183.375 110.796 183.231 111.676 182.943 112.46C182.655 113.244 182.243 113.912 181.707 114.464C181.179 115.016 180.539 115.44 179.787 115.736C179.043 116.032 178.215 116.18 177.303 116.18C176.383 116.18 175.547 116.032 174.795 115.736C174.043 115.44 173.399 115.016 172.863 114.464C172.335 113.912 171.923 113.244 171.627 112.46C171.339 111.676 171.195 110.796 171.195 109.82C171.195 108.852 171.339 107.976 171.627 107.192C171.923 106.408 172.335 105.744 172.863 105.2C173.399 104.656 174.043 104.236 174.795 103.94C175.547 103.644 176.383 103.496 177.303 103.496ZM177.303 113.9C178.327 113.9 179.083 113.556 179.571 112.868C180.067 112.18 180.315 111.172 180.315 109.844C180.315 108.516 180.067 107.504 179.571 106.808C179.083 106.112 178.327 105.764 177.303 105.764C176.263 105.764 175.491 106.116 174.987 106.82C174.491 107.516 174.243 108.524 174.243 109.844C174.243 111.164 174.491 112.172 174.987 112.868C175.491 113.556 176.263 113.9 177.303 113.9ZM194.456 106.292C194.368 106.404 194.28 106.492 194.192 106.556C194.112 106.62 193.992 106.652 193.832 106.652C193.68 106.652 193.532 106.608 193.388 106.52C193.244 106.424 193.072 106.32 192.872 106.208C192.672 106.088 192.432 105.984 192.152 105.896C191.88 105.8 191.54 105.752 191.132 105.752C190.612 105.752 190.156 105.848 189.764 106.04C189.372 106.224 189.044 106.492 188.78 106.844C188.524 107.196 188.332 107.624 188.204 108.128C188.076 108.624 188.012 109.188 188.012 109.82C188.012 110.476 188.08 111.06 188.216 111.572C188.36 112.084 188.564 112.516 188.828 112.868C189.092 113.212 189.412 113.476 189.788 113.66C190.164 113.836 190.588 113.924 191.06 113.924C191.532 113.924 191.912 113.868 192.2 113.756C192.496 113.636 192.744 113.508 192.944 113.372C193.144 113.228 193.316 113.1 193.46 112.988C193.612 112.868 193.78 112.808 193.964 112.808C194.204 112.808 194.384 112.9 194.504 113.084L195.356 114.164C195.028 114.548 194.672 114.872 194.288 115.136C193.904 115.392 193.504 115.6 193.088 115.76C192.68 115.912 192.256 116.02 191.816 116.084C191.384 116.148 190.952 116.18 190.52 116.18C189.76 116.18 189.044 116.04 188.372 115.76C187.7 115.472 187.112 115.056 186.608 114.512C186.104 113.968 185.704 113.304 185.408 112.52C185.12 111.728 184.976 110.828 184.976 109.82C184.976 108.916 185.104 108.08 185.36 107.312C185.624 106.536 186.008 105.868 186.512 105.308C187.016 104.74 187.64 104.296 188.384 103.976C189.128 103.656 189.984 103.496 190.952 103.496C191.872 103.496 192.676 103.644 193.364 103.94C194.06 104.236 194.684 104.66 195.236 105.212L194.456 106.292ZM200.286 103.688V116H197.31V103.688H200.286ZM200.694 100.1C200.694 100.356 200.642 100.596 200.538 100.82C200.434 101.044 200.294 101.24 200.118 101.408C199.95 101.576 199.75 101.712 199.518 101.816C199.286 101.912 199.038 101.96 198.774 101.96C198.518 101.96 198.274 101.912 198.042 101.816C197.818 101.712 197.622 101.576 197.454 101.408C197.286 101.24 197.15 101.044 197.046 100.82C196.95 100.596 196.902 100.356 196.902 100.1C196.902 99.836 196.95 99.588 197.046 99.356C197.15 99.124 197.286 98.924 197.454 98.756C197.622 98.588 197.818 98.456 198.042 98.36C198.274 98.256 198.518 98.204 198.774 98.204C199.038 98.204 199.286 98.256 199.518 98.36C199.75 98.456 199.95 98.588 200.118 98.756C200.294 98.924 200.434 99.124 200.538 99.356C200.642 99.588 200.694 99.836 200.694 100.1ZM209.812 110.744C208.956 110.784 208.236 110.86 207.652 110.972C207.068 111.076 206.6 111.212 206.248 111.38C205.896 111.548 205.644 111.744 205.492 111.968C205.34 112.192 205.264 112.436 205.264 112.7C205.264 113.22 205.416 113.592 205.72 113.816C206.032 114.04 206.436 114.152 206.932 114.152C207.54 114.152 208.064 114.044 208.504 113.828C208.952 113.604 209.388 113.268 209.812 112.82V110.744ZM203.02 105.404C204.436 104.108 206.14 103.46 208.132 103.46C208.852 103.46 209.496 103.58 210.064 103.82C210.632 104.052 211.112 104.38 211.504 104.804C211.896 105.22 212.192 105.72 212.392 106.304C212.6 106.888 212.704 107.528 212.704 108.224V116H211.36C211.08 116 210.864 115.96 210.712 115.88C210.56 115.792 210.44 115.62 210.352 115.364L210.088 114.476C209.776 114.756 209.472 115.004 209.176 115.22C208.88 115.428 208.572 115.604 208.252 115.748C207.932 115.892 207.588 116 207.22 116.072C206.86 116.152 206.46 116.192 206.02 116.192C205.5 116.192 205.02 116.124 204.58 115.988C204.14 115.844 203.76 115.632 203.44 115.352C203.12 115.072 202.872 114.724 202.696 114.308C202.52 113.892 202.432 113.408 202.432 112.856C202.432 112.544 202.484 112.236 202.588 111.932C202.692 111.62 202.86 111.324 203.092 111.044C203.332 110.764 203.64 110.5 204.016 110.252C204.392 110.004 204.852 109.788 205.396 109.604C205.948 109.42 206.588 109.272 207.316 109.16C208.044 109.04 208.876 108.968 209.812 108.944V108.224C209.812 107.4 209.636 106.792 209.284 106.4C208.932 106 208.424 105.8 207.76 105.8C207.28 105.8 206.88 105.856 206.56 105.968C206.248 106.08 205.972 106.208 205.732 106.352C205.492 106.488 205.272 106.612 205.072 106.724C204.88 106.836 204.664 106.892 204.424 106.892C204.216 106.892 204.04 106.84 203.896 106.736C203.752 106.624 203.636 106.496 203.548 106.352L203.02 105.404ZM218.567 103.688V116H215.591V103.688H218.567ZM218.975 100.1C218.975 100.356 218.923 100.596 218.819 100.82C218.715 101.044 218.575 101.24 218.399 101.408C218.231 101.576 218.031 101.712 217.799 101.816C217.567 101.912 217.319 101.96 217.055 101.96C216.799 101.96 216.555 101.912 216.323 101.816C216.099 101.712 215.903 101.576 215.735 101.408C215.567 101.24 215.431 101.044 215.327 100.82C215.231 100.596 215.183 100.356 215.183 100.1C215.183 99.836 215.231 99.588 215.327 99.356C215.431 99.124 215.567 98.924 215.735 98.756C215.903 98.588 216.099 98.456 216.323 98.36C216.555 98.256 216.799 98.204 217.055 98.204C217.319 98.204 217.567 98.256 217.799 98.36C218.031 98.456 218.231 98.588 218.399 98.756C218.575 98.924 218.715 99.124 218.819 99.356C218.923 99.588 218.975 99.836 218.975 100.1ZM229.101 106.088C229.021 106.216 228.937 106.308 228.849 106.364C228.761 106.412 228.649 106.436 228.513 106.436C228.369 106.436 228.213 106.396 228.045 106.316C227.885 106.236 227.697 106.148 227.481 106.052C227.265 105.948 227.017 105.856 226.737 105.776C226.465 105.696 226.141 105.656 225.765 105.656C225.181 105.656 224.721 105.78 224.385 106.028C224.057 106.276 223.893 106.6 223.893 107C223.893 107.264 223.977 107.488 224.145 107.672C224.321 107.848 224.549 108.004 224.829 108.14C225.117 108.276 225.441 108.4 225.801 108.512C226.161 108.616 226.525 108.732 226.893 108.86C227.269 108.988 227.637 109.136 227.997 109.304C228.357 109.464 228.677 109.672 228.957 109.928C229.245 110.176 229.473 110.476 229.641 110.828C229.817 111.18 229.905 111.604 229.905 112.1C229.905 112.692 229.797 113.24 229.581 113.744C229.373 114.24 229.061 114.672 228.645 115.04C228.229 115.4 227.713 115.684 227.097 115.892C226.489 116.092 225.785 116.192 224.985 116.192C224.561 116.192 224.145 116.152 223.737 116.072C223.337 116 222.949 115.896 222.573 115.76C222.205 115.624 221.861 115.464 221.541 115.28C221.229 115.096 220.953 114.896 220.713 114.68L221.397 113.552C221.485 113.416 221.589 113.312 221.709 113.24C221.829 113.168 221.981 113.132 222.165 113.132C222.349 113.132 222.521 113.184 222.681 113.288C222.849 113.392 223.041 113.504 223.257 113.624C223.473 113.744 223.725 113.856 224.013 113.96C224.309 114.064 224.681 114.116 225.129 114.116C225.481 114.116 225.781 114.076 226.029 113.996C226.285 113.908 226.493 113.796 226.653 113.66C226.821 113.524 226.941 113.368 227.013 113.192C227.093 113.008 227.133 112.82 227.133 112.628C227.133 112.34 227.045 112.104 226.869 111.92C226.701 111.736 226.473 111.576 226.185 111.44C225.905 111.304 225.581 111.184 225.213 111.08C224.853 110.968 224.481 110.848 224.097 110.72C223.721 110.592 223.349 110.444 222.981 110.276C222.621 110.1 222.297 109.88 222.009 109.616C221.729 109.352 221.501 109.028 221.325 108.644C221.157 108.26 221.073 107.796 221.073 107.252C221.073 106.748 221.173 106.268 221.373 105.812C221.573 105.356 221.865 104.96 222.249 104.624C222.641 104.28 223.125 104.008 223.701 103.808C224.285 103.6 224.957 103.496 225.717 103.496C226.565 103.496 227.337 103.636 228.033 103.916C228.729 104.196 229.309 104.564 229.773 105.02L229.101 106.088Z" fill="#081448"/>
</g>
<defs>
<filter id="filter0_dd_7770_1921" x="82.9321" y="96.168" width="152.973" height="30.0244" filterUnits="userSpaceOnUse" color-interpolation-filters="sRGB">
<feFlood flood-opacity="0" result="BackgroundImageFix"/>
<feColorMatrix in="SourceAlpha" type="matrix" values="0 0 0 0 0 0 0 0 0 0 0 0 0 0 0 0 0 0 127 0" result="hardAlpha"/>
<feOffset dy="4"/>
<feGaussianBlur stdDeviation="3"/>
<feColorMatrix type="matrix" values="0 0 0 0 0 0 0 0 0 0 0 0 0 0 0 0 0 0 0.1 0"/>
<feBlend mode="normal" in2="BackgroundImageFix" result="effect1_dropShadow_7770_1921"/>
<feColorMatrix in="SourceAlpha" type="matrix" values="0 0 0 0 0 0 0 0 0 0 0 0 0 0 0 0 0 0 127 0" result="hardAlpha"/>
<feOffset dy="2"/>
<feGaussianBlur stdDeviation="2"/>
<feColorMatrix type="matrix" values="0 0 0 0 0 0 0 0 0 0 0 0 0 0 0 0 0 0 0.06 0"/>
<feBlend mode="normal" in2="effect1_dropShadow_7770_1921" result="effect2_dropShadow_7770_1921"/>
<feBlend mode="normal" in="SourceGraphic" in2="effect2_dropShadow_7770_1921" result="shape"/>
</filter>
<radialGradient id="paint0_radial_7770_1921" cx="0" cy="0" r="1" gradientUnits="userSpaceOnUse" gradientTransform="translate(123.56 156.71) rotate(-5.74) scale(123.562)">
<stop stop-color="#808080"/>
<stop offset="0.15" stop-color="#9C9C9C"/>
<stop offset="0.42" stop-color="#C7C7C7"/>
<stop offset="0.66" stop-color="#E5E5E5"/>
<stop offset="0.86" stop-color="#F8F8F8"/>
<stop offset="1" stop-color="white"/>
</radialGradient>
<radialGradient id="paint1_radial_7770_1921" cx="0" cy="0" r="1" gradientUnits="userSpaceOnUse" gradientTransform="translate(80.8513 197.989) scale(187.81)">
<stop stop-color="#29A9B3"/>
<stop offset="0.14" stop-color="#2DABB4"/>
<stop offset="0.27" stop-color="#39AFB9"/>
<stop offset="0.41" stop-color="#4DB8C0"/>
<stop offset="0.55" stop-color="#6AC3CA"/>
<stop offset="0.69" stop-color="#8ED2D7"/>
<stop offset="0.82" stop-color="#BBE4E7"/>
<stop offset="0.96" stop-color="#EFF8F9"/>
<stop offset="1" stop-color="white"/>
</radialGradient>
<radialGradient id="paint2_radial_7770_1921" cx="0" cy="0" r="1" gradientUnits="userSpaceOnUse" gradientTransform="translate(198.237 49.7809) scale(104.303)">
<stop stop-color="#6CE6E1"/>
<stop offset="0.1" stop-color="#5AC0BC"/>
<stop offset="0.27" stop-color="#3F8683"/>
<stop offset="0.44" stop-color="#285654"/>
<stop offset="0.59" stop-color="#173130"/>
<stop offset="0.73" stop-color="#0A1615"/>
<stop offset="0.86" stop-color="#030606"/>
<stop offset="0.96"/>
</radialGradient>
</defs>
</svg>
