<svg width="262" height="281" fill="none" xmlns="http://www.w3.org/2000/svg"><path style="mix-blend-mode:multiply" d="M246.8 167.162c-3.625 47.857-36.31 90.125-81.599 105.978a124.573 124.573 0 0 1-58.718 5.965C51.371 271.467 6.431 226.956.615 169.107A123.6 123.6 0 0 1 111.191 33.816c75.322-7.567 141.606 54.062 135.609 133.346z" fill="url(#)"/><path d="M157.362 208.179c57.499 0 104.111-46.586 104.111-104.052C261.473 46.66 214.861.074 157.362.074S53.251 46.66 53.251 104.127c0 57.466 46.612 104.052 104.111 104.052z" fill="#3CF"/><path d="M241.684 59.239c0 11.392-12.43 1.03-27.978 10.374-15.548 9.343-5.187 24.846-3.112 34.163 2.075 9.317 4.149-1.031 8.293-4.143 4.143-3.112 3.112 6.224-6.212 13.473-9.324 7.249-6.224-1.05-7.255 13.454-1.031 14.504 1.031 8.286 10.374 7.256 9.343-1.031-3.112 20.702-5.187 26.927-2.075 6.224 5.187 5.187 3.112 10.342-2.075 5.154-8.287-2.062-15.561-8.28-7.275-6.218-7.256-4.143-26.941-1.031-19.684 3.112-18.641-4.143-11.398-11.392 7.242-7.249 9.336-18.648 9.336-18.648 8.287-1.031 18.635-15.561 15.562-21.74a31.235 31.235 0 0 1-1.077-25.91c4.144-10.374-2.061-17.597 0-19.678 2.062-2.081-3.092-11.372-1.031-17.597 2.062-6.224 3.113-10.374-11.398-11.392-14.511-1.018-14.498-4.143-30.04-15.561-7.028-5.135-15.749-9.24-23.179-12.157a104.258 104.258 0 0 1 118.167 28.347c1.096 7.768 5.525 16.073 5.525 23.193z" fill="#05BAD8"/><path d="M100.771 74.774a30.058 30.058 0 0 0 19.691-6.212c4.623-3.599 5.187-2.075 8.286-6.218 3.1-4.143 1.038-25.89 9.324-16.566 8.286 9.324 1.038 12.423 8.293 12.423 7.255 0 13.972-2.808 12.429 1.037-6.218 15.561-4.143 24.853-3.105 33.14-6.218 9.316-8.293 13.46-6.218 21.746 2.075 8.286-3.106 22.784-7.256 19.672-4.149-3.112-4.143-7.249-5.187-11.386-1.044-4.136-10.374-6.218-10.374-13.467 0-7.249-4.143-18.634-9.324-14.498-5.18 4.137 0 5.188-7.249 9.324-7.248 4.137-12.436 8.287-12.436 0 0-8.286-8.286-8.286-8.286-14.498 0-6.211-1.037-8.286 3.106-9.323 4.143-1.038 8.306-5.174 8.306-5.174zM167.69 207.582c-.59.098-1.187.214-1.777.305-2.827.234-5.677.348-8.552.344a103.745 103.745 0 0 1-64.449-22.292 15.612 15.612 0 0 0 8.896-2.438c12.436-8.286 10.374-13.46 21.753-13.46 7.256 0 10.374 0 10.374 13.46 0 5.589 5.881 1.946 10.374 7.249 10.952 12.962-4.96 10.575 23.381 16.832z" fill="#05BAD8"/><path style="mix-blend-mode:multiply" d="M157.362 208.237c57.499 0 104.111-46.612 104.111-104.111 0-57.498-46.612-104.11-104.111-104.11S53.251 46.628 53.251 104.126c0 57.499 46.612 104.111 104.111 104.111z" fill="url(#a)"/><path style="mix-blend-mode:screen" d="M157.362 208.237c57.499 0 104.111-46.612 104.111-104.111 0-57.498-46.612-104.11-104.111-104.11S53.251 46.628 53.251 104.126c0 57.499 46.612 104.111 104.111 104.111z" fill="url(#b)"/><g filter="url(#c)"><path d="M94.176 106.904c.608 0 1.136-.076 1.584-.228.456-.152.828-.36 1.116-.624.296-.272.516-.592.66-.96.144-.368.216-.772.216-1.212 0-.88-.292-1.556-.876-2.028-.576-.472-1.46-.708-2.652-.708H92.16v5.76h2.016zM102.48 116h-2.916c-.552 0-.952-.216-1.2-.648l-3.648-5.556a1.26 1.26 0 0 0-.456-.444c-.16-.088-.4-.132-.72-.132h-1.38V116h-3.228V98.648h5.292c1.176 0 2.184.124 3.024.372.848.24 1.54.58 2.076 1.02.544.44.944.968 1.2 1.584.256.608.384 1.28.384 2.016a5.13 5.13 0 0 1-.264 1.656c-.168.52-.416.992-.744 1.416-.32.424-.72.796-1.2 1.116a5.923 5.923 0 0 1-1.62.756c.208.12.4.264.576.432.176.16.336.352.48.576L102.48 116zm8.541-7.572c0-.384-.056-.744-.168-1.08a2.498 2.498 0 0 0-.48-.9 2.192 2.192 0 0 0-.828-.6c-.328-.152-.712-.228-1.152-.228-.856 0-1.532.244-2.028.732-.488.488-.8 1.18-.936 2.076h5.592zm-5.652 1.788c.048.632.16 1.18.336 1.644.176.456.408.836.696 1.14.288.296.628.52 1.02.672.4.144.84.216 1.32.216.48 0 .892-.056 1.236-.168a5.52 5.52 0 0 0 .912-.372 15.1 15.1 0 0 0 .684-.372c.2-.112.392-.168.576-.168.248 0 .432.092.552.276l.852 1.08a5.072 5.072 0 0 1-1.104.972 6.562 6.562 0 0 1-1.284.624c-.44.152-.892.26-1.356.324a9.58 9.58 0 0 1-1.332.096 6.66 6.66 0 0 1-2.388-.42 5.453 5.453 0 0 1-1.92-1.26c-.544-.56-.972-1.248-1.284-2.064-.312-.824-.468-1.776-.468-2.856 0-.84.136-1.628.408-2.364a5.672 5.672 0 0 1 1.164-1.932 5.546 5.546 0 0 1 1.86-1.308c.736-.32 1.564-.48 2.484-.48.776 0 1.492.124 2.148.372.656.248 1.22.612 1.692 1.092.472.472.84 1.056 1.104 1.752.272.688.408 1.476.408 2.364 0 .448-.048.752-.144.912-.096.152-.28.228-.552.228h-7.62zm18.268-3.384c-.336-.408-.704-.696-1.104-.864a3.195 3.195 0 0 0-1.272-.252c-.448 0-.852.084-1.212.252-.36.168-.668.424-.924.768-.256.336-.452.768-.588 1.296-.136.52-.204 1.136-.204 1.848 0 .72.056 1.332.168 1.836.12.496.288.904.504 1.224.216.312.48.54.792.684.312.136.66.204 1.044.204.616 0 1.14-.128 1.572-.384.432-.256.84-.62 1.224-1.092v-5.52zm2.964-8.664V116h-1.812c-.392 0-.64-.18-.744-.54l-.252-1.188a6.182 6.182 0 0 1-1.716 1.38c-.64.352-1.388.528-2.244.528-.672 0-1.288-.14-1.848-.42a4.196 4.196 0 0 1-1.452-1.212c-.4-.536-.712-1.196-.936-1.98-.216-.784-.324-1.68-.324-2.688 0-.912.124-1.76.372-2.544a6.19 6.19 0 0 1 1.068-2.04 4.918 4.918 0 0 1 1.668-1.344c.648-.328 1.376-.492 2.184-.492.688 0 1.276.108 1.764.324a4.52 4.52 0 0 1 1.308.876v-6.492h2.964zm10.858 10.26c0-.384-.056-.744-.168-1.08a2.498 2.498 0 0 0-.48-.9 2.192 2.192 0 0 0-.828-.6c-.328-.152-.712-.228-1.152-.228-.856 0-1.532.244-2.028.732-.488.488-.8 1.18-.936 2.076h5.592zm-5.652 1.788c.048.632.16 1.18.336 1.644.176.456.408.836.696 1.14.288.296.628.52 1.02.672.4.144.84.216 1.32.216.48 0 .892-.056 1.236-.168a5.52 5.52 0 0 0 .912-.372 15.1 15.1 0 0 0 .684-.372c.2-.112.392-.168.576-.168.248 0 .432.092.552.276l.852 1.08a5.072 5.072 0 0 1-1.104.972 6.562 6.562 0 0 1-1.284.624c-.44.152-.892.26-1.356.324a9.58 9.58 0 0 1-1.332.096 6.66 6.66 0 0 1-2.388-.42 5.453 5.453 0 0 1-1.92-1.26c-.544-.56-.972-1.248-1.284-2.064-.312-.824-.469-1.776-.469-2.856 0-.84.137-1.628.409-2.364a5.672 5.672 0 0 1 1.164-1.932 5.546 5.546 0 0 1 1.86-1.308c.736-.32 1.564-.48 2.484-.48.776 0 1.492.124 2.148.372.656.248 1.22.612 1.692 1.092.472.472.84 1.056 1.104 1.752.272.688.407 1.476.407 2.364 0 .448-.047.752-.143.912-.096.152-.28.228-.552.228h-7.62zm18.052-4.128a.858.858 0 0 1-.252.276.697.697 0 0 1-.336.072c-.144 0-.3-.04-.468-.12a13.91 13.91 0 0 0-.564-.264 4.687 4.687 0 0 0-.744-.276 3.47 3.47 0 0 0-.972-.12c-.584 0-1.044.124-1.38.372a1.163 1.163 0 0 0-.492.972.96.96 0 0 0 .252.672c.176.176.404.332.684.468.288.136.612.26.972.372.36.104.724.22 1.092.348.376.128.744.276 1.104.444.36.16.68.368.96.624.288.248.516.548.684.9.176.352.264.776.264 1.272a4.13 4.13 0 0 1-.324 1.644c-.208.496-.52.928-.936 1.296-.416.36-.932.644-1.548.852-.608.2-1.312.3-2.112.3-.424 0-.84-.04-1.248-.12a6.782 6.782 0 0 1-2.196-.792 5.122 5.122 0 0 1-.828-.6l.684-1.128a.967.967 0 0 1 .312-.312.875.875 0 0 1 .456-.108.93.93 0 0 1 .516.156c.168.104.36.216.576.336.216.12.468.232.756.336.296.104.668.156 1.116.156.352 0 .652-.04.9-.12.256-.088.464-.2.624-.336.168-.136.288-.292.36-.468.08-.184.12-.372.12-.564 0-.288-.088-.524-.264-.708a2.162 2.162 0 0 0-.684-.48 5.908 5.908 0 0 0-.972-.36c-.36-.112-.732-.232-1.116-.36a11.992 11.992 0 0 1-1.116-.444 4.084 4.084 0 0 1-.972-.66 3.083 3.083 0 0 1-.684-.972c-.168-.384-.252-.848-.252-1.392 0-.504.1-.984.3-1.44.2-.456.492-.852.876-1.188.392-.344.876-.616 1.452-.816.584-.208 1.256-.312 2.016-.312.848 0 1.62.14 2.316.42.696.28 1.276.648 1.74 1.104l-.672 1.068zm18.579-4.284c-.096.168-.2.292-.312.372a.68.68 0 0 1-.396.108c-.168 0-.352-.06-.552-.18a10.543 10.543 0 0 0-.696-.42 5.41 5.41 0 0 0-.96-.408c-.36-.128-.788-.192-1.284-.192-.448 0-.84.056-1.176.168a2.46 2.46 0 0 0-.852.444 1.814 1.814 0 0 0-.504.696 2.22 2.22 0 0 0-.168.876c0 .408.112.748.336 1.02.232.272.536.504.912.696.376.192.804.364 1.284.516.48.152.972.316 1.476.492.504.168.996.368 1.476.6.48.224.908.512 1.284.864.376.344.676.768.9 1.272.232.504.348 1.116.348 1.836a5.95 5.95 0 0 1-.408 2.208 5.043 5.043 0 0 1-1.176 1.788c-.512.504-1.14.904-1.884 1.2-.744.288-1.596.432-2.556.432a7.958 7.958 0 0 1-1.632-.168 8.415 8.415 0 0 1-1.548-.456c-.488-.2-.948-.44-1.38-.72a6.682 6.682 0 0 1-1.152-.936l.948-1.548a.948.948 0 0 1 .312-.276.757.757 0 0 1 .408-.12c.2 0 .416.084.648.252.232.16.508.34.828.54.32.2.692.384 1.116.552.432.16.948.24 1.548.24.92 0 1.632-.216 2.136-.648.504-.44.756-1.068.756-1.884 0-.456-.116-.828-.348-1.116a2.634 2.634 0 0 0-.9-.72 6.508 6.508 0 0 0-1.284-.504c-.48-.136-.968-.284-1.464-.444-.496-.16-.984-.352-1.464-.576a4.743 4.743 0 0 1-1.284-.876 4.071 4.071 0 0 1-.912-1.344c-.224-.544-.336-1.212-.336-2.004 0-.632.124-1.248.372-1.848.256-.6.624-1.132 1.104-1.596.48-.464 1.072-.836 1.776-1.116.704-.28 1.512-.42 2.424-.42 1.024 0 1.968.16 2.832.48.864.32 1.6.768 2.208 1.344l-.804 1.524zm8.865 1.692c.912 0 1.74.148 2.484.444a5.384 5.384 0 0 1 1.92 1.26 5.492 5.492 0 0 1 1.236 1.992c.288.784.432 1.66.432 2.628 0 .976-.144 1.856-.432 2.64a5.611 5.611 0 0 1-1.236 2.004 5.307 5.307 0 0 1-1.92 1.272c-.744.296-1.572.444-2.484.444-.92 0-1.756-.148-2.508-.444a5.424 5.424 0 0 1-1.932-1.272 5.845 5.845 0 0 1-1.236-2.004c-.288-.784-.432-1.664-.432-2.64 0-.968.144-1.844.432-2.628.296-.784.708-1.448 1.236-1.992a5.504 5.504 0 0 1 1.932-1.26c.752-.296 1.588-.444 2.508-.444zm0 10.404c1.024 0 1.78-.344 2.268-1.032.496-.688.744-1.696.744-3.024s-.248-2.34-.744-3.036c-.488-.696-1.244-1.044-2.268-1.044-1.04 0-1.812.352-2.316 1.056-.496.696-.744 1.704-.744 3.024s.248 2.328.744 3.024c.504.688 1.276 1.032 2.316 1.032zm17.153-7.608c-.088.112-.176.2-.264.264-.08.064-.2.096-.36.096a.841.841 0 0 1-.444-.132 7.894 7.894 0 0 0-.516-.312c-.2-.12-.44-.224-.72-.312-.272-.096-.612-.144-1.02-.144-.52 0-.976.096-1.368.288a2.59 2.59 0 0 0-.984.804c-.256.352-.448.78-.576 1.284a6.79 6.79 0 0 0-.192 1.692c0 .656.068 1.24.204 1.752.144.512.348.944.612 1.296.264.344.584.608.96.792.376.176.8.264 1.272.264s.852-.056 1.14-.168c.296-.12.544-.248.744-.384.2-.144.372-.272.516-.384.152-.12.32-.18.504-.18.24 0 .42.092.54.276l.852 1.08a5.52 5.52 0 0 1-1.068.972 6.12 6.12 0 0 1-1.2.624c-.408.152-.832.26-1.272.324a8.832 8.832 0 0 1-1.296.096c-.76 0-1.476-.14-2.148-.42a5.143 5.143 0 0 1-1.764-1.248c-.504-.544-.904-1.208-1.2-1.992-.288-.792-.432-1.692-.432-2.7 0-.904.128-1.74.384-2.508a5.698 5.698 0 0 1 1.152-2.004 5.22 5.22 0 0 1 1.872-1.332c.744-.32 1.6-.48 2.568-.48.92 0 1.724.148 2.412.444.696.296 1.32.72 1.872 1.272l-.78 1.08zm5.83-2.604V116h-2.976v-12.312h2.976zm.408-3.588c0 .256-.052.496-.156.72-.104.224-.244.42-.42.588a1.99 1.99 0 0 1-.6.408c-.232.096-.48.144-.744.144-.256 0-.5-.048-.732-.144a2.036 2.036 0 0 1-.588-.408 2.036 2.036 0 0 1-.408-.588 1.808 1.808 0 0 1-.144-.72c0-.264.048-.512.144-.744a1.99 1.99 0 0 1 .408-.6c.168-.168.364-.3.588-.396a1.77 1.77 0 0 1 .732-.156c.264 0 .512.052.744.156.232.096.432.228.6.396.176.168.316.368.42.6.104.232.156.48.156.744zm9.118 10.644c-.856.04-1.576.116-2.16.228-.584.104-1.052.24-1.404.408-.352.168-.604.364-.756.588a1.277 1.277 0 0 0-.228.732c0 .52.152.892.456 1.116.312.224.716.336 1.212.336.608 0 1.132-.108 1.572-.324.448-.224.884-.56 1.308-1.008v-2.076zm-6.792-5.34c1.416-1.296 3.12-1.944 5.112-1.944.72 0 1.364.12 1.932.36a3.98 3.98 0 0 1 1.44.984c.392.416.688.916.888 1.5.208.584.312 1.224.312 1.92V116h-1.344c-.28 0-.496-.04-.648-.12-.152-.088-.272-.26-.36-.516l-.264-.888c-.312.28-.616.528-.912.744a5.607 5.607 0 0 1-.924.528c-.32.144-.664.252-1.032.324-.36.08-.76.12-1.2.12-.52 0-1-.068-1.44-.204a3.237 3.237 0 0 1-1.14-.636 2.828 2.828 0 0 1-.744-1.044c-.176-.416-.264-.9-.264-1.452a2.837 2.837 0 0 1 .66-1.812c.24-.28.548-.544.924-.792a5.992 5.992 0 0 1 1.38-.648 11.77 11.77 0 0 1 1.92-.444c.728-.12 1.56-.192 2.496-.216v-.72c0-.824-.176-1.432-.528-1.824-.352-.4-.86-.6-1.524-.6-.48 0-.88.056-1.2.168-.312.112-.588.24-.828.384l-.66.372a1.262 1.262 0 0 1-.648.168.878.878 0 0 1-.528-.156 1.433 1.433 0 0 1-.348-.384l-.528-.948zm15.547-1.716V116h-2.976v-12.312h2.976zm.408-3.588c0 .256-.052.496-.156.72-.104.224-.244.42-.42.588a1.99 1.99 0 0 1-.6.408c-.232.096-.48.144-.744.144-.256 0-.5-.048-.732-.144a2.036 2.036 0 0 1-.588-.408 2.036 2.036 0 0 1-.408-.588 1.808 1.808 0 0 1-.144-.72c0-.264.048-.512.144-.744a1.99 1.99 0 0 1 .408-.6c.168-.168.364-.3.588-.396a1.77 1.77 0 0 1 .732-.156c.264 0 .512.052.744.156.232.096.432.228.6.396.176.168.316.368.42.6.104.232.156.48.156.744zm10.126 5.988a.858.858 0 0 1-.252.276.697.697 0 0 1-.336.072c-.144 0-.3-.04-.468-.12a13.91 13.91 0 0 0-.564-.264 4.687 4.687 0 0 0-.744-.276 3.47 3.47 0 0 0-.972-.12c-.584 0-1.044.124-1.38.372a1.163 1.163 0 0 0-.492.972.96.96 0 0 0 .252.672c.176.176.404.332.684.468.288.136.612.26.972.372.36.104.724.22 1.092.348.376.128.744.276 1.104.444.36.16.68.368.96.624.288.248.516.548.684.9.176.352.264.776.264 1.272a4.13 4.13 0 0 1-.324 1.644c-.208.496-.52.928-.936 1.296-.416.36-.932.644-1.548.852-.608.2-1.312.3-2.112.3-.424 0-.84-.04-1.248-.12a6.782 6.782 0 0 1-2.196-.792 5.122 5.122 0 0 1-.828-.6l.684-1.128a.967.967 0 0 1 .312-.312.875.875 0 0 1 .456-.108.93.93 0 0 1 .516.156c.168.104.36.216.576.336.216.12.468.232.756.336.296.104.668.156 1.116.156.352 0 .652-.04.9-.12.256-.088.464-.2.624-.336.168-.136.288-.292.36-.468.08-.184.12-.372.12-.564 0-.288-.088-.524-.264-.708a2.162 2.162 0 0 0-.684-.48 5.908 5.908 0 0 0-.972-.36c-.36-.112-.732-.232-1.116-.36a11.992 11.992 0 0 1-1.116-.444 4.084 4.084 0 0 1-.972-.66 3.083 3.083 0 0 1-.684-.972c-.168-.384-.252-.848-.252-1.392 0-.504.1-.984.3-1.44.2-.456.492-.852.876-1.188.392-.344.876-.616 1.452-.816.584-.208 1.256-.312 2.016-.312.848 0 1.62.14 2.316.42.696.28 1.276.648 1.74 1.104l-.672 1.068z" fill="#081448"/></g><defs><radialGradient id="a" cx="0" cy="0" r="1" gradientUnits="userSpaceOnUse" gradientTransform="translate(80.851 197.989) scale(187.81)"><stop stop-color="#29A9B3"/><stop offset=".14" stop-color="#2DABB4"/><stop offset=".27" stop-color="#39AFB9"/><stop offset=".41" stop-color="#4DB8C0"/><stop offset=".55" stop-color="#6AC3CA"/><stop offset=".69" stop-color="#8ED2D7"/><stop offset=".82" stop-color="#BBE4E7"/><stop offset=".96" stop-color="#EFF8F9"/><stop offset="1" stop-color="#fff"/></radialGradient><radialGradient id="b" cx="0" cy="0" r="1" gradientUnits="userSpaceOnUse" gradientTransform="translate(198.237 49.78) scale(104.303)"><stop stop-color="#6CE6E1"/><stop offset=".1" stop-color="#5AC0BC"/><stop offset=".27" stop-color="#3F8683"/><stop offset=".44" stop-color="#285654"/><stop offset=".59" stop-color="#173130"/><stop offset=".73" stop-color="#0A1615"/><stop offset=".86" stop-color="#030606"/><stop offset=".96"/></radialGradient><filter id="c" x="82.932" y="96.168" width="152.973" height="30.024" filterUnits="userSpaceOnUse" color-interpolation-filters="sRGB"><feFlood flood-opacity="0" result="BackgroundImageFix"/><feColorMatrix in="SourceAlpha" values="0 0 0 0 0 0 0 0 0 0 0 0 0 0 0 0 0 0 127 0" result="hardAlpha"/><feOffset dy="4"/><feGaussianBlur stdDeviation="3"/><feColorMatrix values="0 0 0 0 0 0 0 0 0 0 0 0 0 0 0 0 0 0 0.1 0"/><feBlend in2="BackgroundImageFix" result="effect1_dropShadow_7770_1921"/><feColorMatrix in="SourceAlpha" values="0 0 0 0 0 0 0 0 0 0 0 0 0 0 0 0 0 0 127 0" result="hardAlpha"/><feOffset dy="2"/><feGaussianBlur stdDeviation="2"/><feColorMatrix values="0 0 0 0 0 0 0 0 0 0 0 0 0 0 0 0 0 0 0.06 0"/><feBlend in2="effect1_dropShadow_7770_1921" result="effect2_dropShadow_7770_1921"/><feBlend in="SourceGraphic" in2="effect2_dropShadow_7770_1921" result="shape"/></filter></defs></svg>