<svg width="176" height="44" viewBox="0 0 176 44" fill="none" xmlns="http://www.w3.org/2000/svg">
<g filter="url(#filter0_dd_7770_867)">
<path d="M13.008 26.384C11.8133 26.384 10.8427 26.2667 10.096 26.032C9.34933 25.8187 8.752 25.52 8.304 25.136C7.856 24.752 7.38667 24.2293 6.896 23.568L9.488 21.36C10.0427 22.0427 10.5547 22.5227 11.024 22.8C11.5147 23.056 12.176 23.184 13.008 23.184C13.9253 23.184 14.5867 23.0773 14.992 22.864C15.4187 22.6293 15.632 22.2667 15.632 21.776C15.632 21.3067 15.3653 20.944 14.832 20.688C14.32 20.432 13.3067 20.176 11.792 19.92C8.80533 19.344 7.312 17.7227 7.312 15.056C7.312 13.6907 7.856 12.6027 8.944 11.792C10.032 10.9813 11.4827 10.576 13.296 10.576C14.8107 10.576 16.0053 10.8 16.88 11.248C17.776 11.6747 18.5013 12.304 19.056 13.136L16.496 15.312C15.9413 14.7573 15.44 14.3627 14.992 14.128C14.544 13.8933 13.9787 13.776 13.296 13.776C11.9307 13.776 11.248 14.256 11.248 15.216C11.248 15.664 11.472 16.0053 11.92 16.24C12.3893 16.4747 12.976 16.656 13.68 16.784C15.0027 17.0827 16.048 17.392 16.816 17.712C17.6053 18.0107 18.256 18.4907 18.768 19.152C19.3013 19.8133 19.568 20.72 19.568 21.872C19.568 23.408 19.024 24.5493 17.936 25.296C16.848 26.0213 15.2053 26.384 13.008 26.384ZM31.4173 10.576C32.8253 10.576 34.0199 10.9173 35.0013 11.6C36.0039 12.2613 36.7506 13.1573 37.2413 14.288C37.7319 15.3973 37.9773 16.624 37.9773 17.968V18.992C37.9773 20.336 37.7319 21.5733 37.2413 22.704C36.7506 23.8133 36.0039 24.7093 35.0013 25.392C34.0199 26.0533 32.8253 26.384 31.4173 26.384C30.2013 26.384 29.2413 26.224 28.5373 25.904C27.8546 25.5627 27.2679 25.072 26.7773 24.432V33.008H22.6173V15.6C22.6173 15.024 22.4999 14.5547 22.2653 14.192C22.0519 13.8293 21.6573 13.4347 21.0813 13.008L23.8653 10.576C24.5693 10.9387 25.1239 11.3227 25.5293 11.728C25.9559 12.1333 26.2653 12.6133 26.4573 13.168C27.5453 11.44 29.1986 10.576 31.4173 10.576ZM33.8173 17.968C33.8173 16.816 33.4973 15.8347 32.8573 15.024C32.2386 14.192 31.3533 13.776 30.2013 13.776C28.4093 13.776 27.2679 14.6507 26.7773 16.4V20.56C27.2679 22.3093 28.4093 23.184 30.2013 23.184C31.3746 23.184 32.2706 22.7787 32.8893 21.968C33.5079 21.1573 33.8173 20.1653 33.8173 18.992V17.968ZM53.6933 21.36C53.6933 21.936 53.7999 22.4053 54.0133 22.768C54.2479 23.1307 54.6533 23.5253 55.2292 23.952L52.4453 26.384C51.2293 25.7653 50.3973 24.9867 49.9493 24.048C49.4799 24.7093 48.8399 25.264 48.0293 25.712C47.2186 26.16 46.2159 26.384 45.0213 26.384C43.5066 26.384 42.3013 26 41.4053 25.232C40.5093 24.4427 40.0613 23.3333 40.0613 21.904C40.0613 20.624 40.3919 19.6427 41.0533 18.96C41.7359 18.256 42.5146 17.776 43.3893 17.52C44.2639 17.264 45.2346 17.0827 46.3013 16.976L47.8373 16.816C48.4559 16.752 48.8826 16.6453 49.1173 16.496C49.3733 16.3467 49.5119 16.1013 49.5333 15.76C49.4906 15.12 49.2773 14.576 48.8933 14.128C48.5306 13.68 47.8266 13.456 46.7812 13.456C46.0986 13.456 45.5013 13.584 44.9893 13.84C44.4773 14.096 43.9546 14.512 43.4213 15.088L40.5733 13.104C41.1919 12.2933 41.9706 11.6747 42.9093 11.248C43.8479 10.8 45.1386 10.576 46.7812 10.576C51.3893 10.576 53.6933 12.4427 53.6933 16.176V21.36ZM46.0773 23.408C47.1866 23.408 48.0399 23.1413 48.6373 22.608C49.2346 22.0533 49.5333 21.3813 49.5333 20.592V19.248C49.1919 19.376 48.5413 19.4933 47.5813 19.6L46.6213 19.696C45.8959 19.76 45.2879 19.9307 44.7973 20.208C44.3066 20.464 44.0613 20.9547 44.0613 21.68C44.0613 22.2347 44.2426 22.6613 44.6053 22.96C44.9679 23.2587 45.4586 23.408 46.0773 23.408ZM64.1333 26.384C61.9146 26.384 60.2079 25.872 59.0133 24.848C57.8186 23.824 57.2213 22.3627 57.2213 20.464V16.496C57.2213 14.5973 57.8186 13.136 59.0133 12.112C60.2079 11.088 61.9146 10.576 64.1333 10.576C66.9066 10.576 68.8906 11.4187 70.0853 13.104L67.2373 15.408C66.7253 14.8107 66.2559 14.3947 65.8293 14.16C65.4026 13.904 64.8373 13.776 64.1333 13.776C63.2586 13.776 62.5759 14.0107 62.0853 14.48C61.6159 14.9493 61.3813 15.6213 61.3813 16.496V20.464C61.3813 21.3387 61.6159 22.0107 62.0853 22.48C62.5759 22.9493 63.2586 23.184 64.1333 23.184C64.8373 23.184 65.4026 23.0667 65.8293 22.832C66.2559 22.576 66.7253 22.1493 67.2373 21.552L70.0853 23.856C69.4879 24.7093 68.7199 25.3493 67.7813 25.776C66.8426 26.1813 65.6266 26.384 64.1333 26.384ZM79.1028 23.248C79.8921 23.248 80.5321 23.152 81.0228 22.96C81.5134 22.7467 82.0468 22.384 82.6228 21.872L85.0868 24.112C83.8494 25.6267 81.8548 26.384 79.1028 26.384C76.6494 26.384 74.8788 25.9253 73.7908 25.008C72.7028 24.0693 72.1588 22.5547 72.1588 20.464V15.888C72.1588 14.2453 72.7454 12.9547 73.9188 12.016C75.1134 11.056 76.7348 10.576 78.7828 10.576C80.8948 10.576 82.5481 11.088 83.7428 12.112C84.9374 13.1147 85.5348 14.5867 85.5348 16.528C85.5348 17.4667 85.4494 18.192 85.2788 18.704C85.1294 19.216 84.8201 19.6 84.3508 19.856C83.8814 20.0907 83.1988 20.208 82.3028 20.208H76.2868V20.496C76.2868 22.3307 77.2254 23.248 79.1028 23.248ZM78.7828 13.712C77.9934 13.712 77.3748 13.9467 76.9268 14.416C76.5001 14.864 76.2868 15.4613 76.2868 16.208V17.36H79.9348C80.4894 17.36 80.8734 17.2747 81.0868 17.104C81.3001 16.9333 81.4068 16.6347 81.4068 16.208C81.4068 15.3973 81.1828 14.7787 80.7348 14.352C80.2868 13.9253 79.6361 13.712 78.7828 13.712ZM105.64 10.576C107.197 10.576 108.381 11.024 109.192 11.92C110.024 12.816 110.44 14.096 110.44 15.76V26H106.28V16.144C106.28 15.4187 106.109 14.8427 105.768 14.416C105.448 13.9893 105 13.776 104.424 13.776C103.165 13.776 102.237 14.576 101.64 16.176V26H97.4798V16.144C97.4798 15.4187 97.3091 14.8427 96.9678 14.416C96.6478 13.9893 96.1998 13.776 95.6238 13.776C94.3651 13.776 93.4371 14.576 92.8398 16.176V26H88.6798V15.6C88.6798 15.024 88.5624 14.5547 88.3278 14.192C88.1144 13.8293 87.7198 13.4347 87.1438 13.008L89.9278 10.576C91.2078 11.1947 92.0504 12.0053 92.4558 13.008C93.4584 11.3867 94.9198 10.576 96.8398 10.576C97.9064 10.576 98.8024 10.8 99.5278 11.248C100.274 11.6747 100.818 12.304 101.16 13.136C102.12 11.4293 103.613 10.576 105.64 10.576ZM127.287 21.36C127.287 21.936 127.394 22.4053 127.607 22.768C127.842 23.1307 128.247 23.5253 128.823 23.952L126.039 26.384C124.823 25.7653 123.991 24.9867 123.543 24.048C123.074 24.7093 122.434 25.264 121.623 25.712C120.812 26.16 119.81 26.384 118.615 26.384C117.1 26.384 115.895 26 114.999 25.232C114.103 24.4427 113.655 23.3333 113.655 21.904C113.655 20.624 113.986 19.6427 114.647 18.96C115.33 18.256 116.108 17.776 116.983 17.52C117.858 17.264 118.828 17.0827 119.895 16.976L121.431 16.816C122.05 16.752 122.476 16.6453 122.711 16.496C122.967 16.3467 123.106 16.1013 123.127 15.76C123.084 15.12 122.871 14.576 122.487 14.128C122.124 13.68 121.42 13.456 120.375 13.456C119.692 13.456 119.095 13.584 118.583 13.84C118.071 14.096 117.548 14.512 117.015 15.088L114.167 13.104C114.786 12.2933 115.564 11.6747 116.503 11.248C117.442 10.8 118.732 10.576 120.375 10.576C124.983 10.576 127.287 12.4427 127.287 16.176V21.36ZM119.671 23.408C120.78 23.408 121.634 23.1413 122.231 22.608C122.828 22.0533 123.127 21.3813 123.127 20.592V19.248C122.786 19.376 122.135 19.4933 121.175 19.6L120.215 19.696C119.49 19.76 118.882 19.9307 118.391 20.208C117.9 20.464 117.655 20.9547 117.655 21.68C117.655 22.2347 117.836 22.6613 118.199 22.96C118.562 23.2587 119.052 23.408 119.671 23.408ZM139.591 10.576C140.7 10.576 141.639 10.8747 142.407 11.472L141.383 14.928C140.935 14.6293 140.508 14.416 140.103 14.288C139.697 14.16 139.196 14.096 138.599 14.096C137.191 14.096 136.177 15.0347 135.559 16.912V26H131.399V15.6C131.399 15.024 131.281 14.5547 131.047 14.192C130.833 13.8293 130.439 13.4347 129.863 13.008L132.647 10.576C133.372 10.96 133.948 11.3653 134.375 11.792C134.801 12.2187 135.111 12.7307 135.303 13.328C135.729 12.496 136.295 11.8347 136.999 11.344C137.703 10.832 138.567 10.576 139.591 10.576ZM158.83 26H154.574L153.166 20.944C152.995 20.3467 152.739 19.9093 152.398 19.632C152.056 19.3333 151.48 19.1413 150.67 19.056L148.59 21.168V26H144.43V7.024C144.43 6.448 144.312 5.97867 144.078 5.616C143.864 5.25333 143.47 4.85867 142.894 4.432L145.678 2C146.766 2.55467 147.523 3.19467 147.95 3.92C148.376 4.624 148.59 5.616 148.59 6.896V16.112L153.582 10.96H158.638L153.55 16.112C154.574 16.368 155.363 16.8693 155.918 17.616C156.494 18.3627 156.995 19.472 157.422 20.944L158.83 26ZM165.274 14.16V20.368C165.274 21.264 165.412 21.8933 165.69 22.256C165.967 22.6187 166.436 22.8 167.098 22.8H169.626V26H167.098C165.604 26 164.42 25.8187 163.546 25.456C162.692 25.0933 162.074 24.5067 161.69 23.696C161.306 22.8853 161.114 21.776 161.114 20.368V8.624C161.114 8.048 160.996 7.57867 160.762 7.216C160.548 6.85333 160.154 6.45867 159.578 6.032L162.362 3.6C163.45 4.15467 164.207 4.79467 164.634 5.52C165.06 6.224 165.274 7.216 165.274 8.496V10.96H169.626V14.16H165.274Z" fill="white"/>
</g>
<defs>
<filter id="filter0_dd_7770_867" x="0.895996" y="0" width="174.729" height="43.0078" filterUnits="userSpaceOnUse" color-interpolation-filters="sRGB">
<feFlood flood-opacity="0" result="BackgroundImageFix"/>
<feColorMatrix in="SourceAlpha" type="matrix" values="0 0 0 0 0 0 0 0 0 0 0 0 0 0 0 0 0 0 127 0" result="hardAlpha"/>
<feOffset dy="4"/>
<feGaussianBlur stdDeviation="3"/>
<feColorMatrix type="matrix" values="0 0 0 0 0 0 0 0 0 0 0 0 0 0 0 0 0 0 0.1 0"/>
<feBlend mode="normal" in2="BackgroundImageFix" result="effect1_dropShadow_7770_867"/>
<feColorMatrix in="SourceAlpha" type="matrix" values="0 0 0 0 0 0 0 0 0 0 0 0 0 0 0 0 0 0 127 0" result="hardAlpha"/>
<feOffset dy="2"/>
<feGaussianBlur stdDeviation="2"/>
<feColorMatrix type="matrix" values="0 0 0 0 0 0 0 0 0 0 0 0 0 0 0 0 0 0 0.06 0"/>
<feBlend mode="normal" in2="effect1_dropShadow_7770_867" result="effect2_dropShadow_7770_867"/>
<feBlend mode="normal" in="SourceGraphic" in2="effect2_dropShadow_7770_867" result="shape"/>
</filter>
</defs>
</svg>
